<svg width="190" height="106" viewBox="0 0 190 106" fill="none" xmlns="http://www.w3.org/2000/svg">
<path d="M60.2099 99.347V104.664H59.5674V99.347H60.2099ZM63.0823 99.347L60.7768 101.836L63.1957 104.664H62.402L60.0209 101.874L62.2886 99.3847H63.0823V99.347Z" fill="white"/>
<path d="M69.1294 104.627H68.4869V99.9503H66.1436V102.816C66.1436 103.156 66.1058 103.457 65.9924 103.721C65.879 103.985 65.7657 104.212 65.5389 104.4C65.3499 104.551 65.0854 104.664 64.8208 104.664V104.099C64.9342 104.099 65.0476 104.061 65.1232 103.985C65.1988 103.91 65.2743 103.797 65.3499 103.684C65.4255 103.571 65.4633 103.42 65.5011 103.231C65.5389 103.043 65.5389 102.854 65.5389 102.666V99.347H69.1294V104.627Z" fill="white"/>
<path d="M73.0601 104.627H72.342L73.0222 103.043L71.2837 99.3092H72.0774L73.627 102.854L73.2112 102.816L74.8364 99.2715H75.5545L73.0601 104.627Z" fill="white"/>
<path d="M80.5055 99.347V99.9503H78.3134V104.627H77.6709V99.3092H80.5055V99.347ZM78.0488 101.459H79.1449C79.485 101.459 79.7874 101.534 80.052 101.647C80.3165 101.76 80.5433 101.949 80.6945 102.213C80.8456 102.439 80.9212 102.741 80.9212 103.043C80.9212 103.382 80.8456 103.646 80.6945 103.872C80.5433 104.099 80.3165 104.287 80.052 104.438C79.7874 104.551 79.485 104.627 79.1449 104.627H78.0488V104.023H79.1449C79.3717 104.023 79.5606 103.985 79.7496 103.91C79.9386 103.835 80.052 103.721 80.1653 103.571C80.2787 103.42 80.3165 103.231 80.3165 103.043C80.3165 102.854 80.2787 102.628 80.1653 102.515C80.052 102.402 79.9386 102.251 79.7496 102.175C79.5606 102.1 79.3717 102.062 79.1449 102.062H78.0488V101.459Z" fill="white"/>
<path d="M83.9828 99.347V104.664H83.3403V99.347H83.9828ZM83.7183 101.459H87.3466V102.062H83.7183V101.459ZM87.5733 99.347V104.664H86.9308V99.347H87.5733Z" fill="white"/>
<path d="M90.9369 99.347V104.664H90.2944V99.347H90.9369ZM90.6346 101.459H91.7306C92.0708 101.459 92.3731 101.534 92.6377 101.647C92.9022 101.76 93.129 101.949 93.2802 102.213C93.4314 102.439 93.507 102.741 93.507 103.043C93.507 103.382 93.4314 103.646 93.2802 103.872C93.129 104.099 92.9022 104.287 92.6377 104.438C92.3731 104.551 92.0708 104.627 91.7306 104.627H90.6346V104.023H91.7306C91.9574 104.023 92.1464 103.985 92.3354 103.91C92.5243 103.835 92.6377 103.721 92.7511 103.571C92.8645 103.42 92.9023 103.231 92.9023 103.043C92.9023 102.854 92.8645 102.628 92.7511 102.515C92.6377 102.402 92.5243 102.251 92.3354 102.175C92.1464 102.1 91.9574 102.062 91.7306 102.062H90.6346V101.459ZM94.8676 99.347V104.664H94.2251V99.347H94.8676Z" fill="white"/>
<path d="M97.6265 104.89L97.6643 103.91L102.275 99.083L102.237 100.063L97.6265 104.89ZM98.269 104.061L97.6265 104.89V99.3092H98.269V104.061ZM99.4784 97.7631C99.4784 97.8385 99.4784 97.9139 99.5162 97.9893C99.554 98.0648 99.6296 98.1402 99.7052 98.2156C99.8186 98.291 99.9319 98.3288 100.121 98.3288C100.31 98.3288 100.423 98.291 100.537 98.2156C100.65 98.1402 100.688 98.0648 100.726 97.9893C100.763 97.9139 100.763 97.8385 100.763 97.7631H101.293C101.293 97.9516 101.255 98.1025 101.141 98.2533C101.066 98.4042 100.915 98.555 100.726 98.6681C100.537 98.7813 100.31 98.819 100.045 98.819C99.7807 98.819 99.554 98.7813 99.365 98.6681C99.176 98.555 99.0627 98.4419 98.9493 98.2533C98.8737 98.1025 98.7981 97.9139 98.7981 97.7631H99.4784ZM102.275 104.627H101.633V99.9126L102.275 99.083V104.627Z" fill="white"/>
<path d="M109.078 104.627V105.456H108.511V104.023H113.916V105.456H113.349V104.627H109.078ZM109.721 104.4H109.04L111.195 99.0452L113.349 104.4H112.669L111.195 100.516L109.721 104.4Z" fill="white"/>
<path d="M116.033 100.893C116.184 100.554 116.373 100.29 116.6 100.026C116.826 99.7995 117.129 99.5732 117.469 99.4601C117.809 99.3092 118.149 99.2338 118.527 99.2338C118.905 99.2338 119.283 99.3092 119.585 99.4601C119.925 99.6109 120.19 99.7995 120.455 100.026C120.681 100.252 120.87 100.554 121.021 100.893C121.173 101.233 121.21 101.572 121.21 101.987C121.21 102.364 121.135 102.741 121.021 103.08C120.87 103.42 120.681 103.721 120.455 103.948C120.228 104.174 119.925 104.4 119.585 104.513C119.245 104.664 118.905 104.74 118.527 104.74C118.149 104.74 117.771 104.664 117.469 104.513C117.129 104.363 116.864 104.174 116.6 103.948C116.373 103.721 116.184 103.42 116.033 103.08C115.881 102.741 115.844 102.402 115.844 101.987C115.806 101.61 115.881 101.233 116.033 100.893ZM116.751 103.043C116.94 103.344 117.166 103.608 117.469 103.797C117.771 103.985 118.111 104.061 118.489 104.061C118.867 104.061 119.207 103.985 119.51 103.797C119.812 103.608 120.039 103.382 120.228 103.043C120.417 102.741 120.492 102.364 120.492 101.987C120.492 101.572 120.417 101.232 120.228 100.931C120.039 100.629 119.812 100.365 119.51 100.177C119.207 99.988 118.867 99.9126 118.489 99.9126C118.111 99.9126 117.771 99.988 117.469 100.177C117.166 100.365 116.94 100.591 116.751 100.931C116.562 101.232 116.486 101.61 116.486 101.987C116.486 102.364 116.6 102.741 116.751 103.043Z" fill="white"/>
<path d="M123.97 104.627H123.327L123.97 99.0452L126.086 102.892L128.203 99.0452L128.845 104.627H128.203L127.825 101.044L126.086 104.136L124.348 101.044L123.97 104.627Z" fill="white"/>
<path d="M162.369 101.76H136.064V102.213H162.369V101.76Z" fill="white"/>
<path d="M53.558 101.76H27.2529V102.213H53.558V101.76Z" fill="white"/>
<path d="M56.4683 18.5698L58.547 16.9859V57.9779H56.4683V18.5698Z" fill="white"/>
<path d="M63.4981 13.7805V57.9779H61.4194V52.2835H62.4399V24.7167L61.4194 25.5086V15.3643L63.4981 13.7805Z" fill="white"/>
<path d="M68.4493 10.575V57.9779H66.3706V52.2835H67.4289V21.5112L66.3706 22.3032V12.1966L68.4493 10.575Z" fill="white"/>
<path d="M73.4381 7.36957V57.9779H71.3594V52.2835H72.3798V18.3058L71.3594 19.0977V8.95344L73.4381 7.36957Z" fill="white"/>
<path d="M78.3893 4.16413V57.9779H76.3105V52.2835H77.3688V15.1003L76.3105 15.8923V5.748L78.3893 4.16413Z" fill="white"/>
<path d="M83.378 0.958684V57.9779H81.2993V52.2835H82.3198V11.8949L81.2993 12.6868V2.54255L83.378 0.958684Z" fill="white"/>
<path d="M88.4802 1.52435V57.9779H86.0991V52.2835H87.2707V11.1784L86.0991 10.6881V0.543859L88.4802 1.52435Z" fill="white"/>
<path d="M93.4695 3.52303V57.9779H91.0884V52.2835H92.26V13.1394L91.0884 12.6491V2.50484L93.4695 3.52303Z" fill="white"/>
<path d="M98.4201 5.48402V57.9779H96.0391V52.2835H97.2107V15.1381L96.0391 14.6478V4.50352L98.4201 5.48402Z" fill="white"/>
<path d="M103.372 7.4827V57.9779H101.028V52.2835H102.2V17.1367L101.028 16.6465V6.50222L103.372 7.4827Z" fill="white"/>
<path d="M108.361 9.48139V57.9779H105.979V52.2835H107.151V19.0977L105.979 18.6075V8.5009L108.361 9.48139Z" fill="white"/>
<path d="M113.311 11.4424V57.9779H110.93V52.2835H112.14V21.0964L110.93 20.6062V10.4619L113.311 11.4424Z" fill="white"/>
<path d="M118.301 13.4411V57.9779H115.919V52.2835H117.091V23.0951L115.919 22.6049V12.4606L118.301 13.4411Z" fill="white"/>
<path d="M123.252 15.4397V57.9779H120.871V52.2835H122.08V25.0561L120.871 24.5658V14.4593L123.252 15.4397Z" fill="white"/>
<path d="M128.24 17.4007V57.9779H125.859V52.2835H127.031V27.0548L125.859 26.5645V16.4202L128.24 17.4007Z" fill="white"/>
<path d="M130.811 18.4189L133.192 19.3994V57.9779H130.811V18.4189Z" fill="white"/>
<path d="M0.532227 72.4589H2.23299L6.76835 72.4212C9.33838 72.4212 11.4549 74.533 11.4549 77.0974C11.4549 78.7944 10.5478 80.2651 9.1872 81.0948C11.6439 81.3211 13.5714 83.3951 13.5714 85.8841C13.5714 88.5616 11.4171 90.6734 8.73366 90.6734H0.570012C0.570012 90.6734 1.32591 90.2586 1.4015 89.8437C1.51488 88.5993 1.66607 85.9595 1.66607 81.5473C1.66607 77.1728 1.62827 74.3822 1.4015 73.2132C1.32591 72.8738 0.532227 72.4589 0.532227 72.4589ZM5.55891 73.2132C5.10538 73.2132 4.61405 73.2509 4.12272 73.2509C4.04713 74.4953 3.85815 77.2483 3.82035 81.0194H5.89906C7.90218 81.0194 9.56515 79.0961 9.56515 77.0974C9.56515 75.0987 8.01556 73.2886 6.05024 73.2132H5.55891ZM7.93997 81.849C7.29746 81.8113 6.46599 81.8113 5.59671 81.8113C4.99199 81.8113 4.38728 81.849 3.85815 81.849C3.85815 85.9218 4.00934 88.5239 4.12272 89.7683C5.36994 89.8438 6.80614 89.9946 7.82659 89.9946C9.9053 89.9946 11.6061 87.9959 11.6061 85.9218C11.6061 83.8477 9.98088 81.9621 7.93997 81.849Z" fill="white"/>
<path d="M16.5194 81.585C16.5194 77.4745 16.406 74.533 16.217 73.2509C16.1414 72.836 15.4233 72.4966 15.4233 72.4966H19.8075C19.8075 72.4966 19.0516 72.7983 19.0138 73.2509C18.9382 74.4953 18.7493 77.286 18.7115 81.0571L23.587 81.0948C26.2704 81.0948 28.4247 83.2443 28.4247 85.9218C28.4247 88.5993 26.2704 90.7488 23.587 90.7488L17.2753 90.7865H15.4233C15.4233 90.7865 16.217 90.334 16.2548 89.9192C16.3304 88.637 16.5194 85.9595 16.5194 81.585ZM22.1886 81.8113C21.1681 81.8113 19.8075 81.8867 18.7115 81.9621C18.7115 85.9595 18.8627 88.4861 18.976 89.7306C20.2233 89.806 21.6972 89.9192 22.7177 89.9192C24.7964 89.9192 26.4972 87.9205 26.4972 85.8464C26.4972 83.7723 24.872 81.8867 22.7933 81.8113C22.6043 81.849 22.4153 81.8113 22.1886 81.8113ZM34.2451 90.6734H29.3318C29.3318 90.6734 30.39 89.9192 30.4656 89.1272C30.579 87.6188 30.6924 83.2066 30.6924 79.3601C30.6924 76.9843 30.6546 74.8724 30.5412 73.8165C30.4656 73.0246 29.4074 72.4589 29.4074 72.4589H34.2829C34.2829 72.4589 33.2246 72.8361 33.149 73.7411C32.9979 75.2119 32.8845 77.927 32.8845 81.5473C32.8845 85.3184 32.9979 87.8828 33.1112 89.2781C33.1868 90.2209 34.2451 90.6734 34.2451 90.6734Z" fill="white"/>
<path d="M36.3613 72.4589H44.0714C46.4903 72.4212 48.1533 72.2327 48.1533 72.2327C48.1533 72.2327 47.8887 73.4017 47.7753 74.3068C47.6241 75.4758 47.6241 77.5122 47.6241 77.5122C47.6241 77.5122 46.6793 73.2132 43.9203 73.2132H39.9518C39.8762 74.4576 39.6873 77.2105 39.6495 81.0194L44.525 81.0571C47.2084 81.0571 49.3627 83.2066 49.3627 85.8464C49.3627 88.5239 47.2084 90.6734 44.525 90.6734H36.3613C36.3991 90.6357 37.1172 90.4094 37.1928 89.8437C37.344 88.7878 37.4952 85.8841 37.4952 81.5473C37.4952 77.4368 37.2684 74.4199 37.1928 73.1377C37.1172 72.7229 36.3613 72.4589 36.3613 72.4589ZM43.1266 81.849C42.1061 81.849 40.7455 81.9244 39.6495 81.9998C39.6495 85.9595 39.8006 88.4861 39.914 89.7306C41.1612 89.806 42.5975 89.9192 43.6179 89.9192C45.6966 89.9192 47.3974 87.9205 47.3974 85.8464C47.3974 83.7723 45.81 81.9244 43.7313 81.849C43.5801 81.8867 43.3533 81.849 43.1266 81.849Z" fill="white"/>
<path d="M70.3767 79.3978C69.3941 74.8725 65.35 71.7801 60.8903 71.7801C60.1722 71.7801 59.4919 71.8556 58.8116 72.0064C54.9187 72.836 51.2148 76.8711 51.2148 81.6227C51.2148 82.2261 51.2526 82.8672 51.4416 83.546C52.4621 88.5616 56.2793 91.1636 60.5879 91.1636C61.3816 91.1636 62.1375 91.0882 62.969 90.8997C67.5043 89.9192 70.6035 85.9218 70.6035 81.4719C70.6035 80.7931 70.5279 80.0766 70.3767 79.3978ZM68.1091 84.1494C67.7311 86.7514 65.6524 89.165 62.78 89.806C62.3265 89.9192 61.8352 89.9569 61.3816 89.9569C58.9628 89.9569 56.6573 88.6747 55.4856 86.8646C54.9187 85.9595 54.1628 84.4134 53.8605 82.9803C53.6715 82.1884 53.5959 81.321 53.5959 80.4914C53.5959 79.7749 53.6715 79.0584 53.7849 78.4173C54.2762 76.0038 56.3549 73.628 59.1139 73.0246C59.5675 72.9115 60.0588 72.8738 60.5123 72.8738C62.78 72.8738 64.9343 74.0805 66.2193 75.7398C67.0886 76.8334 67.6933 78.3796 68.0335 79.9257C68.1846 80.6422 68.2602 81.4342 68.2602 82.1884C68.2602 82.9049 68.1846 83.6214 68.1091 84.1494Z" fill="white"/>
<path d="M75.7056 81.7736V82.7164C75.7056 86.5629 75.8568 89.0141 76.008 89.9946C76.0458 90.4471 76.8017 90.7111 76.8017 90.7111H72.4175C72.4175 90.7111 73.1734 90.334 73.249 89.9192C73.3246 88.7124 73.5135 85.9972 73.5135 81.585C73.5135 77.2105 73.3623 74.3822 73.1734 73.0246C73.1356 72.7229 72.4175 72.4589 72.4175 72.4589H74.1182L78.6158 72.4212C81.1858 72.4212 83.3024 74.533 83.3024 77.0974C83.3024 79.6618 81.2236 81.7359 78.6536 81.7359L75.7056 81.7736ZM77.4064 73.2132C76.9528 73.2132 76.4615 73.2131 76.0458 73.2509C75.9702 74.4953 75.7812 77.286 75.7434 81.0194H77.8221C79.8252 81.0194 81.4882 79.0961 81.4882 77.1351C81.4882 75.1364 79.9386 73.3263 77.9733 73.2509L77.4064 73.2132Z" fill="white"/>
<path d="M107.907 90.6734H103.031C103.031 90.6734 103.976 90.4094 104.127 89.5044C104.241 88.1468 104.392 85.5447 104.392 81.5473C104.392 77.8893 104.165 74.2314 104.052 73.4017C103.787 73.2132 101.822 73.1755 100.197 73.1755C98.4583 73.1755 96.5308 73.1755 96.2662 73.364C96.0394 74.6462 95.926 77.927 95.926 81.5096C95.926 85.4316 96.0772 87.9959 96.1906 89.3535C96.2662 90.1077 97.2867 90.598 97.2867 90.598H92.4111C92.4111 90.598 93.4316 90.1454 93.5072 89.3158C93.5828 88.5616 93.7718 85.6578 93.7718 82.0753V81.4719C93.734 77.8139 93.6206 75.061 93.5072 73.628C93.4316 72.6475 92.4111 72.3835 92.4111 72.3835H107.907C107.831 72.4589 106.887 72.9869 106.811 73.628C106.66 75.0987 106.546 77.8893 106.546 81.4719C106.546 85.3939 106.66 87.9582 106.773 89.3158C106.849 90.1832 107.907 90.6734 107.907 90.6734Z" fill="white"/>
<path d="M111.081 81.5473C111.081 77.4745 110.892 74.5707 110.779 73.2509C110.741 72.836 109.985 72.4966 109.985 72.4966H118.754C121.135 72.4966 122.873 72.195 122.873 72.195C122.873 72.195 122.609 73.3263 122.458 74.2691C122.306 75.4381 122.306 77.4745 122.306 77.4745C122.306 77.4745 121.362 73.2509 118.603 73.2509H113.576C113.462 74.533 113.311 77.3614 113.273 81.2079L116.788 81.1702C118.754 81.1325 119.207 79.9257 119.207 79.9257V83.282C119.207 83.282 118.678 82.0753 116.826 81.9998H113.311C113.349 86.2989 113.538 88.901 113.614 89.9946H118.678C121.399 89.9569 122.344 85.6955 122.344 85.6955C122.344 85.6955 122.382 87.7696 122.495 88.901C122.647 89.8437 122.911 90.9751 122.911 90.9751C122.911 90.9751 121.173 90.6734 118.792 90.6734H110.023C110.023 90.6734 110.779 90.2586 110.855 89.8437C110.892 88.7124 111.081 86.1103 111.081 81.5473Z" fill="white"/>
<path d="M128.24 81.7736V82.7164C128.24 86.5629 128.391 89.0141 128.543 89.9946C128.58 90.4471 129.336 90.7111 129.336 90.7111H124.952C124.952 90.7111 125.708 90.334 125.784 89.9192C125.859 88.7124 126.048 85.9972 126.048 81.585C126.048 77.2105 125.897 74.3822 125.708 73.0246C125.67 72.7229 124.952 72.4589 124.952 72.4589H126.653L131.15 72.4212C133.72 72.4212 135.837 74.533 135.837 77.0974C135.837 79.6618 133.758 81.7359 131.188 81.7359L128.24 81.7736ZM129.903 73.2132C129.45 73.2132 128.958 73.2131 128.543 73.2509C128.467 74.4953 128.278 77.286 128.24 81.0194H130.319C132.322 81.0194 133.985 79.0961 133.985 77.1351C133.985 75.1364 132.435 73.3263 130.47 73.2509L129.903 73.2132Z" fill="white"/>
<path d="M137.954 72.4589H139.654L144.19 72.4212C146.76 72.4212 148.876 74.533 148.876 77.0974C148.876 78.7944 147.969 80.2651 146.609 81.0948C149.065 81.3211 150.993 83.3951 150.993 85.8841C150.993 88.5616 148.838 90.6734 146.155 90.6734H137.991C137.991 90.6734 138.747 90.2586 138.823 89.8437C138.936 88.5993 139.087 85.9595 139.087 81.5473C139.087 77.1728 139.05 74.3822 138.823 73.2132C138.747 72.8738 137.954 72.4589 137.954 72.4589ZM142.943 73.2132C142.489 73.2132 141.998 73.2509 141.506 73.2509C141.431 74.4953 141.242 77.2483 141.204 81.0194H143.283C145.286 81.0194 146.949 79.0961 146.949 77.0974C146.949 75.0987 145.399 73.2886 143.434 73.2132H142.943ZM145.324 81.849C144.681 81.8113 143.85 81.8113 142.98 81.8113C142.376 81.8113 141.771 81.849 141.242 81.849C141.242 85.9218 141.393 88.5239 141.506 89.7683C142.754 89.8438 144.19 89.9946 145.21 89.9946C147.289 89.9946 148.99 87.9959 148.99 85.9218C148.99 83.8477 147.402 81.9621 145.324 81.849Z" fill="white"/>
<path d="M153.941 81.585C153.941 77.4745 153.827 74.533 153.638 73.2509C153.563 72.836 152.845 72.4966 152.845 72.4966H157.229C157.229 72.4966 156.473 72.7983 156.435 73.2509C156.36 74.4953 156.171 77.286 156.133 81.0571L161.008 81.0948C163.692 81.0948 165.846 83.2443 165.846 85.9218C165.846 88.5993 163.692 90.7488 161.008 90.7488L154.697 90.7865H152.845C152.845 90.7865 153.638 90.334 153.676 89.9192C153.752 88.637 153.941 85.9595 153.941 81.585ZM159.572 81.8113C158.552 81.8113 157.191 81.8867 156.095 81.9621C156.095 85.9595 156.246 88.4861 156.36 89.7306C157.607 89.806 159.081 89.9192 160.101 89.9192C162.18 89.9192 163.881 87.9205 163.881 85.8464C163.881 83.7723 162.256 81.8867 160.177 81.8113C160.026 81.849 159.799 81.8113 159.572 81.8113ZM171.629 90.6734H166.715C166.715 90.6734 167.774 89.9192 167.849 89.1272C167.963 87.6188 168.076 83.2066 168.076 79.3601C168.076 76.9843 168.038 74.8724 167.925 73.8165C167.849 73.0246 166.791 72.4589 166.791 72.4589H171.666C171.666 72.4589 170.608 72.8361 170.533 73.7411C170.381 75.2119 170.268 77.927 170.268 81.5473C170.268 85.3184 170.381 87.8828 170.495 89.2781C170.608 90.2209 171.629 90.6734 171.629 90.6734Z" fill="white"/>
<path d="M185.197 89.6552C185.197 89.5421 185.159 89.4289 185.121 89.3158C184.441 87.8451 183.156 85.243 181.342 81.7736L176.958 89.3912C176.844 89.5798 176.807 89.7306 176.807 89.8815C176.807 90.4471 177.487 90.7111 177.487 90.7111H173.708C173.708 90.7111 174.841 90.4471 175.635 89.2404C176.618 87.7319 180.662 81.0571 180.813 80.8308C178.81 77.1351 177.336 74.6839 176.58 73.4394C176.126 72.7606 175.181 72.4212 175.181 72.4212H179.944C179.944 72.4212 179.301 72.6098 179.301 73.2132C179.301 73.364 179.339 73.5149 179.415 73.6657C179.868 74.6839 180.7 76.3809 181.947 78.8321C183.383 76.3432 184.29 74.6462 184.744 73.7411C184.819 73.5903 184.857 73.4394 184.857 73.2886C184.857 72.6475 184.025 72.4212 184.025 72.4212H187.729C187.729 72.4212 186.558 72.7606 185.915 73.7034L182.438 79.7749C182.74 80.3406 183.043 80.9062 183.383 81.5473C185.31 85.1676 186.936 87.9205 187.843 89.3912C188.41 90.334 189.317 90.6734 189.317 90.6734H184.403C184.441 90.7111 185.197 90.2586 185.197 89.6552Z" fill="white"/>
<path d="M63.6869 81.6227C62.1373 81.6227 60.8901 82.8672 60.8901 84.4133C60.8901 82.8672 59.6428 81.6227 58.0933 81.6227C59.6428 81.6227 60.8901 80.3783 60.9279 78.8321C60.8901 80.3783 62.1373 81.6227 63.6869 81.6227Z" fill="white"/>
</svg>
