<svg width="117" height="89" viewBox="0 0 117 89" fill="none" xmlns="http://www.w3.org/2000/svg">
<path d="M43.1786 0L0 28.5097V89H117V29.7832L43.1786 0ZM3.18953 80.2526V42.0158L9.16494 38.0969V80.2526H3.18953ZM10.7528 80.2526V37.0612L16.7422 33.1282V80.2526H10.7528ZM18.3299 80.2526V32.0785L24.3192 28.1598V80.2526H18.3299ZM25.9071 80.2526V27.0681L31.8825 23.1491V80.2105L25.9071 80.2526ZM33.4842 80.2526V22.1415L37.8856 19.2584L39.4875 18.2087V80.2526H33.4842ZM41.0614 80.2526V17.173L43.4152 15.6193L47.0368 17.0189V80.1825L41.0614 80.2526ZM48.8614 80.2526V17.8168L54.6139 20.1401V80.3226L48.8614 80.2526ZM56.4386 80.2526V20.8678L62.1911 23.1912V80.2526H56.4386ZM64.0157 80.2526V23.933L69.7821 26.2564V80.2526H64.0157ZM71.5789 80.2526V26.984L77.3452 29.3074V80.2526H71.5789ZM79.156 80.2526V30.0352L84.9364 32.3726V80.2526H79.156ZM86.7332 80.2526V33.0864L92.4857 35.4236V80.2105L86.7332 80.2526ZM94.3103 80.2526V36.1514L100.077 38.4888V80.2526H94.3103ZM101.888 80.2526V39.2026L107.64 41.5258V80.2526H101.888ZM113.406 80.2526H109.465V42.2536L113.406 43.8492V80.2526Z" fill="url(#paint0_linear_599_3414)"/>
<defs>
<linearGradient id="paint0_linear_599_3414" x1="58.5279" y1="98.6432" x2="58.5279" y2="2.70121" gradientUnits="userSpaceOnUse">
<stop stop-color="#C4A27A"/>
<stop offset="1" stop-color="#DBBC9A"/>
</linearGradient>
</defs>
</svg>
