<svg width="213" height="58" fill="none" xmlns="http://www.w3.org/2000/svg"><g clip-path="url(#a)" fill="#fff"><path d="m28.994 28.182-11.037-6.92v8.325l11.037 6.923 26.418-19.476a29.112 29.112 0 0 0-3.474-5.757L28.994 28.182Z"/><path d="M57.987 29c.001-1.742-.154-3.48-.464-5.195l-6.242 4.606v.595A22.324 22.324 0 0 1 34.347 50.69 22.312 22.312 0 0 1 9.234 39.456a22.326 22.326 0 0 1 4.87-27.08 22.314 22.314 0 0 1 27.452-1.779l5.639-4.156A28.988 28.988 0 0 0 .752 22.47a29.004 29.004 0 0 0 15.62 32.648A28.986 28.986 0 0 0 51.656 47.1a29.002 29.002 0 0 0 6.33-18.1ZM168.883 17.36l7.882-5.809h-26.38v34.9h26.38v-5.812h-18.851v-8.935h16.081v-5.811h-16.081V17.36h10.969ZM130.47 25.156h-9.161v-7.794h14.636l7.882-5.81h-30.046V46.45H129.5c8.826 0 13.874-3.996 13.874-10.962 0-6.664-4.582-10.333-12.904-10.333Zm-1.31 15.483h-7.851v-9.674h7.851c4.779 0 7.005 1.62 7.005 4.838 0 3.288-2.356 4.837-7.005 4.837ZM198.14 11.551h-14.364v34.9h7.529v-9.886h6.835c9.165 0 14.86-4.82 14.86-12.524 0-7.703-5.695-12.49-14.86-12.49Zm-.162 19.203h-6.673V17.362h6.673c4.824 0 7.483 2.378 7.483 6.696s-2.659 6.696-7.483 6.696ZM100.857 38.895a13.476 13.476 0 0 1-6.5 1.627c-6.787 0-11.705-4.845-11.705-11.514 0-6.67 4.928-11.515 11.704-11.515a11.474 11.474 0 0 1 6.848 2.144l5.402-3.98-.357-.316c-3.153-2.769-7.366-4.233-12.182-4.233-5.227 0-9.977 1.762-13.352 4.963-3.376 3.2-5.283 7.747-5.283 12.752 0 5.005 1.87 9.625 5.263 12.941 3.395 3.316 8.136 5.16 13.324 5.16 5.426 0 10.169-1.892 13.379-5.336l-4.874-3.591-1.667.898Z"/></g><defs><clipPath id="a"><path fill="#fff" d="M0 0h213v58H0z"/></clipPath></defs></svg>