<svg width="225" height="122" fill="none" xmlns="http://www.w3.org/2000/svg"><path d="m67.28 21.306 2.467-1.872v48.45h-2.466V21.306ZM75.622 15.645v52.239h-2.467v-6.73h1.211V28.57l-1.21.936v-11.99l2.466-1.872ZM81.497 11.856v56.028H79.03v-6.73h1.256V24.781l-1.256.936V13.773l2.467-1.917ZM87.416 8.067v59.816H84.95v-6.73h1.21v-40.16l-1.21.936V9.94l2.466-1.872ZM93.29 4.279v63.604h-2.466v-6.73h1.256V17.205l-1.256.936V6.15l2.467-1.872ZM99.21.49v67.394h-2.466v-6.73h1.21V13.415l-1.21.936V2.362L99.21.49ZM105.264 1.159v66.725h-2.825v-6.73h1.39V12.568l-1.39-.58V0l2.825 1.159ZM111.184 3.521v64.363h-2.826v-6.73h1.391V14.886l-1.391-.58V2.318l2.826 1.204ZM117.059 5.84v62.044h-2.826v-6.73h1.391V17.25l-1.391-.58V4.68l2.826 1.16ZM122.933 8.201v59.683h-2.78v-6.73h1.39V19.611l-1.39-.58V7.042l2.78 1.16ZM128.853 10.564v57.32h-2.826v-6.73h1.391V21.93l-1.391-.58V9.405l2.826 1.159ZM134.728 12.882v55.002h-2.826v-6.73h1.435V24.291l-1.435-.58v-11.99l2.826 1.16ZM140.647 15.244v52.64h-2.825v-6.73h1.39v-34.5l-1.39-.58V14.086l2.825 1.159ZM146.521 17.606v50.278h-2.825v-6.73h1.435V28.971l-1.435-.58V16.448l2.825 1.16ZM152.441 19.924v47.96h-2.825v-6.73h1.39v-29.82l-1.39-.579v-11.99l2.825 1.159ZM155.491 21.127l2.825 1.16v45.597h-2.825V21.127ZM.91 85h2.018l5.382-.045c3.05 0 5.56 2.496 5.56 5.526 0 2.006-1.076 3.745-2.69 4.725 2.915.268 5.202 2.72 5.202 5.661 0 3.164-2.556 5.661-5.74 5.661H.955s.897-.491.987-.981c.134-1.471.314-4.591.314-9.806 0-5.17-.045-8.469-.314-9.85-.09-.402-1.032-.892-1.032-.892Zm5.965.89c-.538 0-1.121.045-1.704.045-.09 1.471-.314 4.725-.36 9.182h2.467c2.377 0 4.35-2.273 4.35-4.636 0-2.362-1.838-4.501-4.17-4.59h-.583ZM9.7 96.099c-.762-.045-1.749-.045-2.78-.045-.718 0-1.435.045-2.063.045 0 4.813.18 7.889.314 9.36 1.48.089 3.184.267 4.394.267 2.467 0 4.485-2.362 4.485-4.814 0-2.451-1.928-4.68-4.35-4.813ZM19.88 95.785c0-4.858-.135-8.334-.359-9.85-.09-.49-.942-.891-.942-.891h5.202s-.896.356-.941.891c-.09 1.47-.314 4.77-.36 9.227l5.786.044c3.184 0 5.74 2.54 5.74 5.705s-2.556 5.706-5.74 5.706l-7.49.044H18.58s.942-.535.987-1.025c.09-1.515.314-4.68.314-9.85Zm6.727.268c-1.211 0-2.826.09-4.126.178 0 4.725.18 7.711.314 9.182 1.48.089 3.229.223 4.44.223 2.466 0 4.484-2.362 4.484-4.814 0-2.451-1.928-4.68-4.395-4.77-.224.045-.448 0-.717 0Zm14.305 10.474h-5.83s1.256-.891 1.346-1.827c.134-1.783.269-6.998.269-11.544 0-2.808-.045-5.304-.18-6.552-.09-.936-1.345-1.605-1.345-1.605h5.785s-1.256.446-1.345 1.516c-.18 1.738-.314 4.947-.314 9.226 0 4.457.134 7.488.269 9.137.09 1.115 1.345 1.649 1.345 1.649ZM43.423 84.999h9.149c2.87-.045 4.843-.268 4.843-.268s-.314 1.382-.448 2.452c-.18 1.382-.18 3.789-.18 3.789s-1.121-5.082-4.395-5.082h-4.708c-.09 1.471-.314 4.725-.36 9.227l5.786.044c3.184 0 5.74 2.541 5.74 5.661 0 3.165-2.556 5.705-5.74 5.705h-9.687c.045-.044.897-.312.987-.98.18-1.248.359-4.68.359-9.806 0-4.859-.27-8.424-.36-9.94-.089-.49-.986-.802-.986-.802Zm8.028 11.098c-1.211 0-2.826.09-4.126.179 0 4.68.18 7.666.314 9.137 1.48.089 3.184.223 4.395.223 2.466 0 4.484-2.363 4.484-4.814s-1.883-4.636-4.35-4.725c-.18.045-.448 0-.717 0ZM83.784 93.2c-1.166-5.348-5.965-9.003-11.256-9.003-.852 0-1.66.089-2.467.267-4.619.98-9.014 5.75-9.014 11.366 0 .713.045 1.471.27 2.273 1.21 5.928 5.74 9.004 10.852 9.004.942 0 1.838-.089 2.825-.312 5.382-1.159 9.059-5.884 9.059-11.143 0-.802-.09-1.65-.27-2.452Zm-2.691 5.617c-.448 3.075-2.915 5.928-6.323 6.685a6.993 6.993 0 0 1-1.66.179c-2.87 0-5.605-1.516-6.995-3.655-.673-1.07-1.57-2.897-1.928-4.591-.225-.936-.314-1.962-.314-2.942 0-.847.09-1.694.224-2.451.583-2.853 3.05-5.661 6.323-6.374a7.004 7.004 0 0 1 1.66-.179c2.69 0 5.246 1.427 6.77 3.388 1.032 1.293 1.75 3.12 2.153 4.947.18.847.27 1.783.27 2.675 0 .847-.09 1.694-.18 2.318ZM90.107 96.008v1.115c0 4.546.179 7.443.358 8.602.045.535.942.847.942.847h-5.202s.897-.446.987-.936c.09-1.426.314-4.635.314-9.85 0-5.17-.18-8.514-.404-10.118-.045-.357-.897-.669-.897-.669h2.018l5.337-.044c3.05 0 5.56 2.496 5.56 5.526 0 3.031-2.466 5.483-5.516 5.483l-3.497.044Zm2.018-10.117c-.538 0-1.121 0-1.615.044-.09 1.471-.314 4.77-.359 9.182h2.467c2.377 0 4.35-2.273 4.35-4.59 0-2.363-1.839-4.503-4.17-4.592l-.673-.044ZM128.315 106.528h-5.785s1.121-.312 1.3-1.382c.135-1.605.314-4.68.314-9.405 0-4.323-.269-8.647-.404-9.627-.313-.223-2.645-.268-4.574-.268-2.063 0-4.35 0-4.664.223-.269 1.516-.403 5.393-.403 9.628 0 4.635.179 7.666.314 9.271.089.891 1.3 1.471 1.3 1.471h-5.785s1.211-.535 1.301-1.516c.089-.891.314-4.323.314-8.558v-.713c-.045-4.323-.18-7.577-.314-9.271-.09-1.159-1.301-1.47-1.301-1.47h18.387c-.09.088-1.211.712-1.301 1.47-.179 1.738-.314 5.037-.314 9.271 0 4.636.135 7.667.269 9.271.09 1.025 1.346 1.605 1.346 1.605ZM132.082 95.74c0-4.813-.224-8.245-.359-9.805-.045-.49-.942-.891-.942-.891h10.404c2.825 0 4.888-.357 4.888-.357s-.314 1.337-.493 2.451c-.179 1.382-.179 3.79-.179 3.79s-1.121-4.993-4.395-4.993h-5.964c-.135 1.516-.314 4.858-.359 9.405l4.17-.045c2.332-.044 2.87-1.47 2.87-1.47v3.966s-.627-1.426-2.825-1.515h-4.17c.044 5.081.269 8.157.358 9.449h6.01c3.228-.044 4.35-5.081 4.35-5.081s.044 2.451.179 3.789c.179 1.114.493 2.451.493 2.451s-2.063-.357-4.888-.357h-10.404s.897-.49.987-.98c.045-1.337.269-4.413.269-9.806ZM152.441 96.008v1.115c0 4.546.179 7.443.359 8.602.045.535.942.847.942.847h-5.202s.896-.446.986-.936c.09-1.426.314-4.635.314-9.85 0-5.17-.179-8.514-.404-10.118-.044-.357-.896-.669-.896-.669h2.018l5.336-.044c3.05 0 5.561 2.496 5.561 5.526 0 3.031-2.467 5.483-5.516 5.483l-3.498.044Zm1.973-10.117c-.538 0-1.121 0-1.614.044-.09 1.471-.314 4.77-.359 9.182h2.466c2.377 0 4.35-2.273 4.35-4.59 0-2.363-1.838-4.503-4.17-4.592l-.673-.044ZM163.966 85h2.018l5.382-.045c3.049 0 5.56 2.496 5.56 5.526 0 2.006-1.076 3.745-2.69 4.725 2.915.268 5.202 2.72 5.202 5.661 0 3.164-2.556 5.661-5.74 5.661h-9.687s.897-.491.987-.981c.134-1.471.314-4.591.314-9.806 0-5.17-.045-8.469-.314-9.85-.09-.402-1.032-.892-1.032-.892Zm5.92.89c-.538 0-1.121.045-1.704.045-.09 1.471-.314 4.725-.359 9.182h2.466c2.377 0 4.35-2.273 4.35-4.636 0-2.362-1.838-4.501-4.17-4.59h-.583Zm2.825 10.208c-.762-.045-1.749-.045-2.78-.045-.718 0-1.435.045-2.063.045 0 4.813.179 7.889.314 9.36 1.48.089 3.184.267 4.395.267 2.466 0 4.484-2.362 4.484-4.814 0-2.451-1.883-4.68-4.35-4.813ZM182.936 95.785c0-4.858-.135-8.334-.359-9.85-.09-.49-.942-.891-.942-.891h5.202s-.897.356-.941.891c-.09 1.47-.314 4.77-.359 9.227l5.785.044c3.184 0 5.74 2.54 5.74 5.705s-2.556 5.706-5.74 5.706l-7.489.044h-2.198s.942-.535.987-1.025c.09-1.515.314-4.68.314-9.85Zm6.682.268c-1.211 0-2.826.09-4.126.178 0 4.725.179 7.711.314 9.182 1.48.089 3.229.223 4.439.223 2.467 0 4.485-2.362 4.485-4.814 0-2.451-1.928-4.68-4.395-4.77-.179.045-.448 0-.717 0Zm14.305 10.474h-5.83s1.256-.891 1.346-1.827c.134-1.783.269-6.998.269-11.544 0-2.808-.045-5.304-.18-6.552-.089-.936-1.345-1.605-1.345-1.605h5.785s-1.256.446-1.345 1.516c-.18 1.738-.314 4.947-.314 9.226 0 4.457.134 7.488.269 9.137.134 1.115 1.345 1.649 1.345 1.649ZM220.022 105.324c0-.134-.044-.267-.089-.401-.807-1.738-2.332-4.814-4.485-8.915l-5.202 9.004a1.079 1.079 0 0 0-.179.58c0 .668.807.98.807.98h-4.484s1.345-.312 2.287-1.738c1.166-1.783 5.964-9.672 6.143-9.94a197.179 197.179 0 0 0-5.022-8.736c-.538-.802-1.659-1.203-1.659-1.203h5.65s-.762.222-.762.936c0 .178.045.356.134.534.538 1.204 1.525 3.21 3.005 6.107 1.704-2.942 2.78-4.948 3.318-6.017.09-.179.135-.357.135-.535 0-.758-.987-1.025-.987-1.025h4.395s-1.39.4-2.152 1.515l-4.126 7.176c.359.669.717 1.337 1.121 2.095 2.287 4.279 4.215 7.533 5.292 9.271a3.835 3.835 0 0 0 1.749 1.516h-5.83c.045.044.941-.491.941-1.204Z" fill="#121212"/><path d="M75.846 95.83a3.301 3.301 0 0 0-3.319 3.298 3.301 3.301 0 0 0-3.318-3.298 3.369 3.369 0 0 0 3.363-3.298c-.044 1.827 1.435 3.298 3.274 3.298Z" fill="#121212"/></svg>