<svg width="485" height="548" viewBox="0 0 485 548" fill="none" xmlns="http://www.w3.org/2000/svg">
<mask id="mask0_131_1309" style="mask-type:alpha" maskUnits="userSpaceOnUse" x="0" y="0" width="485" height="548">
<rect width="485" height="548" fill="#D9D9D9"/>
</mask>
<g mask="url(#mask0_131_1309)">
<path d="M354.848 770.522C370.496 747.459 383.863 722.929 394.76 697.277C405.64 671.619 413.954 644.947 419.58 617.651C436.67 535.18 429.078 449.501 397.753 371.32C376.896 319.274 345.993 271.846 306.808 231.742C237.474 160.696 145.597 115.965 46.911 105.208C-51.7754 94.4512 -151.132 118.338 -234.143 172.779C-257.7 188.245 -279.672 206.001 -299.738 225.787C-319.811 245.602 -337.912 267.319 -353.786 290.633C-389.387 343.206 -412.843 403.043 -422.454 465.805C-432.064 528.567 -427.588 592.68 -409.35 653.498C-391.112 714.316 -359.569 770.312 -317.009 817.429C-274.448 864.545 -221.935 901.601 -163.279 925.908C-111.494 947.387 -55.9843 958.456 0.0790543 958.482C27.991 958.473 55.8368 955.768 83.2288 950.406C138.097 939.635 190.32 918.208 236.942 887.337C260.196 871.978 281.875 854.358 301.663 834.734C321.429 815.103 339.241 793.598 354.848 770.522ZM354.848 770.522C339.197 793.552 321.343 815.005 301.539 834.578C231.668 903.543 139.951 946.008 42.1595 954.669C-55.6315 963.33 -153.385 937.647 -234.289 882.036C-257.099 866.353 -278.333 848.492 -297.691 828.706C-336.379 789.088 -366.88 742.235 -387.451 690.823C-397.681 665.21 -405.416 638.669 -410.546 611.571C-420.777 557.305 -420.282 501.561 -409.091 447.485C-403.523 420.525 -395.307 394.181 -384.561 368.836C-363.004 318.043 -331.777 271.927 -292.619 233.052C-273.078 213.662 -251.667 196.255 -228.697 181.083C-159.294 135.184 -77.911 110.74 5.29666 110.801C60.6783 110.839 115.51 121.787 166.659 143.022C257.264 180.552 332.001 248.415 378.072 334.99C424.143 421.564 438.68 521.463 419.195 617.578C413.634 644.866 405.39 671.538 394.583 697.204C383.746 722.874 370.438 747.428 354.848 770.522Z" fill="url(#paint0_linear_131_1309)"/>
<path d="M339.996 760.44C354.966 738.349 367.755 714.857 378.182 690.293C388.605 665.72 396.571 640.176 401.963 614.034C418.31 535.04 411.033 452.982 381.041 378.097C361.084 328.245 331.514 282.807 294.014 244.371C275.253 225.184 254.674 207.863 232.566 192.652C154.111 138.693 59.3031 113.764 -35.5462 122.155C-130.396 130.545 -219.355 171.73 -287.12 238.624C-306.336 257.615 -323.664 278.428 -338.86 300.768C-372.966 351.134 -395.435 408.459 -404.639 468.586C-413.842 528.713 -409.549 590.135 -392.071 648.397C-374.593 706.659 -344.367 760.301 -303.586 805.433C-262.806 850.565 -212.492 886.055 -156.294 909.33C-106.683 929.894 -53.5095 940.489 0.194011 940.512C26.9338 940.5 53.6099 937.906 79.8515 932.768C132.381 922.424 182.374 901.887 227.006 872.318C249.276 857.607 270.036 840.728 288.984 821.93C307.943 803.138 325.028 782.544 339.996 760.44ZM339.996 760.44C324.99 782.488 307.878 803.025 288.9 821.763C241.407 868.599 183.07 902.966 119.082 921.802C55.0948 940.639 -12.5576 943.362 -77.8519 929.729C-143.146 916.095 -204.057 886.528 -255.16 843.66C-306.264 800.792 -345.975 745.953 -370.758 684.026C-380.546 659.504 -387.946 634.095 -392.855 608.152C-402.626 556.21 -402.139 502.857 -391.421 451.102C-386.091 425.298 -378.23 400.082 -367.952 375.821C-347.293 327.229 -317.402 283.106 -279.938 245.899C-261.231 227.346 -240.739 210.684 -218.76 196.155C-152.327 152.211 -74.4272 128.798 5.22446 128.835C58.2428 128.843 110.74 139.297 159.717 159.6C209.013 179.959 253.794 209.871 291.48 247.611C329.167 285.352 359.014 330.176 379.302 379.501C399.59 428.827 409.918 481.679 409.692 535.013C409.467 588.348 398.69 641.11 377.985 690.262C367.622 714.829 354.9 738.332 339.996 760.44Z" fill="url(#paint1_linear_131_1309)"/>
<path d="M325.101 750.389C339.413 729.279 351.638 706.827 361.604 683.35C371.567 659.861 379.184 635.446 384.346 610.459C399.981 534.948 393.037 456.505 364.379 384.915C345.324 337.256 317.07 293.815 281.229 257.072C245.209 220.05 202.217 190.521 154.733 170.188C107.249 149.855 56.2108 139.119 4.55893 138.599C-47.0929 138.079 -98.337 147.786 -146.221 167.159C-194.104 186.533 -237.681 215.19 -274.44 251.48C-292.821 269.638 -309.393 289.538 -323.924 310.901C-360.162 364.436 -382.596 426.102 -389.227 490.408C-395.858 554.713 -386.48 619.66 -361.929 679.462C-337.378 739.265 -298.416 792.067 -248.514 833.164C-198.612 874.26 -139.32 902.376 -75.9196 915.005C-50.8178 919.999 -25.2857 922.513 0.307991 922.509C25.8694 922.487 51.369 919.998 76.4524 915.078C126.681 905.199 174.486 885.569 217.163 857.299C238.447 843.233 258.292 827.1 276.407 809.135C294.505 791.178 310.813 771.504 325.101 750.389ZM325.101 750.389C310.756 771.476 294.396 791.119 276.251 809.041C230.863 853.8 175.11 886.64 113.958 904.636C52.8066 922.632 -11.8467 925.227 -74.244 912.188C-136.641 899.15 -194.846 870.883 -243.674 829.905C-292.503 788.927 -330.44 736.51 -354.107 677.322C-363.451 653.89 -370.513 629.612 -375.196 604.825C-379.857 580.057 -382.082 554.891 -381.838 529.689C-381.584 504.512 -378.893 479.419 -373.804 454.761C-368.711 430.113 -361.198 406.029 -351.374 382.857C-341.532 359.692 -329.471 337.533 -315.36 316.691C-287.122 274.856 -250.93 238.986 -208.845 211.122C-145.38 169.138 -70.9639 146.759 5.13062 146.774C55.7756 146.782 105.924 156.752 152.721 176.116C235.66 210.42 304.085 272.502 346.271 351.723C388.458 430.943 401.778 522.37 383.951 610.334C378.861 635.313 371.317 659.729 361.427 683.225C351.526 706.738 339.36 729.232 325.101 750.389Z" fill="url(#paint2_linear_131_1309)"/>
<path d="M310.155 740.266C337.566 699.916 356.767 654.566 366.666 606.8C381.584 534.773 374.976 459.948 347.666 391.65C329.494 346.173 302.547 304.718 268.362 269.649C231.797 232.041 187.729 202.545 139.021 183.078C90.3137 163.611 38.0557 154.608 -14.3582 156.654C-66.7721 158.7 -118.169 171.749 -165.211 194.953C-212.253 218.158 -253.888 250.999 -287.41 291.343C-320.933 331.687 -345.593 378.632 -359.79 429.128C-373.987 479.624 -377.402 532.542 -369.815 584.444C-362.227 636.346 -343.806 686.071 -315.748 730.39C-287.689 774.708 -250.622 812.629 -206.953 841.688C-186.576 855.245 -164.927 866.788 -142.315 876.154C-97.0576 894.882 -48.5569 904.52 0.422246 904.518C24.8078 904.487 49.1337 902.109 73.064 897.419C169.74 878.384 254.966 821.892 310.155 740.266ZM310.155 740.266C276.043 790.65 229.993 831.809 176.111 860.073C122.229 888.337 62.1897 902.827 1.34729 902.252C-59.4951 901.677 -119.25 886.054 -172.588 856.776C-225.926 827.498 -271.189 785.476 -304.342 734.456C-317.467 714.277 -328.569 692.852 -337.488 670.493C-346.386 648.155 -353.114 625.012 -357.579 601.385C-366.448 554.064 -365.967 505.464 -356.166 458.326C-351.313 434.833 -344.151 411.876 -334.786 389.79C-325.415 367.712 -313.929 346.594 -300.486 326.731C-273.577 286.865 -239.082 252.685 -198.971 226.141C-138.487 186.099 -67.5526 164.749 4.98505 164.756C53.2739 164.736 101.094 174.226 145.716 192.683C196.319 213.584 241.631 245.492 278.362 286.091C315.093 326.69 342.321 374.961 358.067 427.396C373.814 479.832 377.684 535.117 369.396 589.235C361.109 643.353 340.872 694.946 310.155 740.266Z" fill="url(#paint3_linear_131_1309)"/>
<path d="M295.312 730.172C321.396 691.779 339.672 648.63 349.1 603.182C353.79 580.48 356.275 557.378 356.521 534.199C356.745 511.016 354.705 487.867 350.43 465.08C346.126 442.275 339.638 419.937 331.056 398.374C313.768 355.089 288.136 315.627 255.619 282.234C220.805 246.461 178.857 218.409 132.498 199.9C86.1392 181.39 36.406 172.837 -13.4729 174.796C-63.3517 176.754 -112.261 189.18 -157.026 211.268C-201.791 233.355 -241.41 264.61 -273.312 303.003C-305.214 341.395 -328.685 386.068 -342.201 434.121C-355.718 482.173 -358.978 532.531 -351.769 581.925C-344.561 631.319 -327.045 678.645 -300.36 720.831C-273.674 763.016 -238.415 799.118 -196.872 826.792C-177.472 839.699 -156.861 850.685 -135.331 859.595C-92.2541 877.412 -46.0901 886.57 0.525666 886.546C23.733 886.518 46.8834 884.249 69.6543 879.769C161.672 861.646 242.789 807.871 295.312 730.172ZM295.312 730.172C266.115 773.301 227.679 809.385 182.795 835.804C137.911 862.223 87.7065 878.314 35.8275 882.908C-16.0515 887.503 -68.3025 880.485 -117.131 862.364C-165.959 844.244 -210.138 815.476 -246.46 778.15C-278.498 745.248 -303.749 706.365 -320.775 663.715C-329.234 642.469 -335.624 620.457 -339.858 597.985C-348.296 552.989 -347.851 506.777 -338.549 461.952C-333.927 439.613 -327.114 417.785 -318.208 396.783C-309.283 375.791 -298.35 355.711 -285.562 336.822C-259.971 298.928 -227.176 266.437 -189.045 241.2C-131.531 203.113 -64.0803 182.794 4.9014 182.777C50.827 182.747 96.3102 191.749 138.762 209.27C186.916 229.132 230.039 259.473 264.999 298.088C299.959 336.702 325.877 382.62 340.869 432.505C355.861 482.39 359.551 534.989 351.671 586.478C343.791 637.968 324.538 687.055 295.312 730.172Z" fill="url(#paint4_linear_131_1309)"/>
<path d="M280.419 720.092C305.184 683.643 322.531 642.675 331.473 599.525C335.934 577.978 338.298 556.048 338.53 534.045C338.752 512.041 336.82 490.068 332.762 468.44C328.684 446.793 322.534 425.59 314.396 405.121C298.004 364.017 273.681 326.542 242.814 294.833C209.772 260.823 169.944 234.145 125.917 216.534C81.8906 198.923 34.6512 190.773 -12.7314 192.613C-60.1139 194.453 -106.579 206.242 -149.108 227.214C-191.636 248.186 -229.276 277.871 -259.581 314.342C-289.886 350.812 -312.179 393.251 -325.01 438.9C-337.841 484.549 -340.924 532.387 -334.058 579.306C-327.192 626.224 -310.53 671.173 -285.156 711.231C-259.782 751.289 -226.264 785.56 -186.779 811.817C-168.358 824.08 -148.788 834.523 -128.345 842.998C-87.4363 859.87 -43.6108 868.54 0.640837 868.515C22.6691 868.474 44.6424 866.313 66.2564 862.06C153.563 844.822 230.521 793.783 280.367 720.061L280.419 720.092ZM280.419 720.092C249.621 765.572 208.044 802.722 159.398 828.225C110.751 853.73 56.5482 866.795 1.62423 866.257C-53.2997 865.719 -107.236 851.593 -155.374 825.141C-203.511 798.688 -244.352 760.731 -274.252 714.657C-286.077 696.441 -296.079 677.106 -304.113 656.93C-312.126 636.77 -318.182 615.887 -322.199 594.568C-330.191 551.907 -329.757 508.095 -320.92 465.602C-316.544 444.413 -310.082 423.708 -301.629 403.791C-293.169 383.881 -282.799 364.837 -270.666 346.927C-246.4 310.98 -215.301 280.156 -179.139 256.21C-124.585 220.078 -60.6057 200.794 4.82941 200.76C48.3971 200.717 91.5473 209.25 131.82 225.871C177.518 244.705 218.446 273.485 251.628 310.119C284.81 346.753 309.412 390.32 323.646 437.654C337.881 484.987 341.389 534.898 333.917 583.757C326.445 632.617 308.18 679.197 280.45 720.113L280.419 720.092Z" fill="url(#paint5_linear_131_1309)"/>
<path d="M265.525 710.009C288.96 675.523 305.382 636.763 313.855 595.938C326.639 534.361 321.033 470.385 297.735 411.969C282.226 373.062 259.218 337.584 230.02 307.554C196.889 273.474 156.583 247.203 112.03 230.648C67.4766 214.094 19.795 207.672 -27.5505 211.85C-74.896 216.028 -120.716 230.7 -161.682 254.801C-202.648 278.902 -237.73 311.827 -264.38 351.182C-291.03 390.537 -308.579 435.334 -315.75 482.32C-322.922 529.305 -319.537 577.298 -305.841 622.811C-292.145 668.325 -268.482 710.216 -236.571 745.44C-204.661 780.665 -165.304 808.338 -121.361 826.45C-82.6289 842.411 -41.1367 850.601 0.75503 850.553C21.6049 850.51 42.402 848.457 62.8575 844.421C83.29 840.383 103.279 834.358 122.538 826.429C141.771 818.483 160.194 808.702 177.552 797.223C212.313 774.203 242.205 744.569 265.525 710.009ZM265.525 710.009C239.306 748.734 204.789 781.13 164.481 804.843C124.173 828.556 79.088 842.99 32.503 847.095C-14.0821 851.2 -60.9965 844.873 -104.83 828.575C-148.664 812.276 -188.315 786.416 -220.901 752.873C-249.613 723.328 -272.237 688.425 -287.484 650.152C-295.051 631.09 -300.77 611.344 -304.561 591.188C-308.335 571.047 -310.128 550.585 -309.913 530.094C-309.685 509.631 -307.482 489.237 -303.334 469.197C-286.368 388.16 -238.199 317.052 -169.234 271.238C-135.025 248.535 -96.6986 232.754 -56.4209 224.789C-36.2928 220.825 -15.8308 218.803 4.68378 218.75C45.8868 218.709 86.6964 226.765 124.794 242.458C168.043 260.258 206.781 287.473 238.19 322.125C269.599 356.777 292.891 397.994 306.37 442.778C319.849 487.562 323.176 534.787 316.111 581.019C309.045 627.251 291.764 671.326 265.525 710.04L265.525 710.009Z" fill="url(#paint6_linear_131_1309)"/>
<path d="M250.63 699.917C272.744 667.392 288.238 630.832 296.228 592.321C300.214 573.1 302.334 553.538 302.557 533.909C302.765 514.258 301.049 494.635 297.433 475.319C293.796 455.984 288.31 437.043 281.053 418.757C266.434 382.037 244.736 348.55 217.194 320.203C185.936 288 147.893 263.167 105.833 247.512C63.7725 231.856 18.7518 225.772 -25.9553 229.7C-70.6624 233.629 -113.932 247.472 -152.617 270.223C-191.303 292.974 -224.431 324.061 -249.594 361.223C-274.757 398.384 -291.321 440.687 -298.082 485.054C-304.843 529.421 -301.63 574.738 -288.679 617.708C-275.727 660.678 -253.362 700.221 -223.209 733.462C-193.056 766.703 -155.874 792.806 -114.366 809.872C-77.8175 824.921 -38.6662 832.634 0.858878 832.572C20.5329 832.512 40.1559 830.566 59.4587 826.762C78.7451 822.945 97.6126 817.253 115.793 809.768C133.933 802.269 151.309 793.038 167.678 782.204C200.46 760.483 228.646 732.523 250.63 699.917ZM250.63 699.917C225.908 736.439 193.355 766.991 155.341 789.351C117.326 811.711 74.8057 825.316 30.8721 829.178C-13.0614 833.04 -57.3032 827.06 -98.6353 811.674C-139.967 796.289 -177.351 771.883 -208.065 740.234C-235.122 712.357 -256.435 679.432 -270.791 643.334C-277.917 625.362 -283.301 606.748 -286.871 587.748C-290.415 568.764 -292.096 549.478 -291.891 530.167C-291.663 510.88 -289.574 491.659 -285.654 472.773C-269.667 396.421 -224.298 329.418 -159.34 286.226C-143.255 275.573 -126.178 266.498 -108.348 259.13C-90.494 251.774 -71.9641 246.18 -53.0222 242.427C-34.0526 238.68 -14.7667 236.766 4.5694 236.711C48.5574 236.653 92.0082 246.375 131.777 265.173C171.547 283.971 206.639 311.375 234.516 345.401C262.394 379.428 282.358 419.227 292.964 461.917C303.57 504.607 304.554 549.121 295.843 592.238C287.98 630.749 272.618 667.337 250.63 699.917Z" fill="url(#paint7_linear_131_1309)"/>
<path d="M235.736 689.836C256.522 659.264 271.09 624.901 278.61 588.705C282.353 570.635 284.347 552.247 284.566 533.795C284.77 515.32 283.165 496.87 279.774 478.708C276.37 460.536 271.229 442.733 264.423 425.544C250.699 391.008 230.314 359.509 204.43 332.843C176.681 304.197 143.21 281.716 106.197 266.864C69.1831 252.011 29.4568 245.12 -10.3965 246.639C-50.2498 248.157 -89.3366 258.051 -125.113 275.677C-160.889 293.303 -192.552 318.265 -218.041 348.939C-243.53 379.613 -262.274 415.311 -273.052 453.709C-283.831 492.107 -286.402 532.345 -280.599 571.803C-274.796 611.26 -260.748 649.054 -239.37 682.722C-217.993 716.391 -189.765 745.181 -156.523 767.217C-109.851 798.207 -55.0502 814.687 0.973072 814.581C19.4686 814.519 37.9155 812.681 56.0598 809.093C74.1776 805.505 91.9003 800.151 108.974 793.108C126.026 786.056 142.357 777.375 157.742 767.186C188.562 746.769 215.064 720.486 235.736 689.836ZM235.736 689.836C209.914 727.969 175.046 759.112 134.249 780.48C93.4528 801.848 47.9978 812.777 1.9464 812.289C-44.105 811.801 -89.3183 799.912 -129.653 777.684C-169.988 755.456 -204.187 723.581 -229.196 684.909C-239.079 669.647 -247.435 653.448 -254.141 636.547C-260.821 619.669 -265.871 602.19 -269.222 584.35C-272.538 566.529 -274.112 548.428 -273.92 530.303C-273.7 512.193 -271.74 494.146 -268.068 476.411C-253.031 404.722 -210.425 341.813 -149.435 301.246C-95.6343 265.477 -31.0821 249.502 33.1906 256.051C97.4633 262.6 157.467 291.266 202.948 337.15C248.428 383.034 276.563 443.289 282.543 507.617C288.524 571.945 271.979 636.354 235.736 689.836Z" fill="url(#paint8_linear_131_1309)"/>
<path d="M220.842 679.712C240.294 651.121 253.933 618.984 260.983 585.129C264.494 568.213 266.37 550.998 266.585 533.722C266.773 516.429 265.272 499.16 262.105 482.159C258.937 465.134 254.144 448.452 247.793 432.342C225.084 375.055 183.174 327.44 129.234 297.643C75.2932 267.846 12.6748 257.719 -47.9082 268.994C-108.75 280.319 -163.742 312.498 -203.418 359.993C-243.095 407.489 -264.974 467.329 -265.292 529.215C-265.609 591.101 -244.345 651.162 -205.158 699.062C-165.971 746.962 -111.312 779.704 -50.5898 791.653C-33.5672 794.987 -16.2582 796.641 1.08782 796.59C18.4022 796.51 35.669 794.77 52.651 791.393C69.6155 788.023 86.21 783.003 102.198 776.405C118.156 769.79 133.442 761.659 147.847 752.125C176.693 733.008 201.495 708.404 220.842 679.712ZM220.842 679.712C201.54 708.283 176.759 732.74 147.935 751.663C119.112 770.587 86.8189 783.602 52.9285 789.953C19.0382 796.305 -15.7758 795.867 -49.4957 788.665C-83.2157 781.464 -115.171 767.641 -143.51 747.999C-185.806 718.743 -218.499 677.624 -237.469 629.822C-243.705 614.024 -248.418 597.667 -251.542 580.972C-254.643 564.303 -256.109 547.371 -255.918 530.417C-255.708 513.484 -253.874 496.61 -250.44 480.028C-238.103 421.213 -205.838 368.46 -159.098 330.686C-112.359 292.911 -54.011 272.432 6.08392 272.708C66.1788 272.984 124.336 293.999 170.726 332.202C217.116 370.404 248.895 423.451 260.692 482.377C267.458 516.269 267.42 551.168 260.579 585.045C253.738 618.923 240.231 651.102 220.842 679.712Z" fill="url(#paint9_linear_131_1309)"/>
<path d="M205.947 669.661C224.087 643.001 236.801 613.031 243.365 581.46C246.627 565.702 248.367 549.667 248.562 533.576C248.742 517.459 247.35 501.362 244.404 485.516C241.441 469.656 236.968 454.116 231.048 439.108C213.035 393.645 181.974 354.527 141.776 326.679C109.769 304.494 72.9882 290.158 34.4107 284.829C-4.16686 279.501 -43.457 283.33 -80.2796 296.007C-117.102 308.685 -150.423 329.854 -177.544 357.801C-204.665 385.749 -224.825 419.689 -236.392 456.875C-247.959 494.062 -250.608 533.449 -244.125 571.849C-237.641 610.25 -222.208 646.584 -199.073 677.911C-175.938 709.239 -145.753 734.679 -110.959 752.173C-76.1657 769.667 -37.7422 778.723 1.20143 778.608C17.3427 778.536 33.4399 776.918 49.2724 773.775C65.0715 770.61 80.524 765.911 95.4101 759.744C110.28 753.578 124.522 745.997 137.941 737.106C164.813 719.301 187.92 696.384 205.947 669.661ZM205.947 669.661C183.449 702.898 153.061 730.039 117.504 748.656C81.9463 767.272 42.3283 776.783 2.19475 776.337C-37.9388 775.891 -77.3357 765.502 -112.471 746.101C-147.606 726.699 -177.383 698.89 -199.138 665.161C-207.72 651.867 -214.971 637.761 -220.788 623.045C-226.584 608.35 -230.963 593.133 -233.863 577.604C-236.74 562.092 -238.094 546.337 -237.906 530.562C-237.708 514.809 -235.995 499.112 -232.792 483.686C-223.062 437.14 -199.868 394.479 -166.092 361.007C-132.316 327.534 -89.4481 304.725 -42.816 295.414C4.43236 285.93 53.4344 290.721 97.9511 309.177C142.468 327.633 180.485 358.92 207.162 399.054C233.839 439.187 247.969 486.352 247.752 534.542C247.536 582.733 232.983 629.769 205.947 669.661Z" fill="url(#paint10_linear_131_1309)"/>
<path d="M191.054 659.579C207.869 634.879 219.654 607.108 225.738 577.853C228.78 563.25 230.409 548.388 230.602 533.472C230.782 518.534 229.505 503.614 226.787 488.925C224.048 474.207 219.91 459.784 214.429 445.853C201.87 414.136 182.413 385.609 157.469 362.339C132.524 339.069 102.716 321.638 70.2031 311.31C37.6906 300.982 3.28789 298.015 -30.5129 302.623C-64.3138 307.232 -96.6663 319.301 -125.227 337.956C-163.726 363.106 -193.807 399.213 -211.592 441.62C-229.377 484.028 -234.049 530.791 -225.007 575.879C-218.282 609.181 -204.272 640.583 -183.98 667.831C-163.688 695.08 -137.617 717.501 -107.638 733.486C-77.6593 749.471 -44.5144 758.624 -10.5807 760.289C23.353 761.953 57.2345 756.088 88.6341 743.114C102.408 737.389 115.603 730.359 128.037 722.118C152.941 705.607 174.354 684.357 191.054 659.579ZM191.054 659.579C165.885 696.744 130.175 725.53 88.5158 742.237C46.8561 758.944 1.15124 762.807 -42.7218 753.331C-78.8184 745.498 -112.429 728.893 -140.584 704.984C-168.738 681.075 -190.569 650.599 -204.147 616.248C-209.498 602.642 -213.539 588.557 -216.214 574.184C-218.865 559.83 -220.108 545.251 -219.924 530.656C-219.723 516.083 -218.132 501.563 -215.174 487.293C-206.068 444.063 -184.435 404.47 -152.973 373.455C-121.512 342.439 -81.6151 321.374 -38.2593 312.885C5.09651 304.397 49.992 308.861 90.8269 325.722C131.662 342.583 166.629 371.094 191.366 407.698C216.46 444.917 229.842 488.794 229.79 533.683C229.738 578.572 216.255 622.418 191.075 659.579L191.054 659.579Z" fill="url(#paint11_linear_131_1309)"/>
<path d="M176.159 649.487C191.645 626.739 202.505 601.166 208.12 574.226C210.922 560.775 212.429 547.086 212.621 533.348C212.796 519.591 211.623 505.851 209.118 492.324C206.602 478.773 202.802 465.492 197.768 452.661C179.754 406.959 146.419 368.936 103.466 345.098C60.5126 321.26 10.6111 313.089 -37.7018 321.981C-66.8894 327.415 -94.6107 338.918 -119.071 355.745C-143.531 372.572 -164.184 394.348 -179.694 419.664C-195.204 444.98 -205.224 473.27 -209.107 502.705C-212.989 532.139 -210.647 562.06 -202.232 590.532C-193.816 619.003 -179.515 645.39 -160.255 667.984C-140.995 690.578 -117.204 708.875 -90.4239 721.691C-63.6434 734.507 -34.4699 741.556 -4.79231 742.381C24.8853 743.207 54.4055 737.791 81.8572 726.484C94.5394 721.2 106.689 714.72 118.142 707.131C141.074 691.907 160.787 672.32 176.159 649.487ZM176.159 649.487C153 683.721 120.119 710.235 81.7538 725.611C43.3884 740.987 1.29723 744.52 -39.0946 735.755C-72.3003 728.517 -103.211 713.208 -129.093 691.182C-154.974 669.156 -175.03 641.092 -187.486 609.471C-192.395 596.957 -196.101 584.003 -198.555 570.786C-200.989 557.59 -202.127 544.188 -201.954 530.77C-201.764 517.374 -200.295 504.027 -197.568 490.91C-189.263 451.336 -169.531 415.067 -140.815 386.597C-112.099 358.127 -75.6625 338.707 -36.018 330.743C-2.60016 323.992 31.9682 325.607 64.6113 335.443C97.2544 345.28 126.96 363.033 151.085 387.122C175.21 411.212 193.005 440.892 202.889 473.521C212.773 506.149 214.438 540.715 207.736 574.143C202.258 601.087 191.529 626.689 176.159 649.487Z" fill="url(#paint12_linear_131_1309)"/>
</g>
<defs>
<linearGradient id="paint0_linear_131_1309" x1="223.438" y1="909.917" x2="-222.448" y2="165.209" gradientUnits="userSpaceOnUse">
<stop stop-color="#DBBC9A" stop-opacity="0"/>
<stop offset="1" stop-color="#C4A27A"/>
</linearGradient>
<linearGradient id="paint1_linear_131_1309" x1="214.062" y1="893.981" x2="-213.195" y2="180.551" gradientUnits="userSpaceOnUse">
<stop stop-color="#DBBC9A" stop-opacity="0"/>
<stop offset="1" stop-color="#C4A27A"/>
</linearGradient>
<linearGradient id="paint2_linear_131_1309" x1="204.715" y1="878.023" x2="-203.781" y2="195.948" gradientUnits="userSpaceOnUse">
<stop stop-color="#DBBC9A" stop-opacity="0"/>
<stop offset="1" stop-color="#C4A27A"/>
</linearGradient>
<linearGradient id="paint3_linear_131_1309" x1="195.195" y1="862.062" x2="-194.61" y2="211.036" gradientUnits="userSpaceOnUse">
<stop stop-color="#DBBC9A" stop-opacity="0"/>
<stop offset="1" stop-color="#C4A27A"/>
</linearGradient>
<linearGradient id="paint4_linear_131_1309" x1="185.943" y1="846.14" x2="-185.05" y2="226.565" gradientUnits="userSpaceOnUse">
<stop stop-color="#DBBC9A" stop-opacity="0"/>
<stop offset="1" stop-color="#C4A27A"/>
</linearGradient>
<linearGradient id="paint5_linear_131_1309" x1="176.547" y1="830.144" x2="-175.758" y2="241.782" gradientUnits="userSpaceOnUse">
<stop stop-color="#DBBC9A" stop-opacity="0"/>
<stop offset="1" stop-color="#C4A27A"/>
</linearGradient>
<linearGradient id="paint6_linear_131_1309" x1="167.223" y1="814.238" x2="-166.21" y2="257.382" gradientUnits="userSpaceOnUse">
<stop stop-color="#DBBC9A" stop-opacity="0"/>
<stop offset="1" stop-color="#C4A27A"/>
</linearGradient>
<linearGradient id="paint7_linear_131_1309" x1="157.84" y1="798.295" x2="-156.87" y2="272.664" gradientUnits="userSpaceOnUse">
<stop stop-color="#DBBC9A" stop-opacity="0"/>
<stop offset="1" stop-color="#C4A27A"/>
</linearGradient>
<linearGradient id="paint8_linear_131_1309" x1="148.449" y1="782.34" x2="-147.568" y2="287.94" gradientUnits="userSpaceOnUse">
<stop stop-color="#DBBC9A" stop-opacity="0"/>
<stop offset="1" stop-color="#C4A27A"/>
</linearGradient>
<linearGradient id="paint9_linear_131_1309" x1="139.166" y1="766.396" x2="-138.12" y2="303.49" gradientUnits="userSpaceOnUse">
<stop stop-color="#DBBC9A" stop-opacity="0"/>
<stop offset="1" stop-color="#C4A27A"/>
</linearGradient>
<linearGradient id="paint10_linear_131_1309" x1="129.703" y1="750.456" x2="-128.782" y2="318.74" gradientUnits="userSpaceOnUse">
<stop stop-color="#DBBC9A" stop-opacity="0"/>
<stop offset="1" stop-color="#C4A27A"/>
</linearGradient>
<linearGradient id="paint11_linear_131_1309" x1="120.38" y1="734.458" x2="-119.31" y2="334.114" gradientUnits="userSpaceOnUse">
<stop stop-color="#DBBC9A" stop-opacity="0"/>
<stop offset="1" stop-color="#C4A27A"/>
</linearGradient>
<linearGradient id="paint12_linear_131_1309" x1="111.157" y1="718.403" x2="-109.86" y2="349.667" gradientUnits="userSpaceOnUse">
<stop stop-color="#DBBC9A" stop-opacity="0"/>
<stop offset="1" stop-color="#C4A27A"/>
</linearGradient>
</defs>
</svg>
