<svg width="485" height="548" fill="none" xmlns="http://www.w3.org/2000/svg"><mask id="a" style="mask-type:alpha" maskUnits="userSpaceOnUse" x="0" y="0" width="485" height="548"><path fill="#D9D9D9" d="M0 0h485v548H0z"/></mask><g mask="url(#a)"><path d="M130.647 770.522a429.54 429.54 0 0 1-39.912-73.245 422.403 422.403 0 0 1-24.82-79.626A428.522 428.522 0 0 1 87.74 371.32a427.009 427.009 0 0 1 90.946-139.578 427.938 427.938 0 0 1 540.951-58.963 427.896 427.896 0 0 1 65.595 53.008 435.614 435.614 0 0 1 54.047 64.846 427.924 427.924 0 0 1-36.777 526.796 427.935 427.935 0 0 1-153.729 108.479 426.908 426.908 0 0 1-163.358 32.574 433.566 433.566 0 0 1-83.15-8.076 427.603 427.603 0 0 1-153.713-63.069 422.932 422.932 0 0 1-64.722-52.603 430.031 430.031 0 0 1-53.184-64.212Zm0 0a429.437 429.437 0 0 0 53.309 64.056 422.266 422.266 0 0 0 535.828 47.458 427.699 427.699 0 0 0 63.401-53.33 421.423 421.423 0 0 0 89.761-137.883 428.61 428.61 0 0 0 23.094-79.252 422.944 422.944 0 0 0-1.455-164.086 418.06 418.06 0 0 0-24.529-78.649 425.692 425.692 0 0 0-91.943-135.784 417.179 417.179 0 0 0-63.921-51.969 423.63 423.63 0 0 0-233.994-70.282 421.6 421.6 0 0 0-161.363 32.221A422.74 422.74 0 0 0 66.299 617.578a422.713 422.713 0 0 0 24.612 79.626 429.844 429.844 0 0 0 39.736 73.318Z" fill="url(#b)"/><path d="M145.499 760.44a412.115 412.115 0 0 1-38.187-70.147 404.62 404.62 0 0 1-23.78-76.259 410.717 410.717 0 0 1 20.922-235.937 409.32 409.32 0 0 1 87.027-133.726 414.747 414.747 0 0 1 61.447-51.719 409.458 409.458 0 0 1 519.686 45.972 417.438 417.438 0 0 1 51.74 62.144A409.918 409.918 0 0 1 641.789 909.33a409.136 409.136 0 0 1-156.488 31.182 415.542 415.542 0 0 1-79.658-7.744 409.8 409.8 0 0 1-147.154-60.45 404.74 404.74 0 0 1-61.978-50.388 411.238 411.238 0 0 1-51.012-61.49Zm0 0a411.78 411.78 0 0 0 51.095 61.323 404.55 404.55 0 0 0 366.753 107.966 404.564 404.564 0 0 0 292.906-245.703 410.6 410.6 0 0 0 22.097-75.874 405.145 405.145 0 0 0-1.435-157.05 400.723 400.723 0 0 0-23.469-75.281 408.192 408.192 0 0 0-88.014-129.922 400.55 400.55 0 0 0-61.177-49.744 405.647 405.647 0 0 0-223.985-67.32A403.593 403.593 0 0 0 325.778 159.6 404.326 404.326 0 0 0 75.802 535.013a404.31 404.31 0 0 0 31.708 155.249 411.953 411.953 0 0 0 37.989 70.178Z" fill="url(#c)"/><path d="M160.393 750.389a393.32 393.32 0 0 1-36.502-67.039 387.294 387.294 0 0 1-22.742-72.891 392.67 392.67 0 0 1 19.966-225.544 390.966 390.966 0 0 1 83.15-127.843 391.518 391.518 0 0 1 427.45-89.913 391.511 391.511 0 0 1 128.219 84.321 398.83 398.83 0 0 1 49.485 59.421 391.948 391.948 0 0 1-248.005 604.104 390.348 390.348 0 0 1-76.227 7.504 397.384 397.384 0 0 1-76.145-7.431 391.668 391.668 0 0 1-140.71-57.779 387.647 387.647 0 0 1-59.244-48.164 393.17 393.17 0 0 1-48.695-58.746Zm0 0a393.707 393.707 0 0 0 48.851 58.652 386.554 386.554 0 0 0 350.495 103.147 386.558 386.558 0 0 0 279.863-234.866 392.459 392.459 0 0 0 21.089-72.497 386.145 386.145 0 0 0 6.642-75.136 390.1 390.1 0 0 0-8.035-74.928 382.438 382.438 0 0 0-22.429-71.904 390.206 390.206 0 0 0-36.015-66.166A384.815 384.815 0 0 0 694.34 211.122a387.687 387.687 0 0 0-213.976-64.348 386.173 386.173 0 0 0-147.591 29.342 386.758 386.758 0 0 0-231.229 434.218 387.197 387.197 0 0 0 22.523 72.891 393.376 393.376 0 0 0 36.326 67.164Z" fill="url(#d)"/><path d="M175.34 740.266A371.746 371.746 0 0 1 118.829 606.8a374.747 374.747 0 0 1 19-215.15 373.133 373.133 0 0 1 79.304-122.001 373.982 373.982 0 0 1 282.72-112.995 373.984 373.984 0 0 1 273.052 134.689 373.987 373.987 0 0 1 82.404 293.101 373.984 373.984 0 0 1-162.861 257.244 377.483 377.483 0 0 1-64.639 34.466 373.255 373.255 0 0 1-142.737 28.364 380.207 380.207 0 0 1-72.641-7.099A373.233 373.233 0 0 1 175.34 740.266Zm0 0a368.718 368.718 0 0 0 614.497-5.81 366.131 366.131 0 0 0 33.146-63.963 375.002 375.002 0 0 0 20.091-69.108 368.916 368.916 0 0 0-1.414-143.059 364.332 364.332 0 0 0-21.38-68.536 371.409 371.409 0 0 0-34.299-63.059 366.51 366.51 0 0 0-101.515-100.59 369.411 369.411 0 0 0-203.956-61.385 367.793 367.793 0 0 0-140.731 27.927 368.675 368.675 0 0 0-212.352 234.713 368.664 368.664 0 0 0 47.913 312.87Z" fill="url(#e)"/><path d="M190.182 730.172a353.88 353.88 0 0 1-53.787-126.99 359.762 359.762 0 0 1-7.421-68.983 356.106 356.106 0 0 1 6.09-69.119 361.963 361.963 0 0 1 19.374-66.706 355.472 355.472 0 0 1 75.438-116.14 355.992 355.992 0 0 1 269.091-107.438 355.981 355.981 0 0 1 259.839 128.207 355.989 355.989 0 0 1 78.458 278.922 355.994 355.994 0 0 1-154.898 244.867 358.78 358.78 0 0 1-61.541 32.803 354.967 354.967 0 0 1-135.856 26.951 360.36 360.36 0 0 1-69.129-6.777 355.237 355.237 0 0 1-225.658-149.597Zm0 0a350.714 350.714 0 0 0 541.773 47.978 350.092 350.092 0 0 0 74.315-114.435 355.853 355.853 0 0 0 19.083-65.73 351.07 351.07 0 0 0-1.31-136.033 347.093 347.093 0 0 0-20.34-65.169 354.005 354.005 0 0 0-32.647-59.961A348.68 348.68 0 0 0 674.54 241.2a351.426 351.426 0 0 0-193.947-58.423 350.267 350.267 0 0 0-133.86 26.493 350.635 350.635 0 0 0-126.237 88.818 350.64 350.64 0 0 0-86.672 288.39 350.64 350.64 0 0 0 56.358 143.694Z" fill="url(#f)"/><path d="M205.076 720.092a335.751 335.751 0 0 1-51.054-120.567 340.708 340.708 0 0 1-7.058-65.48 337.383 337.383 0 0 1 5.769-65.605 343.522 343.522 0 0 1 18.366-63.319 337.145 337.145 0 0 1 71.581-110.288 338.013 338.013 0 0 1 255.546-102.22A338.001 338.001 0 0 1 810.505 438.9a337.998 337.998 0 0 1-138.232 372.917 341.379 341.379 0 0 1-58.433 31.181 337.805 337.805 0 0 1-128.986 25.517 343.17 343.17 0 0 1-65.616-6.455 337.337 337.337 0 0 1-214.11-141.999l-.052.031Zm0 0a332.751 332.751 0 0 0 121.021 108.133 332.754 332.754 0 0 0 314.771-3.084 332.774 332.774 0 0 0 118.879-110.484 330.795 330.795 0 0 0 29.861-57.727 338.474 338.474 0 0 0 18.085-62.362 332.607 332.607 0 0 0-1.278-128.966 328.113 328.113 0 0 0-19.291-61.811 334.985 334.985 0 0 0-30.963-56.864 330.786 330.786 0 0 0-91.527-90.717 333.482 333.482 0 0 0-183.969-55.45 332.012 332.012 0 0 0-126.99 25.111 332.684 332.684 0 0 0-191.827 211.783 332.695 332.695 0 0 0 43.196 282.459l.032-.021Z" fill="url(#g)"/><path d="M219.97 710.009a317.908 317.908 0 0 1-48.331-114.071 320.662 320.662 0 0 1 16.121-183.969 319.47 319.47 0 0 1 67.715-104.415 319.991 319.991 0 1 1 351.38 518.896 319.543 319.543 0 0 1-122.115 24.103 324.282 324.282 0 0 1-62.103-6.132 319.483 319.483 0 0 1-59.681-17.992 324.067 324.067 0 0 1-55.014-29.206 317.834 317.834 0 0 1-87.972-87.214Zm0 0a314.767 314.767 0 0 0 233.022 137.086 314.78 314.78 0 0 0 253.404-94.222 314.29 314.29 0 0 0 66.582-102.721 320.18 320.18 0 0 0 17.077-58.964 313.762 313.762 0 0 0 5.353-61.094 317.922 317.922 0 0 0-6.579-60.897 315.206 315.206 0 0 0-134.1-197.959 314.278 314.278 0 0 0-112.813-46.449 320.532 320.532 0 0 0-61.105-6.039 314.534 314.534 0 0 0-120.11 23.708 314.698 314.698 0 0 0-181.576 200.32A314.69 314.69 0 0 0 219.97 710.04v-.031Z" fill="url(#h)"/><path d="M234.864 699.917a299.614 299.614 0 0 1-45.597-107.596 304.635 304.635 0 0 1-6.33-58.412 301.245 301.245 0 0 1 5.124-58.59 307.39 307.39 0 0 1 16.381-56.562 301.422 301.422 0 0 1 63.859-98.554A302.008 302.008 0 0 1 511.45 229.7a302.013 302.013 0 0 1 262.723 388.008 302 302 0 0 1-174.312 192.164 301.393 301.393 0 0 1-115.225 22.7 307.936 307.936 0 0 1-58.6-5.81 301.963 301.963 0 0 1-56.334-16.994 305.381 305.381 0 0 1-51.885-27.564 299.685 299.685 0 0 1-82.953-82.287Zm0 0a296.757 296.757 0 0 0 219.759 129.261 296.74 296.74 0 0 0 238.937-88.944 296.396 296.396 0 0 0 62.726-96.9 302.137 302.137 0 0 0 16.079-55.586 296.54 296.54 0 0 0 5.02-57.581 299.854 299.854 0 0 0-6.236-57.394 297.155 297.155 0 0 0-126.315-186.547 299.453 299.453 0 0 0-50.991-27.096 296.51 296.51 0 0 0-55.326-16.703 301.632 301.632 0 0 0-57.592-5.716 296.756 296.756 0 0 0-288.394 225.206 296.747 296.747 0 0 0-2.879 130.321 299.634 299.634 0 0 0 45.212 107.679Z" fill="url(#i)"/><path d="M249.759 689.836a281.792 281.792 0 0 1-42.874-101.131 287.457 287.457 0 0 1-5.956-54.91 283.029 283.029 0 0 1 4.791-55.087 288.823 288.823 0 0 1 15.352-53.164 283.273 283.273 0 0 1 59.993-92.701 284.026 284.026 0 0 1 214.826-86.204 284.03 284.03 0 0 1 207.645 102.3 284.038 284.038 0 0 1 21.329 333.783 284.047 284.047 0 0 1-82.847 84.495 283.75 283.75 0 0 1-157.496 47.364 288.955 288.955 0 0 1-55.087-5.488 282.867 282.867 0 0 1-52.915-15.985 286.872 286.872 0 0 1-48.767-25.922 281.77 281.77 0 0 1-77.994-77.35Zm0 0a278.784 278.784 0 0 0 365.389 87.848 278.794 278.794 0 0 0 99.543-92.775 276.773 276.773 0 0 0 24.944-48.362 284.615 284.615 0 0 0 15.082-52.197 279.277 279.277 0 0 0 4.698-54.047 282.749 282.749 0 0 0-5.852-53.892 279.216 279.216 0 0 0-118.634-175.165 278.807 278.807 0 0 0-352.382 35.904 278.808 278.808 0 0 0-32.788 352.686Z" fill="url(#j)"/><path d="M264.652 679.712a263.739 263.739 0 0 1-40.14-94.583 269.458 269.458 0 0 1-5.602-51.407 265.78 265.78 0 0 1 4.479-51.563 271.094 271.094 0 0 1 14.312-49.817 265.782 265.782 0 0 1 295.702-163.348 266.08 266.08 0 0 1 2.681 522.659 264.806 264.806 0 0 1-51.677 4.937 270.782 270.782 0 0 1-51.563-5.197 265.466 265.466 0 0 1-49.547-14.988 270.179 270.179 0 0 1-45.65-24.28 263.833 263.833 0 0 1-72.995-72.413Zm0 0A260.568 260.568 0 0 0 534.99 788.665a260.556 260.556 0 0 0 94.014-40.666 260.555 260.555 0 0 0 93.96-118.177 266.675 266.675 0 0 0 14.073-48.85 260.376 260.376 0 0 0 4.375-50.555 264.746 264.746 0 0 0-5.477-50.389 260.886 260.886 0 0 0-256.524-207.32 260.88 260.88 0 0 0-254.608 209.669 260.75 260.75 0 0 0 39.849 197.335Z" fill="url(#k)"/><path d="M279.547 669.661a245.708 245.708 0 0 1-37.417-88.201 251.159 251.159 0 0 1-5.197-47.884 247.722 247.722 0 0 1 4.158-48.06 253.186 253.186 0 0 1 13.355-46.408 247.834 247.834 0 0 1 89.272-112.429 248.054 248.054 0 0 1 319.32 31.122 248.055 248.055 0 0 1-178.745 420.807 252.671 252.671 0 0 1-48.071-4.833 247.664 247.664 0 0 1-46.138-14.031 251.258 251.258 0 0 1-42.531-22.638 245.835 245.835 0 0 1-68.006-67.445Zm0 0A242.797 242.797 0 0 0 483.3 776.337a242.795 242.795 0 0 0 201.332-111.176 240.926 240.926 0 0 0 21.65-42.116 247.866 247.866 0 0 0 13.076-45.441 242.292 242.292 0 0 0 4.043-47.042 245.846 245.846 0 0 0-5.114-46.876 242.61 242.61 0 0 0-189.976-188.272 242.794 242.794 0 0 0-249.978 103.64 242.787 242.787 0 0 0 1.214 270.607Z" fill="url(#l)"/><path d="M294.441 659.579a227.544 227.544 0 0 1-34.684-81.726 232.363 232.363 0 0 1-4.864-44.381 229.628 229.628 0 0 1 3.814-44.547 235.314 235.314 0 0 1 12.358-43.072A230.034 230.034 0 0 1 415.291 311.31a230.038 230.038 0 0 1 100.717-8.687 230.036 230.036 0 0 1 94.714 35.333 230.138 230.138 0 0 1 99.78 237.923 230.262 230.262 0 0 1-117.369 157.607 230.271 230.271 0 0 1-196.272 9.628 233.598 233.598 0 0 1-39.403-20.996 227.761 227.761 0 0 1-63.017-62.539Zm0 0a224.967 224.967 0 0 0 233.775 93.752 224.854 224.854 0 0 0 161.425-137.083 229.828 229.828 0 0 0 12.067-42.064 224.041 224.041 0 0 0 3.711-43.528 229.213 229.213 0 0 0-4.75-43.363 224.97 224.97 0 0 0-406.54-79.595 224.896 224.896 0 0 0 .291 251.881h.021Z" fill="url(#m)"/><path d="M309.335 649.487a209.816 209.816 0 0 1-31.96-75.261 215.116 215.116 0 0 1-4.501-40.878 210.505 210.505 0 0 1 3.503-41.024 217.038 217.038 0 0 1 11.35-39.663 211.877 211.877 0 0 1 235.469-130.68 212.038 212.038 0 0 1 171.405 180.724 212.035 212.035 0 0 1-118.683 218.986 212.031 212.031 0 0 1-172.281 4.793 216.244 216.244 0 0 1-36.284-19.353 209.88 209.88 0 0 1-58.018-57.644Zm0 0a206.91 206.91 0 0 0 215.254 86.268A206.831 206.831 0 0 0 672.98 609.471a211.739 211.739 0 0 0 11.07-38.685 205.964 205.964 0 0 0 3.398-40.016 210.411 210.411 0 0 0-4.386-39.86 206.658 206.658 0 0 0-161.549-160.167 206.836 206.836 0 0 0-243.754 243.4 209.418 209.418 0 0 0 31.576 75.344Z" fill="url(#n)"/></g><defs><linearGradient id="h" x1="318.271" y1="814.238" x2="651.704" y2="257.382" gradientUnits="userSpaceOnUse"><stop stop-color="#DBBC9A" stop-opacity="0"/><stop offset="1" stop-color="#C4A27A"/></linearGradient><linearGradient id="b" x1="262.057" y1="909.917" x2="707.943" y2="165.209" gradientUnits="userSpaceOnUse"><stop stop-color="#DBBC9A" stop-opacity="0"/><stop offset="1" stop-color="#C4A27A"/></linearGradient><linearGradient id="d" x1="280.779" y1="878.023" x2="689.275" y2="195.948" gradientUnits="userSpaceOnUse"><stop stop-color="#DBBC9A" stop-opacity="0"/><stop offset="1" stop-color="#C4A27A"/></linearGradient><linearGradient id="e" x1="290.299" y1="862.062" x2="680.105" y2="211.036" gradientUnits="userSpaceOnUse"><stop stop-color="#DBBC9A" stop-opacity="0"/><stop offset="1" stop-color="#C4A27A"/></linearGradient><linearGradient id="f" x1="299.552" y1="846.14" x2="670.545" y2="226.565" gradientUnits="userSpaceOnUse"><stop stop-color="#DBBC9A" stop-opacity="0"/><stop offset="1" stop-color="#C4A27A"/></linearGradient><linearGradient id="g" x1="308.948" y1="830.144" x2="661.253" y2="241.782" gradientUnits="userSpaceOnUse"><stop stop-color="#DBBC9A" stop-opacity="0"/><stop offset="1" stop-color="#C4A27A"/></linearGradient><linearGradient id="c" x1="271.433" y1="893.981" x2="698.69" y2="180.551" gradientUnits="userSpaceOnUse"><stop stop-color="#DBBC9A" stop-opacity="0"/><stop offset="1" stop-color="#C4A27A"/></linearGradient><linearGradient id="i" x1="327.655" y1="798.295" x2="642.365" y2="272.664" gradientUnits="userSpaceOnUse"><stop stop-color="#DBBC9A" stop-opacity="0"/><stop offset="1" stop-color="#C4A27A"/></linearGradient><linearGradient id="j" x1="337.046" y1="782.34" x2="633.063" y2="287.94" gradientUnits="userSpaceOnUse"><stop stop-color="#DBBC9A" stop-opacity="0"/><stop offset="1" stop-color="#C4A27A"/></linearGradient><linearGradient id="k" x1="346.329" y1="766.396" x2="623.615" y2="303.49" gradientUnits="userSpaceOnUse"><stop stop-color="#DBBC9A" stop-opacity="0"/><stop offset="1" stop-color="#C4A27A"/></linearGradient><linearGradient id="l" x1="355.791" y1="750.456" x2="614.276" y2="318.74" gradientUnits="userSpaceOnUse"><stop stop-color="#DBBC9A" stop-opacity="0"/><stop offset="1" stop-color="#C4A27A"/></linearGradient><linearGradient id="m" x1="365.114" y1="734.458" x2="604.804" y2="334.114" gradientUnits="userSpaceOnUse"><stop stop-color="#DBBC9A" stop-opacity="0"/><stop offset="1" stop-color="#C4A27A"/></linearGradient><linearGradient id="n" x1="374.337" y1="718.403" x2="595.354" y2="349.667" gradientUnits="userSpaceOnUse"><stop stop-color="#DBBC9A" stop-opacity="0"/><stop offset="1" stop-color="#C4A27A"/></linearGradient></defs></svg>