<svg width="485" height="548" viewBox="0 0 485 548" fill="none" xmlns="http://www.w3.org/2000/svg">
<mask id="mask0_131_1332" style="mask-type:alpha" maskUnits="userSpaceOnUse" x="0" y="0" width="485" height="548">
<rect width="485" height="548" fill="#D9D9D9"/>
</mask>
<g mask="url(#mask0_131_1332)">
<path d="M130.647 770.522C114.998 747.459 101.631 722.929 90.7348 697.277C79.8549 671.619 71.541 644.947 65.9146 617.651C48.8248 535.18 56.4166 449.501 87.7415 371.32C108.599 319.274 139.502 271.846 178.687 231.742C248.02 160.696 339.897 115.965 438.584 105.208C537.27 94.4512 636.626 118.338 719.638 172.779C743.195 188.245 765.167 206.001 785.233 225.787C805.306 245.602 823.406 267.319 839.28 290.633C874.882 343.206 898.338 403.043 907.948 465.805C917.559 528.567 913.083 592.68 894.845 653.498C876.607 714.316 845.064 770.312 802.503 817.429C759.942 864.545 707.43 901.601 648.774 925.908C596.988 947.387 541.479 958.456 485.416 958.482C457.504 958.473 429.658 955.768 402.266 950.406C347.397 939.635 295.174 918.208 248.553 887.337C225.299 871.978 203.619 854.358 183.831 834.734C164.065 815.103 146.253 793.598 130.647 770.522ZM130.647 770.522C146.298 793.552 164.152 815.005 183.956 834.578C253.827 903.543 345.544 946.008 443.335 954.669C541.126 963.33 638.879 937.647 719.784 882.036C742.594 866.353 763.827 848.492 783.185 828.706C821.874 789.088 852.375 742.235 872.946 690.823C883.176 665.21 890.91 638.669 896.04 611.571C906.272 557.305 905.777 501.561 894.585 447.485C889.018 420.525 880.802 394.181 870.056 368.836C848.498 318.043 817.271 271.927 778.113 233.052C758.573 213.662 737.161 196.255 714.192 181.083C644.789 135.184 563.406 110.74 480.198 110.801C424.816 110.839 369.985 121.787 318.835 143.022C228.231 180.552 153.494 248.415 107.423 334.99C61.3519 421.564 46.8141 521.463 66.2992 617.578C71.8604 644.866 80.1046 671.538 90.9115 697.204C101.749 722.874 115.057 747.428 130.647 770.522Z" fill="url(#paint0_linear_131_1332)"/>
<path d="M145.499 760.44C130.529 738.349 117.74 714.857 107.312 690.293C96.8893 665.72 88.9235 640.176 83.5314 614.034C67.1845 535.04 74.4613 452.982 104.454 378.097C124.41 328.245 153.981 282.807 191.481 244.371C210.242 225.184 230.821 207.863 252.928 192.652C331.383 138.693 426.192 113.764 521.041 122.155C615.89 130.545 704.85 171.73 772.614 238.624C791.831 257.615 809.159 278.428 824.354 300.768C858.46 351.134 880.93 408.459 890.133 468.586C899.337 528.713 895.044 590.135 877.566 648.397C860.087 706.659 829.862 760.301 789.081 805.433C748.3 850.565 697.987 886.055 641.789 909.33C592.178 929.894 539.004 940.489 485.301 940.512C458.561 940.5 431.885 937.906 405.643 932.768C353.114 922.424 303.121 901.887 258.489 872.318C236.219 857.607 215.458 840.728 196.511 821.93C177.552 803.138 160.467 782.544 145.499 760.44ZM145.499 760.44C160.505 782.488 177.617 803.025 196.594 821.763C244.087 868.599 302.425 902.966 366.412 921.802C430.4 940.639 498.052 943.362 563.347 929.729C628.641 916.095 689.551 886.528 740.655 843.66C791.758 800.792 831.469 745.953 856.253 684.026C866.041 659.504 873.441 634.095 878.35 608.152C888.12 556.21 887.633 502.857 876.915 451.102C871.586 425.298 863.725 400.082 853.446 375.821C832.787 327.229 802.897 283.106 765.432 245.899C746.725 227.346 726.234 210.684 704.255 196.155C637.822 152.211 559.922 128.798 480.27 128.835C427.252 128.843 374.755 139.297 325.778 159.6C276.482 179.959 231.701 209.871 194.014 247.611C156.328 285.352 126.481 330.176 106.193 379.501C85.9047 428.827 75.5761 481.679 75.8021 535.013C76.0281 588.348 86.8042 641.11 107.51 690.262C117.872 714.829 130.595 738.332 145.499 760.44Z" fill="url(#paint1_linear_131_1332)"/>
<path d="M160.393 750.389C146.081 729.279 133.856 706.827 123.891 683.35C113.928 659.861 106.31 635.446 101.149 610.459C85.5137 534.948 92.4579 456.505 121.115 384.915C140.171 337.256 168.425 293.815 204.265 257.072C240.286 220.05 283.277 190.521 330.761 170.188C378.245 149.855 429.284 139.119 480.936 138.599C532.588 138.079 583.832 147.786 631.715 167.159C679.599 186.533 723.176 215.19 759.934 251.48C778.315 269.638 794.888 289.538 809.419 310.901C845.657 364.436 868.09 426.102 874.721 490.408C881.352 554.713 871.974 619.66 847.423 679.462C822.872 739.265 783.91 792.067 734.009 833.164C684.107 874.26 624.815 902.376 561.414 915.005C536.312 919.999 510.78 922.513 485.187 922.509C459.625 922.487 434.126 919.998 409.042 915.078C358.814 905.199 311.009 885.569 268.332 857.299C247.047 843.233 227.203 827.1 209.088 809.135C190.99 791.178 174.682 771.504 160.393 750.389ZM160.393 750.389C174.739 771.476 191.099 791.119 209.244 809.041C254.632 853.8 310.384 886.64 371.536 904.636C432.688 922.632 497.341 925.227 559.739 912.188C622.136 899.15 680.34 870.883 729.169 829.905C777.998 788.927 815.935 736.51 839.602 677.322C848.945 653.89 856.008 629.612 860.691 604.825C865.352 580.057 867.576 554.891 867.333 529.689C867.079 504.512 864.388 479.419 859.298 454.761C854.206 430.113 846.693 406.029 836.869 382.857C827.026 359.692 814.965 337.533 800.854 316.691C772.616 274.856 736.424 238.986 694.34 211.122C630.875 169.138 556.459 146.759 480.364 146.774C429.719 146.782 379.57 156.752 332.773 176.116C249.835 210.42 181.41 272.502 139.223 351.723C97.037 430.943 83.7163 522.37 101.544 610.334C106.634 635.313 114.178 659.729 124.067 683.225C133.969 706.738 146.135 729.232 160.393 750.389Z" fill="url(#paint2_linear_131_1332)"/>
<path d="M175.34 740.266C147.929 699.916 128.727 654.566 118.829 606.8C103.91 534.773 110.518 459.948 137.829 391.65C156.001 346.173 182.948 304.718 217.133 269.649C253.698 232.041 297.766 202.545 346.473 183.078C395.181 163.611 447.439 154.608 499.853 156.654C552.267 158.7 603.664 171.749 650.706 194.953C697.748 218.158 739.382 250.999 772.905 291.343C806.427 331.687 831.088 378.632 845.285 429.128C859.482 479.624 862.897 532.542 855.309 584.444C847.721 636.346 829.3 686.071 801.242 730.39C773.184 774.708 736.117 812.629 692.448 841.688C672.07 855.245 650.422 866.788 627.809 876.154C582.552 894.882 534.052 904.52 485.072 904.518C460.687 904.487 436.361 902.109 412.431 897.419C315.755 878.384 230.528 821.892 175.34 740.266ZM175.34 740.266C209.451 790.65 255.501 831.809 309.384 860.073C363.266 888.337 423.305 902.827 484.147 902.252C544.99 901.677 604.744 886.054 658.082 856.776C711.42 827.498 756.684 785.476 789.837 734.456C802.961 714.277 814.064 692.852 822.983 670.493C831.88 648.155 838.608 625.012 843.074 601.385C851.942 554.064 851.462 505.464 841.66 458.326C836.807 434.833 829.646 411.876 820.28 389.79C810.91 367.712 799.423 346.594 785.981 326.731C759.071 286.865 724.577 252.685 684.466 226.141C623.982 186.099 553.047 164.749 480.51 164.756C432.221 164.736 384.401 174.226 339.779 192.683C289.176 213.584 243.863 245.492 207.132 286.091C170.401 326.69 143.174 374.961 127.427 427.396C111.681 479.832 107.811 535.117 116.098 589.235C124.386 643.353 144.623 694.946 175.34 740.266Z" fill="url(#paint3_linear_131_1332)"/>
<path d="M190.182 730.172C164.099 691.779 145.822 648.63 136.395 603.182C131.705 580.48 129.219 557.378 128.974 534.199C128.749 511.016 130.789 487.867 135.064 465.08C139.369 442.275 145.856 419.937 154.438 398.374C171.727 355.089 197.359 315.627 229.876 282.234C264.69 246.461 306.638 218.409 352.997 199.9C399.355 181.39 449.089 172.837 498.967 174.796C548.846 176.754 597.756 189.18 642.521 211.268C687.285 233.355 726.905 264.61 758.806 303.003C790.708 341.395 814.179 386.068 827.696 434.121C841.212 482.173 844.472 532.531 837.264 581.925C830.056 631.319 812.54 678.645 785.855 720.831C759.169 763.016 723.91 799.118 682.366 826.792C662.966 839.699 642.355 850.685 620.825 859.595C577.749 877.412 531.585 886.57 484.969 886.546C461.762 886.518 438.611 884.249 415.84 879.769C323.823 861.646 242.705 807.871 190.182 730.172ZM190.182 730.172C219.38 773.301 257.816 809.385 302.7 835.804C347.584 862.223 397.788 878.314 449.667 882.908C501.546 887.503 553.797 880.485 602.625 862.364C651.453 844.244 695.633 815.476 731.955 778.15C763.992 745.248 789.244 706.365 806.27 663.715C814.728 642.469 821.119 620.457 825.353 597.985C833.79 552.989 833.345 506.777 824.043 461.952C819.421 439.613 812.608 417.785 803.703 396.783C794.778 375.791 783.845 355.711 771.056 336.822C745.465 298.928 712.671 266.437 674.54 241.2C617.026 203.113 549.575 182.794 480.593 182.777C434.668 182.747 389.184 191.749 346.733 209.27C298.579 229.132 255.455 259.473 220.496 298.088C185.536 336.702 159.618 382.62 144.626 432.505C129.634 482.39 125.943 534.989 133.824 586.478C141.704 637.968 160.956 687.055 190.182 730.172Z" fill="url(#paint4_linear_131_1332)"/>
<path d="M205.076 720.092C180.311 683.643 162.963 642.675 154.022 599.525C149.56 577.978 147.197 556.048 146.964 534.045C146.743 512.041 148.675 490.068 152.733 468.44C156.811 446.793 162.961 425.59 171.099 405.121C187.49 364.017 211.813 326.542 242.68 294.833C275.722 260.823 315.551 234.145 359.577 216.534C403.604 198.923 450.843 190.773 498.226 192.613C545.609 194.453 592.074 206.242 634.602 227.214C677.131 248.186 714.77 277.871 745.076 314.342C775.381 350.812 797.674 393.251 810.505 438.9C823.336 484.549 826.419 532.387 819.552 579.306C812.686 626.224 796.025 671.173 770.651 711.231C745.277 751.289 711.758 785.56 672.273 811.817C653.852 824.08 634.282 834.523 613.84 842.998C572.931 859.87 529.105 868.54 484.854 868.515C462.826 868.474 440.852 866.313 419.238 862.06C331.932 844.822 254.974 793.783 205.128 720.061L205.076 720.092ZM205.076 720.092C235.874 765.572 277.45 802.722 326.097 828.225C374.743 853.73 428.946 866.795 483.87 866.257C538.794 865.719 592.731 851.593 640.868 825.141C689.006 798.688 729.846 760.731 759.747 714.657C771.571 696.441 781.574 677.106 789.608 656.93C797.621 636.77 803.677 615.887 807.693 594.568C815.686 551.907 815.251 508.095 806.415 465.602C802.038 444.413 795.577 423.708 787.124 403.791C778.663 383.881 768.294 364.837 756.161 346.927C731.894 310.98 700.795 280.156 664.634 256.21C610.079 220.078 546.1 200.794 480.665 200.76C437.098 200.717 393.947 209.25 353.675 225.871C307.976 244.705 267.049 273.485 233.867 310.119C200.685 346.753 176.083 390.32 161.848 437.654C147.614 484.987 144.105 534.898 151.577 583.757C159.049 632.617 177.314 679.197 205.044 720.113L205.076 720.092Z" fill="url(#paint5_linear_131_1332)"/>
<path d="M219.97 710.009C196.535 675.523 180.113 636.763 171.639 595.938C158.856 534.361 164.462 470.385 187.76 411.969C203.268 373.062 226.277 337.584 255.475 307.554C288.605 273.474 328.911 247.203 373.465 230.648C418.018 214.094 465.7 207.672 513.045 211.85C560.391 216.028 606.211 230.7 647.177 254.801C688.142 278.902 723.225 311.827 749.875 351.182C776.525 390.537 794.073 435.334 801.245 482.32C808.417 529.305 805.032 577.298 791.335 622.811C777.639 668.325 753.976 710.216 722.066 745.44C690.155 780.665 650.799 808.338 606.855 826.45C568.124 842.411 526.631 850.601 484.74 850.553C463.89 850.51 443.093 848.457 422.637 844.421C402.205 840.383 382.216 834.358 362.956 826.429C343.723 818.483 325.3 808.702 307.942 797.223C273.182 774.203 243.29 744.569 219.97 710.009ZM219.97 710.009C246.188 748.734 280.706 781.13 321.014 804.843C361.322 828.556 406.407 842.99 452.992 847.095C499.577 851.2 546.491 844.873 590.325 828.575C634.158 812.276 673.809 786.416 706.396 752.873C735.108 723.328 757.731 688.425 772.978 650.152C780.546 631.09 786.264 611.344 790.055 591.188C793.83 571.047 795.623 550.585 795.408 530.094C795.18 509.631 792.977 489.237 788.829 469.197C771.863 388.16 723.693 317.052 654.729 271.238C620.52 248.535 582.193 232.754 541.916 224.789C521.787 220.825 501.325 218.803 480.811 218.75C439.608 218.709 398.798 226.765 360.701 242.458C317.452 260.258 278.714 287.473 247.305 322.125C215.895 356.777 192.604 397.994 179.125 442.778C165.646 487.562 162.318 534.787 169.384 581.019C176.449 627.251 193.73 671.326 219.97 710.04L219.97 710.009Z" fill="url(#paint6_linear_131_1332)"/>
<path d="M234.864 699.917C212.75 667.392 197.257 630.832 189.267 592.321C185.28 573.1 183.16 553.538 182.937 533.909C182.73 514.258 184.446 494.635 188.061 475.319C191.699 455.984 197.184 437.043 204.442 418.757C219.061 382.037 240.759 348.55 268.301 320.203C299.559 288 337.601 263.167 379.662 247.512C421.722 231.856 466.743 225.772 511.45 229.7C556.157 233.629 599.427 247.472 638.112 270.223C676.797 292.974 709.926 324.061 735.089 361.223C760.251 398.384 776.815 440.687 783.576 485.054C790.337 529.421 787.125 574.738 774.173 617.708C761.222 660.678 738.856 700.221 708.703 733.462C678.551 766.703 641.368 792.806 599.861 809.872C563.312 824.921 524.161 832.634 484.636 832.572C464.962 832.512 445.339 830.566 426.036 826.762C406.75 822.945 387.882 817.253 369.702 809.768C351.561 802.269 334.186 793.038 317.817 782.204C285.035 760.483 256.848 732.523 234.864 699.917ZM234.864 699.917C259.587 736.439 292.14 766.991 330.154 789.351C368.169 811.711 410.689 825.316 454.623 829.178C498.556 833.04 542.798 827.06 584.13 811.674C625.462 796.289 662.845 771.883 693.56 740.234C720.617 712.357 741.93 679.432 756.286 643.334C763.412 625.362 768.796 606.748 772.365 587.748C775.909 568.764 777.591 549.478 777.385 530.167C777.157 510.88 775.069 491.659 771.149 472.773C755.162 396.421 709.792 329.418 644.834 286.226C628.75 275.573 611.673 266.498 593.843 259.13C575.989 251.774 557.459 246.18 538.517 242.427C519.547 238.68 500.261 236.766 480.925 236.711C436.937 236.653 393.486 246.375 353.717 265.173C313.948 283.971 278.855 311.375 250.978 345.401C223.101 379.428 203.137 419.227 192.531 461.917C181.924 504.607 180.941 549.121 189.652 592.238C197.514 630.749 212.877 667.337 234.864 699.917Z" fill="url(#paint7_linear_131_1332)"/>
<path d="M249.759 689.836C228.972 659.264 214.404 624.901 206.885 588.705C203.142 570.635 201.147 552.247 200.929 533.795C200.724 515.32 202.329 496.87 205.72 478.708C209.124 460.536 214.265 442.733 221.072 425.544C234.795 391.008 255.18 359.509 281.065 332.843C308.814 304.197 342.285 281.716 379.298 266.864C416.311 252.011 456.038 245.12 495.891 246.639C535.744 248.157 574.831 258.051 610.607 275.677C646.383 293.303 678.046 318.265 703.536 348.939C729.025 379.613 747.769 415.311 758.547 453.709C769.325 492.107 771.897 532.345 766.093 571.803C760.29 611.26 746.243 649.054 724.865 682.722C703.487 716.391 675.259 745.181 642.018 767.217C595.346 798.207 540.545 814.687 484.522 814.581C466.026 814.519 447.579 812.681 429.435 809.093C411.317 805.505 393.594 800.151 376.52 793.108C359.469 786.056 343.137 777.375 327.753 767.186C296.932 746.769 270.431 720.486 249.759 689.836ZM249.759 689.836C275.581 727.969 310.449 759.112 351.245 780.48C392.042 801.848 437.497 812.777 483.548 812.289C529.6 811.801 574.813 799.912 615.148 777.684C655.482 755.456 689.682 723.581 714.691 684.909C724.574 669.647 732.929 653.448 739.635 636.547C746.315 619.669 751.366 602.19 754.717 584.35C758.033 566.529 759.607 548.428 759.415 530.303C759.195 512.193 757.235 494.146 753.563 476.411C738.526 404.722 695.919 341.813 634.929 301.246C581.129 265.477 516.577 249.502 452.304 256.051C388.031 262.6 328.028 291.266 282.547 337.15C237.066 383.034 208.932 443.289 202.952 507.617C196.971 571.945 213.516 636.354 249.759 689.836Z" fill="url(#paint8_linear_131_1332)"/>
<path d="M264.652 679.712C245.201 651.121 231.562 618.984 224.512 585.129C221.001 568.213 219.125 550.998 218.91 533.722C218.722 516.429 220.222 499.16 223.389 482.159C226.558 465.134 231.35 448.452 237.701 432.342C260.411 375.055 302.321 327.44 356.261 297.643C410.201 267.846 472.82 257.719 533.403 268.994C594.245 280.319 649.236 312.498 688.913 359.993C728.589 407.489 750.469 467.329 750.786 529.215C751.104 591.101 729.839 651.162 690.652 699.062C651.465 746.962 596.807 779.704 536.084 791.653C519.062 794.987 501.753 796.641 484.407 796.59C467.092 796.51 449.826 794.77 432.844 791.393C415.879 788.023 399.285 783.003 383.297 776.405C367.339 769.79 352.053 761.659 337.647 752.125C308.802 733.008 284 708.404 264.652 679.712ZM264.652 679.712C283.955 708.283 308.736 732.74 337.56 751.663C366.383 770.587 398.676 783.602 432.566 789.953C466.456 796.305 501.27 795.867 534.99 788.665C568.71 781.464 600.666 767.641 629.004 747.999C671.301 718.743 703.993 677.624 722.964 629.822C729.2 614.024 733.912 597.667 737.037 580.972C740.138 564.303 741.603 547.371 741.412 530.417C741.202 513.484 739.368 496.61 735.935 480.028C723.597 421.213 691.332 368.46 644.593 330.686C597.853 292.911 539.506 272.432 479.411 272.708C419.316 272.984 361.159 293.999 314.769 332.202C268.378 370.404 236.6 423.451 224.803 482.377C218.036 516.269 218.075 551.168 224.916 585.045C231.757 618.923 245.264 651.102 264.652 679.712Z" fill="url(#paint9_linear_131_1332)"/>
<path d="M279.547 669.661C261.408 643.001 248.694 613.031 242.13 581.46C238.868 565.702 237.127 549.667 236.933 533.576C236.752 517.459 238.145 501.362 241.091 485.516C244.054 469.656 248.526 454.116 254.446 439.108C272.46 393.645 303.52 354.527 343.718 326.679C375.725 304.494 412.506 290.158 451.084 284.829C489.661 279.501 528.952 283.33 565.774 296.007C602.597 308.685 635.917 329.854 663.038 357.801C690.16 385.749 710.32 419.689 721.887 456.875C733.454 494.062 736.103 533.449 729.619 571.849C723.136 610.25 707.702 646.584 684.568 677.911C661.433 709.239 631.247 734.679 596.454 752.173C561.66 769.667 523.237 778.723 484.293 778.608C468.152 778.536 452.055 776.918 436.222 773.775C420.423 770.61 404.971 765.911 390.084 759.744C375.215 753.578 360.972 745.997 347.553 737.106C320.682 719.301 297.575 696.384 279.547 669.661ZM279.547 669.661C302.046 702.898 332.433 730.039 367.991 748.656C403.548 767.272 443.166 776.783 483.3 776.337C523.433 775.891 562.83 765.502 597.965 746.101C633.101 726.699 662.878 698.89 684.632 665.161C693.214 651.867 700.466 637.761 706.282 623.045C712.079 608.35 716.457 593.133 719.358 577.604C722.234 562.092 723.588 546.337 723.401 530.562C723.202 514.809 721.49 499.112 718.287 483.686C708.557 437.14 685.362 394.479 651.587 361.007C617.811 327.534 574.943 304.725 528.311 295.414C481.062 285.93 432.06 290.721 387.544 309.177C343.027 327.633 305.01 358.92 278.333 399.054C251.656 439.187 237.526 486.352 237.742 534.542C237.959 582.733 252.511 629.769 279.547 669.661Z" fill="url(#paint10_linear_131_1332)"/>
<path d="M294.441 659.579C277.626 634.879 265.84 607.108 259.757 577.853C256.715 563.25 255.086 548.388 254.893 533.472C254.712 518.534 255.99 503.614 258.707 488.925C261.447 474.207 265.585 459.784 271.065 445.853C283.625 414.136 303.081 385.609 328.026 362.339C352.971 339.069 382.779 321.638 415.291 311.31C447.804 300.982 482.207 298.015 516.008 302.623C549.808 307.232 582.161 319.301 610.722 337.956C649.221 363.106 679.302 399.213 697.087 441.62C714.872 484.028 719.544 530.791 710.502 575.879C703.777 609.181 689.766 640.583 669.474 667.831C649.182 695.08 623.112 717.501 593.133 733.486C563.154 749.471 530.009 758.624 496.075 760.289C462.142 761.953 428.26 756.088 396.861 743.114C383.086 737.389 369.892 730.359 357.458 722.118C332.553 705.607 311.141 684.357 294.441 659.579ZM294.441 659.579C319.609 696.744 355.319 725.53 396.979 742.237C438.639 758.944 484.343 762.807 528.216 753.331C564.313 745.498 597.924 728.893 626.079 704.984C654.233 681.075 676.064 650.599 689.641 616.248C694.992 602.642 699.033 588.557 701.708 574.184C704.36 559.83 705.603 545.251 705.419 530.656C705.218 516.083 703.627 501.563 700.669 487.293C691.563 444.063 669.929 404.47 638.468 373.455C607.007 342.439 567.11 321.374 523.754 312.885C480.398 304.397 435.503 308.861 394.668 325.722C353.833 342.583 318.866 371.094 294.129 407.698C269.035 444.917 255.653 488.794 255.705 533.683C255.756 578.572 269.24 622.418 294.42 659.579L294.441 659.579Z" fill="url(#paint11_linear_131_1332)"/>
<path d="M309.335 649.487C293.849 626.739 282.99 601.166 277.375 574.226C274.573 560.775 273.065 547.086 272.874 533.348C272.698 519.591 273.872 505.851 276.377 492.324C278.892 478.773 282.693 465.492 287.727 452.661C305.741 406.959 339.076 368.936 382.029 345.098C424.982 321.26 474.884 313.089 523.196 321.981C552.384 327.415 580.105 338.918 604.565 355.745C629.025 372.572 649.679 394.348 665.189 419.664C680.699 444.98 690.719 473.27 694.601 502.705C698.484 532.139 696.142 562.06 687.726 590.532C679.311 619.003 665.01 645.39 645.75 667.984C626.489 690.578 602.699 708.875 575.918 721.691C549.138 734.507 519.965 741.556 490.287 742.381C460.609 743.207 431.089 737.791 403.637 726.484C390.955 721.2 378.805 714.72 367.353 707.131C344.421 691.907 324.707 672.32 309.335 649.487ZM309.335 649.487C332.494 683.721 365.375 710.235 403.741 725.611C442.106 740.987 484.197 744.52 524.589 735.755C557.795 728.517 588.705 713.208 614.587 691.182C640.469 669.156 660.525 641.092 672.98 609.471C677.89 596.957 681.596 584.003 684.05 570.786C686.483 557.59 687.622 544.188 687.448 530.77C687.258 517.374 685.79 504.027 683.062 490.91C674.757 451.336 655.025 415.067 626.31 386.597C597.594 358.127 561.157 338.707 521.513 330.743C488.095 323.992 453.526 325.607 420.883 335.443C388.24 345.28 358.535 363.033 334.41 387.122C310.285 411.212 292.489 440.892 282.606 473.521C272.722 506.149 271.057 540.715 277.759 574.143C283.236 601.087 293.966 626.689 309.335 649.487Z" fill="url(#paint12_linear_131_1332)"/>
</g>
<defs>
<linearGradient id="paint0_linear_131_1332" x1="262.057" y1="909.917" x2="707.943" y2="165.209" gradientUnits="userSpaceOnUse">
<stop stop-color="#DBBC9A" stop-opacity="0"/>
<stop offset="1" stop-color="#C4A27A"/>
</linearGradient>
<linearGradient id="paint1_linear_131_1332" x1="271.433" y1="893.981" x2="698.69" y2="180.551" gradientUnits="userSpaceOnUse">
<stop stop-color="#DBBC9A" stop-opacity="0"/>
<stop offset="1" stop-color="#C4A27A"/>
</linearGradient>
<linearGradient id="paint2_linear_131_1332" x1="280.779" y1="878.023" x2="689.275" y2="195.948" gradientUnits="userSpaceOnUse">
<stop stop-color="#DBBC9A" stop-opacity="0"/>
<stop offset="1" stop-color="#C4A27A"/>
</linearGradient>
<linearGradient id="paint3_linear_131_1332" x1="290.299" y1="862.062" x2="680.105" y2="211.036" gradientUnits="userSpaceOnUse">
<stop stop-color="#DBBC9A" stop-opacity="0"/>
<stop offset="1" stop-color="#C4A27A"/>
</linearGradient>
<linearGradient id="paint4_linear_131_1332" x1="299.552" y1="846.14" x2="670.545" y2="226.565" gradientUnits="userSpaceOnUse">
<stop stop-color="#DBBC9A" stop-opacity="0"/>
<stop offset="1" stop-color="#C4A27A"/>
</linearGradient>
<linearGradient id="paint5_linear_131_1332" x1="308.948" y1="830.144" x2="661.253" y2="241.782" gradientUnits="userSpaceOnUse">
<stop stop-color="#DBBC9A" stop-opacity="0"/>
<stop offset="1" stop-color="#C4A27A"/>
</linearGradient>
<linearGradient id="paint6_linear_131_1332" x1="318.271" y1="814.238" x2="651.704" y2="257.382" gradientUnits="userSpaceOnUse">
<stop stop-color="#DBBC9A" stop-opacity="0"/>
<stop offset="1" stop-color="#C4A27A"/>
</linearGradient>
<linearGradient id="paint7_linear_131_1332" x1="327.655" y1="798.295" x2="642.365" y2="272.664" gradientUnits="userSpaceOnUse">
<stop stop-color="#DBBC9A" stop-opacity="0"/>
<stop offset="1" stop-color="#C4A27A"/>
</linearGradient>
<linearGradient id="paint8_linear_131_1332" x1="337.046" y1="782.34" x2="633.063" y2="287.94" gradientUnits="userSpaceOnUse">
<stop stop-color="#DBBC9A" stop-opacity="0"/>
<stop offset="1" stop-color="#C4A27A"/>
</linearGradient>
<linearGradient id="paint9_linear_131_1332" x1="346.329" y1="766.396" x2="623.615" y2="303.49" gradientUnits="userSpaceOnUse">
<stop stop-color="#DBBC9A" stop-opacity="0"/>
<stop offset="1" stop-color="#C4A27A"/>
</linearGradient>
<linearGradient id="paint10_linear_131_1332" x1="355.791" y1="750.456" x2="614.276" y2="318.74" gradientUnits="userSpaceOnUse">
<stop stop-color="#DBBC9A" stop-opacity="0"/>
<stop offset="1" stop-color="#C4A27A"/>
</linearGradient>
<linearGradient id="paint11_linear_131_1332" x1="365.114" y1="734.458" x2="604.804" y2="334.114" gradientUnits="userSpaceOnUse">
<stop stop-color="#DBBC9A" stop-opacity="0"/>
<stop offset="1" stop-color="#C4A27A"/>
</linearGradient>
<linearGradient id="paint12_linear_131_1332" x1="374.337" y1="718.403" x2="595.354" y2="349.667" gradientUnits="userSpaceOnUse">
<stop stop-color="#DBBC9A" stop-opacity="0"/>
<stop offset="1" stop-color="#C4A27A"/>
</linearGradient>
</defs>
</svg>
