<svg width="485" height="548" fill="none" xmlns="http://www.w3.org/2000/svg"><mask id="a" style="mask-type:alpha" maskUnits="userSpaceOnUse" x="0" y="0" width="485" height="548"><path fill="#D9D9D9" d="M0 0h485v548H0z"/></mask><g mask="url(#a)"><path d="M354.848 770.522a429.664 429.664 0 0 0 39.912-73.245 422.366 422.366 0 0 0 24.82-79.626 428.52 428.52 0 0 0-21.827-246.331 427 427 0 0 0-90.945-139.578 427.943 427.943 0 0 0-540.951-58.963 427.896 427.896 0 0 0-65.595 53.008 435.62 435.62 0 0 0-54.048 64.846 427.94 427.94 0 0 0-55.564 362.865 427.94 427.94 0 0 0 92.341 163.931 427.94 427.94 0 0 0 153.73 108.479A426.903 426.903 0 0 0 .079 958.482a433.564 433.564 0 0 0 83.15-8.076 427.617 427.617 0 0 0 153.713-63.069 422.924 422.924 0 0 0 64.721-52.603 430.099 430.099 0 0 0 53.185-64.212Zm0 0a429.437 429.437 0 0 1-53.309 64.056 422.266 422.266 0 0 1-535.828 47.458 427.707 427.707 0 0 1-63.402-53.33 421.437 421.437 0 0 1-89.76-137.883 428.614 428.614 0 0 1-23.095-79.252 422.983 422.983 0 0 1 1.455-164.086 418.137 418.137 0 0 1 24.53-78.649 425.673 425.673 0 0 1 91.942-135.784 417.187 417.187 0 0 1 63.922-51.969A423.63 423.63 0 0 1 5.297 110.801a421.594 421.594 0 0 1 161.362 32.221 422.739 422.739 0 0 1 252.536 474.556 422.69 422.69 0 0 1-24.612 79.626 429.807 429.807 0 0 1-39.735 73.318Z" fill="url(#b)"/><path d="M339.996 760.44a412.04 412.04 0 0 0 38.186-70.147 404.593 404.593 0 0 0 23.781-76.259 410.722 410.722 0 0 0-20.922-235.937 409.337 409.337 0 0 0-87.027-133.726 414.704 414.704 0 0 0-61.448-51.719 409.457 409.457 0 0 0-519.686 45.972 417.56 417.56 0 0 0-51.74 62.144 409.922 409.922 0 0 0 35.274 504.665A409.903 409.903 0 0 0-156.294 909.33 409.134 409.134 0 0 0 .194 940.512a415.535 415.535 0 0 0 79.657-7.744 409.798 409.798 0 0 0 147.155-60.45 404.788 404.788 0 0 0 61.978-50.388 411.238 411.238 0 0 0 51.012-61.49Zm0 0a411.726 411.726 0 0 1-51.096 61.323 404.557 404.557 0 0 1-544.06 21.897 404.552 404.552 0 0 1-115.598-159.634 410.6 410.6 0 0 1-22.097-75.874 405.126 405.126 0 0 1 1.434-157.05 400.87 400.87 0 0 1 23.469-75.281 408.208 408.208 0 0 1 88.014-129.922 400.558 400.558 0 0 1 61.178-49.744 405.647 405.647 0 0 1 223.984-67.32A403.594 403.594 0 0 1 159.717 159.6a404.32 404.32 0 0 1 218.268 530.662 412.023 412.023 0 0 1-37.989 70.178Z" fill="url(#c)"/><path d="M325.101 750.389a393.395 393.395 0 0 0 36.503-67.039 387.367 387.367 0 0 0 22.742-72.891 392.665 392.665 0 0 0-19.967-225.544 390.934 390.934 0 0 0-83.15-127.843A391.507 391.507 0 0 0 4.559 138.599 391.518 391.518 0 0 0-274.44 251.48a398.823 398.823 0 0 0-49.484 59.421 391.95 391.95 0 0 0 75.41 522.263A391.947 391.947 0 0 0-75.92 915.005a390.347 390.347 0 0 0 76.228 7.504 397.378 397.378 0 0 0 76.144-7.431 391.667 391.667 0 0 0 140.711-57.779 387.695 387.695 0 0 0 59.244-48.164 393.103 393.103 0 0 0 48.694-58.746Zm0 0a393.64 393.64 0 0 1-48.85 58.652A386.557 386.557 0 0 1-74.244 912.188a386.553 386.553 0 0 1-279.863-234.866 392.381 392.381 0 0 1-21.089-72.497 386.067 386.067 0 0 1-6.642-75.136 390.179 390.179 0 0 1 8.034-74.928 382.514 382.514 0 0 1 22.43-71.904 390.13 390.13 0 0 1 36.014-66.166 384.805 384.805 0 0 1 106.515-105.569A387.687 387.687 0 0 1 5.131 146.774a386.17 386.17 0 0 1 147.59 29.342 386.76 386.76 0 0 1 231.23 434.218 387.127 387.127 0 0 1-22.524 72.891 393.237 393.237 0 0 1-36.326 67.164Z" fill="url(#d)"/><path d="M310.155 740.266A371.764 371.764 0 0 0 366.666 606.8a374.764 374.764 0 0 0-19-215.15 373.133 373.133 0 0 0-79.304-122.001 373.976 373.976 0 1 0-475.315 572.039 377.474 377.474 0 0 0 64.638 34.466A373.26 373.26 0 0 0 .422 904.518a380.213 380.213 0 0 0 72.642-7.099 373.236 373.236 0 0 0 237.091-157.153Zm0 0a368.718 368.718 0 0 1-614.497-5.81 366.063 366.063 0 0 1-33.146-63.963 374.847 374.847 0 0 1-20.091-69.108 368.916 368.916 0 0 1 1.413-143.059 364.405 364.405 0 0 1 21.38-68.536 371.414 371.414 0 0 1 34.3-63.059 366.497 366.497 0 0 1 101.515-100.59A369.41 369.41 0 0 1 4.985 164.756a367.793 367.793 0 0 1 140.731 27.927 368.671 368.671 0 0 1 223.68 396.552 368.649 368.649 0 0 1-59.241 151.031Z" fill="url(#e)"/><path d="M295.312 730.172a353.883 353.883 0 0 0 53.788-126.99 359.841 359.841 0 0 0 7.421-68.983 356.185 356.185 0 0 0-6.091-69.119 361.885 361.885 0 0 0-19.374-66.706 355.453 355.453 0 0 0-75.437-116.14A355.992 355.992 0 0 0-13.473 174.796 355.989 355.989 0 0 0-342.2 434.121a356.003 356.003 0 0 0 41.841 286.71 356.002 356.002 0 0 0 103.488 105.961 358.78 358.78 0 0 0 61.541 32.803A354.975 354.975 0 0 0 .526 886.546a360.353 360.353 0 0 0 69.128-6.777 355.234 355.234 0 0 0 225.658-149.597Zm0 0A350.7 350.7 0 0 1 35.827 882.908 350.709 350.709 0 0 1-246.46 778.15a350.076 350.076 0 0 1-74.314-114.435 355.776 355.776 0 0 1-19.083-65.73 351.05 351.05 0 0 1 1.309-136.033 347.022 347.022 0 0 1 20.341-65.169 354.07 354.07 0 0 1 32.646-59.961 348.684 348.684 0 0 1 96.517-95.622A351.425 351.425 0 0 1 4.901 182.777a350.271 350.271 0 0 1 133.861 26.493 350.644 350.644 0 0 1 202.107 223.235 350.661 350.661 0 0 1-45.557 297.667Z" fill="url(#f)"/><path d="M280.419 720.092a335.769 335.769 0 0 0 51.054-120.567 340.707 340.707 0 0 0 7.057-65.48 337.304 337.304 0 0 0-5.768-65.605 343.522 343.522 0 0 0-18.366-63.319 337.164 337.164 0 0 0-71.582-110.288 338.004 338.004 0 1 0-429.593 516.984 341.35 341.35 0 0 0 58.434 31.181A337.8 337.8 0 0 0 .641 868.515a343.164 343.164 0 0 0 65.615-6.455 337.336 337.336 0 0 0 214.111-141.999l.052.031Zm0 0A332.76 332.76 0 0 1 1.624 866.257a332.771 332.771 0 0 1-275.876-151.6 330.727 330.727 0 0 1-29.861-57.727 338.555 338.555 0 0 1-18.086-62.362 332.607 332.607 0 0 1 1.279-128.966 328.04 328.04 0 0 1 19.291-61.811 334.915 334.915 0 0 1 30.963-56.864 330.759 330.759 0 0 1 91.527-90.717A333.478 333.478 0 0 1 4.829 200.76a332.015 332.015 0 0 1 126.991 25.111 332.693 332.693 0 0 1 148.63 494.242l-.031-.021Z" fill="url(#g)"/><path d="M265.525 710.009a317.888 317.888 0 0 0 48.33-114.071 320.653 320.653 0 0 0-16.12-183.969 319.486 319.486 0 0 0-67.715-104.415 319.997 319.997 0 0 0-391.702-52.753 319.991 319.991 0 0 0 40.321 571.649A319.55 319.55 0 0 0 .755 850.553a324.274 324.274 0 0 0 62.102-6.132 319.444 319.444 0 0 0 59.681-17.992 324.067 324.067 0 0 0 55.014-29.206 317.824 317.824 0 0 0 87.973-87.214Zm0 0A314.778 314.778 0 0 1-104.83 828.575a314.771 314.771 0 0 1-116.071-75.702 314.293 314.293 0 0 1-66.583-102.721 320.257 320.257 0 0 1-17.077-58.964 313.839 313.839 0 0 1-5.352-61.094 317.922 317.922 0 0 1 6.579-60.897 315.202 315.202 0 0 1 134.1-197.959 314.273 314.273 0 0 1 112.813-46.449 320.517 320.517 0 0 1 61.105-6.039 314.537 314.537 0 0 1 120.11 23.708 314.698 314.698 0 0 1 181.576 200.32 314.705 314.705 0 0 1-40.845 267.262v-.031Z" fill="url(#h)"/><path d="M250.63 699.917a299.616 299.616 0 0 0 45.598-107.596 304.714 304.714 0 0 0 6.329-58.412 301.09 301.09 0 0 0-5.124-58.59 307.387 307.387 0 0 0-16.38-56.562 301.422 301.422 0 0 0-63.859-98.554 302.016 302.016 0 0 0-369.811-49.98 302.01 302.01 0 0 0 38.251 539.649 301.39 301.39 0 0 0 115.225 22.7 307.933 307.933 0 0 0 58.6-5.81 301.966 301.966 0 0 0 56.334-16.994 305.42 305.42 0 0 0 51.885-27.564 299.681 299.681 0 0 0 82.952-82.287Zm0 0A296.743 296.743 0 0 1 30.872 829.178a296.74 296.74 0 0 1-238.937-88.944 296.396 296.396 0 0 1-62.726-96.9 302.218 302.218 0 0 1-16.08-55.586 296.619 296.619 0 0 1-5.02-57.581 299.855 299.855 0 0 1 6.237-57.394A297.153 297.153 0 0 1-159.34 286.226a299.5 299.5 0 0 1 50.992-27.096 296.511 296.511 0 0 1 55.326-16.703 301.624 301.624 0 0 1 57.591-5.716 296.754 296.754 0 0 1 229.947 108.69 296.751 296.751 0 0 1 61.327 246.837 299.636 299.636 0 0 1-45.213 107.679Z" fill="url(#i)"/><path d="M235.736 689.836a281.827 281.827 0 0 0 42.874-101.131 287.537 287.537 0 0 0 5.956-54.91 283.108 283.108 0 0 0-4.792-55.087 288.899 288.899 0 0 0-15.351-53.164 283.305 283.305 0 0 0-59.993-92.701 284.026 284.026 0 0 0-214.827-86.204 284.032 284.032 0 0 0-262.655 207.07 284.035 284.035 0 0 0 116.529 313.508A283.75 283.75 0 0 0 .973 814.581a288.958 288.958 0 0 0 55.087-5.488 282.857 282.857 0 0 0 52.914-15.985 286.881 286.881 0 0 0 48.768-25.922 281.784 281.784 0 0 0 77.994-77.35Zm0 0a278.779 278.779 0 0 1-365.389 87.848 278.786 278.786 0 0 1-99.543-92.775 276.777 276.777 0 0 1-24.945-48.362 284.612 284.612 0 0 1-15.081-52.197 279.277 279.277 0 0 1-4.698-54.047c.22-18.11 2.18-36.157 5.852-53.892a279.214 279.214 0 0 1 118.633-175.165 278.81 278.81 0 0 1 431.978 206.371 278.808 278.808 0 0 1-46.807 182.219Z" fill="url(#j)"/><path d="M220.842 679.712a263.723 263.723 0 0 0 40.141-94.583 269.458 269.458 0 0 0 5.602-51.407 265.78 265.78 0 0 0-4.48-51.563 271.016 271.016 0 0 0-14.312-49.817A265.776 265.776 0 0 0-47.908 268.994a266.077 266.077 0 0 0-217.384 260.221A266.083 266.083 0 0 0-50.59 791.653a264.816 264.816 0 0 0 51.678 4.937 270.789 270.789 0 0 0 51.563-5.197 265.478 265.478 0 0 0 49.547-14.988 270.131 270.131 0 0 0 45.649-24.28 263.806 263.806 0 0 0 72.995-72.413Zm0 0a260.551 260.551 0 0 1-72.907 71.951 260.56 260.56 0 0 1-197.43 37.002 260.565 260.565 0 0 1-94.015-40.666 260.553 260.553 0 0 1-93.959-118.177 266.596 266.596 0 0 1-14.073-48.85 260.377 260.377 0 0 1-4.376-50.555 264.666 264.666 0 0 1 5.478-50.389 260.879 260.879 0 0 1 421.166-147.826 260.885 260.885 0 0 1 89.966 150.175 260.77 260.77 0 0 1-39.85 197.335Z" fill="url(#k)"/><path d="M205.947 669.661a245.692 245.692 0 0 0 37.418-88.201 251.24 251.24 0 0 0 5.197-47.884 247.8 247.8 0 0 0-4.158-48.06 253.189 253.189 0 0 0-13.356-46.408 247.827 247.827 0 0 0-89.272-112.429 248.053 248.053 0 0 0-319.32 31.122 248.064 248.064 0 0 0-66.581 214.048A248.055 248.055 0 0 0 1.201 778.608a252.665 252.665 0 0 0 48.071-4.833 247.638 247.638 0 0 0 46.138-14.031 251.223 251.223 0 0 0 42.531-22.638 245.808 245.808 0 0 0 68.006-67.445Zm0 0A242.794 242.794 0 0 1 2.195 776.337a242.797 242.797 0 0 1-201.333-111.176 240.994 240.994 0 0 1-21.65-42.116 247.863 247.863 0 0 1-13.075-45.441 242.136 242.136 0 0 1-4.043-47.042 245.765 245.765 0 0 1 5.114-46.876A242.617 242.617 0 0 1-42.816 295.414a242.795 242.795 0 0 1 249.978 103.64 242.783 242.783 0 0 1-1.215 270.607Z" fill="url(#l)"/><path d="M191.054 659.579a227.562 227.562 0 0 0 34.684-81.726 232.363 232.363 0 0 0 4.864-44.381 229.629 229.629 0 0 0-3.815-44.547 235.156 235.156 0 0 0-12.358-43.072A230.032 230.032 0 0 0 70.203 311.31a230.033 230.033 0 0 0-195.43 26.646 230.138 230.138 0 0 0-99.78 237.923 230.26 230.26 0 0 0 214.426 184.41 230.275 230.275 0 0 0 99.215-17.175 233.639 233.639 0 0 0 39.403-20.996 227.775 227.775 0 0 0 63.017-62.539Zm0 0a224.976 224.976 0 0 1-233.776 93.752 224.854 224.854 0 0 1-161.425-137.083 229.828 229.828 0 0 1-12.067-42.064 224.119 224.119 0 0 1-3.71-43.528 229.213 229.213 0 0 1 4.75-43.363 224.97 224.97 0 0 1 406.54-79.595 224.896 224.896 0 0 1-.291 251.881h-.021Z" fill="url(#m)"/><path d="M176.159 649.487a209.818 209.818 0 0 0 31.961-75.261 215.197 215.197 0 0 0 4.501-40.878 210.583 210.583 0 0 0-3.503-41.024 217.117 217.117 0 0 0-11.35-39.663 211.877 211.877 0 0 0-235.47-130.68 212.043 212.043 0 0 0-141.992 97.683 212.039 212.039 0 0 0-22.538 170.868 212.03 212.03 0 0 0 284.09 135.952 216.282 216.282 0 0 0 36.284-19.353 209.877 209.877 0 0 0 58.017-57.644Zm0 0a206.911 206.911 0 0 1-215.254 86.268 206.834 206.834 0 0 1-148.391-126.284 211.815 211.815 0 0 1-11.069-38.685 205.965 205.965 0 0 1-3.399-40.016 210.493 210.493 0 0 1 4.386-39.86 206.66 206.66 0 0 1 161.55-160.167 206.833 206.833 0 0 1 243.754 243.4 209.42 209.42 0 0 1-31.577 75.344Z" fill="url(#n)"/></g><defs><linearGradient id="h" x1="167.223" y1="814.238" x2="-166.21" y2="257.382" gradientUnits="userSpaceOnUse"><stop stop-color="#DBBC9A" stop-opacity="0"/><stop offset="1" stop-color="#C4A27A"/></linearGradient><linearGradient id="b" x1="223.438" y1="909.917" x2="-222.448" y2="165.209" gradientUnits="userSpaceOnUse"><stop stop-color="#DBBC9A" stop-opacity="0"/><stop offset="1" stop-color="#C4A27A"/></linearGradient><linearGradient id="d" x1="204.715" y1="878.023" x2="-203.781" y2="195.948" gradientUnits="userSpaceOnUse"><stop stop-color="#DBBC9A" stop-opacity="0"/><stop offset="1" stop-color="#C4A27A"/></linearGradient><linearGradient id="e" x1="195.195" y1="862.062" x2="-194.61" y2="211.036" gradientUnits="userSpaceOnUse"><stop stop-color="#DBBC9A" stop-opacity="0"/><stop offset="1" stop-color="#C4A27A"/></linearGradient><linearGradient id="f" x1="185.943" y1="846.14" x2="-185.05" y2="226.565" gradientUnits="userSpaceOnUse"><stop stop-color="#DBBC9A" stop-opacity="0"/><stop offset="1" stop-color="#C4A27A"/></linearGradient><linearGradient id="g" x1="176.547" y1="830.144" x2="-175.758" y2="241.782" gradientUnits="userSpaceOnUse"><stop stop-color="#DBBC9A" stop-opacity="0"/><stop offset="1" stop-color="#C4A27A"/></linearGradient><linearGradient id="c" x1="214.062" y1="893.981" x2="-213.195" y2="180.551" gradientUnits="userSpaceOnUse"><stop stop-color="#DBBC9A" stop-opacity="0"/><stop offset="1" stop-color="#C4A27A"/></linearGradient><linearGradient id="i" x1="157.84" y1="798.295" x2="-156.87" y2="272.664" gradientUnits="userSpaceOnUse"><stop stop-color="#DBBC9A" stop-opacity="0"/><stop offset="1" stop-color="#C4A27A"/></linearGradient><linearGradient id="j" x1="148.449" y1="782.34" x2="-147.568" y2="287.94" gradientUnits="userSpaceOnUse"><stop stop-color="#DBBC9A" stop-opacity="0"/><stop offset="1" stop-color="#C4A27A"/></linearGradient><linearGradient id="k" x1="139.166" y1="766.396" x2="-138.12" y2="303.49" gradientUnits="userSpaceOnUse"><stop stop-color="#DBBC9A" stop-opacity="0"/><stop offset="1" stop-color="#C4A27A"/></linearGradient><linearGradient id="l" x1="129.703" y1="750.456" x2="-128.782" y2="318.74" gradientUnits="userSpaceOnUse"><stop stop-color="#DBBC9A" stop-opacity="0"/><stop offset="1" stop-color="#C4A27A"/></linearGradient><linearGradient id="m" x1="120.38" y1="734.458" x2="-119.31" y2="334.114" gradientUnits="userSpaceOnUse"><stop stop-color="#DBBC9A" stop-opacity="0"/><stop offset="1" stop-color="#C4A27A"/></linearGradient><linearGradient id="n" x1="111.157" y1="718.403" x2="-109.86" y2="349.667" gradientUnits="userSpaceOnUse"><stop stop-color="#DBBC9A" stop-opacity="0"/><stop offset="1" stop-color="#C4A27A"/></linearGradient></defs></svg>