<svg width="512" height="221" fill="none" xmlns="http://www.w3.org/2000/svg"><path d="M101.26 120.831c-.021-1.14-.956-2.285-2.069-2.039-2.125.366-9.33 3.16-12.423 3.07-1.715-.025-3.444-.163-3.445-2.103-.015-2.054 1.302-3.465 2.062-5.725 1.004-3.087 3.52-4.983 2.47-8.056-1.049-3.072-3.144-5.336-6.972-4.882-4.84.573-11.831 5.169-11.465 7.295.08.675.133 1.125.835 1.271 1.769.475 5.283-3.595 7.76-3.888 1.139-.021 3.868-.116 4.293 1.547.438 1.774-4.483 10.349-4.163 13.051.28 2.364 1.76 6.185 7.502 5.505 4.166-.494 15.702-3.344 15.615-5.046Zm5.539-47.694c-.101-1.814-.625-3.35-2.454-3.362-2.165.028-13.452 7.872-17.45 10.743-7.474 5.338-12.79 9.621-18.536 13.156 1.7-3.969 5.604-7.628 8.548-12.657 5.133-8.714 11.077-21.178 10.545-23.74-.465-2-1.705-3.794-3.731-3.554-2.928.346-29.316 16.601-39.524 22.948C22.793 89.71 15.803 94.305 9.627 99.033c-2.94 2.174-4.23 3.811-4.115 5.739.167 2.377 2.598 2.66 4.625 2.42 2.576-.419 1.546-4.293 3.413-5.884 4.878-4.117 20.482-14.071 33.047-21.725 14.16-8.641 31.764-19.06 32.665-19.167 1.463-.174 1.265.078 2.133.66-2.548 11.262-13.313 25.438-21.512 34.287-11.33 12.302-33.142 27.673-32.179 30.984.385 1.324 1.393 2.118 2.77 2.183 1.49.052 6.004-4.25 13.398-10.264 6.546-5.456 15.648-12.471 22.36-17.49 13.114-9.773 28.914-21.92 34.277-24.838-.006.914-.396 2.444-.077 3.205.412 1.55 1.711 2.88 3.499 2.554 1.788-.326 3.123-4.48 2.868-8.56ZM181.856 95.757c.204-1.166-1.24-1.794-2.015-1.588-1.563.3-6.082 5.516-11.821 10.077-4.184 3.236-9.44 7.055-13.493 7.535-6.08.72-10.97-2.011-11.423-5.839-.36-3.04 2.233-6.202 5.118-10.767 1.746-2.605 4.724-6.383 4.894-8.8.065-1.378-1.564-1.642-2.942-1.707-3.093-.09-5.995 7.218-8.417 9.902-4.15 4.488-9.015 8.717-12.337 11.508-3.012 2.526-6.15 4.953-9.241 6.803-6.071 3.688-9.766 5.267-11.455 5.467-1.351.16-2.934-.68-2.995-2.157-.087-1.702 1.083-4.352 2.379-6.903.827-1.697 2.661-2.599 2.699-4.202.019-.801-.763-1.622-1.564-1.641-4.134-.196-7.875 8.696-7.766 13.478.103 3.756 2.436 6.105 7.728 5.478 3.152-.373 9.064-3.471 14.473-6.966 5.931-3.899 11.941-9.064 13.199-10.012-.118.928.757 2.536 2.136 4.542 2.315 3.151 6.735 6.738 15.742 5.671 5.63-.667 12.395-5.236 16.936-9.313 4.441-3.951 9.802-8.81 10.165-10.566Z" fill="#fff"/><path d="M239.785 89.809c-.066-.563-1.041-2.046-2.041-1.813-2.013.352-12.239 9.441-17.131 13.445-4.058 3.335-10.325 9.215-13.013 11.589.018-2.743.929-6.618 1.899-10.957.852-3.412 2.253-7.003 3.437-9.54 1.905-3.195 4.678-5.806 7.199-8.617 2.026-2.18 7.076-6.775 7.028-8.139-.074-1.59-1.949-2.966-3.526-2.779-1.351.16-5.719 3.76-8.313 6.921-2.707 3.175-4.003 5.726-6.021 8.934-6.147 6.893-17.661 12.823-24.191 13.597-1.351.16-3.16-.653-3.221-2.13-.302-5.445 7.55-10.485 7.25-12.047-.272-1.338-1.339-1.668-2.717-1.734-1.841-.124-10.663 9.255-9.513 14.142.93 4 1.165 6.941 9.158 5.994 4.842-.574 14.389-4.787 19.493-8.93-.474 3.709-2.517 8.632-2.972 11.54-.85 5.352-2.727 10.712-3.724 14.826-3.613 4.195-10.217 12.056-17.601 21.037-7.61 9.007-16.398 19.638-15.558 26.731.547 4.616 4.589 5.964 7.754 5.703 5.206-.388 10.914-10.997 16.213-19.274 7.23-11.245 10.874-26.747 13.142-31.697 3.01-4.466 10.799-12.924 19.033-20.521 4.315-4.05 18.136-14.592 17.936-16.281Zm-44.447 44.995c-1.93 4.909-6.611 15.511-9.958 21.958-3.333 6.56-10.114 15.811-12.704 16.118-.675.08-2.232-.535-2.438-1.309-.685-2.888 6.765-13.246 12.342-21.099 4.499-6.356 10.349-12.871 12.758-15.668Z" fill="#fff"/><path d="M352.532 17.657c.331-1.066-4.637-.592-9.816.022-3.94.466-8.629 1.364-12.106 1.89-7.404 1.106-22.642 4.509-27.35 6.208-6.244 2.224-12.341 5.686-14.307 7.403-1.867 1.591-6.018 4.138-13.6 22.047-2.87 6.62-5.061 17.04-10.835 27.085-3.684 6.488-9.759 13.03-12.181 15.714-2.508 2.923-6.209 5.417-8.361 5.557-2.716.208-4.287-2.46-4.369-5.076-.135-3.067 3.463-9.316 7.725-13.816 2.522-2.81 6.394-5.781 7.831-6.18 1.212-.371 2.007.562 3.028 1.468.881.695.83 2.186 1.969 2.165 1.139-.021 2.072-.817 2.151-2.082.256-2.656-3.9-5.931-6.953-5.684-2.152.141-7.958 4.14-11.922 8.262-4.957 5.383-9.296 13.09-8.531 16.652 1.05 5.013 4.313 9.422 9.803 8.543 4.139-.719 6.668-2.502 10.334-6.247 4.56-4.879 9.152-10.446 12.479-16.092 5.702-9.695 8.906-20.235 12.72-29.478 2.513-5.778 5.937-13.49 10.768-18.971 4.455-3.839 5.144-3.806 14.082-7.377 6.542-2.601 31.562-7.277 37.854-8.137 4.039-.593 4.165-.493 7.377-1.33 1.324-.386 1.893-1.366 2.21-2.546Z" fill="#fff"/><path d="M333.259 77.595c-.246-1.112-.889-1.721-1.988-1.363-1.099.359-9.385 9.446-12.906 12.489-3.733 3.182-7.315 4.748-9.229 4.975-3.378.4-4.889-.791-5.342-4.619-.507-4.278 2.497-7.83 5.579-14.59.998-2.172 2.771-4.552 3.054-6.983.164-1.503-1.79-1.615-3.141-1.455-2.251.267-4.54 4.078-5.89 6.178-1.051 1.723-2.288 3.81-3.38 5.196-1.424.51-4.895.123-6.584.323-2.814.333-3.675.778-6.304.747.912-1.935 2.069-4.698 1.365-6.784-.358-1.099-1.055-2.158-2.194-2.137-3.769-.01-7.91 5.503-10.531 8.44-6.657 7.41-13.338 9.8-12.375 13.11.192.663.862 1.497 1.537 1.417 2.788-.559 9.644-8.221 13.232-10.701-.68 2.935-3.186 7.798-4.794 10.615-1.607 2.816-5.392 7.488-4.085 9.845.305.649 1.166.205 1.855.237 2.854.005 7.213-8.503 9.104-11.81 1.819-2.956 2.904-5.367 4.154-7.342 1.702-.087 5.801-1.144 8.503-1.464 1.802-.213 4.557-.083 6.584-.323-.304 1.292-1.196 4.366-.868 8.094.52 4.391 2.696 9.271 9.677 8.444 3.377-.4 8.343-2.815 13.095-7.031 3.932-3.434 12.284-11.958 11.872-13.508Z" fill="#fff"/><path d="M405.352 69.512c-.16-1.35-.538-1.648-1.79-1.614-1.927.114-10.199 9.314-17.753 13.976-4.574 2.825-9.261 5.664-13.626 6.409-2.463.406-3.783-2.064-3.831-3.428.005-2.855 1.274-5.63 3.49-9.09 1.648-2.479 6.99-6.536 6.803-8.113-.107-.9-1.545-2.442-3.221-2.13-1.013.12-2.695 1.347-4.408 3.262-2.125 2.307-4.381 5.428-5.837 6.628-1.41.624-2.947 1.149-5.072 1.515-2 .465-4.199 1.182-6.027 1.17-1.16-1.118-2.028-1.7-3.472-2.328-1.571-.728-2.916-1.482-5.082-1.454l2.05-3.896c1.634-2.59 3.553-5.672 3.339-7.474-.16-1.35-1.783-2.529-3.22-2.13-1.437.399-6.784 7.311-9.967 10.314-2.859 2.85-10.823 7.904-11.001 9.295-.164 1.503.618 2.324 2.122 2.488 1.377.066 2.866-1.823 4.859-3.315 1.37-.962 2.681-1.46 3.839-2.281-2.54 3.611-8.112 10.55-7.791 13.252.306 2.59 2.733 5.728 6.998 5.108 5.503-.766 7.145-2.33 10.553-5.36 2.787-2.5 4.507-5.329 5.559-7.052 2.198-.717 5.27-1.766 6.595-2.15 1.662-.426 2.689-.434 4.225-.958-.972 2.398-.759 4.2-.684 5.79.062 3.417 2.96 7.64 8.364 7 5.854-.693 11.952-4.155 18.168-8.545 5.792-4.111 16.018-13.2 15.818-14.889Zm-58.356 12.393c.2 1.689-1.474 3.942-3.214 5.632-1.84 1.816-5.018 3.905-6.27 3.94-.689-.033-2.126.365-2.438-1.31-.286-1.45 1.976-5.486 4.312-7.932 1.019-1.034 2.038-2.068 2.634-2.823.49.284 2.12.548 3.186.878.829.244 1.697.826 1.79 1.615Z" fill="#fff"/><path d="M455.735 14.224c-.693-5.855-7.868-7.63-13.385-6.977-2.702.32-12.873 3.123-20.408 6.984-7.62 4.1-17.914 10.684-17.647 12.936.146 1.239 1.14 1.92 2.028 1.7 1.225-.259 10.836-7.79 18.536-11.214 6.39-2.926 14.197-5.45 17.012-5.783 2.927-.346 8.987-.265 9.347 2.775.387 3.265-2.207 6.426-4.158 10.197-2.506 4.863-8.251 10.339-8.19 11.816.12 1.013 1.379 2.005 2.392 1.886 1.437-.4 5.917-5.953 8.702-10.393 3.069-4.93 6.145-10.774 5.771-13.927Zm7.821 47.71c-.233-1-.683-.947-1.584-.84-1.351.16-5.495 3.732-10.254 6.922-4.76 3.19-9.308 6.24-13.063 6.343-1.59.074-3.227-1.217-3.4-2.68-.094-.788.063-3.319.949-5.479.999-2.173 2.541-3.611 2.354-5.188-.147-1.238-.167-2.377-2.419-2.11-1.689.2-8.869 8.014-14.694 12.814-5.514 4.535-11.801 11.216-14.43 11.185-.577-.046-.643-.608-.71-1.171-.24-2.027 3.219-8.488 4.542-10.814 2.103-3.445 6.789-8.225 6.595-10.827-.16-1.352-1.492-1.993-2.843-1.833-1.914.227-4.441 3.951-7.426 6.702-9.677 8.91-12.161 8.177-11.774 11.442.08.675.822 1.158 1.438 1.542 1.927-.114 4.25-2.673 8.01-5.63-1.17 2.65-3.417 8.74-3.475 11.144-.058 2.404 2.573 4.376 5.077 4.307 2.729-.095 11.75-7.785 16.642-11.79 2.164-1.968 5.163-4.607 7.525-6.827-.051 1.49-.023 3.656.335 4.755 1.009 2.735 4.833 5.136 7.535 4.816 6.08-.72 13.044-5.541 17.452-8.803 3.039-2.301 7.93-6.306 7.618-7.98ZM364.887 123.717c-1.867-15.762-15.658-16.526-31.42-14.659-15.087 1.787-33.125 7.577-48.499 14.65-13.652 6.183-38.048 20.947-37.814 23.887.067.563.948 1.258 1.511 1.191 1.239-.147 20.72-13.985 38.928-22.193 11.382-5.115 29.015-11.428 47.48-13.615 6.755-.801 23.298-3.788 25.205 12.312 1.507 12.723-5.94 26.963-8.891 30.966-.841-.357-4.857-3.421-7.685-3.2-2.941.234-5.603.892-11.612 7.997-4.307 5.077-10.528 12.321-9.59 17.348.951 5.139 2.913 6.276 8.655 5.596 7.318-.867 16.655-11.677 23.124-22.604 7.634-12.663 11.861-27.093 10.608-37.676Zm-17.615 38.278c-.766 3.173-2.711 6.029-5.516 9.33-4.136 4.6-9.478 8.658-11.108 8.394-1.278-.191-3.458-.276-3.392-1.653.044-2.517 3.001-7.434 6.322-12.166 2.739-3.864 7.882-7.669 10.115-7.135 1.769.476 2.816 1.608 3.579 3.23ZM398.783 154.409c-.614-5.179-5.008-8.54-11.313-7.793-3.602.426-8.767 3.093-13.897 7.012-1.244 1.06-2.256 3.121-3.513 4.069-1.014.12-2.491.181-3.537.99-3.137 2.427-4.518 7.157-4.297 9.985.322 4.643 4.101 9.561 12.234 8.826 4.742-.448 11.946-3.242 17.029-8.525 4.374-4.514 7.841-9.948 7.294-14.564Zm-4.359-.169c.587 4.954-3.31 9.64-6.832 12.683-4.044 3.447-8.996 5.975-12.486 6.388-4.053.48-7.976-1.795-8.336-4.835-.107-.901 1.035-5.717 3.922-6.401 1.338-.273 1.828.012 2.927-.347 2.172-.942 2.217-3.459 3.957-5.15 3.356-3.48 7.249-5.311 10.865-5.625 2.49-.181 5.57-.203 5.983 3.287ZM508.86 142.626c-.259-1.225-.551-1.761-1.789-1.615-1.239.147-8.751 7.088-15.318 11.405-4.449 2.924-8.891 4.935-11.508 5.016-2.728.095-5.272-.174-5.327-2.565.012-1.828.758-4.2 1.704-6.824 1.202-3.339 2.619-4.877 4.073-8.017.741-1.458 2.793-3.414 2.791-5.354-.021-1.14-1.326-1.556-2.465-1.535-5.107.262-14.162 6.701-18.882 10.228-4.918 3.78-10.3 7.5-13.703 9.615.151-1.616.163-3.444.539-5.087.409-2.332 1.48-4.856 1.398-7.472-.047-1.365-1.577-1.754-2.717-1.734-2.053.015-5.042 5.621-7.703 8.22-3.468 3.493-8.531 7.974-12.84 11.111-11.459 8.321-15.259 10.94-17.848 11.247-1.351.16-3.214-1.104-3.274-2.58-.069-2.504.672-3.962 1.756-6.374.913-1.934 3.449-2.691 3.097-4.705-.233-1-1.141-1.92-2.267-1.786-3.279.274-8.179 9.988-7.899 12.352.627 5.292 4.676 7.666 9.292 7.12 5.404-.641 13.857-7.35 19.397-11.66 4.806-3.766 9.221-7.942 11.849-9.852.24 2.027-.07 4.233-.433 5.988-.508 2.458-2.333 6.328-2.245 8.03.093.788.934 1.145 1.736 1.164 2.053-.015 4.328-3.938 7.016-6.311 4.865-4.23 7.804-6.404 12.92-10.436 5.739-4.561 12.167-9.09 15.425-10.503-.602 1.669-2.944 5.029-4.074 8.017-1.144 2.876-1.837 5.698-1.57 7.95.48 4.053 3.641 6.647 10.761 6.032 3.954-.354 9.33-3.16 14.275-6.715 4.521-3.275 14.186-10.357 13.833-12.37Z" fill="#fff"/></svg>