<svg width="16" height="21" viewBox="0 0 16 21" fill="none" xmlns="http://www.w3.org/2000/svg">
<path d="M12.6747 3.99996H16C15.9618 3.95206 15.9283 3.90433 15.8851 3.86129L12.1387 0.114888C12.0958 0.0718478 12.0479 0.0383508 12 0V3.3254C12 3.69852 12.3015 4 12.6748 4L12.6747 3.99996Z" fill="white"/>
<path d="M12.6266 4.77158C11.791 4.77158 11.1109 4.10789 11.1109 3.29239V0H1.33337C0.600013 0 0 0.585628 0 1.3014V19.4986C0 20.2144 0.600013 20.8 1.33337 20.8H14.6666C15.4 20.8 16 20.2144 16 19.4986V4.7715L12.6266 4.77158ZM7.99988 15.6721L5.24998 12.9883L5.87839 12.375L7.55545 14.0116V8.23069H8.44435V14.0112L10.1212 12.3746L10.7496 12.9879L7.99988 15.6721Z" fill="white"/>
</svg>
