<svg width="1046" height="1043" fill="none" xmlns="http://www.w3.org/2000/svg"><path d="M1016.71 29.564C993.954 6.731 958.547-1.659 913.628 3.084c-44.902 4.74-99.056 22.588-158.939 51.89-119.751 58.597-262.101 162.85-398.615 298.896C219.56 489.916 114.818 631.907 55.81 751.456 26.303 811.238 8.27 865.331 3.375 910.216c-4.898 44.902 3.37 80.339 26.126 103.174 22.755 22.83 58.163 31.22 103.082 26.48 44.901-4.74 99.056-22.59 158.939-51.891 119.751-58.598 262.101-162.851 398.615-298.897S931.392 411.046 990.4 291.496c29.51-59.782 47.54-113.875 52.44-158.76 4.89-44.902-3.37-80.338-26.13-103.172Z" stroke="url(#a)" stroke-width="3"/><defs><linearGradient id="a" x1="691.196" y1="690.145" x2="355.015" y2="352.808" gradientUnits="userSpaceOnUse"><stop stop-color="#DBBC9A"/><stop offset="1" stop-color="#DBBC9A" stop-opacity="0"/></linearGradient></defs></svg>