<svg width="1046" height="1043" viewBox="0 0 1046 1043" fill="none" xmlns="http://www.w3.org/2000/svg">
<path d="M1016.71 29.5641C993.954 6.73056 958.547 -1.65924 913.628 3.08364C868.726 7.82479 814.572 25.6716 754.689 54.9737C634.938 113.571 492.588 217.824 356.074 353.87C219.56 489.916 114.818 631.907 55.8103 751.456C26.3027 811.238 8.26993 865.331 3.37464 910.216C-1.52251 955.118 6.74566 990.555 29.5009 1013.39C52.2562 1036.22 87.6641 1044.61 132.583 1039.87C177.484 1035.13 231.639 1017.28 291.522 987.979C411.273 929.381 553.623 825.128 690.137 689.082C826.651 553.036 931.392 411.046 990.4 291.496C1019.91 231.714 1037.94 177.621 1042.84 132.736C1047.73 87.8342 1039.47 52.3977 1016.71 29.5641Z" stroke="url(#paint0_linear_131_1325)" stroke-width="3"/>
<defs>
<linearGradient id="paint0_linear_131_1325" x1="691.196" y1="690.145" x2="355.015" y2="352.808" gradientUnits="userSpaceOnUse">
<stop stop-color="#DBBC9A"/>
<stop offset="1" stop-color="#DBBC9A" stop-opacity="0"/>
</linearGradient>
</defs>
</svg>
