<svg width="726" height="324" fill="none" xmlns="http://www.w3.org/2000/svg"><path d="M0 5.092h12.73l33.95-.283c19.237 0 35.08 15.843 35.08 35.08 0 12.731-6.79 23.764-16.975 29.988 18.39 1.698 32.818 17.258 32.818 35.93 0 20.086-16.126 35.928-36.213 35.928H.283s5.658-3.111 6.224-6.223c.848-9.336 1.98-29.14 1.98-62.24 0-32.817-.283-53.752-1.98-62.522C5.94 8.204 0 5.092 0 5.092Zm37.626 5.375c-3.395 0-7.072.283-10.75.283-.566 9.336-1.98 29.988-2.263 58.279h15.56c14.993 0 27.442-14.428 27.442-29.422s-11.6-28.574-26.31-29.14h-3.679Zm17.54 65.069c-4.809-.283-11.033-.283-17.54-.283-4.526 0-9.053.282-13.013.282 0 30.554 1.131 50.075 1.98 59.411 9.336.565 20.086 1.697 27.725 1.697 15.56 0 28.29-14.994 28.29-30.554.283-15.842-11.882-29.988-27.441-30.553ZM119.669 73.272c0-30.836-.849-52.903-2.263-62.522-.566-3.112-5.941-5.658-5.941-5.658h32.817s-5.658 2.264-5.941 5.658c-.566 9.336-1.981 30.271-2.264 58.562l36.495.283a36.1 36.1 0 0 1 36.212 36.212 36.1 36.1 0 0 1-36.212 36.211l-47.245.284h-13.862s5.941-3.395 6.224-6.507c.565-9.619 1.98-29.423 1.98-62.522Zm42.153 1.98c-7.639 0-17.823.567-26.027 1.132 0 29.988 1.131 48.943 1.98 58.279 9.336.566 20.369 1.414 28.008 1.414 15.559 0 28.29-14.993 28.29-30.553s-12.165-29.706-27.725-30.271h-4.526Zm90.53 66.484h-36.778s7.921-5.659 8.487-11.6c.849-11.316 1.697-44.416 1.697-73.272 0-17.823-.282-33.666-1.131-41.587-.566-5.941-8.487-10.185-8.487-10.185h36.494s-7.921 2.83-8.487 9.619c-1.131 11.033-1.98 31.403-1.98 58.561 0 28.291.849 47.529 1.697 57.996.566 7.073 8.488 10.468 8.488 10.468ZM268.194 5.092h57.713c18.106-.283 30.554-1.697 30.554-1.697s-1.98 8.77-2.829 15.56C352.5 27.724 352.5 43 352.5 43s-7.072-32.25-27.725-32.25H295.07c-.565 9.335-1.98 29.987-2.263 58.56l36.495.283c20.087 0 36.212 16.126 36.212 35.93a36.1 36.1 0 0 1-36.212 36.211h-61.108c.283-.282 5.659-1.98 6.224-6.223 1.132-7.922 2.264-29.705 2.264-62.24 0-30.836-1.698-53.469-2.264-63.088-.565-3.112-6.224-5.092-6.224-5.092Zm50.641 70.444c-7.639 0-17.823.565-26.028 1.131 0 29.705 1.132 48.66 1.981 57.996 9.335.566 20.086 1.414 27.724 1.414 15.56 0 28.291-14.993 28.291-30.553s-11.882-29.423-27.442-29.989h-4.526ZM379.376 73.838c0-35.646 27.725-65.917 56.864-72.14A70.88 70.88 0 0 1 451.8 0c33.383 0 63.653 23.198 71.009 57.147a72.778 72.778 0 0 1 1.698 15.56c0 33.382-23.199 63.37-57.147 70.726-6.224 1.415-11.882 1.981-17.823 1.981-32.252 0-60.825-19.521-68.464-57.148-1.414-5.092-1.697-9.901-1.697-14.428Zm17.823-8.487c0 6.224.566 12.73 1.98 18.672 2.264 10.75 7.922 22.35 12.165 29.139 8.771 13.58 26.028 23.198 44.134 23.198 3.395 0 7.072-.282 10.467-1.131 21.501-4.809 37.061-22.915 39.89-42.436.565-3.96 1.131-9.336 1.131-14.711s-.565-11.6-1.697-16.974c-2.546-11.6-7.073-23.199-13.58-31.403-9.618-12.448-25.744-21.5-42.718-21.5-3.395 0-7.073.282-10.468 1.131-20.652 4.527-36.212 22.35-39.889 40.455-.849 4.81-1.415 9.902-1.415 15.56Z" fill="#C4A27A"/><path d="M474 72c-12.189 0-22 9.81-22 22 0-12.19-9.811-22-22-22 12.189 0 22-9.81 22.297-22C452 62.19 461.811 72 474 72ZM562.699 74.687v7.073c0 28.856 1.131 47.245 2.263 54.6.283 3.395 5.941 5.376 5.941 5.376h-32.817s5.658-2.829 6.224-5.941c.566-9.053 1.98-29.422 1.98-62.522 0-32.817-1.131-54.036-2.546-64.22-.283-2.263-5.658-4.244-5.658-4.244h12.731l33.666-.283c19.237 0 35.08 15.843 35.08 35.08 0 19.238-15.56 34.798-34.798 34.798l-22.066.283Zm12.731-64.22c-3.395 0-7.073 0-10.185.284-.566 9.335-1.98 30.27-2.263 58.278h15.56c14.994 0 27.441-14.428 27.441-29.14 0-14.993-11.599-28.573-26.31-29.139h-4.243v-.283ZM115.991 321.296H79.496s7.073-1.98 8.205-8.77c.849-10.184 1.98-29.705 1.98-59.693 0-27.442-1.697-54.883-2.546-61.107-1.98-1.415-16.692-1.698-28.857-1.698-13.013 0-27.441 0-29.422 1.414-1.697 9.619-2.546 34.232-2.546 61.108 0 29.422 1.132 48.66 1.98 58.844.566 5.659 8.205 9.336 8.205 9.336H0s7.639-3.394 8.204-9.618c.566-5.658 1.98-27.442 1.98-54.318v-4.527c-.282-27.442-1.13-48.094-1.98-58.844C7.64 186.067 0 184.087 0 184.087h115.991c-.565.566-7.638 4.527-8.204 9.336-1.132 11.033-1.98 31.968-1.98 58.844 0 29.422.848 48.66 1.697 58.845.849 6.506 8.487 10.184 8.487 10.184ZM140.038 252.55c0-30.553-1.414-52.337-2.263-62.239-.283-3.112-5.941-5.658-5.941-5.658h65.634c17.823 0 30.837-2.263 30.837-2.263s-1.981 8.487-3.112 15.559c-1.132 8.771-1.132 24.047-1.132 24.047s-7.072-31.685-27.724-31.685H158.71c-.849 9.619-1.98 30.837-2.263 59.693l26.31-.283c14.711-.283 18.106-9.336 18.106-9.336v25.179s-3.961-9.053-17.823-9.619h-26.31c.283 32.251 1.697 51.772 2.263 59.976h37.909c20.369-.283 27.442-32.251 27.442-32.251s.283 15.56 1.132 24.047c1.131 7.073 3.112 15.56 3.112 15.56s-13.014-2.264-30.837-2.264h-65.917s5.658-3.111 6.224-6.223c.566-8.205 1.98-28.008 1.98-62.24ZM268.477 254.248v7.072c0 28.857 1.132 47.245 2.263 54.601.283 3.395 5.941 5.375 5.941 5.375h-32.817s5.659-2.829 6.224-5.941c.566-9.053 1.981-29.422 1.981-62.522 0-32.817-1.132-54.035-2.547-64.22-.283-2.263-5.658-4.243-5.658-4.243h12.731l33.666-.283c19.237 0 35.08 15.843 35.08 35.08 0 19.238-15.56 34.798-34.797 34.798l-22.067.283Zm12.448-64.22c-3.395 0-7.073 0-10.185.283-.566 9.336-1.98 30.271-2.263 58.279h15.56c14.994 0 27.442-14.429 27.442-29.14 0-14.994-11.599-28.573-26.311-29.139h-4.243v-.283ZM340.901 184.653h12.731l33.949-.283c19.237 0 35.08 15.843 35.08 35.08 0 12.731-6.79 23.764-16.974 29.988 18.389 1.698 32.817 17.258 32.817 35.93 0 20.086-16.126 35.929-36.212 35.929h-61.108s5.658-3.112 6.224-6.224c.849-9.336 1.981-29.14 1.981-62.24 0-32.817-.284-53.752-1.981-62.522-.566-2.546-6.507-5.658-6.507-5.658Zm37.627 5.375c-3.395 0-7.073.283-10.751.283-.565 9.336-1.98 29.988-2.263 58.279h15.56c14.994 0 27.442-14.428 27.442-29.422s-11.599-28.574-26.31-29.14h-3.678Zm17.823 65.069c-4.81-.283-11.033-.283-17.54-.283-4.527 0-9.053.283-13.014.283 0 30.553 1.132 50.074 1.98 59.41 9.336.566 20.087 1.697 27.725 1.697 15.56 0 28.291-14.994 28.291-30.554.282-15.842-11.882-29.988-27.442-30.553ZM460.854 252.834c0-30.837-.849-52.904-2.264-62.523-.565-3.112-5.941-5.658-5.941-5.658h32.817s-5.658 2.264-5.941 5.658c-.565 9.336-1.98 30.271-2.263 58.562l36.495.283a36.101 36.101 0 0 1 36.212 36.212 36.1 36.1 0 0 1-36.212 36.211l-47.245.284h-13.863s5.941-3.395 6.224-6.507c.566-9.619 1.981-29.423 1.981-62.522Zm42.152 1.98c-7.638 0-17.823.566-26.027 1.131 0 29.988 1.132 48.943 1.98 58.279 9.336.566 20.37 1.414 28.008 1.414 15.56 0 28.291-14.993 28.291-30.553s-12.165-29.705-27.725-30.271h-4.527Zm90.247 66.483h-36.777s7.921-5.658 8.487-11.599c.849-11.317 1.697-44.417 1.697-73.273 0-17.823-.282-33.666-1.131-41.587-.566-5.941-8.487-10.185-8.487-10.185h36.494s-7.921 2.829-8.487 9.619c-1.132 11.033-1.98 31.403-1.98 58.562 0 28.29.848 47.528 1.697 57.995.849 7.073 8.487 10.468 8.487 10.468ZM694.816 313.375c0-.849-.283-1.697-.566-2.546-5.092-11.034-14.711-30.554-28.29-56.581l-32.818 57.146c-.848 1.415-1.131 2.547-1.131 3.678 0 4.244 5.092 6.224 5.092 6.224h-28.291s8.488-1.98 14.429-11.033c7.355-11.316 37.626-61.391 38.758-63.088-14.994-27.725-26.028-46.114-31.686-55.449-3.395-5.093-10.467-7.639-10.467-7.639h35.646s-4.809 1.414-4.809 5.941c0 1.131.282 2.263.848 3.395 3.395 7.638 9.619 20.369 18.955 38.758 10.75-18.672 17.54-31.403 20.935-38.192.566-1.132.849-2.263.849-3.395 0-4.81-6.224-6.507-6.224-6.507h27.724s-8.769 2.546-13.579 9.619l-26.027 45.548c2.263 4.243 4.526 8.487 7.072 13.296 14.428 27.159 26.594 47.811 33.383 58.844 4.244 7.073 11.034 9.619 11.034 9.619h-36.778c0 .566 5.941-2.829 5.941-7.638Z" fill="#C4A27A"/></svg>