<svg width="1602" height="167" viewBox="0 0 1602 167" fill="none" xmlns="http://www.w3.org/2000/svg">
<path d="M1 6.26595L0.768049 7.20862L0.767938 7.20883L0.76799 7.20886L0.768039 7.20888L0.768698 7.20923L0.771826 7.21088L0.785194 7.21794L0.839349 7.24683C0.88725 7.27253 0.958202 7.31091 1.04909 7.36096C1.2309 7.46108 1.49225 7.60778 1.80824 7.79294C2.44096 8.16368 3.28925 8.68658 4.15534 9.2968C5.02367 9.9086 5.89752 10.5996 6.58856 11.305C7.28914 12.0202 7.74674 12.6955 7.87762 13.2745C8.82885 18.1945 9.38895 26.5613 9.70928 38.3711C10.0295 50.1753 10.1096 65.3844 10.1096 83.9631C10.1096 121.403 8.83023 143.805 7.87128 154.365C7.72867 155.118 7.27138 155.912 6.61225 156.7C5.95184 157.49 5.11994 158.237 4.29454 158.885C3.47095 159.532 2.66511 160.073 2.06437 160.452C1.76438 160.641 1.51646 160.79 1.34426 160.891C1.25818 160.941 1.19108 160.979 1.14591 161.005L1.09502 161.034L1.08262 161.04L1.0798 161.042L1.07929 161.042L1.07925 161.042L1.0792 161.042C1.0792 161.042 1.0792 161.042 1.07938 161.043L1.32024 161.98H70.5093C93.5231 161.98 112.011 143.824 112.011 120.8C112.011 99.8822 96.215 82.3758 75.8238 79.7775C86.8201 72.5266 94.0726 60.2539 94.0726 46.1651C94.0726 24.1072 75.9108 5.94531 53.8528 5.9453L53.8487 5.94533L15.4144 6.26595H15.4123H1ZM63.4331 87.0245L63.4331 87.0247L63.4443 87.0251C80.759 87.6547 94.3495 103.414 94.0334 121.111H94.0334V121.12C94.0334 138.512 79.7949 155.215 62.5013 155.215C56.8014 155.215 49.5787 154.657 42.2745 154.093C38.6683 153.815 35.0422 153.535 31.5697 153.32C30.6197 142.658 29.3799 120.863 29.3678 87.0241C31.3982 87.0139 33.55 86.9445 35.7593 86.8731L36.0109 86.865C38.4942 86.7849 41.049 86.7051 43.6024 86.7051C50.9751 86.7051 58.0056 86.7053 63.4331 87.0245ZM31.7481 16.1498C31.8031 15.2623 31.8543 14.4356 31.901 13.671C33.837 13.6603 35.7683 13.5858 37.6561 13.5117L37.7739 13.507C39.777 13.4284 41.7288 13.3517 43.6024 13.3517H47.757C64.1042 13.9862 77.0566 29.1017 77.0566 45.8449C77.0566 62.5913 63.1427 78.6583 46.4853 78.6583H29.3728C29.6765 49.5939 31.0319 27.7131 31.7481 16.1498Z" stroke="#121212"/>
<path d="M155.579 78.9821C155.885 49.6906 157.259 27.4266 157.971 15.8917C158.03 14.9203 158.086 14.0251 158.135 13.2081C158.205 12.3842 158.604 11.599 159.208 10.868C159.813 10.136 160.603 9.48563 161.402 8.94029C162.198 8.39647 162.988 7.96744 163.579 7.67404C163.875 7.52761 164.119 7.41565 164.289 7.34068C164.374 7.30321 164.44 7.27503 164.484 7.25645L164.534 7.23582L164.546 7.231L164.549 7.22997L164.549 7.22986L164.549 7.2298L155.579 78.9821ZM155.579 78.9821L196.395 79.2984C196.396 79.2984 196.396 79.2984 196.397 79.2984C219.415 79.2994 237.896 97.7813 237.896 120.8C237.896 143.818 219.414 162.3 196.395 162.3L142.904 162.621L142.901 162.621L127.206 162.621H125.323L126.958 161.687L126.958 161.687H126.958L126.959 161.687L126.962 161.685L126.975 161.677L127.028 161.646C127.076 161.618 127.146 161.576 127.236 161.521C127.417 161.412 127.676 161.251 127.989 161.047C128.614 160.638 129.45 160.057 130.294 159.371C131.139 158.682 131.98 157.898 132.624 157.081C133.273 156.26 133.685 155.454 133.754 154.716C133.814 153.709 133.881 152.604 133.955 151.398C134.677 139.552 135.995 117.953 135.995 83.9627C135.995 49.0513 135.034 24.1069 133.439 13.2535C133.3 12.4966 132.86 11.7385 132.233 11.0112C131.606 10.2848 130.818 9.6197 130.036 9.05231C129.255 8.48626 128.492 8.02616 127.923 7.70732C127.639 7.54814 127.404 7.42476 127.241 7.34158C127.16 7.3 127.097 7.2685 127.054 7.24763L127.006 7.22438L126.995 7.21886L126.992 7.21766L126.992 7.21749L126.992 7.21744L126.992 7.21744C126.992 7.21744 126.992 7.21744 126.992 7.21697L127.206 6.26562H164.363L164.549 7.22912L155.579 78.9821ZM285.883 7.26562C283.434 8.43203 277.933 11.6965 277.436 17.6562C276.155 30.1487 275.194 53.212 275.194 83.9627C275.194 115.995 276.155 137.777 277.116 149.628L285.883 7.26562ZM285.883 7.26562H287.046V6.76562C286.877 6.29475 286.877 6.29482 286.877 6.29491L286.876 6.29514L286.874 6.29583L286.868 6.29809L286.846 6.30619C286.827 6.31319 286.8 6.32339 286.765 6.33682C286.695 6.36369 286.594 6.40352 286.467 6.45665L285.883 7.26562ZM286.725 161.98L286.922 161.022C286.922 161.021 286.923 161.021 286.923 161.021L286.922 161.021L286.922 161.02L286.918 161.019L286.902 161.012C286.887 161.005 286.863 160.994 286.832 160.98C286.77 160.952 286.678 160.909 286.559 160.85C286.32 160.734 285.977 160.557 285.562 160.32C284.73 159.846 283.616 159.132 282.483 158.175C280.211 156.256 277.919 153.405 277.614 149.589L277.614 149.588C276.655 137.754 275.694 115.987 275.694 83.9627C275.694 53.2173 276.655 30.1741 277.933 17.7072L277.934 17.6977C278.238 14.0543 280.516 11.4463 282.783 9.72638C283.913 8.86943 285.025 8.24477 285.856 7.83447C286.27 7.62958 286.613 7.47884 286.851 7.37988C286.97 7.33041 287.062 7.29393 287.124 7.27012C287.155 7.25822 287.178 7.24949 287.194 7.2439L287.21 7.23786L287.213 7.2366L287.214 7.2365L287.214 7.23642C287.214 7.23642 287.214 7.23643 287.214 7.23528L287.046 6.26562H245.725L245.489 7.20582C245.488 7.2063 245.488 7.2063 245.488 7.20629L245.488 7.20633L245.488 7.20637L245.489 7.20673L245.493 7.20884L245.51 7.21824C245.526 7.22681 245.55 7.23996 245.581 7.2576C245.644 7.29287 245.738 7.34609 245.858 7.41655C246.099 7.5575 246.445 7.76724 246.863 8.04013C247.699 8.58645 248.82 9.38303 249.959 10.3843C252.257 12.405 254.535 15.1782 254.836 18.3445L254.837 18.3503C255.795 27.2877 256.115 45.1973 256.115 65.384C256.115 98.0502 255.154 135.506 254.195 148.304C253.89 151.488 251.595 154.663 249.286 157.092C248.142 158.295 247.016 159.292 246.176 159.989C245.756 160.337 245.409 160.61 245.167 160.794C245.046 160.887 244.951 160.957 244.888 161.004C244.856 161.028 244.832 161.045 244.816 161.057L244.798 161.07L244.794 161.073L244.793 161.073L243.523 161.98H245.084H286.725ZM157.455 152.999C156.505 142.35 155.265 121.175 155.254 87.953C164.458 87.3234 175.736 86.7048 184.223 86.7048H184.236H184.249H184.262H184.275H184.288H184.301H184.314H184.327H184.34H184.353H184.366H184.379H184.392H184.405H184.418H184.431H184.444H184.457H184.47H184.483H184.496H184.508H184.521H184.534H184.547H184.56H184.572H184.585H184.598H184.61H184.623H184.636H184.648H184.661H184.674H184.686H184.699H184.712H184.724H184.737H184.749H184.762H184.774H184.787H184.799H184.812H184.824H184.837H184.849H184.862H184.874H184.887H184.899H184.911H184.924H184.936H184.948H184.961H184.973H184.985H184.998H185.01H185.022H185.034H185.046H185.059H185.071H185.083H185.095H185.107H185.12H185.132H185.144H185.156H185.168H185.18H185.192H185.204H185.216H185.228H185.24H185.252H185.264H185.276H185.288H185.3H185.312H185.324H185.336H185.348H185.359H185.371H185.383H185.395H185.407H185.419H185.43H185.442H185.454H185.466H185.477H185.489H185.501H185.513H185.524H185.536H185.548H185.559H185.571H185.582H185.594H185.606H185.617H185.629H185.64H185.652H185.663H185.675H185.686H185.698H185.709H185.721H185.732H185.744H185.755H185.767H185.778H185.789H185.801H185.812H185.823H185.835H185.846H185.857H185.869H185.88H185.891H185.903H185.914H185.925H185.936H185.947H185.959H185.97H185.981H185.992H186.003H186.014H186.026H186.037H186.048H186.059H186.07H186.081H186.092H186.103H186.114H186.125H186.136H186.147H186.158H186.169H186.18H186.191H186.202H186.213H186.224H186.234H186.245H186.256H186.267H186.278H186.289H186.299H186.31H186.321H186.332H186.343H186.353H186.364H186.375H186.385H186.396H186.407H186.418H186.428H186.439H186.45H186.46H186.471H186.481H186.492H186.503H186.513H186.524H186.534H186.545H186.555H186.566H186.576H186.587H186.597H186.608H186.618H186.629H186.639H186.649H186.66H186.67H186.681H186.691H186.701H186.712H186.722H186.732H186.743H186.753H186.763H186.773H186.784H186.794H186.804H186.814H186.825H186.835H186.845H186.855H186.865H186.876H186.886H186.896H186.906H186.916H186.926H186.936H186.946H186.957H186.967H186.977H186.987H186.997H187.007H187.017H187.027H187.037H187.047H187.057H187.067H187.076H187.086H187.096H187.106H187.116H187.126H187.136H187.146H187.156H187.165H187.175H187.185H187.195H187.205H187.214H187.224H187.234H187.244H187.253H187.263H187.273H187.283H187.292H187.302H187.312H187.321H187.331H187.341H187.35H187.36H187.369H187.379H187.389H187.398H187.408H187.417H187.427H187.436H187.446H187.455H187.465H187.474H187.484H187.493H187.503H187.512H187.522H187.531H187.541H187.55H187.559H187.569H187.578H187.588H187.597H187.606H187.616H187.625H187.634H187.644H187.653H187.662H187.671H187.681H187.69H187.699H187.708H187.718H187.727H187.736H187.745H187.754H187.764H187.773H187.782H187.791H187.8H187.809H187.818H187.828H187.837H187.846H187.855H187.864H187.873H187.882H187.891H187.9H187.909H187.918H187.927H187.936H187.945H187.954H187.963H187.972H187.981H187.99H187.999H188.008H188.016H188.025H188.034H188.043H188.052H188.061H188.07H188.078H188.087H188.096H188.105H188.114H188.122H188.131H188.14H188.149H188.158H188.166H188.175H188.184H188.192H188.201H188.21H188.218H188.227H188.236H188.244H188.253H188.262H188.27H188.279H188.288H188.296H188.305H188.313H188.322H188.33H188.339H188.348H188.356H188.365H188.373H188.382H188.39H188.399H188.407H188.416H188.424H188.432H188.441H188.449H188.458H188.466H188.475H188.483H188.491H188.5H188.508H188.516H188.525H188.533H188.541H188.55H188.558H188.566H188.575H188.583H188.591H188.6H188.608H188.616H188.624H188.633H188.641H188.649H188.657H188.665H188.674H188.682H188.69H188.698H188.706H188.714H188.723H188.731H188.739H188.747H188.755H188.763H188.771H188.779H188.787H188.796H188.804H188.812H188.82H188.828H188.836H188.844H188.852H188.86H188.868H188.876H188.884H188.892H188.9H188.908H188.916H188.923H188.931H188.939H188.947H188.955H188.963H188.971H188.979H188.987H188.995H189.002H189.01H189.018H189.026H189.034H189.042H189.049H189.057H189.065H189.073H189.081H189.088H189.096H189.104H189.112H189.119H189.127H189.135H189.142H189.15H189.158H189.166H189.173H189.181H189.189H189.196H189.204H189.212H189.219H189.227H189.234H189.242H189.25H189.257H189.265H189.272H189.28H189.288H189.295H189.303H189.31H189.318H189.325H189.333H189.339C206.651 87.3396 220.239 103.1 220.239 120.479C220.239 137.871 206.001 154.574 188.707 154.574C181.943 154.574 172.821 153.984 164.095 153.421C161.839 153.275 159.61 153.131 157.455 152.999Z" stroke="#121212"/>
<path d="M404.603 4.84375L404.547 4.34696L404.546 4.34701L404.544 4.34721L404.537 4.34805L404.507 4.35143L404.386 4.36477C404.278 4.3765 404.118 4.39378 403.906 4.41591C403.482 4.46018 402.853 4.52384 402.034 4.60127C400.395 4.75614 397.997 4.96608 394.957 5.18605C388.88 5.62596 380.242 6.10594 370.005 6.26598H304.663L304.498 7.23718C304.498 7.23788 304.498 7.23787 304.498 7.23787C304.498 7.23788 304.498 7.23787 304.498 7.23788L304.498 7.23792L304.498 7.23803L304.501 7.23896L304.513 7.24323L304.563 7.2614C304.607 7.27777 304.674 7.30257 304.759 7.33558C304.93 7.40163 305.177 7.50039 305.475 7.62996C306.073 7.88954 306.873 8.27052 307.691 8.75709C308.511 9.24505 309.332 9.8302 309.982 10.4939C310.625 11.1515 311.071 11.8563 311.213 12.5924C311.292 13.937 311.391 15.5046 311.503 17.2848C312.299 29.9533 313.773 53.3952 313.773 83.9631C313.773 120.801 312.491 145.433 311.215 154.363L311.215 154.367C310.922 156.562 309.381 158.136 307.785 159.226C306.993 159.766 306.207 160.174 305.593 160.469C305.38 160.571 305.193 160.657 305.03 160.733C304.955 160.767 304.885 160.799 304.82 160.83C304.72 160.876 304.629 160.92 304.555 160.959L304.554 160.959C304.502 160.987 304.391 161.045 304.31 161.127L303.456 161.98H304.663H373.853C396.871 161.98 415.353 143.499 415.353 120.48C415.353 97.7792 396.87 79.2998 373.854 79.2988C373.854 79.2988 373.853 79.2988 373.853 79.2988L333.036 78.9824C333.34 49.5961 334.698 27.6732 335.413 16.1158C335.467 15.2416 335.518 14.4267 335.564 13.6724H368.727C380.125 13.6724 387.845 22.5728 392.752 31.6679C395.196 36.1981 396.917 40.7329 398.027 44.1379C398.581 45.8396 398.983 47.2569 399.246 48.2476C399.377 48.743 399.473 49.1315 399.537 49.3955C399.569 49.5275 399.592 49.6283 399.608 49.6957L399.625 49.7716L399.629 49.7902L399.63 49.7946L399.63 49.7956C399.63 49.7957 399.63 49.7957 399.927 49.7305L399.63 49.7957L400.619 49.6886L400.119 49.6886C400.619 49.6886 400.619 49.6885 400.619 49.6884V49.6879V49.6856L400.619 49.6763L400.619 49.6393L400.619 49.4931C400.619 49.3644 400.62 49.1742 400.621 48.9285C400.624 48.4371 400.629 47.7236 400.639 46.8364C400.659 45.0618 400.699 42.5923 400.779 39.8131C400.939 34.2491 401.259 27.4637 401.896 22.5254L401.896 22.5234C402.374 18.697 403.173 14.3062 403.853 10.8666C404.192 9.14802 404.502 7.66919 404.727 6.62019C404.839 6.09572 404.93 5.67877 404.993 5.39312C405.025 5.25029 405.049 5.1403 405.066 5.0661L405.085 4.98202L405.089 4.96082L405.091 4.95555L405.091 4.95426L405.091 4.95396L404.603 4.84375ZM404.603 4.84375L404.547 4.34695L405.246 4.26748L405.091 4.95388L404.603 4.84375ZM335.233 153C334.282 142.351 333.043 121.181 333.031 88.2736C342.236 87.644 353.514 87.0254 362 87.0254H362.012H362.023H362.034H362.046H362.057H362.068H362.079H362.091H362.102H362.113H362.124H362.136H362.147H362.158H362.169H362.181H362.192H362.203H362.214H362.226H362.237H362.248H362.259H362.271H362.282H362.293H362.304H362.316H362.327H362.338H362.349H362.361H362.372H362.383H362.394H362.406H362.417H362.428H362.439H362.451H362.462H362.473H362.484H362.496H362.507H362.518H362.529H362.541H362.552H362.563H362.574H362.585H362.597H362.608H362.619H362.63H362.642H362.653H362.664H362.675H362.686H362.698H362.709H362.72H362.731H362.742H362.754H362.765H362.776H362.787H362.798H362.81H362.821H362.832H362.843H362.854H362.865H362.877H362.888H362.899H362.91H362.921H362.932H362.944H362.955H362.966H362.977H362.988H362.999H363.011H363.022H363.033H363.044H363.055H363.066H363.077H363.088H363.1H363.111H363.122H363.133H363.144H363.155H363.166H363.177H363.188H363.2H363.211H363.222H363.233H363.244H363.255H363.266H363.277H363.288H363.299H363.31H363.321H363.333H363.344H363.355H363.366H363.377H363.388H363.399H363.41H363.421H363.432H363.443H363.454H363.465H363.476H363.487H363.498H363.509H363.52H363.531H363.542H363.553H363.564H363.575H363.586H363.597H363.608H363.619H363.63H363.641H363.652H363.663H363.674H363.684H363.695H363.706H363.717H363.728H363.739H363.75H363.761H363.772H363.783H363.794H363.805H363.815H363.826H363.837H363.848H363.859H363.87H363.881H363.891H363.902H363.913H363.924H363.935H363.946H363.956H363.967H363.978H363.989H364H364.01H364.021H364.032H364.043H364.054H364.064H364.075H364.086H364.097H364.107H364.118H364.129H364.14H364.15H364.161H364.172H364.182H364.193H364.204H364.215H364.225H364.236H364.247H364.257H364.268H364.279H364.289H364.3H364.31H364.321H364.332H364.342H364.353H364.364H364.374H364.385H364.395H364.406H364.417H364.427H364.438H364.448H364.459H364.469H364.48H364.49H364.501H364.511H364.522H364.532H364.543H364.553H364.564H364.574H364.585H364.595H364.606H364.616H364.627H364.637H364.648H364.658H364.668H364.679H364.689H364.7H364.71H364.72H364.731H364.741H364.752H364.762H364.772H364.783H364.793H364.803H364.814H364.824H364.834H364.844H364.855H364.865H364.875H364.886H364.896H364.906H364.916H364.927H364.937H364.947H364.957H364.967H364.978H364.988H364.998H365.008H365.018H365.029H365.039H365.049H365.059H365.069H365.079H365.089H365.099H365.11H365.12H365.13H365.14H365.15H365.16H365.17H365.18H365.19H365.2H365.21H365.22H365.23H365.24H365.25H365.26H365.27H365.28H365.29H365.3H365.31H365.32H365.329H365.339H365.349H365.359H365.369H365.379H365.389H365.399H365.408H365.418H365.428H365.438H365.448H365.457H365.467H365.477H365.487H365.496H365.506H365.516H365.526H365.535H365.545H365.555H365.565H365.574H365.584H365.594H365.603H365.613H365.622H365.632H365.642H365.651H365.661H365.67H365.68H365.69H365.699H365.709H365.718H365.728H365.737H365.747H365.756H365.766H365.775H365.785H365.794H365.804H365.813H365.822H365.832H365.841H365.851H365.86H365.869H365.879H365.888H365.897H365.907H365.916H365.925H365.935H365.944H365.953H365.962H365.972H365.981H365.99H365.999H366.009H366.018H366.027H366.036H366.045H366.054H366.064H366.073H366.082H366.091H366.1H366.109H366.118H366.127H366.136H366.145H366.154H366.163H366.172H366.181H366.19H366.199H366.208H366.217H366.226H366.235H366.244H366.253H366.262H366.271H366.28H366.289H366.297H366.306H366.315H366.324H366.333H366.341H366.35H366.359H366.368H366.377H366.385H366.394H366.403H366.411H366.42H366.429H366.437H366.446H366.455H366.463H366.472H366.48H366.489H366.498H366.506H366.515H366.523H366.532H366.54H366.549H366.557H366.566H366.574H366.583H366.591H366.599H366.608H366.616H366.625H366.633H366.641H366.65H366.658H366.666H366.675H366.683H366.691H366.7H366.708H366.716H366.724H366.732H366.741H366.749H366.757H366.765H366.773H366.781H366.79H366.798H366.806H366.814H366.822H366.83H366.838H366.846H366.854H366.862H366.87H366.878H366.886H366.894H366.902H366.91H366.918H366.925H366.933H366.941H366.949H366.957H366.965H366.972H366.98H366.988H366.996H367.004H367.011H367.019H367.027H367.034H367.042H367.05H367.057H367.065H367.073H367.08H367.088H367.095H367.103H367.111H367.116C384.428 87.6601 397.697 103.1 397.697 120.48C397.697 137.872 383.458 154.574 366.165 154.574C359.505 154.574 350.751 154.003 342.235 153.447C339.866 153.292 337.515 153.139 335.233 153Z" stroke="#121212"/>
<path d="M453.912 96.032L453.912 96.0319L453.909 96.0192C452.319 89.3402 451.68 82.0135 451.68 74.9939C451.68 68.6244 452.317 62.8901 453.273 57.4696C457.403 37.1516 474.88 17.1385 498.054 12.0591L498.061 12.0576L498.068 12.0558C501.859 11.1081 505.979 10.7894 509.799 10.7894C528.847 10.7894 546.965 20.9543 557.771 34.9394L557.775 34.9443C565.078 44.1519 570.18 57.2035 573.054 70.2945C574.327 76.342 574.964 83.3531 574.964 89.4083C574.964 95.4627 574.327 101.524 573.688 105.995C570.514 127.896 553.046 148.226 528.909 153.625L528.909 153.625L528.897 153.628C525.106 154.576 520.986 154.894 517.166 154.894C496.831 154.894 477.454 144.086 467.618 128.86C462.833 121.203 456.458 108.127 453.912 96.032ZM495.278 2.43332C462.063 9.52881 430.5 43.9994 430.5 84.6035C430.5 89.7441 430.821 95.2348 432.435 101.057C441.139 143.895 473.705 166.145 510.44 166.145C517.2 166.145 523.643 165.5 530.728 163.89C569.399 155.51 595.824 121.35 595.824 83.3222C595.824 77.5214 595.18 71.3994 593.891 65.5974C585.511 26.9229 551.028 0.5 513.002 0.5C506.88 0.5 501.079 1.14439 495.278 2.43332Z" stroke="#121212"/>
<path d="M610.249 5.94524L610.076 6.91386L610.076 6.91438L610.076 6.9144L610.076 6.91441L610.077 6.91458L610.079 6.91556L610.091 6.91993L610.139 6.93816C610.182 6.95448 610.245 6.97901 610.327 7.01131C610.489 7.07592 610.723 7.17146 611.006 7.29417C611.571 7.54003 612.325 7.8928 613.086 8.32217C613.851 8.75344 614.604 9.25184 615.179 9.78493C615.766 10.3287 616.101 10.8476 616.159 11.3121L616.159 11.3121L616.16 11.3188C617.757 22.8136 619.038 46.8082 619.038 83.963C619.038 119.321 617.612 141.841 616.914 152.875C616.873 153.52 616.835 154.125 616.799 154.692C616.656 155.439 616.202 156.21 615.547 156.963C614.889 157.722 614.06 158.428 613.236 159.036C612.413 159.643 611.609 160.143 611.009 160.493C610.709 160.667 610.461 160.803 610.29 160.895C610.204 160.941 610.137 160.976 610.092 160.999L610.041 161.025L610.029 161.032L610.026 161.033L610.025 161.033L610.025 161.033L610.025 161.033C610.025 161.033 610.025 161.033 610.026 161.034L610.249 161.98H647.406L647.571 161.009C647.571 161.008 647.571 161.008 647.571 161.008L647.571 161.008L647.571 161.008L647.569 161.007L647.557 161.003L647.507 160.985C647.463 160.969 647.397 160.944 647.312 160.911C647.143 160.845 646.899 160.745 646.604 160.613C646.013 160.35 645.225 159.96 644.431 159.456C643.634 158.951 642.847 158.341 642.245 157.641C641.643 156.941 641.246 156.176 641.178 155.353L641.176 155.335L641.174 155.318C639.899 147.031 638.617 126.244 638.617 93.5726V86.0582L663.102 85.7443C663.103 85.7443 663.104 85.7443 663.105 85.7443C685.162 85.7425 703.001 67.9016 703.001 45.8448C703.001 23.7869 684.84 5.625 662.782 5.62498L662.777 5.62502L624.663 5.94524H624.661H610.249ZM638.943 78.6582C639.248 49.6805 640.62 27.4524 641.332 15.914C641.383 15.1001 641.43 14.3393 641.473 13.6332C644.723 13.3649 648.482 13.3523 652.032 13.3517V13.6723H652.532H657.327C673.674 14.3067 686.626 29.4219 686.626 46.165C686.626 62.588 672.715 78.6582 656.055 78.6582H638.943Z" stroke="#121212"/>
<path d="M910.926 161.031L910.709 161.98H869.388L869.253 161.001C869.253 160.999 869.253 160.999 869.253 160.999L869.253 160.999L869.253 160.999L869.256 160.998L869.27 160.994C869.282 160.99 869.303 160.984 869.33 160.976C869.384 160.959 869.466 160.933 869.572 160.896C869.783 160.823 870.089 160.71 870.462 160.55C871.209 160.23 872.218 159.726 873.264 158.989C875.353 157.519 877.564 155.147 878.181 151.488C879.14 139.966 880.419 117.884 880.419 83.963C880.419 53.2392 878.539 22.5342 877.573 15.0803C877.342 14.9666 876.971 14.8419 876.44 14.7185C875.768 14.5621 874.899 14.4208 873.862 14.2942C871.788 14.0412 869.08 13.8516 866.002 13.7116C859.847 13.4318 852.249 13.3516 845.364 13.3516C837.994 13.3516 830.235 13.3517 824.039 13.5516C820.94 13.6516 818.242 13.8012 816.183 14.0244C815.154 14.1361 814.294 14.2651 813.63 14.4127C813.098 14.5307 812.731 14.6527 812.504 14.7652C810.617 25.7606 809.667 53.4093 809.667 83.6427C809.667 116.939 810.948 138.705 811.908 150.223C812.209 153.221 814.398 155.752 816.612 157.571C817.709 158.472 818.789 159.178 819.594 159.66C819.997 159.9 820.33 160.084 820.561 160.207C820.677 160.268 820.767 160.315 820.827 160.345C820.858 160.36 820.881 160.372 820.896 160.379L820.912 160.387L820.916 160.389L820.916 160.389L910.926 161.031ZM910.926 161.031C910.926 161.03 910.926 161.03 910.926 161.03L910.926 161.031ZM779.252 6.60888C779.252 6.60888 779.252 6.60888 779.252 6.60888L779.252 6.60888Z" stroke="#121212"/>
<path d="M1037.88 4.20312L1037.79 3.71053L1037.79 3.7106L1037.79 3.71091L1037.78 3.71222L1037.75 3.71756L1037.62 3.73868C1037.51 3.75725 1037.35 3.78457 1037.13 3.8194C1036.69 3.88907 1036.03 3.98876 1035.19 4.10849C1033.5 4.34795 1031.03 4.66749 1027.94 4.98713C1021.74 5.62644 1013.03 6.26584 1002.96 6.26584H928.647L928.442 7.22126C928.442 7.22175 928.442 7.22175 928.442 7.22175L928.442 7.22176L928.442 7.2218L928.443 7.22198L928.445 7.22319L928.457 7.22872L928.508 7.25202C928.552 7.27291 928.619 7.30443 928.704 7.34603C928.875 7.42925 929.121 7.55264 929.417 7.71182C930.01 8.03071 930.803 8.49055 931.602 9.05593C932.404 9.623 933.197 10.2857 933.806 11.0071C934.417 11.7317 934.809 12.4778 934.876 13.2163C935.836 24.4147 937.437 49.0644 937.437 83.6427C937.437 121.633 935.897 143.919 935.234 153.523L935.198 154.05C935.054 154.801 934.597 155.594 933.939 156.38C933.279 157.17 932.447 157.916 931.622 158.565C930.798 159.212 929.992 159.753 929.392 160.132C929.092 160.321 928.844 160.469 928.671 160.57C928.585 160.621 928.518 160.659 928.473 160.685L928.422 160.713L928.41 160.72L928.407 160.722L928.407 160.722L928.406 160.722L928.406 160.722C928.406 160.722 928.406 160.722 928.407 160.722L928.647 161.66H1003.28C1013.35 161.66 1022.06 162.299 1028.26 162.939C1031.35 163.258 1033.82 163.578 1035.51 163.817C1036.35 163.937 1037.01 164.037 1037.45 164.107C1037.67 164.141 1037.83 164.169 1037.94 164.187L1038.07 164.208L1038.1 164.214L1038.11 164.215L1038.11 164.215L1038.11 164.215L1038.86 164.345L1038.68 163.609L1038.2 163.723L1038.68 163.609L1038.68 163.609L1038.68 163.608L1038.68 163.602L1038.68 163.582L1038.66 163.5C1038.64 163.428 1038.62 163.321 1038.59 163.183C1038.52 162.905 1038.43 162.499 1038.31 161.987C1038.08 160.962 1037.76 159.513 1037.4 157.813C1036.69 154.417 1035.81 150.029 1035.17 146.041C1034.69 141.254 1034.37 134.47 1034.17 128.87C1034.07 126.07 1034 123.569 1033.96 121.768C1033.93 120.868 1033.92 120.143 1033.91 119.643C1033.9 119.393 1033.9 119.199 1033.9 119.068L1033.89 118.919L1033.89 118.881L1033.89 118.872L1033.89 118.87L1033.89 118.869C1033.89 118.869 1033.89 118.869 1033.39 118.878L1033.89 118.869L1032.9 118.77L1033.32 118.862C1032.9 118.77 1032.9 118.77 1032.9 118.77L1032.9 118.771L1032.9 118.775L1032.9 118.794L1032.88 118.869C1032.87 118.936 1032.84 119.036 1032.81 119.167C1032.75 119.428 1032.65 119.814 1032.52 120.305C1032.26 121.288 1031.86 122.694 1031.31 124.383C1030.2 127.763 1028.49 132.269 1026.06 136.779C1021.2 145.835 1013.56 154.736 1002.32 154.894H959.865C959.855 154.748 959.844 154.598 959.834 154.446C959.16 144.718 957.66 123.045 957.34 87.9864H986.615C994.341 88.3039 999.276 90.9807 1002.28 93.5518C1003.78 94.8406 1004.8 96.1079 1005.45 97.0485C1005.77 97.5187 1006 97.9069 1006.14 98.1748C1006.22 98.3087 1006.27 98.4124 1006.3 98.4812C1006.32 98.5156 1006.33 98.5413 1006.34 98.5576L1006.35 98.5749L1006.35 98.5778L1006.35 98.5782C1006.35 98.5782 1006.35 98.5782 1006.35 98.5774L1007.31 98.3774V69.8688L1006.34 69.6937C1006.34 69.6928 1006.34 69.6927 1006.34 69.6927L1006.34 69.6932L1006.34 69.6954L1006.33 69.7121C1006.32 69.7279 1006.31 69.7531 1006.3 69.787C1006.27 69.8547 1006.22 69.9573 1006.16 70.0899C1006.03 70.355 1005.82 70.7397 1005.52 71.2051C1004.93 72.136 1003.96 73.3887 1002.48 74.654C999.526 77.178 994.514 79.7812 986.297 79.9396C986.297 79.9396 986.296 79.9396 986.296 79.9396L957.02 80.2543C957.344 48.2979 958.587 24.6933 959.536 13.6722H1001.68C1013.08 13.6722 1020.8 22.4189 1025.71 31.3508C1028.15 35.8007 1029.87 40.2552 1030.98 43.5999C1031.54 45.2713 1031.94 46.6635 1032.2 47.6367C1032.33 48.1232 1032.43 48.5048 1032.49 48.764C1032.52 48.8936 1032.55 48.9926 1032.56 49.0588L1032.58 49.1333L1032.58 49.1515L1032.58 49.1558L1032.58 49.1568C1032.58 49.1569 1032.58 49.1569 1032.81 49.1058L1032.58 49.1569L1033.57 49.048L1033.07 49.048C1033.57 49.048 1033.57 49.0479 1033.57 49.0478V49.0472V49.045L1033.57 49.0357L1033.57 48.9986L1033.57 48.8525C1033.57 48.7238 1033.57 48.5336 1033.57 48.2879C1033.58 47.7964 1033.58 47.083 1033.59 46.1957C1033.61 44.4211 1033.65 41.9517 1033.73 39.1725C1033.89 33.6113 1034.21 26.83 1034.85 21.8923C1035.49 17.9022 1036.36 13.5105 1037.08 10.1125C1037.44 8.41313 1037.76 6.96368 1037.99 5.93922C1038.11 5.42701 1038.2 5.02111 1038.27 4.74338C1038.3 4.60453 1038.32 4.49772 1038.34 4.4257L1038.36 4.3441L1038.36 4.32351L1038.36 4.31838L1038.36 4.31712L1038.36 4.31682L1037.88 4.20312ZM1037.88 4.20312L1037.79 3.71052L1038.54 3.58108L1038.36 4.31674L1037.88 4.20312Z" stroke="#121212"/>
<path d="M1055.49 5.94524L1055.32 6.91386L1055.32 6.91438L1055.32 6.9144L1055.32 6.91441L1055.32 6.91458L1055.32 6.91556L1055.34 6.91993L1055.38 6.93816C1055.43 6.95448 1055.49 6.97901 1055.57 7.01131C1055.73 7.07592 1055.97 7.17146 1056.25 7.29417C1056.82 7.54003 1057.57 7.8928 1058.33 8.32217C1059.1 8.75344 1059.85 9.25184 1060.42 9.78493C1061.01 10.3287 1061.35 10.8476 1061.4 11.3121L1061.4 11.3121L1061.41 11.3188C1063 22.8136 1064.28 46.8082 1064.28 83.963C1064.28 119.321 1062.86 141.841 1062.16 152.875C1062.12 153.52 1062.08 154.125 1062.04 154.692C1061.9 155.439 1061.45 156.21 1060.79 156.963C1060.13 157.722 1059.3 158.428 1058.48 159.036C1057.66 159.643 1056.85 160.143 1056.25 160.493C1055.95 160.667 1055.71 160.803 1055.53 160.895C1055.45 160.941 1055.38 160.976 1055.34 160.999L1055.29 161.025L1055.27 161.032L1055.27 161.033L1055.27 161.033L1055.27 161.033L1055.27 161.033C1055.27 161.033 1055.27 161.033 1055.27 161.034L1055.49 161.98H1092.65L1092.82 161.009C1092.82 161.008 1092.82 161.008 1092.82 161.008L1092.82 161.008L1092.82 161.008L1092.81 161.007L1092.8 161.003L1092.75 160.985C1092.71 160.969 1092.64 160.944 1092.56 160.911C1092.39 160.845 1092.14 160.745 1091.85 160.613C1091.26 160.35 1090.47 159.96 1089.68 159.456C1088.88 158.951 1088.09 158.341 1087.49 157.641C1086.89 156.941 1086.49 156.176 1086.42 155.353L1086.42 155.335L1086.42 155.318C1085.14 147.031 1083.86 126.244 1083.86 93.5726V86.0582L1108.35 85.7443C1108.35 85.7443 1108.35 85.7443 1108.35 85.7443C1130.41 85.7425 1148.25 67.9016 1148.25 45.8448C1148.25 23.7869 1130.08 5.625 1108.03 5.62498L1108.02 5.62502L1069.91 5.94524H1069.91H1055.49ZM1083.87 78.6582C1084.17 49.6805 1085.55 27.4524 1086.26 15.914C1086.31 15.1001 1086.35 14.3393 1086.4 13.6332C1089.65 13.3649 1093.41 13.3523 1096.96 13.3517V13.6723H1097.46H1102.25C1118.6 14.3067 1131.55 29.4219 1131.55 46.165C1131.55 62.588 1117.64 78.6582 1100.98 78.6582H1083.87Z" stroke="#121212"/>
<path d="M1165.36 6.26595L1165.13 7.20862L1165.13 7.20883L1165.13 7.20886L1165.13 7.20888L1165.13 7.20923L1165.14 7.21088L1165.15 7.21794L1165.2 7.24683C1165.25 7.27253 1165.32 7.31091 1165.41 7.36096C1165.6 7.46108 1165.86 7.60778 1166.17 7.79294C1166.81 8.16368 1167.65 8.68658 1168.52 9.2968C1169.39 9.9086 1170.26 10.5996 1170.95 11.305C1171.65 12.0202 1172.11 12.6955 1172.24 13.2745C1173.19 18.1945 1173.75 26.5613 1174.07 38.3711C1174.39 50.1753 1174.47 65.3844 1174.47 83.9631C1174.47 121.403 1173.19 143.805 1172.24 154.365C1172.09 155.118 1171.64 155.912 1170.98 156.7C1170.32 157.49 1169.48 158.237 1168.66 158.885C1167.84 159.532 1167.03 160.073 1166.43 160.452C1166.13 160.641 1165.88 160.79 1165.71 160.891C1165.62 160.941 1165.56 160.979 1165.51 161.005L1165.46 161.034L1165.45 161.04L1165.44 161.042L1165.44 161.042L1165.44 161.042L1165.44 161.042C1165.44 161.042 1165.44 161.042 1165.44 161.043L1165.68 161.98H1234.87C1257.89 161.98 1276.37 143.824 1276.37 120.8C1276.37 99.8822 1260.58 82.3758 1240.19 79.7775C1251.18 72.5266 1258.44 60.2539 1258.44 46.1651C1258.44 24.1072 1240.28 5.94531 1218.22 5.9453L1218.21 5.94533L1179.78 6.26595H1179.78H1165.36ZM1228.12 87.0245L1228.12 87.0247L1228.13 87.0251C1245.44 87.6547 1259.03 103.414 1258.72 121.111H1258.72V121.12C1258.72 138.512 1244.48 155.215 1227.19 155.215C1221.49 155.215 1214.26 154.657 1206.96 154.093C1203.35 153.815 1199.73 153.535 1196.25 153.32C1195.3 142.658 1194.06 120.863 1194.05 87.0241C1196.08 87.0139 1198.23 86.9445 1200.44 86.8731L1200.7 86.865C1203.18 86.7849 1205.73 86.7051 1208.29 86.7051C1215.66 86.7051 1222.69 86.7053 1228.12 87.0245ZM1196.11 16.1498C1196.17 15.2623 1196.22 14.4356 1196.27 13.671C1198.2 13.6603 1200.13 13.5858 1202.02 13.5117L1202.14 13.507C1204.14 13.4284 1206.09 13.3517 1207.97 13.3517H1212.12C1228.47 13.9862 1241.42 29.1017 1241.42 45.8449C1241.42 62.5913 1227.51 78.6583 1210.85 78.6583H1193.74C1194.04 49.5939 1195.4 27.7131 1196.11 16.1498Z" stroke="#121212"/>
<path d="M1320.26 78.9821C1320.57 49.6907 1321.94 27.4267 1322.66 15.8918C1322.72 14.9204 1322.77 14.0251 1322.82 13.2081C1322.89 12.3842 1323.29 11.599 1323.89 10.868C1324.5 10.136 1325.29 9.48563 1326.09 8.94029C1326.88 8.39647 1327.67 7.96744 1328.26 7.67404C1328.56 7.52761 1328.8 7.41565 1328.97 7.34068C1329.06 7.30321 1329.12 7.27503 1329.17 7.25645L1329.22 7.23582L1329.23 7.231L1329.23 7.22997L1329.23 7.22986L1329.23 7.2298L1320.26 78.9821ZM1320.26 78.9821L1361.08 79.2984C1361.08 79.2984 1361.08 79.2984 1361.08 79.2984C1384.1 79.2994 1402.58 97.7813 1402.58 120.8C1402.58 143.818 1384.1 162.3 1361.08 162.3L1307.59 162.621L1307.59 162.621L1291.89 162.621H1290.01L1291.64 161.687L1291.64 161.687H1291.64L1291.64 161.687L1291.65 161.685L1291.66 161.677L1291.71 161.646C1291.76 161.618 1291.83 161.576 1291.92 161.521C1292.1 161.412 1292.36 161.251 1292.67 161.047C1293.3 160.638 1294.13 160.057 1294.98 159.371C1295.82 158.682 1296.66 157.898 1297.31 157.081C1297.96 156.26 1298.37 155.454 1298.44 154.716C1298.5 153.708 1298.57 152.602 1298.64 151.394C1299.36 139.548 1300.68 117.95 1300.68 83.9627C1300.68 49.0513 1299.72 24.1069 1298.12 13.2535C1297.98 12.4966 1297.54 11.7385 1296.92 11.0112C1296.29 10.2848 1295.5 9.6197 1294.72 9.05231C1293.94 8.48626 1293.18 8.02616 1292.61 7.70732C1292.32 7.54814 1292.09 7.42476 1291.93 7.34158C1291.84 7.3 1291.78 7.2685 1291.74 7.24763L1291.69 7.22438L1291.68 7.21886L1291.68 7.21766L1291.68 7.21749L1291.68 7.21744L1291.68 7.21744C1291.68 7.21744 1291.68 7.21744 1291.68 7.21697L1291.89 6.26562H1329.05L1329.23 7.22912L1320.26 78.9821ZM1451.09 161.98L1451.29 161.024C1451.29 161.023 1451.29 161.023 1451.29 161.023L1451.29 161.023L1451.29 161.023L1451.29 161.022L1451.27 161.014C1451.26 161.008 1451.24 160.997 1451.21 160.983C1451.15 160.955 1451.06 160.912 1450.94 160.853C1450.71 160.737 1450.38 160.56 1449.98 160.323C1449.17 159.849 1448.08 159.135 1446.97 158.178C1444.74 156.26 1442.44 153.404 1441.98 149.578C1441.02 137.742 1440.06 115.978 1440.06 83.9627C1440.06 53.2173 1441.02 30.1741 1442.3 17.7072L1442.3 17.6977C1442.6 14.0543 1444.88 11.4463 1447.15 9.72638C1448.28 8.86943 1449.39 8.24477 1450.22 7.83447C1450.63 7.62958 1450.98 7.47884 1451.22 7.37988C1451.33 7.33041 1451.43 7.29393 1451.49 7.27012C1451.52 7.25822 1451.54 7.24949 1451.56 7.2439L1451.57 7.23786L1451.58 7.2366L1451.58 7.2365L1451.58 7.23642C1451.58 7.23642 1451.58 7.23643 1451.58 7.23528L1451.41 6.26562H1410.09L1409.85 7.20582C1409.85 7.2063 1409.85 7.2063 1409.85 7.20629L1409.85 7.20633L1409.85 7.20637L1409.85 7.20673L1409.86 7.20884L1409.87 7.21824C1409.89 7.22681 1409.91 7.23996 1409.95 7.2576C1410.01 7.29287 1410.1 7.34609 1410.22 7.41655C1410.46 7.5575 1410.81 7.76724 1411.23 8.04013C1412.06 8.58645 1413.18 9.38303 1414.32 10.3843C1416.62 12.405 1418.9 15.1782 1419.2 18.3445L1419.2 18.3503C1420.16 27.2877 1420.48 45.1973 1420.48 65.384C1420.48 98.0502 1419.52 135.506 1418.56 148.304C1418.25 151.488 1415.96 154.663 1413.65 157.092C1412.51 158.295 1411.38 159.292 1410.54 159.989C1410.12 160.337 1409.77 160.61 1409.53 160.794C1409.47 160.838 1409.42 160.877 1409.38 160.911C1409.33 160.948 1409.29 160.979 1409.25 161.004C1409.24 161.015 1409.22 161.024 1409.21 161.033C1409.2 161.042 1409.19 161.051 1409.18 161.057L1409.16 161.07L1409.16 161.073L1409.16 161.073L1407.89 161.98H1409.45H1451.09ZM1322.14 152.999C1321.19 142.35 1319.95 121.175 1319.94 87.953C1329.14 87.3234 1340.42 86.7048 1348.91 86.7048H1348.92H1348.93H1348.94H1348.95H1348.96H1348.97H1348.99H1349H1349.01H1349.02H1349.03H1349.04H1349.05H1349.07H1349.08H1349.09H1349.1H1349.11H1349.12H1349.13H1349.14H1349.16H1349.17H1349.18H1349.19H1349.2H1349.21H1349.22H1349.23H1349.25H1349.26H1349.27H1349.28H1349.29H1349.3H1349.31H1349.32H1349.34H1349.35H1349.36H1349.37H1349.38H1349.39H1349.4H1349.41H1349.42H1349.44H1349.45H1349.46H1349.47H1349.48H1349.49H1349.5H1349.51H1349.53H1349.54H1349.55H1349.56H1349.57H1349.58H1349.59H1349.6H1349.62H1349.63H1349.64H1349.65H1349.66H1349.67H1349.68H1349.69H1349.71H1349.72H1349.73H1349.74H1349.75H1349.76H1349.77H1349.78H1349.79H1349.81H1349.82H1349.83H1349.84H1349.85H1349.86H1349.87H1349.88H1349.9H1349.91H1349.92H1349.93H1349.94H1349.95H1349.96H1349.97H1349.98H1350H1350.01H1350.02H1350.03H1350.04H1350.05H1350.06H1350.07H1350.08H1350.1H1350.11H1350.12H1350.13H1350.14H1350.15H1350.16H1350.17H1350.18H1350.2H1350.21H1350.22H1350.23H1350.24H1350.25H1350.26H1350.27H1350.28H1350.29H1350.31H1350.32H1350.33H1350.34H1350.35H1350.36H1350.37H1350.38H1350.39H1350.4H1350.42H1350.43H1350.44H1350.45H1350.46H1350.47H1350.48H1350.49H1350.5H1350.51H1350.53H1350.54H1350.55H1350.56H1350.57H1350.58H1350.59H1350.6H1350.61H1350.62H1350.64H1350.65H1350.66H1350.67H1350.68H1350.69H1350.7H1350.71H1350.72H1350.73H1350.74H1350.76H1350.77H1350.78H1350.79H1350.8H1350.81H1350.82H1350.83H1350.84H1350.85H1350.86H1350.87H1350.89H1350.9H1350.91H1350.92H1350.93H1350.94H1350.95H1350.96H1350.97H1350.98H1350.99H1351H1351.01H1351.03H1351.04H1351.05H1351.06H1351.07H1351.08H1351.09H1351.1H1351.11H1351.12H1351.13H1351.14H1351.15H1351.16H1351.17H1351.19H1351.2H1351.21H1351.22H1351.23H1351.24H1351.25H1351.26H1351.27H1351.28H1351.29H1351.3H1351.31H1351.32H1351.33H1351.34H1351.36H1351.37H1351.38H1351.39H1351.4H1351.41H1351.42H1351.43H1351.44H1351.45H1351.46H1351.47H1351.48H1351.49H1351.5H1351.51H1351.52H1351.53H1351.54H1351.55H1351.57H1351.58H1351.59H1351.6H1351.61H1351.62H1351.63H1351.64H1351.65H1351.66H1351.67H1351.68H1351.69H1351.7H1351.71H1351.72H1351.73H1351.74H1351.75H1351.76H1351.77H1351.78H1351.79H1351.8H1351.81H1351.82H1351.83H1351.84H1351.85H1351.86H1351.87H1351.88H1351.89H1351.91H1351.92H1351.93H1351.94H1351.95H1351.96H1351.97H1351.98H1351.99H1352H1352.01H1352.02H1352.03H1352.04H1352.05H1352.06H1352.07H1352.08H1352.09H1352.1H1352.11H1352.12H1352.13H1352.14H1352.15H1352.16H1352.17H1352.18H1352.19H1352.2H1352.21H1352.22H1352.23H1352.24H1352.25H1352.26H1352.27H1352.28H1352.29H1352.3H1352.31H1352.32H1352.33H1352.34H1352.35H1352.35H1352.36H1352.37H1352.38H1352.39H1352.4H1352.41H1352.42H1352.43H1352.44H1352.45H1352.46H1352.47H1352.48H1352.49H1352.5H1352.51H1352.52H1352.53H1352.54H1352.55H1352.56H1352.57H1352.58H1352.59H1352.6H1352.61H1352.62H1352.63H1352.63H1352.64H1352.65H1352.66H1352.67H1352.68H1352.69H1352.7H1352.71H1352.72H1352.73H1352.74H1352.75H1352.76H1352.77H1352.78H1352.79H1352.8H1352.8H1352.81H1352.82H1352.83H1352.84H1352.85H1352.86H1352.87H1352.88H1352.89H1352.9H1352.91H1352.92H1352.93H1352.93H1352.94H1352.95H1352.96H1352.97H1352.98H1352.99H1353H1353.01H1353.02H1353.03H1353.03H1353.04H1353.05H1353.06H1353.07H1353.08H1353.09H1353.1H1353.11H1353.12H1353.12H1353.13H1353.14H1353.15H1353.16H1353.17H1353.18H1353.19H1353.2H1353.2H1353.21H1353.22H1353.23H1353.24H1353.25H1353.26H1353.27H1353.28H1353.28H1353.29H1353.3H1353.31H1353.32H1353.33H1353.34H1353.34H1353.35H1353.36H1353.37H1353.38H1353.39H1353.4H1353.4H1353.41H1353.42H1353.43H1353.44H1353.45H1353.46H1353.46H1353.47H1353.48H1353.49H1353.5H1353.51H1353.52H1353.52H1353.53H1353.54H1353.55H1353.56H1353.57H1353.57H1353.58H1353.59H1353.6H1353.61H1353.62H1353.62H1353.63H1353.64H1353.65H1353.66H1353.66H1353.67H1353.68H1353.69H1353.7H1353.7H1353.71H1353.72H1353.73H1353.74H1353.75H1353.75H1353.76H1353.77H1353.78H1353.79H1353.79H1353.8H1353.81H1353.82H1353.82H1353.83H1353.84H1353.85H1353.86H1353.86H1353.87H1353.88H1353.89H1353.9H1353.9H1353.91H1353.92H1353.93H1353.93H1353.94H1353.95H1353.96H1353.96H1353.97H1353.98H1353.99H1354H1354H1354.01H1354.02H1354.02C1371.34 87.3396 1384.92 103.1 1384.92 120.479C1384.92 137.871 1370.69 154.574 1353.39 154.574C1346.63 154.574 1337.51 153.984 1328.78 153.421C1326.52 153.275 1324.29 153.131 1322.14 152.999Z" stroke="#121212"/>
<path d="M1533.39 86.6054C1548.53 115.647 1559.27 137.441 1564.98 149.813C1565.3 150.78 1565.58 151.654 1565.58 152.512C1565.58 155.029 1564.02 157.228 1562.38 158.752C1561.57 159.507 1560.76 160.074 1560.16 160.409C1559.96 160.525 1559.79 160.607 1559.66 160.66H1559.36H1558.86V161.16C1558.86 161.3 1558.91 161.46 1559.04 161.58C1559.16 161.686 1559.3 161.716 1559.38 161.725C1559.53 161.743 1559.68 161.707 1559.79 161.675C1559.8 161.67 1559.82 161.665 1559.84 161.66H1601L1601.17 160.693C1601.18 160.692 1601.18 160.692 1601.18 160.692L1533.39 86.6054ZM1533.39 86.6054L1496.69 150.518L1496.68 150.526C1495.76 152.06 1495.47 153.253 1495.47 154.433C1495.47 156.618 1496.78 158.251 1498.17 159.369C1498.86 159.925 1499.55 160.338 1500.07 160.613C1500.33 160.75 1500.55 160.852 1500.7 160.918C1500.77 160.952 1500.83 160.976 1500.87 160.992C1500.89 161 1500.9 161.006 1500.91 161.01L1500.92 161.014L1500.92 161.014L1500.92 161.014C1500.92 161.014 1500.92 161.014 1500.92 161.016L1500.74 161.98H1468.71L1468.59 160.996C1468.59 160.993 1468.59 160.993 1468.59 160.993L1468.59 160.993L1468.59 160.993L1468.6 160.993L1468.61 160.988C1468.63 160.984 1468.66 160.978 1468.69 160.969C1468.76 160.951 1468.86 160.924 1468.99 160.884C1469.26 160.806 1469.65 160.682 1470.14 160.501C1471.12 160.138 1472.51 159.549 1474.11 158.643C1477.29 156.832 1481.31 153.76 1484.62 148.715C1488.78 142.315 1499.43 124.947 1509.2 108.928C1512.81 103.018 1516.29 97.2903 1519.29 92.3666C1523.99 84.6403 1527.49 78.8944 1528.35 77.5354C1511.45 46.3071 1499.02 25.5823 1492.63 15.0423C1490.77 12.2561 1487.88 10.1434 1485.43 8.71967C1484.21 8.00976 1483.11 7.47719 1482.31 7.12248C1481.91 6.94521 1481.59 6.81262 1481.37 6.72473C1481.26 6.68079 1481.17 6.64804 1481.11 6.62649C1481.09 6.61571 1481.06 6.60774 1481.05 6.60256L1481.03 6.5969L1481.03 6.59564L1481.03 6.59544L1481.03 6.59541L1481.03 6.59539C1481.03 6.59539 1481.03 6.5954 1481.03 6.59475L1481.2 5.625H1521.56L1521.7 6.60274C1521.7 6.6046 1521.7 6.60459 1521.7 6.60458L1521.7 6.60468L1521.7 6.60488L1521.69 6.60742C1521.68 6.60991 1521.67 6.61398 1521.65 6.61969C1521.62 6.63111 1521.56 6.64909 1521.5 6.67407C1521.36 6.72406 1521.16 6.8019 1520.91 6.91111C1520.43 7.13012 1519.78 7.47213 1519.14 7.96358C1517.86 8.94447 1516.61 10.4939 1516.61 12.8516C1516.61 14.0466 1516.91 15.2521 1517.52 16.4721L1517.53 16.4823L1517.53 16.4927C1521.32 25.0138 1528.23 39.1515 1538.56 59.529C1550.47 38.8295 1558 24.6912 1561.79 17.1126C1562.4 15.8925 1562.7 14.6875 1562.7 13.4925C1562.7 11.0159 1561.11 9.30612 1559.4 8.18419C1558.56 7.62716 1557.71 7.23121 1557.07 6.9744C1556.75 6.8463 1556.49 6.7536 1556.3 6.69333C1556.21 6.66321 1556.14 6.64123 1556.09 6.62702C1556.07 6.61992 1556.05 6.61476 1556.04 6.6115L1556.03 6.60803L1556.02 6.60738L1556.02 6.60736L1556.02 6.60731C1556.02 6.60731 1556.02 6.60732 1556.02 6.60577L1556.15 5.625H1587.55L1587.69 6.60414C1587.69 6.60513 1587.69 6.60513 1587.69 6.60512L1587.69 6.60514L1587.69 6.60517L1587.68 6.60537L1587.68 6.60663L1587.66 6.61234C1587.64 6.61757 1587.62 6.62567 1587.58 6.6367C1587.51 6.65877 1587.4 6.69257 1587.27 6.73865C1586.99 6.8308 1586.59 6.972 1586.09 7.16654C1585.09 7.55579 1583.7 8.15777 1582.14 9.00664C1579.02 10.7051 1575.26 13.3758 1572.6 17.2811L1543.27 68.5958C1545.79 73.3194 1548.32 78.0543 1551.15 83.4082C1567.48 114.149 1581.25 137.523 1588.93 150.007L1588.94 150.012C1591.29 153.938 1594.36 156.612 1596.84 158.305C1598.08 159.151 1599.17 159.75 1599.95 160.137C1600.33 160.33 1600.65 160.47 1600.86 160.561C1600.96 160.607 1601.04 160.64 1601.1 160.662C1601.13 160.673 1601.15 160.68 1601.16 160.685L1601.17 160.691L1601.18 160.692L1533.39 86.6054Z" stroke="#121212"/>
<path d="M513 103.031C511.043 93.4599 503.541 85.9568 493.97 84C503.547 82.0432 511.074 74.5377 513.217 64.9698C514.988 74.5432 522.467 82.0434 532.031 83.9998C522.46 85.9562 514.957 93.4595 513 103.031Z" fill="#C4A27A" stroke="#121212"/>
</svg>
