<svg width="1602" height="167" fill="none" xmlns="http://www.w3.org/2000/svg"><path d="m1 6.266-.232.943.004.002.013.007.054.029c.048.026.12.064.21.114a33.95 33.95 0 0 1 3.106 1.936c.869.612 1.743 1.303 2.434 2.008.7.715 1.158 1.39 1.289 1.97.95 4.92 1.51 13.286 1.831 25.096.32 11.804.4 27.013.4 45.592 0 37.44-1.279 59.842-2.238 70.402-.142.753-.6 1.547-1.259 2.335-.66.79-1.492 1.537-2.317 2.185a26.949 26.949 0 0 1-2.95 2.006l-.2.114-.05.029-.012.006-.003.002v.001l.24.937h69.19c23.013 0 41.501-18.156 41.501-41.18 0-20.918-15.796-38.424-36.187-41.022 10.996-7.251 18.249-19.524 18.249-33.613 0-22.058-18.162-40.22-40.22-40.22h-.004l-38.435.32H1Zm62.433 80.758.011.001c17.315.63 30.906 16.389 30.59 34.086v.009c0 17.392-14.24 34.095-31.533 34.095-5.7 0-12.922-.558-20.226-1.122-3.607-.278-7.233-.558-10.705-.773-.95-10.662-2.19-32.457-2.202-66.296 2.03-.01 4.182-.08 6.391-.15l.252-.009c2.483-.08 5.038-.16 7.591-.16 7.373 0 14.404 0 19.831.32ZM31.748 16.15l.153-2.479c1.936-.01 3.867-.085 5.755-.16l.118-.004c2.003-.079 3.955-.155 5.828-.155h4.155c16.347.634 29.3 15.75 29.3 32.493 0 16.746-13.914 32.813-30.572 32.813H29.373c.303-29.064 1.659-50.945 2.375-62.508ZM155.579 78.982c.306-29.291 1.68-51.555 2.392-63.09l.164-2.684c.07-.824.469-1.609 1.073-2.34.605-.732 1.395-1.382 2.194-1.928a18.515 18.515 0 0 1 3.082-1.684l.05-.02.012-.005.003-.001-8.97 71.752Zm0 0 40.816.316h.002a41.376 41.376 0 0 1 41.499 41.502 41.375 41.375 0 0 1-41.501 41.5l-53.491.321h-17.581l1.635-.934h.001l.003-.002.013-.008.053-.031.208-.125a28.215 28.215 0 0 0 3.058-2.15c.845-.689 1.686-1.473 2.33-2.29.649-.821 1.061-1.627 1.13-2.365.06-1.007.127-2.112.201-3.318.722-11.846 2.04-33.445 2.04-67.435 0-34.912-.961-59.856-2.556-70.71-.139-.756-.579-1.514-1.206-2.242-.627-.726-1.415-1.391-2.197-1.959a21.907 21.907 0 0 0-2.982-1.804l-.048-.024-.011-.005-.003-.001v-.001l.214-.951h37.157l.186.963-8.97 71.753ZM285.883 7.266c-2.449 1.166-7.95 4.43-8.447 10.39-1.281 12.493-2.242 35.556-2.242 66.307 0 32.032.961 53.814 1.922 65.665l8.767-142.362Zm0 0h1.163v-.5l-.169-.471h-.003l-.006.003-.022.008a10.861 10.861 0 0 0-.379.15l-.584.81Zm.842 154.714.197-.958.001-.001h-.001v-.001l-.004-.001-.016-.007a17.196 17.196 0 0 1-1.34-.692 20.745 20.745 0 0 1-3.079-2.145c-2.272-1.919-4.564-4.77-4.869-8.586v-.001c-.959-11.834-1.92-33.601-1.92-65.625 0-30.746.961-53.789 2.239-66.256l.001-.01c.304-3.643 2.582-6.25 4.849-7.97a19.257 19.257 0 0 1 4.068-2.347 11.052 11.052 0 0 1 .343-.136l.016-.006.003-.001h.001v-.002l-.168-.97h-41.321l-.236.94-.001.001h.001l.004.003.017.01.071.039a24.334 24.334 0 0 1 1.282.783 27.713 27.713 0 0 1 3.096 2.343c2.298 2.021 4.576 4.794 4.877 7.96l.001.006c.958 8.938 1.278 26.847 1.278 47.034 0 32.666-.961 70.122-1.92 82.92-.305 3.184-2.6 6.359-4.909 8.788a36.594 36.594 0 0 1-4.119 3.702c-.121.093-.216.163-.279.21l-.072.053-.018.013-.004.003h-.001l-1.27.907h43.202Zm-129.27-8.981c-.95-10.649-2.19-31.824-2.201-65.046 9.204-.63 20.482-1.248 28.969-1.248H189.339c17.312.635 30.9 16.395 30.9 33.774 0 17.392-14.238 34.095-31.532 34.095-6.764 0-15.886-.59-24.612-1.153-2.256-.146-4.485-.29-6.64-.422ZM404.603 4.844l-.056-.497h-.003l-.007.001-.03.003-.121.014c-.108.011-.268.029-.48.05-.424.045-1.053.109-1.872.186-1.639.155-4.037.365-7.077.585-6.077.44-14.715.92-24.952 1.08h-65.342l-.165.971v.001l.003.001.012.004.05.018.196.075a19.94 19.94 0 0 1 2.932 1.422c.82.487 1.641 1.072 2.291 1.736.643.658 1.089 1.362 1.231 2.098.079 1.345.178 2.913.29 4.693.796 12.668 2.27 36.11 2.27 66.678 0 36.838-1.282 61.47-2.558 70.4v.004c-.293 2.195-1.834 3.769-3.43 4.859a16.8 16.8 0 0 1-2.192 1.243c-.213.102-.4.188-.563.264a12.122 12.122 0 0 0-.475.226h-.001c-.052.028-.163.086-.244.168l-.854.853H373.853a41.374 41.374 0 0 0 41.5-41.5c0-22.7-18.483-41.18-41.499-41.181h-.001l-40.817-.317c.304-29.386 1.662-51.309 2.377-62.866l.151-2.444h33.163c11.398 0 19.118 8.9 24.025 17.996 2.444 4.53 4.165 9.065 5.275 12.47a78.344 78.344 0 0 1 1.219 4.11c.131.495.227.884.291 1.148l.071.3.017.076.004.018.001.005.297-.065-.297.066.989-.107h-.5.5v-.196l.002-.565a397.746 397.746 0 0 1 .158-9.115c.16-5.564.48-12.35 1.117-17.288v-.002c.478-3.826 1.277-8.217 1.957-11.656a264.913 264.913 0 0 1 1.14-5.474l.073-.327.019-.084.004-.021.002-.005v-.002l-.488-.11Zm0 0-.056-.497.699-.08-.155.687-.488-.11ZM335.233 153c-.951-10.649-2.19-31.819-2.202-64.726 9.205-.63 20.483-1.249 28.969-1.249H367.116c17.312.635 30.581 16.075 30.581 33.455 0 17.392-14.239 34.094-31.532 34.094-6.66 0-15.414-.571-23.93-1.127-2.369-.155-4.72-.308-7.002-.447ZM453.912 96.032l-.003-.013c-1.59-6.679-2.229-14.006-2.229-21.025 0-6.37.637-12.104 1.593-17.524 4.13-20.318 21.607-40.331 44.781-45.41l.007-.002.007-.002c3.791-.948 7.911-1.267 11.731-1.267 19.048 0 37.166 10.165 47.972 24.15l.004.005c7.303 9.208 12.405 22.26 15.279 35.35 1.273 6.048 1.91 13.06 1.91 19.114 0 6.055-.637 12.116-1.276 16.587-3.174 21.901-20.642 42.231-44.779 47.63l-.012.003c-3.791.948-7.911 1.266-11.731 1.266-20.335 0-39.712-10.808-49.548-26.034-4.785-7.657-11.16-20.733-13.706-32.828Zm41.366-93.599C462.063 9.53 430.5 44 430.5 84.603c0 5.141.321 10.632 1.935 16.454 8.704 42.838 41.27 65.088 78.005 65.088 6.76 0 13.203-.645 20.288-2.255 38.671-8.38 65.096-42.54 65.096-80.568 0-5.8-.644-11.923-1.933-17.725C585.511 26.923 551.028.5 513.002.5a80.75 80.75 0 0 0-17.724 1.933ZM610.249 5.945l-.173.969h.001l.002.002.012.004.048.018a17.632 17.632 0 0 1 .867.356c.565.246 1.319.599 2.08 1.028.765.431 1.518.93 2.093 1.463.587.544.922 1.063.98 1.527l.001.007c1.597 11.495 2.878 35.49 2.878 72.644 0 35.358-1.426 57.878-2.124 68.912l-.115 1.817c-.143.747-.597 1.518-1.252 2.271-.658.759-1.487 1.465-2.311 2.073a25.194 25.194 0 0 1-3.144 1.963l-.051.026-.012.007-.003.001h-.001l.001.001.223.946h37.157l.165-.971v-.001l-.002-.001-.012-.004-.05-.018a16.146 16.146 0 0 1-.903-.372 17.105 17.105 0 0 1-2.173-1.157c-.797-.505-1.584-1.115-2.186-1.815-.602-.7-.999-1.465-1.067-2.288l-.002-.018-.002-.017c-1.275-8.287-2.557-29.074-2.557-61.745v-7.515l24.485-.314h.003c22.057-.001 39.896-17.842 39.896-39.9 0-22.057-18.161-40.219-40.219-40.219h-.005l-38.114.32H610.249Zm28.694 72.713c.305-28.977 1.677-51.206 2.389-62.744l.141-2.28c3.25-.27 7.009-.282 10.559-.282v.32h5.295c16.347.635 29.299 15.75 29.299 32.493 0 16.423-13.911 32.493-30.571 32.493h-17.112ZM910.926 161.031l-.217.949h-41.321l-.135-.979v-.002l.003-.001.014-.004.06-.018a13.301 13.301 0 0 0 1.132-.426c.747-.32 1.756-.824 2.802-1.561 2.089-1.47 4.3-3.842 4.917-7.501.959-11.522 2.238-33.604 2.238-67.525 0-30.724-1.88-61.429-2.846-68.883-.231-.113-.602-.238-1.133-.361-.672-.157-1.541-.298-2.578-.425-2.074-.253-4.782-.442-7.86-.582-6.155-.28-13.753-.36-20.638-.36-7.37 0-15.129 0-21.325.2-3.099.1-5.797.25-7.856.472-1.029.112-1.889.241-2.553.389-.532.118-.899.24-1.126.352-1.887 10.996-2.837 38.644-2.837 68.878 0 33.296 1.281 55.062 2.241 66.58.301 2.998 2.49 5.529 4.704 7.348a24.947 24.947 0 0 0 3.949 2.636c.116.061.206.108.266.138l.069.034.016.008.004.002 90.01.642Zm0 0v-.001.001ZM779.252 6.609ZM1037.88 4.203l-.09-.492-.01.001-.03.006-.13.02c-.11.02-.27.047-.49.081-.44.07-1.1.17-1.94.29-1.69.239-4.16.558-7.25.878-6.2.64-14.91 1.279-24.98 1.279h-74.313l-.205.955.001.001.002.001.012.006.051.023a19.957 19.957 0 0 1 .909.46c.593.319 1.386.779 2.185 1.344.802.567 1.595 1.23 2.204 1.951.611.725 1.003 1.47 1.07 2.21.96 11.198 2.561 35.847 2.561 70.426 0 37.99-1.54 60.276-2.203 69.88l-.036.527c-.144.751-.601 1.544-1.259 2.33-.66.79-1.492 1.536-2.317 2.185a27.145 27.145 0 0 1-2.951 2.005l-.198.115-.051.028-.012.007-.003.002h-.001.001l.24.938h74.633c10.07 0 18.78.639 24.98 1.279 3.09.319 5.56.639 7.25.878.84.12 1.5.22 1.94.29.22.034.38.062.49.08l.13.021.03.006.01.001.75.13-.18-.736-.48.114.48-.114v-.027l-.02-.082c-.02-.072-.04-.179-.07-.317-.07-.278-.16-.684-.28-1.196-.23-1.025-.55-2.474-.91-4.174-.71-3.396-1.59-7.784-2.23-11.772-.48-4.787-.8-11.571-1-17.171-.1-2.8-.17-5.301-.21-7.102-.03-.9-.04-1.625-.05-2.125-.01-.25-.01-.444-.01-.575l-.01-.149v-.05l-.5.009.5-.009-.99-.099.42.092-.42-.092v.024l-.02.075c-.01.067-.04.167-.07.298-.06.261-.16.647-.29 1.138-.26.983-.66 2.389-1.21 4.078-1.11 3.38-2.82 7.886-5.25 12.396-4.86 9.056-12.5 17.957-23.74 18.115h-42.455l-.031-.448c-.674-9.728-2.174-31.401-2.494-66.46h29.275c7.726.318 12.661 2.995 15.665 5.566a18.508 18.508 0 0 1 3.17 3.496c.32.47.55.859.69 1.127.08.134.13.237.16.306.02.035.03.06.04.077l.01.017v.003l.96-.2v-28.51l-.97-.174v-.001.002l-.01.017a.316.316 0 0 0-.03.075c-.03.068-.08.17-.14.303-.13.265-.34.65-.64 1.115-.59.931-1.56 2.184-3.04 3.449-2.954 2.524-7.966 5.127-16.183 5.286h-.001l-29.276.314c.324-31.956 1.567-55.56 2.516-66.582h42.144c11.4 0 19.12 8.747 24.03 17.679 2.44 4.45 4.16 8.904 5.27 12.249.56 1.671.96 3.063 1.22 4.037.13.486.23.868.29 1.127.03.13.06.229.07.295l.02.074v.023l.23-.05-.23.05.99-.108h-.5.5v-.76c.01-.492.01-1.205.02-2.092.02-1.775.06-4.244.14-7.023.16-5.562.48-12.343 1.12-17.28.64-3.99 1.51-8.383 2.23-11.78.36-1.7.68-3.15.91-4.174.12-.512.21-.918.28-1.196.03-.138.05-.245.07-.317l.02-.082V4.317l-.48-.114Zm0 0-.09-.492.75-.13-.18.736-.48-.114ZM1055.49 5.945l-.17.969v.002l.02.004.04.018c.05.016.11.041.19.073.16.065.4.16.68.283.57.246 1.32.599 2.08 1.028.77.431 1.52.93 2.09 1.463.59.544.93 1.063.98 1.527l.01.007c1.59 11.495 2.87 35.49 2.87 72.644 0 35.358-1.42 57.878-2.12 68.912-.04.645-.08 1.25-.12 1.817-.14.747-.59 1.518-1.25 2.271-.66.759-1.49 1.465-2.31 2.073a24.755 24.755 0 0 1-2.95 1.859c-.08.046-.15.081-.19.104l-.05.026-.02.007v.002l.22.946h37.16l.17-.971v-.001l-.01-.001-.01-.004-.05-.018c-.04-.016-.11-.041-.19-.074-.17-.066-.42-.166-.71-.298-.59-.263-1.38-.653-2.17-1.157-.8-.505-1.59-1.115-2.19-1.815-.6-.7-1-1.465-1.07-2.288v-.035c-1.28-8.287-2.56-29.074-2.56-61.745v-7.515l24.49-.314c22.06-.001 39.9-17.842 39.9-39.9 0-22.057-18.17-40.219-40.22-40.219h-.01l-38.11.32h-14.42Zm28.38 72.713c.3-28.977 1.68-51.206 2.39-62.744.05-.814.09-1.575.14-2.28 3.25-.27 7.01-.282 10.56-.282v.32h5.29c16.35.635 29.3 15.75 29.3 32.493 0 16.423-13.91 32.493-30.57 32.493h-17.11ZM1165.36 6.266l-.23.943.01.002.01.007.05.029c.05.026.12.064.21.114.19.1.45.247.76.432.64.37 1.48.894 2.35 1.504.87.612 1.74 1.303 2.43 2.008.7.715 1.16 1.39 1.29 1.97.95 4.92 1.51 13.286 1.83 25.096.32 11.804.4 27.013.4 45.592 0 37.44-1.28 59.842-2.23 70.402-.15.753-.6 1.547-1.26 2.335-.66.79-1.5 1.537-2.32 2.185a26.477 26.477 0 0 1-2.95 2.006c-.09.05-.15.088-.2.114l-.05.029-.01.006-.01.002v.001l.24.937h69.19c23.02 0 41.5-18.156 41.5-41.18 0-20.918-15.79-38.424-36.18-41.022 10.99-7.251 18.25-19.524 18.25-33.613 0-22.058-18.16-40.22-40.22-40.22h-.01l-38.43.32h-14.42Zm62.76 80.758.01.001c17.31.63 30.9 16.389 30.59 34.086v.009c0 17.392-14.24 34.095-31.53 34.095-5.7 0-12.93-.558-20.23-1.122-3.61-.278-7.23-.558-10.71-.773-.95-10.662-2.19-32.457-2.2-66.296 2.03-.01 4.18-.08 6.39-.15l.26-.009c2.48-.08 5.03-.16 7.59-.16 7.37 0 14.4 0 19.83.32Zm-32.01-70.874c.06-.888.11-1.714.16-2.479 1.93-.01 3.86-.085 5.75-.16l.12-.004c2-.079 3.95-.155 5.83-.155h4.15c16.35.634 29.3 15.75 29.3 32.493 0 16.746-13.91 32.813-30.57 32.813h-17.11c.3-29.064 1.66-50.945 2.37-62.508ZM1320.26 78.982c.31-29.291 1.68-51.555 2.4-63.09.06-.972.11-1.867.16-2.684.07-.824.47-1.609 1.07-2.34.61-.732 1.4-1.382 2.2-1.928a18.096 18.096 0 0 1 2.88-1.6c.09-.037.15-.065.2-.084l.05-.02.01-.005V7.23l-8.97 71.752Zm0 0 40.82.316a41.375 41.375 0 0 1 41.5 41.502c0 23.018-18.48 41.5-41.5 41.5l-53.49.321h-17.58l1.63-.934.01-.002.01-.008.05-.031a23.731 23.731 0 0 0 .96-.599c.63-.409 1.46-.99 2.31-1.676.84-.689 1.68-1.473 2.33-2.29.65-.821 1.06-1.627 1.13-2.365.06-1.008.13-2.114.2-3.322.72-11.846 2.04-33.444 2.04-67.431 0-34.912-.96-59.856-2.56-70.71-.14-.756-.58-1.514-1.2-2.242-.63-.726-1.42-1.391-2.2-1.959a21.665 21.665 0 0 0-2.79-1.71c-.09-.042-.15-.073-.19-.094l-.05-.024-.01-.005v-.002l.21-.951h37.16l.18.963-8.97 71.753Zm130.83 82.998.2-.956v-.002l-.02-.008a.692.692 0 0 0-.06-.031c-.06-.028-.15-.071-.27-.13-.23-.116-.56-.293-.96-.53-.81-.474-1.9-1.188-3.01-2.145-2.23-1.918-4.53-4.774-4.99-8.6-.96-11.836-1.92-33.6-1.92-65.615 0-30.746.96-53.789 2.24-66.256v-.01c.3-3.643 2.58-6.25 4.85-7.97a19.292 19.292 0 0 1 3.07-1.893c.41-.204.76-.355 1-.454.11-.05.21-.086.27-.11.03-.012.05-.02.07-.026l.01-.006.01-.001v-.002l-.17-.97h-41.32l-.24.94v.001l.01.003.01.01c.02.008.04.021.08.039l.27.159c.24.14.59.35 1.01.623a28.38 28.38 0 0 1 3.09 2.344c2.3 2.021 4.58 4.794 4.88 7.96v.006c.96 8.938 1.28 26.847 1.28 47.034 0 32.666-.96 70.122-1.92 82.92-.31 3.184-2.6 6.359-4.91 8.788a35.997 35.997 0 0 1-4.27 3.819c-.05.037-.09.068-.13.093-.01.011-.03.02-.04.029a.21.21 0 0 1-.03.024l-.02.013v.003l-1.27.907h43.2Zm-128.95-8.981c-.95-10.649-2.19-31.824-2.2-65.046 9.2-.63 20.48-1.248 28.97-1.248H1354.02c17.32.635 30.9 16.395 30.9 33.774 0 17.392-14.23 34.095-31.53 34.095-6.76 0-15.88-.59-24.61-1.153-2.26-.146-4.49-.29-6.64-.422ZM1533.39 86.605c15.14 29.042 25.88 50.836 31.59 63.208.32.967.6 1.841.6 2.699 0 2.517-1.56 4.716-3.2 6.24-.81.755-1.62 1.322-2.22 1.657-.2.116-.37.198-.5.251h-.8v.5c0 .14.05.3.18.42a.62.62 0 0 0 .34.145c.15.018.3-.018.41-.05.01-.005.03-.01.05-.015H1601l.17-.967.01-.001-67.79-74.087Zm0 0-36.7 63.913-.01.008c-.92 1.534-1.21 2.727-1.21 3.907 0 2.185 1.31 3.818 2.7 4.936.69.556 1.38.969 1.9 1.244a10.03 10.03 0 0 0 .8.379l.04.018.01.004v.002l-.18.964h-32.03l-.12-.984v-.003h.01l.01-.005c.02-.004.05-.01.08-.019a16.98 16.98 0 0 0 1.45-.468c.98-.363 2.37-.952 3.97-1.858 3.18-1.811 7.2-4.883 10.51-9.928 4.16-6.4 14.81-23.768 24.58-39.787 3.61-5.91 7.09-11.638 10.09-16.561 4.7-7.727 8.2-13.473 9.06-14.832-16.9-31.228-29.33-51.953-35.72-62.493-1.86-2.786-4.75-4.899-7.2-6.322a32.408 32.408 0 0 0-3.12-1.598c-.4-.177-.72-.31-.94-.397a7.7 7.7 0 0 0-.26-.099c-.02-.01-.05-.018-.06-.023l-.02-.006v-.002l.17-.97h40.36l.14.978v.002l-.01.002-.04.013c-.03.011-.09.03-.15.054-.14.05-.34.128-.59.237a9.21 9.21 0 0 0-1.77 1.053c-1.28.98-2.53 2.53-2.53 4.888 0 1.195.3 2.4.91 3.62l.01.01v.01c3.79 8.522 10.7 22.66 21.03 43.037 11.91-20.7 19.44-34.838 23.23-42.416.61-1.22.91-2.425.91-3.62 0-2.477-1.59-4.187-3.3-5.309-.84-.557-1.69-.953-2.33-1.21a11.497 11.497 0 0 0-.98-.347l-.05-.015-.01-.004h-.01v-.002l.13-.981h31.4l.14.98h-.01v.002l-.02.005c-.02.006-.04.014-.08.025-.07.022-.18.056-.31.102-.28.092-.68.233-1.18.428-1 .389-2.39.99-3.95 1.84-3.12 1.698-6.88 4.369-9.54 8.274l-29.33 51.315c2.52 4.723 5.05 9.458 7.88 14.812 16.33 30.741 30.1 54.115 37.78 66.599l.01.005c2.35 3.926 5.42 6.6 7.9 8.293 1.24.846 2.33 1.445 3.11 1.832a15.913 15.913 0 0 0 1.15.525c.03.011.05.018.06.023l.01.006.01.001-67.79-74.087Z" stroke="#121212"/><path d="M513 103.031A24.44 24.44 0 0 0 493.97 84c9.577-1.957 17.104-9.462 19.247-19.03 1.771 9.573 9.25 17.073 18.814 19.03A24.441 24.441 0 0 0 513 103.03Z" fill="#C4A27A" stroke="#121212"/></svg>