<svg width="225" height="122" viewBox="0 0 225 122" fill="none" xmlns="http://www.w3.org/2000/svg">
<path d="M67.2808 21.3056L69.7472 19.4336V67.8836H67.2808V21.3056Z" fill="url(#paint0_linear_371_2274)"/>
<path d="M75.6217 15.645V67.8837H73.1553V61.1533H74.3661V28.571L73.1553 29.507V17.5171L75.6217 15.645Z" fill="url(#paint1_linear_371_2274)"/>
<path d="M81.4967 11.8564V67.8838H79.0303V61.1533H80.2859V24.7824L79.0303 25.7184V13.773L81.4967 11.8564Z" fill="url(#paint2_linear_371_2274)"/>
<path d="M87.4162 8.06738V67.8834H84.9497V61.1529H86.1605V20.9933L84.9497 21.9294V9.93942L87.4162 8.06738Z" fill="url(#paint3_linear_371_2274)"/>
<path d="M93.2907 4.27881V67.8834H90.8242V61.153H92.0798V17.2048L90.8242 18.1408V6.15085L93.2907 4.27881Z" fill="url(#paint4_linear_371_2274)"/>
<path d="M99.2101 0.490234V67.8835H96.7437V61.1531H97.9545V13.4162L96.7437 14.3522V2.36227L99.2101 0.490234Z" fill="url(#paint5_linear_371_2274)"/>
<path d="M105.264 1.15888V67.8836H102.439V61.1531H103.829V12.5694L102.439 11.9899V0L105.264 1.15888Z" fill="url(#paint6_linear_371_2274)"/>
<path d="M111.184 3.52131V67.8837H108.358V61.1532H109.749V14.8872L108.358 14.3078V2.31787L111.184 3.52131Z" fill="url(#paint7_linear_371_2274)"/>
<path d="M117.059 5.83906V67.8836H114.233V61.1532H115.624V17.2496L114.233 16.6701V4.68018L117.059 5.83906Z" fill="url(#paint8_linear_371_2274)"/>
<path d="M122.933 8.20135V67.8836H120.153V61.1532H121.543V19.6118L120.153 19.0324V7.04248L122.933 8.20135Z" fill="url(#paint9_linear_371_2274)"/>
<path d="M128.853 10.5637V67.8836H126.027V61.1532H127.418V21.9296L126.027 21.3501V9.40479L128.853 10.5637Z" fill="url(#paint10_linear_371_2274)"/>
<path d="M134.728 12.8815V67.8837H131.902V61.1533H133.337V24.292L131.902 23.7126V11.7227L134.728 12.8815Z" fill="url(#paint11_linear_371_2274)"/>
<path d="M140.647 15.2438V67.8837H137.822V61.1533H139.212V26.6543L137.822 26.0749V14.085L140.647 15.2438Z" fill="url(#paint12_linear_371_2274)"/>
<path d="M146.521 17.6061V67.8837H143.696V61.1532H145.131V28.9721L143.696 28.3926V16.4473L146.521 17.6061Z" fill="url(#paint13_linear_371_2274)"/>
<path d="M152.441 19.924V67.8838H149.616V61.1533H151.006V31.3345L149.616 30.7551V18.7651L152.441 19.924Z" fill="url(#paint14_linear_371_2274)"/>
<path d="M155.491 21.1274L158.316 22.2863V67.8838H155.491V21.1274Z" fill="url(#paint15_linear_371_2274)"/>
<path d="M0.910156 84.9992H2.92817L8.30956 84.9546C11.359 84.9546 13.8703 87.4506 13.8703 90.4815C13.8703 92.4873 12.794 94.2256 11.1796 95.2062C14.0945 95.4736 16.3816 97.9251 16.3816 100.867C16.3816 104.031 13.8255 106.528 10.6415 106.528H0.95499C0.95499 106.528 1.85189 106.037 1.94158 105.547C2.07612 104.076 2.2555 100.956 2.2555 95.7411C2.2555 90.5707 2.21065 87.2723 1.94158 85.8906C1.85189 85.4894 0.910156 84.9992 0.910156 84.9992ZM6.87451 85.8906C6.33638 85.8906 5.7534 85.9352 5.17042 85.9352C5.08073 87.406 4.85649 90.6598 4.81165 95.1171H7.27812C9.65489 95.1171 11.6281 92.8439 11.6281 90.4815C11.6281 88.1192 9.78942 85.9797 7.45749 85.8906H6.87451ZM9.69973 96.0977C8.93737 96.0531 7.95079 96.0531 6.91936 96.0531C6.20184 96.0531 5.48432 96.0977 4.8565 96.0977C4.8565 100.911 5.03588 103.987 5.17042 105.458C6.6503 105.547 8.35439 105.725 9.56521 105.725C12.0317 105.725 14.0497 103.363 14.0497 100.911C14.0497 98.46 12.1214 96.2314 9.69973 96.0977Z" fill="#F2F2F2"/>
<path d="M19.8796 95.7855C19.8796 90.9271 19.7451 87.4505 19.5208 85.935C19.4312 85.4447 18.5791 85.0436 18.5791 85.0436H23.7811C23.7811 85.0436 22.8842 85.4002 22.8394 85.935C22.7497 87.4059 22.5254 90.7043 22.4806 95.1615L28.2656 95.2061C31.4496 95.2061 34.0057 97.7467 34.0057 100.911C34.0057 104.076 31.4496 106.617 28.2656 106.617L20.7765 106.661H18.5791C18.5791 106.661 19.5208 106.126 19.5657 105.636C19.6554 104.121 19.8796 100.956 19.8796 95.7855ZM26.6063 96.0529C25.3955 96.0529 23.7811 96.1421 22.4806 96.2312C22.4806 100.956 22.66 103.942 22.7945 105.413C24.2744 105.502 26.0233 105.636 27.2342 105.636C29.7006 105.636 31.7186 103.274 31.7186 100.822C31.7186 98.3707 29.7903 96.1421 27.3238 96.0529C27.0996 96.0975 26.8754 96.0529 26.6063 96.0529ZM40.9118 106.527H35.082C35.082 106.527 36.3377 105.636 36.4273 104.7C36.5619 102.917 36.6964 97.7021 36.6964 93.1557C36.6964 90.3477 36.6516 87.8516 36.517 86.6036C36.4273 85.6676 35.1717 84.999 35.1717 84.999H40.9567C40.9567 84.999 39.701 85.4448 39.6113 86.5145C39.432 88.2528 39.2974 91.462 39.2974 95.7409C39.2974 100.198 39.4319 103.229 39.5665 104.878C39.6562 105.993 40.9118 106.527 40.9118 106.527Z" fill="#F2F2F2"/>
<path d="M43.4229 84.9989H52.5712C55.4413 84.9543 57.4144 84.7314 57.4144 84.7314C57.4144 84.7314 57.1005 86.1132 56.966 87.1829C56.7866 88.5647 56.7866 90.9716 56.7866 90.9716C56.7866 90.9716 55.6655 85.8903 52.3918 85.8903H47.6831C47.5934 87.3612 47.3692 90.615 47.3244 95.1168L53.1093 95.1613C56.2933 95.1613 58.8495 97.702 58.8495 100.822C58.8495 103.987 56.2933 106.527 53.1093 106.527H43.4229C43.4677 106.483 44.3198 106.215 44.4094 105.547C44.5888 104.299 44.7682 100.867 44.7682 95.7408C44.7682 90.8824 44.4991 87.3166 44.4094 85.8012C44.3198 85.3109 43.4229 84.9989 43.4229 84.9989ZM51.4501 96.0974C50.2393 96.0974 48.6249 96.1865 47.3244 96.2756C47.3244 100.956 47.5037 103.942 47.6383 105.413C49.1181 105.502 50.8223 105.636 52.0331 105.636C54.4995 105.636 56.5175 103.273 56.5175 100.822C56.5175 98.3705 54.6341 96.1865 52.1676 96.0974C51.9882 96.1419 51.7191 96.0974 51.4501 96.0974Z" fill="#F2F2F2"/>
<path d="M83.7832 93.2004C82.6173 87.8517 77.8188 84.1968 72.5272 84.1968C71.6751 84.1968 70.8679 84.2859 70.0607 84.4642C65.4417 85.4448 61.0469 90.214 61.0469 95.8301C61.0469 96.5433 61.0917 97.301 61.3159 98.1033C62.5268 104.031 67.0561 107.107 72.1684 107.107C73.1101 107.107 74.007 107.018 74.9936 106.795C80.375 105.636 84.0523 100.911 84.0523 95.6518C84.0523 94.8495 83.9626 94.0027 83.7832 93.2004ZM81.0925 98.8165C80.6441 101.892 78.1776 104.745 74.7694 105.502C74.2313 105.636 73.6483 105.681 73.1101 105.681C70.2401 105.681 67.5045 104.165 66.1144 102.026C65.4417 100.956 64.5448 99.1285 64.186 97.4347C63.9618 96.4987 63.8721 95.4735 63.8721 94.493C63.8721 93.6461 63.9618 92.7992 64.0963 92.0415C64.6793 89.1889 67.1458 86.3808 70.4195 85.6677C70.9576 85.5339 71.5406 85.4894 72.0787 85.4894C74.7694 85.4894 77.3256 86.9157 78.8503 88.8769C79.8817 90.1695 80.5992 91.9969 81.0028 93.8244C81.1822 94.6712 81.2719 95.6073 81.2719 96.4987C81.2719 97.3456 81.1822 98.1925 81.0925 98.8165Z" fill="#F2F2F2"/>
<path d="M90.1066 96.0085V97.1228C90.1066 101.669 90.286 104.566 90.4653 105.725C90.5102 106.26 91.4071 106.572 91.4071 106.572H86.2051C86.2051 106.572 87.102 106.126 87.1917 105.636C87.2814 104.21 87.5056 101.001 87.5056 95.7856C87.5056 90.6153 87.3262 87.2723 87.102 85.6677C87.0571 85.3112 86.2051 84.9992 86.2051 84.9992H88.2231L93.5596 84.9546C96.6091 84.9546 99.1204 87.4506 99.1204 90.4815C99.1204 93.5124 96.6539 95.9639 93.6045 95.9639L90.1066 96.0085ZM92.1246 85.8906C91.5865 85.8906 91.0035 85.8906 90.5102 85.9352C90.4205 87.406 90.1963 90.7044 90.1514 95.1171H92.6179C94.9947 95.1171 96.9678 92.8439 96.9678 90.5261C96.9678 88.1638 95.1292 86.0243 92.7973 85.9352L92.1246 85.8906Z" fill="#F2F2F2"/>
<path d="M128.314 106.528H122.529C122.529 106.528 123.65 106.216 123.83 105.146C123.964 103.541 124.144 100.466 124.144 95.7412C124.144 91.4177 123.874 87.0942 123.74 86.1136C123.426 85.8908 121.094 85.8462 119.166 85.8462C117.103 85.8462 114.816 85.8462 114.502 86.0691C114.233 87.5845 114.098 91.4623 114.098 95.6966C114.098 100.332 114.278 103.363 114.412 104.968C114.502 105.859 115.713 106.439 115.713 106.439H109.928C109.928 106.439 111.139 105.904 111.228 104.923C111.318 104.032 111.542 100.6 111.542 96.3652V95.6521C111.497 91.3286 111.363 88.0748 111.228 86.381C111.139 85.2222 109.928 84.9102 109.928 84.9102H128.314C128.224 84.9993 127.103 85.6233 127.014 86.381C126.834 88.1194 126.7 91.4177 126.7 95.6521C126.7 100.288 126.834 103.319 126.969 104.923C127.058 105.948 128.314 106.528 128.314 106.528Z" fill="#F2F2F2"/>
<path d="M132.081 95.7409C132.081 90.9271 131.857 87.4951 131.723 85.935C131.678 85.4447 130.781 85.0436 130.781 85.0436H141.185C144.01 85.0436 146.073 84.687 146.073 84.687C146.073 84.687 145.759 86.0242 145.58 87.1385C145.4 88.5202 145.4 90.9271 145.4 90.9271C145.4 90.9271 144.279 85.935 141.005 85.935H135.041C134.906 87.4505 134.727 90.7934 134.682 95.3398L138.853 95.2952C141.185 95.2506 141.723 93.8243 141.723 93.8243V97.7913C141.723 97.7913 141.095 96.3649 138.898 96.2758H134.727C134.772 101.357 134.996 104.433 135.086 105.725H141.095C144.324 105.681 145.445 100.644 145.445 100.644C145.445 100.644 145.49 103.095 145.624 104.433C145.804 105.547 146.118 106.884 146.118 106.884C146.118 106.884 144.055 106.527 141.23 106.527H130.826C130.826 106.527 131.722 106.037 131.812 105.547C131.857 104.21 132.081 101.134 132.081 95.7409Z" fill="#F2F2F2"/>
<path d="M152.441 96.0085V97.1228C152.441 101.669 152.62 104.566 152.8 105.725C152.845 106.26 153.742 106.572 153.742 106.572H148.54C148.54 106.572 149.436 106.126 149.526 105.636C149.616 104.21 149.84 101.001 149.84 95.7856C149.84 90.6153 149.661 87.2723 149.436 85.6677C149.392 85.3112 148.54 84.9992 148.54 84.9992H150.558L155.894 84.9546C158.944 84.9546 161.455 87.4506 161.455 90.4815C161.455 93.5124 158.988 95.9639 155.939 95.9639L152.441 96.0085ZM154.414 85.8906C153.876 85.8906 153.293 85.8906 152.8 85.9352C152.71 87.406 152.486 90.7044 152.441 95.1171H154.907C157.284 95.1171 159.257 92.8439 159.257 90.5261C159.257 88.1638 157.419 86.0243 155.087 85.9352L154.414 85.8906Z" fill="#F2F2F2"/>
<path d="M163.966 84.9992H165.984L171.365 84.9546C174.415 84.9546 176.926 87.4506 176.926 90.4815C176.926 92.4873 175.85 94.2256 174.235 95.2062C177.15 95.4736 179.437 97.9251 179.437 100.867C179.437 104.031 176.881 106.528 173.697 106.528H164.011C164.011 106.528 164.908 106.037 164.997 105.547C165.132 104.076 165.311 100.956 165.311 95.7411C165.311 90.5707 165.266 87.2723 164.997 85.8906C164.908 85.4894 163.966 84.9992 163.966 84.9992ZM169.885 85.8906C169.347 85.8906 168.764 85.9352 168.181 85.9352C168.092 87.406 167.867 90.6598 167.822 95.1171H170.289C172.666 95.1171 174.639 92.8439 174.639 90.4815C174.639 88.1192 172.8 85.9797 170.468 85.8906H169.885ZM172.711 96.0977C171.948 96.0531 170.962 96.0531 169.93 96.0531C169.213 96.0531 168.495 96.0977 167.867 96.0977C167.867 100.911 168.047 103.987 168.181 105.458C169.661 105.547 171.365 105.725 172.576 105.725C175.042 105.725 177.061 103.363 177.061 100.911C177.061 98.46 175.177 96.2314 172.711 96.0977Z" fill="#F2F2F2"/>
<path d="M182.935 95.7855C182.935 90.9271 182.801 87.4505 182.576 85.935C182.487 85.4447 181.635 85.0436 181.635 85.0436H186.837C186.837 85.0436 185.94 85.4002 185.895 85.935C185.805 87.4059 185.581 90.7043 185.536 95.1615L191.321 95.2061C194.505 95.2061 197.061 97.7467 197.061 100.911C197.061 104.076 194.505 106.617 191.321 106.617L183.832 106.661H181.635C181.635 106.661 182.577 106.126 182.621 105.636C182.711 104.121 182.935 100.956 182.935 95.7855ZM189.617 96.0529C188.406 96.0529 186.792 96.1421 185.491 96.2312C185.491 100.956 185.671 103.942 185.805 105.413C187.285 105.502 189.034 105.636 190.245 105.636C192.711 105.636 194.729 103.274 194.729 100.822C194.729 98.3707 192.801 96.1421 190.335 96.0529C190.155 96.0975 189.886 96.0529 189.617 96.0529ZM203.923 106.527H198.093C198.093 106.527 199.348 105.636 199.438 104.7C199.573 102.917 199.707 97.7021 199.707 93.1557C199.707 90.3477 199.662 87.8516 199.528 86.6036C199.438 85.6676 198.183 84.999 198.183 84.999H203.967C203.967 84.999 202.712 85.4448 202.622 86.5145C202.443 88.2528 202.308 91.462 202.308 95.7409C202.308 100.198 202.443 103.229 202.577 104.878C202.712 105.993 203.923 106.527 203.923 106.527Z" fill="#F2F2F2"/>
<path d="M220.022 105.324C220.022 105.19 219.977 105.057 219.932 104.923C219.125 103.185 217.6 100.109 215.448 96.0085L210.246 105.012C210.111 105.235 210.066 105.413 210.066 105.592C210.066 106.26 210.874 106.572 210.874 106.572H206.389C206.389 106.572 207.734 106.26 208.676 104.834C209.842 103.051 214.641 95.1616 214.82 94.8942C212.443 90.5261 210.694 87.6289 209.797 86.158C209.259 85.3557 208.138 84.9546 208.138 84.9546H213.789C213.789 84.9546 213.026 85.1774 213.026 85.8906C213.026 86.0689 213.071 86.2472 213.161 86.4255C213.699 87.6289 214.685 89.6347 216.165 92.5319C217.869 89.5901 218.946 87.5844 219.484 86.5146C219.574 86.3363 219.618 86.158 219.618 85.9797C219.618 85.222 218.632 84.9546 218.632 84.9546H223.027C223.027 84.9546 221.636 85.3557 220.874 86.47L216.748 93.6462C217.107 94.3148 217.466 94.9833 217.869 95.7411C220.157 100.02 222.085 103.274 223.161 105.012C223.834 106.126 224.91 106.528 224.91 106.528H219.08C219.125 106.572 220.022 106.037 220.022 105.324Z" fill="#F2F2F2"/>
<path d="M75.846 95.8301C74.0074 95.8301 72.5275 97.301 72.5275 99.1284C72.5275 97.301 71.0476 95.8301 69.209 95.8301C71.0476 95.8301 72.5275 94.3592 72.5723 92.5317C72.5275 94.3592 74.0074 95.8301 75.846 95.8301Z" fill="#F2F2F2"/>
<defs>
<linearGradient id="paint0_linear_371_2274" x1="68.4933" y1="75.1767" x2="68.4933" y2="2.51677" gradientUnits="userSpaceOnUse">
<stop stop-color="#C4A27A"/>
<stop offset="1" stop-color="#DBBC9A"/>
</linearGradient>
<linearGradient id="paint1_linear_371_2274" x1="74.3872" y1="75.1768" x2="74.3872" y2="2.51684" gradientUnits="userSpaceOnUse">
<stop stop-color="#C4A27A"/>
<stop offset="1" stop-color="#DBBC9A"/>
</linearGradient>
<linearGradient id="paint2_linear_371_2274" x1="80.2817" y1="75.1768" x2="80.2817" y2="2.51691" gradientUnits="userSpaceOnUse">
<stop stop-color="#C4A27A"/>
<stop offset="1" stop-color="#DBBC9A"/>
</linearGradient>
<linearGradient id="paint3_linear_371_2274" x1="86.1758" y1="75.1764" x2="86.1758" y2="2.51649" gradientUnits="userSpaceOnUse">
<stop stop-color="#C4A27A"/>
<stop offset="1" stop-color="#DBBC9A"/>
</linearGradient>
<linearGradient id="paint4_linear_371_2274" x1="92.0698" y1="75.1765" x2="92.0698" y2="2.51656" gradientUnits="userSpaceOnUse">
<stop stop-color="#C4A27A"/>
<stop offset="1" stop-color="#DBBC9A"/>
</linearGradient>
<linearGradient id="paint5_linear_371_2274" x1="97.9638" y1="75.1765" x2="97.9638" y2="2.51662" gradientUnits="userSpaceOnUse">
<stop stop-color="#C4A27A"/>
<stop offset="1" stop-color="#DBBC9A"/>
</linearGradient>
<linearGradient id="paint6_linear_371_2274" x1="103.858" y1="75.1766" x2="103.858" y2="2.51668" gradientUnits="userSpaceOnUse">
<stop stop-color="#C4A27A"/>
<stop offset="1" stop-color="#DBBC9A"/>
</linearGradient>
<linearGradient id="paint7_linear_371_2274" x1="109.752" y1="75.1767" x2="109.752" y2="2.5168" gradientUnits="userSpaceOnUse">
<stop stop-color="#C4A27A"/>
<stop offset="1" stop-color="#DBBC9A"/>
</linearGradient>
<linearGradient id="paint8_linear_371_2274" x1="115.647" y1="75.1767" x2="115.647" y2="2.51677" gradientUnits="userSpaceOnUse">
<stop stop-color="#C4A27A"/>
<stop offset="1" stop-color="#DBBC9A"/>
</linearGradient>
<linearGradient id="paint9_linear_371_2274" x1="121.541" y1="75.1767" x2="121.541" y2="2.51675" gradientUnits="userSpaceOnUse">
<stop stop-color="#C4A27A"/>
<stop offset="1" stop-color="#DBBC9A"/>
</linearGradient>
<linearGradient id="paint10_linear_371_2274" x1="127.435" y1="75.1766" x2="127.435" y2="2.51672" gradientUnits="userSpaceOnUse">
<stop stop-color="#C4A27A"/>
<stop offset="1" stop-color="#DBBC9A"/>
</linearGradient>
<linearGradient id="paint11_linear_371_2274" x1="133.329" y1="75.1767" x2="133.329" y2="2.51684" gradientUnits="userSpaceOnUse">
<stop stop-color="#C4A27A"/>
<stop offset="1" stop-color="#DBBC9A"/>
</linearGradient>
<linearGradient id="paint12_linear_371_2274" x1="139.223" y1="75.1767" x2="139.223" y2="2.51681" gradientUnits="userSpaceOnUse">
<stop stop-color="#C4A27A"/>
<stop offset="1" stop-color="#DBBC9A"/>
</linearGradient>
<linearGradient id="paint13_linear_371_2274" x1="145.117" y1="75.1767" x2="145.117" y2="2.51678" gradientUnits="userSpaceOnUse">
<stop stop-color="#C4A27A"/>
<stop offset="1" stop-color="#DBBC9A"/>
</linearGradient>
<linearGradient id="paint14_linear_371_2274" x1="151.011" y1="75.1768" x2="151.011" y2="2.5169" gradientUnits="userSpaceOnUse">
<stop stop-color="#C4A27A"/>
<stop offset="1" stop-color="#DBBC9A"/>
</linearGradient>
<linearGradient id="paint15_linear_371_2274" x1="156.906" y1="75.1768" x2="156.906" y2="2.51687" gradientUnits="userSpaceOnUse">
<stop stop-color="#C4A27A"/>
<stop offset="1" stop-color="#DBBC9A"/>
</linearGradient>
</defs>
</svg>
