<svg xmlns="http://www.w3.org/2000/svg" width="700" height="396" fill="none"><circle cx="679.733" cy="24.857" r="19.5" fill="#454545"/><path fill="#fff" stroke="#454545" stroke-width=".4" d="m693.804 21.757-13.873-4.376a.854.854 0 0 0-.397 0l-13.842 4.376a.669.669 0 0 0-.459.62c0 .278.184.559.459.621l5.897 1.861v5.706c0 .291.08.576.231.823.151.247.368.445.625.573 1.069.528 3.422 1.396 7.303 1.396s6.234-.868 7.303-1.396c.257-.127.474-.326.625-.573.151-.247.231-.532.231-.823v-5.677l2.809-.897v2.513c-.764.277-1.345 1.023-1.345 1.892-.003.371.095.736.284 1.054.188.319.459.578.784.75a1.96 1.96 0 0 0 2.067-.143c.299-.215.533-.51.677-.85a2.05 2.05 0 0 0-.297-2.083 1.991 1.991 0 0 0-.887-.62v-2.917l1.772-.558a.656.656 0 0 0 .459-.62.605.605 0 0 0-.428-.651h.002Zm-2.444 7.384a.698.698 0 0 1-.65-.44.726.726 0 0 1 .153-.779.697.697 0 0 1 1.081.109.723.723 0 0 1 .118.396.698.698 0 0 1-.702.714Zm-11.612-10.424 11.673 3.692-11.673 3.691-11.673-3.691 11.673-3.692Zm6.875 11.882a.259.259 0 0 1-.122.217c-.764.372-2.995 1.274-6.722 1.274-3.759 0-5.959-.9-6.723-1.274-.092-.031-.122-.124-.122-.217v-5.305l6.661 2.11a.558.558 0 0 0 .367 0l6.661-2.11v5.305Z"/><circle cx="607.733" cy="288.857" r="19.5" fill="#454545"/><path fill="#fff" stroke="#454545" stroke-width=".4" d="m621.804 285.757-13.873-4.376a.859.859 0 0 0-.397 0l-13.842 4.376a.667.667 0 0 0-.459.621c0 .277.184.558.459.62l5.897 1.861v5.706c0 .291.08.576.231.823.151.247.368.445.625.573 1.069.528 3.422 1.396 7.303 1.396s6.234-.868 7.303-1.396c.257-.128.474-.326.625-.573.151-.247.231-.532.231-.823v-5.677l2.809-.897v2.513c-.764.277-1.345 1.023-1.345 1.892a2.032 2.032 0 0 0 1.068 1.804c.324.171.689.249 1.053.224a1.97 1.97 0 0 0 1.014-.367c.299-.215.533-.509.677-.851a2.048 2.048 0 0 0-.297-2.082 1.987 1.987 0 0 0-.887-.62v-2.916l1.772-.559a.665.665 0 0 0 .459-.62.605.605 0 0 0-.428-.652h.002Zm-2.444 7.384a.694.694 0 0 1-.391-.121.713.713 0 0 1-.299-.732.705.705 0 0 1 .959-.52.72.72 0 0 1 .433.659.699.699 0 0 1-.702.714Zm-11.612-10.424 11.673 3.692-11.673 3.691-11.673-3.691 11.673-3.692Zm6.875 11.882a.26.26 0 0 1-.122.217c-.764.372-2.995 1.274-6.722 1.274-3.759 0-5.959-.9-6.723-1.274-.092-.031-.122-.124-.122-.217v-5.305l6.661 2.109a.55.55 0 0 0 .367 0l6.661-2.109v5.305Z"/><circle cx="401.733" cy="371.857" r="19.5" fill="#454545"/><path fill="#fff" stroke="#454545" stroke-width=".4" d="m415.804 368.757-13.873-4.376a.859.859 0 0 0-.397 0l-13.842 4.376a.667.667 0 0 0-.459.621c0 .277.184.558.459.62l5.897 1.861v5.706c0 .291.08.576.231.823.151.247.368.445.625.573 1.069.528 3.422 1.396 7.303 1.396s6.234-.868 7.303-1.396c.257-.128.474-.326.625-.573.151-.247.231-.532.231-.823v-5.677l2.809-.897v2.513c-.764.277-1.345 1.023-1.345 1.892a2.032 2.032 0 0 0 1.068 1.804c.324.171.689.249 1.053.224a1.97 1.97 0 0 0 1.014-.367c.299-.215.533-.509.677-.851a2.048 2.048 0 0 0-.297-2.082 1.987 1.987 0 0 0-.887-.62v-2.916l1.772-.559a.665.665 0 0 0 .459-.62.605.605 0 0 0-.428-.652h.002Zm-2.444 7.384a.694.694 0 0 1-.391-.121.713.713 0 0 1-.299-.732.705.705 0 0 1 .959-.52.72.72 0 0 1 .433.659.699.699 0 0 1-.702.714Zm-11.612-10.424 11.673 3.692-11.673 3.691-11.673-3.691 11.673-3.692Zm6.875 11.882a.26.26 0 0 1-.122.217c-.764.372-2.995 1.274-6.722 1.274-3.759 0-5.959-.9-6.723-1.274-.092-.031-.122-.124-.122-.217v-5.305l6.661 2.109a.55.55 0 0 0 .367 0l6.661-2.109v5.305Z"/><circle cx="349.733" cy="342.857" r="19.5" fill="#454545"/><path fill="#fff" stroke="#454545" stroke-width=".4" d="m363.804 339.757-13.873-4.376a.859.859 0 0 0-.397 0l-13.842 4.376a.667.667 0 0 0-.459.621c0 .277.184.558.459.62l5.897 1.861v5.706c0 .291.08.576.231.823.151.247.368.445.625.573 1.069.528 3.422 1.396 7.303 1.396s6.234-.868 7.303-1.396c.257-.128.474-.326.625-.573.151-.247.231-.532.231-.823v-5.677l2.809-.897v2.513c-.764.277-1.345 1.023-1.345 1.892a2.032 2.032 0 0 0 1.068 1.804c.324.171.689.249 1.053.224a1.97 1.97 0 0 0 1.014-.367c.299-.215.533-.509.677-.851a2.048 2.048 0 0 0-.297-2.082 1.987 1.987 0 0 0-.887-.62v-2.916l1.772-.559a.665.665 0 0 0 .459-.62.605.605 0 0 0-.428-.652h.002Zm-2.444 7.384a.694.694 0 0 1-.391-.121.713.713 0 0 1-.299-.732.705.705 0 0 1 .959-.52.72.72 0 0 1 .433.659.699.699 0 0 1-.702.714Zm-11.612-10.424 11.673 3.692-11.673 3.691-11.673-3.691 11.673-3.692Zm6.875 11.882a.26.26 0 0 1-.122.217c-.764.372-2.995 1.274-6.722 1.274-3.759 0-5.959-.9-6.723-1.274-.092-.031-.122-.124-.122-.217v-5.305l6.661 2.109a.55.55 0 0 0 .367 0l6.661-2.109v5.305Z"/><circle cx="359.733" cy="208.857" r="19.5" fill="#454545"/><path fill="#fff" stroke="#454545" stroke-width=".4" d="m373.804 205.757-13.873-4.376a.859.859 0 0 0-.397 0l-13.842 4.376a.667.667 0 0 0-.459.621c0 .277.184.558.459.62l5.897 1.861v5.706c0 .291.08.576.231.823.151.247.368.445.625.573 1.069.528 3.422 1.396 7.303 1.396s6.234-.868 7.303-1.396c.257-.128.474-.326.625-.573.151-.247.231-.532.231-.823v-5.677l2.809-.897v2.513c-.764.277-1.345 1.023-1.345 1.892a2.032 2.032 0 0 0 1.068 1.804c.324.171.689.249 1.053.224a1.97 1.97 0 0 0 1.014-.367c.299-.215.533-.509.677-.851a2.048 2.048 0 0 0-.297-2.082 1.987 1.987 0 0 0-.887-.62v-2.916l1.772-.559a.665.665 0 0 0 .459-.62.605.605 0 0 0-.428-.652h.002Zm-2.444 7.384a.694.694 0 0 1-.391-.121.713.713 0 0 1-.299-.732.705.705 0 0 1 .959-.52.72.72 0 0 1 .433.659.699.699 0 0 1-.702.714Zm-11.612-10.424 11.673 3.692-11.673 3.691-11.673-3.691 11.673-3.692Zm6.875 11.882a.26.26 0 0 1-.122.217c-.764.372-2.995 1.274-6.722 1.274-3.759 0-5.959-.9-6.723-1.274-.092-.031-.122-.124-.122-.217v-5.305l6.661 2.109a.55.55 0 0 0 .367 0l6.661-2.109v5.305Z"/><circle cx="184.733" cy="57.857" r="19.5" fill="#454545"/><path fill="#fff" stroke="#454545" stroke-width=".4" d="m198.804 54.757-13.873-4.376a.854.854 0 0 0-.397 0l-13.842 4.376a.669.669 0 0 0-.459.62c0 .278.184.559.459.621l5.897 1.861v5.706c0 .291.08.576.231.823.151.247.368.445.625.573 1.069.528 3.422 1.396 7.303 1.396s6.234-.868 7.303-1.396c.257-.127.474-.326.625-.573.151-.247.231-.532.231-.823v-5.677l2.809-.897v2.513c-.764.277-1.345 1.023-1.345 1.892-.003.371.095.736.284 1.054.188.319.459.578.784.75a1.96 1.96 0 0 0 2.067-.143c.299-.215.533-.51.677-.85a2.05 2.05 0 0 0-.297-2.083 1.991 1.991 0 0 0-.887-.62v-2.916l1.772-.559a.656.656 0 0 0 .459-.62.605.605 0 0 0-.428-.652h.002Zm-2.444 7.384a.698.698 0 0 1-.65-.44.726.726 0 0 1 .153-.779.697.697 0 0 1 1.081.109.723.723 0 0 1 .118.396.698.698 0 0 1-.702.714Zm-11.612-10.424 11.673 3.692-11.673 3.691-11.673-3.691 11.673-3.692Zm6.875 11.882a.259.259 0 0 1-.122.217c-.764.372-2.995 1.274-6.722 1.274-3.759 0-5.959-.9-6.723-1.274-.092-.031-.122-.124-.122-.217v-5.305l6.661 2.11a.558.558 0 0 0 .367 0l6.661-2.11v5.305Z"/><circle cx="467.733" cy="146.857" r="19.5" fill="#454545"/><path fill="#fff" stroke="#454545" stroke-width=".4" d="m481.804 143.757-13.873-4.376a.859.859 0 0 0-.397 0l-13.842 4.376a.667.667 0 0 0-.459.621c0 .277.184.558.459.62l5.897 1.861v5.706c0 .291.08.576.231.823.151.247.368.445.625.573 1.069.528 3.422 1.396 7.303 1.396s6.234-.868 7.303-1.396c.257-.128.474-.326.625-.573.151-.247.231-.532.231-.823v-5.677l2.809-.897v2.513c-.764.277-1.345 1.023-1.345 1.892a2.032 2.032 0 0 0 1.068 1.804c.324.171.689.249 1.053.224a1.97 1.97 0 0 0 1.014-.367c.299-.215.533-.509.677-.851a2.048 2.048 0 0 0-.297-2.082 1.987 1.987 0 0 0-.887-.62v-2.916l1.772-.559a.665.665 0 0 0 .459-.62.605.605 0 0 0-.428-.652h.002Zm-2.444 7.384a.694.694 0 0 1-.391-.121.713.713 0 0 1-.299-.732.705.705 0 0 1 .959-.52.72.72 0 0 1 .433.659.699.699 0 0 1-.702.714Zm-11.612-10.424 11.673 3.692-11.673 3.691-11.673-3.691 11.673-3.692Zm6.875 11.882a.26.26 0 0 1-.122.217c-.764.372-2.995 1.274-6.722 1.274-3.759 0-5.959-.9-6.723-1.274-.092-.031-.122-.124-.122-.217v-5.305l6.661 2.109a.55.55 0 0 0 .367 0l6.661-2.109v5.305Z"/><circle cx="94.733" cy="127.857" r="21.5" fill="#454545"/><path fill="#fff" d="M104.278 135.096a1.277 1.277 0 0 1 1.053-.029c.341.142.617.425.769.788.08.186.125.388.132.593a1.639 1.639 0 0 1-.387 1.124 1.402 1.402 0 0 1-.463.349c-3.432 1.619-6.892 2.436-10.28 2.436-3.387 0-6.76-.817-10.038-2.431a1.492 1.492 0 0 1-.738-.853 1.666 1.666 0 0 1 .03-1.173c.15-.372.43-.662.778-.808a1.292 1.292 0 0 1 1.074.028c.286.144.572.268.863.398l1.153-3.258c.458-1.292.515-2.686.167-3.926-.273-.97-.321-1.821-.163-2.547-.66-.312-.893-.225-.95-.187-.243.159-.256 1.014-.265 1.699l-.008.409c-.044 1.946-1.87 3.707-1.95 3.781a.425.425 0 0 1-.29.12.384.384 0 0 1-.242-.081.473.473 0 0 1-.173-.239.521.521 0 0 1-.005-.305c.326-1.081.308-2.287.29-3.454-.021-1.528-.044-2.97.643-4.167.133-.245.314-.455.53-.615.216-.161.462-.267.72-.311 1.219-.222 2.667.816 3.253 1.292 1.056-.658 1.862-.437 2.8-.103.004 0 .008.005.013.005l.158.057c.774.279 1.734.618 3.156.618.65 0 1.24-1.139 1.861-2.345.467-.899.947-1.83 1.576-2.571.92-1.091 1.91-1.321 2.799-1.201.566-1.283 2.027-1.782 2.095-1.807a.385.385 0 0 1 .19-.021.404.404 0 0 1 .18.073.456.456 0 0 1 .133.146.505.505 0 0 1 .064.194c.123.995-.066 1.999-.194 2.513.896.836.805 2.518.755 3.46-.009.159-.018.298-.018.399 0 .49.119 1.677.163 2.119.026.228-.016.458-.119.658a1.02 1.02 0 0 1-.453.452l-.695.346a.922.922 0 0 1-.67.06.998.998 0 0 1-.55-.421l-.776-1.194c.035 2.552-.757 4.84-1.003 5.498l1.676 5.026c.449-.187.902-.379 1.356-.596v.002Zm-18.432.903a.484.484 0 0 0-.391-.016.539.539 0 0 0-.292.285.618.618 0 0 0 .09.645.519.519 0 0 0 .172.133c6.338 3.119 12.979 3.114 19.611-.014a.53.53 0 0 0 .175-.131.618.618 0 0 0 .094-.642.566.566 0 0 0-.195-.241.498.498 0 0 0-.485-.048c-.603.284-1.197.534-1.795.764-.009.005-.014.015-.026.015a.09.09 0 0 1-.036.005c-4.749 1.831-9.337 1.994-13.899.476-.006 0-.012-.001-.017-.006 0 0-.005 0-.005-.004a23.81 23.81 0 0 1-1.677-.63.027.027 0 0 1-.017-.004c-.005 0-.01-.005-.013-.01a16.55 16.55 0 0 1-1.295-.576v-.001Zm14.695.519-.853-2.182a4.695 4.695 0 0 0-1.061-1.596c-.517-.52-.77-.983-.898-1.349-2.135.908-3.807.257-4.59-.183-.458 1.067-1.184 1.879-1.752 2.403a5.453 5.453 0 0 0-1.404 2.013l-.344.865c3.587 1.086 7.2 1.096 10.902.029ZM86.664 123.38c-.277.048-.484.206-.642.485-.546.962-.528 2.266-.506 3.648.009.654.018 1.321-.027 1.99.33-.529.62-1.173.634-1.812l.009-.399c.013-1.067.026-2.076.69-2.513.415-.274.978-.236 1.748.125.128-.217.282-.414.458-.587-.638-.466-1.646-1.066-2.364-.937Zm9.243 1.884c-1.334 0-2.284-.269-3.05-.533v2.574c0 .153.056.299.155.407a.508.508 0 0 0 .373.17h3.3a.508.508 0 0 0 .374-.17.605.605 0 0 0 .155-.407v-2.718c-.377.417-.797.677-1.307.677Zm7.125-6.847c.269.102.533.222.788.36a6.91 6.91 0 0 0 .145-1.226c-.316.183-.695.467-.933.866Zm-2.676 12.397a.503.503 0 0 1 .014-.36c.013-.039 1.487-3.655.827-6.973a.528.528 0 0 1 .036-.321.46.46 0 0 1 .215-.222.402.402 0 0 1 .295-.023.436.436 0 0 1 .242.186l1.756 2.706a.11.11 0 0 0 .062.047.096.096 0 0 0 .074-.009l.693-.341a.12.12 0 0 0 .054-.055.136.136 0 0 0 .012-.08c-.079-.783-.172-1.75-.172-2.229 0-.115.009-.274.018-.457.047-.827.132-2.359-.594-2.787-1.226-.716-2.641-1.36-3.9.139-.558.663-1.012 1.545-1.456 2.393-.15.284-.295.567-.445.837v4.036c0 .408-.149.799-.413 1.087-.264.288-.622.45-.995.451h-3.305a1.355 1.355 0 0 1-.996-.451 1.613 1.613 0 0 1-.412-1.087v-2.883c-.833-.269-1.383-.279-2.316.557-.686.618-.832 1.653-.431 3.076.405 1.446.339 3.066-.189 4.555l-1.153 3.258c.3.12.599.236.896.337l.387-.971a6.377 6.377 0 0 1 1.65-2.368c.577-.524 1.334-1.391 1.686-2.523a.49.49 0 0 1 .111-.19.41.41 0 0 1 .571-.036c.08.067 1.985 1.586 4.674.158a.413.413 0 0 1 .224-.043c.076.008.15.038.212.087a.498.498 0 0 1 .148.191.55.55 0 0 1 .046.246c0 .005-.018.528.73 1.278a5.693 5.693 0 0 1 1.273 1.923l.912 2.296c.236-.076.466-.154.7-.24l-1.741-5.195Z"/><circle cx="244.733" cy="49.857" r="21.5" fill="#454545"/><path fill="#fff" d="M254.278 57.096a1.28 1.28 0 0 1 1.053-.029c.341.142.617.425.769.788.08.186.125.388.132.593a1.642 1.642 0 0 1-.387 1.123c-.131.15-.288.27-.463.35-3.432 1.62-6.892 2.436-10.279 2.436-3.388 0-6.76-.817-10.039-2.431a1.487 1.487 0 0 1-.738-.853 1.668 1.668 0 0 1 .029-1.173c.152-.371.432-.662.779-.808a1.297 1.297 0 0 1 1.074.028c.286.144.572.269.863.398l1.153-3.258c.458-1.292.515-2.686.167-3.926-.273-.97-.321-1.821-.163-2.547-.66-.312-.893-.225-.95-.187-.243.158-.256 1.014-.265 1.699l-.008.409c-.045 1.946-1.871 3.707-1.95 3.782a.431.431 0 0 1-.291.12.385.385 0 0 1-.241-.082.473.473 0 0 1-.173-.24.518.518 0 0 1-.005-.304c.326-1.08.308-2.287.29-3.454-.021-1.528-.044-2.97.643-4.167a1.88 1.88 0 0 1 .53-.615c.216-.16.462-.267.72-.311 1.219-.222 2.667.816 3.253 1.292 1.057-.658 1.862-.437 2.799-.103.005 0 .009.005.014.005l.158.057c.774.28 1.734.618 3.156.618.651 0 1.241-1.139 1.861-2.345.467-.898.947-1.83 1.576-2.57.92-1.092 1.91-1.322 2.799-1.202.566-1.283 2.027-1.782 2.095-1.807a.388.388 0 0 1 .37.052.464.464 0 0 1 .133.146.505.505 0 0 1 .064.194c.123.995-.066 2-.194 2.513.896.836.805 2.518.755 3.46-.009.159-.018.298-.018.4 0 .49.119 1.676.163 2.118.026.228-.016.458-.119.658a1.02 1.02 0 0 1-.453.452l-.695.346a.916.916 0 0 1-.67.06.997.997 0 0 1-.55-.42l-.776-1.195c.035 2.552-.757 4.84-1.003 5.498l1.676 5.026c.449-.187.902-.38 1.356-.596v.002Zm-18.432.903a.482.482 0 0 0-.391-.016.544.544 0 0 0-.292.285.65.65 0 0 0-.052.222.645.645 0 0 0 .032.228.59.59 0 0 0 .111.195.524.524 0 0 0 .171.133c6.338 3.12 12.979 3.114 19.611-.014a.526.526 0 0 0 .175-.13.615.615 0 0 0 .094-.643.571.571 0 0 0-.195-.241.497.497 0 0 0-.485-.048c-.603.284-1.197.534-1.795.764-.009.005-.014.015-.026.015a.097.097 0 0 1-.036.005c-4.749 1.83-9.336 1.994-13.899.476a.022.022 0 0 1-.017-.005s-.005 0-.005-.005a23.662 23.662 0 0 1-1.677-.63.024.024 0 0 1-.017-.004c-.005 0-.009-.005-.013-.01a16.35 16.35 0 0 1-1.295-.576h.001Zm14.695.52-.853-2.183a4.697 4.697 0 0 0-1.061-1.596c-.517-.52-.77-.983-.898-1.35-2.134.909-3.807.258-4.59-.182-.458 1.067-1.184 1.879-1.752 2.403a5.439 5.439 0 0 0-1.404 2.013l-.344.865c3.587 1.086 7.201 1.096 10.902.03ZM236.664 45.38c-.277.048-.484.206-.642.485-.546.962-.528 2.266-.506 3.648.009.654.018 1.321-.027 1.99.33-.53.621-1.173.634-1.812l.009-.4c.013-1.066.026-2.075.691-2.512.414-.274.977-.236 1.747.125.128-.217.282-.414.458-.587-.638-.466-1.646-1.066-2.364-.937Zm9.243 1.884c-1.334 0-2.285-.269-3.05-.533v2.574c0 .153.056.3.155.407a.508.508 0 0 0 .373.17h3.301c.14 0 .274-.061.373-.17a.609.609 0 0 0 .155-.407v-2.718c-.377.417-.797.677-1.307.677Zm7.125-6.847c.269.102.533.222.788.36.085-.403.133-.813.145-1.226-.316.183-.695.467-.933.866Zm-2.676 12.398a.508.508 0 0 1 .014-.36c.013-.04 1.487-3.656.827-6.974a.526.526 0 0 1 .036-.32.46.46 0 0 1 .215-.223.404.404 0 0 1 .295-.023c.098.03.184.095.242.186l1.756 2.706a.11.11 0 0 0 .062.046.098.098 0 0 0 .074-.008l.693-.34a.12.12 0 0 0 .054-.056.136.136 0 0 0 .012-.08c-.079-.783-.172-1.75-.172-2.229 0-.115.009-.274.018-.457.047-.827.132-2.36-.594-2.787-1.226-.716-2.641-1.36-3.9.14-.558.663-1.012 1.544-1.456 2.392-.15.284-.295.567-.445.837V49.3c0 .408-.149.799-.413 1.087-.264.288-.622.45-.995.451h-3.305c-.374 0-.732-.163-.996-.451a1.617 1.617 0 0 1-.413-1.087v-2.883c-.832-.27-1.382-.28-2.315.557-.686.618-.832 1.653-.431 3.076.405 1.446.339 3.066-.189 4.555l-1.153 3.258c.3.12.599.236.896.337l.387-.971a6.387 6.387 0 0 1 1.651-2.368c.576-.524 1.333-1.39 1.685-2.523a.495.495 0 0 1 .111-.19.434.434 0 0 1 .177-.114.406.406 0 0 1 .394.078c.08.067 1.986 1.586 4.674.158a.402.402 0 0 1 .436.044c.063.049.114.115.148.191.034.077.05.161.046.246 0 .005-.018.528.73 1.278a5.696 5.696 0 0 1 1.273 1.923l.912 2.296c.236-.076.466-.154.7-.24l-1.741-5.194Z"/><circle cx="271.733" cy="117.857" r="21.5" fill="#454545"/><path fill="#fff" d="M281.278 125.096a1.277 1.277 0 0 1 1.053-.029c.341.142.617.425.769.788.08.186.125.388.132.593a1.639 1.639 0 0 1-.387 1.124 1.402 1.402 0 0 1-.463.349c-3.432 1.619-6.892 2.436-10.279 2.436-3.388 0-6.76-.817-10.039-2.431a1.491 1.491 0 0 1-.738-.853 1.668 1.668 0 0 1 .029-1.173c.152-.372.432-.662.779-.808a1.291 1.291 0 0 1 1.074.028c.286.144.572.268.863.398l1.153-3.258c.458-1.292.515-2.686.167-3.926-.273-.97-.321-1.821-.163-2.547-.66-.312-.893-.225-.95-.187-.243.159-.256 1.014-.265 1.699l-.008.409c-.045 1.946-1.871 3.707-1.95 3.781a.427.427 0 0 1-.291.12.381.381 0 0 1-.241-.081.473.473 0 0 1-.173-.239.52.52 0 0 1-.005-.305c.326-1.081.308-2.287.29-3.454-.021-1.528-.044-2.97.643-4.167.133-.245.314-.455.53-.615.216-.161.462-.267.72-.311 1.219-.222 2.667.816 3.253 1.292 1.057-.658 1.862-.437 2.799-.103.005 0 .009.005.014.005l.158.057c.774.279 1.734.618 3.156.618.651 0 1.241-1.139 1.861-2.345.467-.899.947-1.83 1.576-2.571.92-1.091 1.91-1.321 2.799-1.201.566-1.283 2.027-1.782 2.095-1.807a.385.385 0 0 1 .19-.021.404.404 0 0 1 .18.073.456.456 0 0 1 .133.146.505.505 0 0 1 .064.194c.123.995-.066 1.999-.194 2.513.896.836.805 2.518.755 3.46-.009.159-.018.298-.018.399 0 .49.119 1.677.163 2.119.026.228-.016.458-.119.658a1.02 1.02 0 0 1-.453.452l-.695.346a.922.922 0 0 1-.67.06.998.998 0 0 1-.55-.421l-.776-1.194c.035 2.552-.757 4.84-1.003 5.498l1.676 5.026c.449-.187.902-.379 1.356-.596v.002Zm-18.432.903a.485.485 0 0 0-.391-.016.542.542 0 0 0-.292.285.65.65 0 0 0-.052.223.589.589 0 0 0 .143.422.511.511 0 0 0 .171.133c6.338 3.119 12.979 3.114 19.611-.014a.53.53 0 0 0 .175-.131.618.618 0 0 0 .094-.642.566.566 0 0 0-.195-.241.498.498 0 0 0-.485-.048c-.603.284-1.197.534-1.795.764-.009.005-.014.015-.026.015a.09.09 0 0 1-.036.005c-4.749 1.831-9.336 1.994-13.899.476-.006 0-.012-.001-.017-.006 0 0-.005 0-.005-.004a23.814 23.814 0 0 1-1.677-.63.025.025 0 0 1-.017-.004c-.005 0-.009-.005-.013-.01-.428-.168-.859-.36-1.295-.576l.001-.001Zm14.695.519-.853-2.182a4.701 4.701 0 0 0-1.061-1.596c-.517-.52-.77-.983-.898-1.349-2.134.908-3.807.257-4.59-.183-.458 1.067-1.184 1.879-1.752 2.403a5.441 5.441 0 0 0-1.404 2.013l-.344.865c3.587 1.086 7.201 1.096 10.902.029Zm-13.877-13.138c-.277.048-.484.206-.642.485-.546.962-.528 2.266-.506 3.648.009.654.018 1.321-.027 1.99.33-.529.621-1.173.634-1.812l.009-.399c.013-1.067.026-2.076.691-2.513.414-.274.977-.236 1.747.125.128-.217.282-.414.458-.587-.638-.466-1.646-1.066-2.364-.937Zm9.243 1.884c-1.334 0-2.285-.269-3.05-.533v2.574c0 .153.056.299.155.407a.507.507 0 0 0 .373.17h3.301a.507.507 0 0 0 .373-.17.608.608 0 0 0 .155-.407v-2.718c-.377.417-.797.677-1.307.677Zm7.125-6.847c.269.102.533.222.788.36a6.91 6.91 0 0 0 .145-1.226c-.316.183-.695.467-.933.866Zm-2.676 12.397a.503.503 0 0 1 .014-.36c.013-.039 1.487-3.655.827-6.973a.528.528 0 0 1 .036-.321.46.46 0 0 1 .215-.222.402.402 0 0 1 .295-.023.436.436 0 0 1 .242.186l1.756 2.706a.11.11 0 0 0 .062.047.096.096 0 0 0 .074-.009l.693-.341a.12.12 0 0 0 .054-.055c.012-.024.016-.052.012-.08-.079-.783-.172-1.75-.172-2.229 0-.115.009-.274.018-.457.047-.827.132-2.359-.594-2.787-1.226-.716-2.641-1.36-3.9.139-.558.663-1.012 1.545-1.456 2.393-.15.284-.295.567-.445.837v4.036c0 .408-.149.799-.413 1.087-.264.288-.622.45-.995.451h-3.305a1.356 1.356 0 0 1-.996-.451 1.616 1.616 0 0 1-.413-1.087v-2.883c-.832-.269-1.382-.279-2.315.557-.686.618-.832 1.653-.431 3.076.405 1.446.339 3.066-.189 4.555l-1.153 3.258c.3.12.599.236.896.337l.387-.971a6.384 6.384 0 0 1 1.651-2.368c.576-.524 1.333-1.391 1.685-2.523a.497.497 0 0 1 .111-.19.412.412 0 0 1 .571-.036c.08.067 1.986 1.586 4.674.158a.414.414 0 0 1 .223-.043c.077.008.15.038.213.087a.5.5 0 0 1 .148.191c.034.077.05.161.046.246 0 .005-.018.528.73 1.278a5.692 5.692 0 0 1 1.273 1.923l.912 2.296c.236-.076.466-.154.7-.24l-1.741-5.195Z"/><circle cx="544.733" cy="131.857" r="21.5" fill="#454545"/><path fill="#fff" d="M554.278 139.096a1.277 1.277 0 0 1 1.053-.029c.341.142.617.425.769.788.08.186.125.388.132.593a1.639 1.639 0 0 1-.387 1.124 1.402 1.402 0 0 1-.463.349c-3.432 1.619-6.892 2.436-10.279 2.436-3.388 0-6.76-.817-10.039-2.431a1.491 1.491 0 0 1-.738-.853 1.668 1.668 0 0 1 .029-1.173c.152-.372.432-.662.779-.808a1.291 1.291 0 0 1 1.074.028c.286.144.572.268.863.398l1.153-3.258c.458-1.292.515-2.686.167-3.926-.273-.97-.321-1.821-.163-2.547-.66-.312-.893-.225-.95-.187-.243.159-.256 1.014-.265 1.699l-.008.409c-.045 1.946-1.871 3.707-1.95 3.781a.427.427 0 0 1-.291.12.381.381 0 0 1-.241-.081.473.473 0 0 1-.173-.239.52.52 0 0 1-.005-.305c.326-1.081.308-2.287.29-3.454-.021-1.528-.044-2.97.643-4.167.133-.245.314-.455.53-.615.216-.161.462-.267.72-.311 1.219-.222 2.667.816 3.253 1.292 1.057-.658 1.862-.437 2.799-.103.005 0 .009.005.014.005l.158.057c.774.279 1.734.618 3.156.618.651 0 1.241-1.139 1.861-2.345.467-.899.947-1.83 1.576-2.571.92-1.091 1.91-1.321 2.799-1.201.566-1.283 2.027-1.782 2.095-1.807a.385.385 0 0 1 .19-.021.404.404 0 0 1 .18.073.456.456 0 0 1 .133.146.505.505 0 0 1 .064.194c.123.995-.066 1.999-.194 2.513.896.836.805 2.518.755 3.46-.009.159-.018.298-.018.399 0 .49.119 1.677.163 2.119.026.228-.016.458-.119.658a1.02 1.02 0 0 1-.453.452l-.695.346a.922.922 0 0 1-.67.06.998.998 0 0 1-.55-.421l-.776-1.194c.035 2.552-.757 4.84-1.003 5.498l1.676 5.026c.449-.187.902-.379 1.356-.596v.002Zm-18.432.903a.485.485 0 0 0-.391-.016.542.542 0 0 0-.292.285.65.65 0 0 0-.052.223.589.589 0 0 0 .143.422.511.511 0 0 0 .171.133c6.338 3.119 12.979 3.114 19.611-.014a.53.53 0 0 0 .175-.131.618.618 0 0 0 .094-.642.566.566 0 0 0-.195-.241.498.498 0 0 0-.485-.048c-.603.284-1.197.534-1.795.764-.009.005-.014.015-.026.015a.09.09 0 0 1-.036.005c-4.749 1.831-9.336 1.994-13.899.476-.006 0-.012-.001-.017-.006 0 0-.005 0-.005-.004a23.814 23.814 0 0 1-1.677-.63.025.025 0 0 1-.017-.004c-.005 0-.009-.005-.013-.01-.428-.168-.859-.36-1.295-.576l.001-.001Zm14.695.519-.853-2.182a4.701 4.701 0 0 0-1.061-1.596c-.517-.52-.77-.983-.898-1.349-2.134.908-3.807.257-4.59-.183-.458 1.067-1.184 1.879-1.752 2.403a5.441 5.441 0 0 0-1.404 2.013l-.344.865c3.587 1.086 7.201 1.096 10.902.029Zm-13.877-13.138c-.277.048-.484.206-.642.485-.546.962-.528 2.266-.506 3.648.009.654.018 1.321-.027 1.99.33-.529.621-1.173.634-1.812l.009-.399c.013-1.067.026-2.076.691-2.513.414-.274.977-.236 1.747.125.128-.217.282-.414.458-.587-.638-.466-1.646-1.066-2.364-.937Zm9.243 1.884c-1.334 0-2.285-.269-3.05-.533v2.574c0 .153.056.299.155.407a.507.507 0 0 0 .373.17h3.301a.507.507 0 0 0 .373-.17.608.608 0 0 0 .155-.407v-2.718c-.377.417-.797.677-1.307.677Zm7.125-6.847c.269.102.533.222.788.36a6.91 6.91 0 0 0 .145-1.226c-.316.183-.695.467-.933.866Zm-2.676 12.397a.503.503 0 0 1 .014-.36c.013-.039 1.487-3.655.827-6.973a.528.528 0 0 1 .036-.321.46.46 0 0 1 .215-.222.402.402 0 0 1 .295-.023.436.436 0 0 1 .242.186l1.756 2.706a.11.11 0 0 0 .062.047.096.096 0 0 0 .074-.009l.693-.341a.12.12 0 0 0 .054-.055.136.136 0 0 0 .012-.08c-.079-.783-.172-1.75-.172-2.229 0-.115.009-.274.018-.457.047-.827.132-2.359-.594-2.787-1.226-.716-2.641-1.36-3.9.139-.558.663-1.012 1.545-1.456 2.393-.15.284-.295.567-.445.837v4.036c0 .408-.149.799-.413 1.087-.264.288-.622.45-.995.451h-3.305a1.356 1.356 0 0 1-.996-.451 1.616 1.616 0 0 1-.413-1.087v-2.883c-.832-.269-1.382-.279-2.315.557-.686.618-.832 1.653-.431 3.076.405 1.446.339 3.066-.189 4.555l-1.153 3.258c.3.12.599.236.896.337l.387-.971a6.384 6.384 0 0 1 1.651-2.368c.576-.524 1.333-1.391 1.685-2.523a.497.497 0 0 1 .111-.19.412.412 0 0 1 .571-.036c.08.067 1.986 1.586 4.674.158a.414.414 0 0 1 .223-.043c.077.008.15.038.213.087a.5.5 0 0 1 .148.191c.034.077.05.161.046.246 0 .005-.018.528.73 1.278a5.692 5.692 0 0 1 1.273 1.923l.912 2.296c.236-.076.466-.154.7-.24l-1.741-5.195Z"/><circle cx="83.733" cy="373.857" r="21.5" fill="#454545"/><path fill="#fff" d="M93.278 381.096a1.279 1.279 0 0 1 1.053-.029c.341.142.617.425.769.788a1.66 1.66 0 0 1-.255 1.717c-.13.149-.288.268-.463.349-3.433 1.619-6.892 2.436-10.28 2.436-3.387 0-6.76-.817-10.038-2.431a1.492 1.492 0 0 1-.738-.853 1.666 1.666 0 0 1 .03-1.173c.15-.372.43-.662.778-.808a1.292 1.292 0 0 1 1.074.028c.286.144.572.268.863.398l1.153-3.258c.458-1.292.515-2.686.167-3.926-.273-.97-.321-1.821-.163-2.547-.66-.312-.893-.225-.95-.187-.243.159-.256 1.014-.265 1.699l-.008.409c-.044 1.946-1.87 3.707-1.95 3.781a.425.425 0 0 1-.29.12.384.384 0 0 1-.242-.081.473.473 0 0 1-.173-.239.521.521 0 0 1-.005-.305c.326-1.081.308-2.287.29-3.454-.021-1.528-.044-2.97.643-4.167.133-.245.314-.455.53-.615.216-.161.462-.267.72-.311 1.219-.222 2.667.816 3.253 1.292 1.056-.658 1.862-.437 2.8-.103.004 0 .008.005.013.005l.158.057c.774.279 1.734.618 3.156.618.65 0 1.24-1.139 1.861-2.345.467-.899.947-1.83 1.576-2.571.92-1.091 1.91-1.321 2.799-1.201.566-1.283 2.027-1.782 2.095-1.807a.386.386 0 0 1 .37.052.45.45 0 0 1 .133.146.503.503 0 0 1 .064.194c.123.995-.066 1.999-.194 2.513.896.836.805 2.518.755 3.46-.01.159-.018.298-.018.399 0 .49.119 1.677.163 2.119.026.228-.016.458-.119.658s-.262.358-.453.452l-.695.346a.92.92 0 0 1-.67.06.997.997 0 0 1-.55-.421l-.776-1.194c.035 2.552-.757 4.84-1.003 5.498l1.676 5.026c.45-.187.902-.379 1.356-.596v.002Zm-18.432.903a.484.484 0 0 0-.391-.016.539.539 0 0 0-.292.285.618.618 0 0 0 .09.645.519.519 0 0 0 .172.133c6.338 3.119 12.979 3.114 19.611-.014a.522.522 0 0 0 .174-.131.603.603 0 0 0-.1-.883.5.5 0 0 0-.485-.048c-.603.284-1.197.534-1.795.764-.009.005-.014.015-.026.015a.085.085 0 0 1-.036.005c-4.749 1.831-9.337 1.994-13.899.476-.006 0-.012-.001-.017-.006 0 0-.005 0-.005-.004a23.81 23.81 0 0 1-1.677-.63.027.027 0 0 1-.017-.004c-.005 0-.01-.005-.013-.01a16.55 16.55 0 0 1-1.295-.576v-.001Zm14.695.519-.853-2.182a4.695 4.695 0 0 0-1.061-1.596c-.517-.52-.77-.983-.898-1.349-2.135.908-3.807.257-4.59-.183-.458 1.067-1.184 1.879-1.752 2.403a5.453 5.453 0 0 0-1.404 2.013l-.344.865c3.587 1.086 7.2 1.096 10.902.029ZM75.664 369.38c-.277.048-.484.206-.642.485-.546.962-.528 2.266-.506 3.648.009.654.018 1.321-.027 1.99.33-.529.62-1.173.634-1.812l.009-.399c.013-1.067.026-2.076.69-2.513.415-.274.978-.236 1.748.125.128-.217.282-.414.458-.587-.638-.466-1.646-1.066-2.364-.937Zm9.243 1.884c-1.334 0-2.284-.269-3.05-.533v2.574c0 .153.056.299.155.407a.508.508 0 0 0 .373.17h3.3a.508.508 0 0 0 .374-.17.605.605 0 0 0 .155-.407v-2.718c-.377.417-.797.677-1.307.677Zm7.125-6.847c.27.102.533.222.788.36.085-.403.133-.813.145-1.226-.317.183-.695.467-.933.866Zm-2.676 12.397a.501.501 0 0 1 .014-.36c.013-.039 1.487-3.655.827-6.973a.52.52 0 0 1 .036-.321.458.458 0 0 1 .215-.222.403.403 0 0 1 .295-.023.436.436 0 0 1 .242.186l1.756 2.706a.11.11 0 0 0 .062.047.097.097 0 0 0 .074-.009l.693-.341a.119.119 0 0 0 .054-.055.136.136 0 0 0 .012-.08c-.08-.783-.172-1.75-.172-2.229 0-.115.01-.274.018-.457.047-.827.132-2.359-.594-2.787-1.226-.716-2.641-1.36-3.9.139-.558.663-1.012 1.545-1.456 2.393-.15.284-.295.567-.445.837v4.036c0 .408-.149.799-.413 1.087-.264.288-.622.45-.995.451h-3.305a1.355 1.355 0 0 1-.996-.451 1.613 1.613 0 0 1-.412-1.087v-2.883c-.833-.269-1.383-.279-2.316.557-.686.618-.832 1.653-.431 3.076.405 1.446.339 3.066-.189 4.555l-1.153 3.258c.3.12.599.236.896.337l.387-.971a6.377 6.377 0 0 1 1.65-2.368c.577-.524 1.334-1.391 1.686-2.523a.49.49 0 0 1 .111-.19.41.41 0 0 1 .571-.036c.08.067 1.985 1.586 4.674.158a.413.413 0 0 1 .224-.043c.076.008.15.038.212.087a.498.498 0 0 1 .148.191.55.55 0 0 1 .046.246c0 .005-.018.528.73 1.278a5.704 5.704 0 0 1 1.273 1.923l.912 2.296c.236-.076.466-.154.7-.24l-1.74-5.195Z"/><circle cx="417.733" cy="247.857" r="19.5" fill="#454545"/><path fill="#fff" d="M414.886 237.836v7.174h-7.174a.5.5 0 0 0-.479.478v5.739a.5.5 0 0 0 .479.478h7.174v7.174a.492.492 0 0 0 .478.478h5.739a.494.494 0 0 0 .478-.478v-7.174h7.174a.494.494 0 0 0 .478-.478v-5.739a.494.494 0 0 0-.478-.478h-7.174v-7.174a.5.5 0 0 0-.478-.479h-5.739c-.264.009-.472.263-.478.479Zm.956.478h4.783v7.174a.494.494 0 0 0 .478.478h7.174v4.783h-7.174a.494.494 0 0 0-.478.478v7.174h-4.783v-7.174a.498.498 0 0 0-.478-.478h-7.174v-4.783h7.174a.498.498 0 0 0 .478-.478v-7.174Z"/><circle cx="239.733" cy="331.857" r="19.5" fill="#454545"/><path fill="#fff" d="M236.886 321.836v7.174h-7.174a.5.5 0 0 0-.479.478v5.739a.5.5 0 0 0 .479.478h7.174v7.174a.492.492 0 0 0 .478.478h5.739a.494.494 0 0 0 .478-.478v-7.174h7.174a.494.494 0 0 0 .478-.478v-5.739a.494.494 0 0 0-.478-.478h-7.174v-7.174a.5.5 0 0 0-.478-.479h-5.739c-.264.009-.472.263-.478.479Zm.956.478h4.783v7.174a.494.494 0 0 0 .478.478h7.174v4.783h-7.174a.494.494 0 0 0-.478.478v7.174h-4.783v-7.174a.498.498 0 0 0-.478-.478h-7.174v-4.783h7.174a.498.498 0 0 0 .478-.478v-7.174Z"/><circle cx="397.733" cy="189.857" r="19.5" fill="#454545"/><path fill="#fff" d="M394.886 179.836v7.174h-7.174a.5.5 0 0 0-.479.478v5.739a.5.5 0 0 0 .479.478h7.174v7.174a.492.492 0 0 0 .478.478h5.739a.494.494 0 0 0 .478-.478v-7.174h7.174a.494.494 0 0 0 .478-.478v-5.739a.494.494 0 0 0-.478-.478h-7.174v-7.174a.5.5 0 0 0-.478-.479h-5.739c-.264.009-.472.263-.478.479Zm.956.478h4.783v7.174a.494.494 0 0 0 .478.478h7.174v4.783h-7.174a.494.494 0 0 0-.478.478v7.174h-4.783v-7.174a.498.498 0 0 0-.478-.478h-7.174v-4.783h7.174a.498.498 0 0 0 .478-.478v-7.174Z"/><circle cx="612.733" cy="139.857" r="19.5" fill="#454545"/><path fill="#fff" d="M609.886 129.836v7.174h-7.174a.5.5 0 0 0-.479.478v5.739a.5.5 0 0 0 .479.478h7.174v7.174a.492.492 0 0 0 .478.478h5.739a.494.494 0 0 0 .478-.478v-7.174h7.174a.494.494 0 0 0 .478-.478v-5.739a.494.494 0 0 0-.478-.478h-7.174v-7.174a.5.5 0 0 0-.478-.479h-5.739c-.264.009-.472.263-.478.479Zm.956.478h4.783v7.174a.494.494 0 0 0 .478.478h7.174v4.783h-7.174a.494.494 0 0 0-.478.478v7.174h-4.783v-7.174a.498.498 0 0 0-.478-.478h-7.174v-4.783h7.174a.498.498 0 0 0 .478-.478v-7.174Z"/><circle cx="612.733" cy="82.857" r="19.5" fill="#454545"/><path fill="#fff" d="M609.886 72.836v7.174h-7.174a.494.494 0 0 0-.479.478v5.739a.498.498 0 0 0 .479.478h7.174v7.174a.492.492 0 0 0 .478.478h5.739a.498.498 0 0 0 .478-.478v-7.174h7.174a.498.498 0 0 0 .478-.478v-5.74a.493.493 0 0 0-.478-.477h-7.174v-7.174a.492.492 0 0 0-.478-.479h-5.739c-.264.009-.472.264-.478.479Zm.956.478h4.783v7.174a.492.492 0 0 0 .478.478h7.174v4.783h-7.174a.499.499 0 0 0-.478.478v7.174h-4.783v-7.174a.497.497 0 0 0-.478-.478h-7.174v-4.783h7.174a.498.498 0 0 0 .478-.478v-7.174Z"/><circle cx="305.733" cy="63.857" r="19.5" fill="#454545"/><path fill="#fff" d="M302.886 53.836v7.174h-7.174a.494.494 0 0 0-.479.478v5.739a.498.498 0 0 0 .479.478h7.174v7.174a.492.492 0 0 0 .478.478h5.739a.498.498 0 0 0 .478-.478v-7.174h7.174a.498.498 0 0 0 .478-.478v-5.74a.493.493 0 0 0-.478-.477h-7.174v-7.174a.492.492 0 0 0-.478-.479h-5.739c-.264.009-.472.264-.478.479Zm.956.478h4.783v7.174a.492.492 0 0 0 .478.478h7.174v4.783h-7.174a.499.499 0 0 0-.478.478v7.174h-4.783v-7.174a.497.497 0 0 0-.478-.478h-7.174v-4.783h7.174a.498.498 0 0 0 .478-.478v-7.174Z"/><circle cx="19.733" cy="96.857" r="19.5" fill="#454545"/><path fill="#fff" d="M16.886 86.836v7.174H9.712a.497.497 0 0 0-.479.478v5.739a.498.498 0 0 0 .479.478h7.174v7.174a.496.496 0 0 0 .478.478h5.739a.492.492 0 0 0 .478-.478v-7.174h7.174a.493.493 0 0 0 .478-.478v-5.74a.497.497 0 0 0-.478-.477h-7.174v-7.174a.497.497 0 0 0-.478-.479h-5.74c-.263.009-.471.264-.477.479Zm.956.478h4.783v7.174a.497.497 0 0 0 .478.478h7.174v4.783h-7.174a.497.497 0 0 0-.478.478v7.174h-4.783v-7.174a.498.498 0 0 0-.478-.478H10.19v-4.783h7.174a.497.497 0 0 0 .478-.478v-7.174Z"/><circle cx="393.733" cy="19.857" r="19.5" fill="#454545"/><path fill="#fff" d="M390.886 9.836v7.174h-7.174a.494.494 0 0 0-.479.478v5.739a.498.498 0 0 0 .479.478h7.174v7.174a.492.492 0 0 0 .478.478h5.739a.498.498 0 0 0 .478-.478v-7.174h7.174a.498.498 0 0 0 .478-.478v-5.74a.493.493 0 0 0-.478-.477h-7.174V9.836a.492.492 0 0 0-.478-.479h-5.739c-.264.009-.472.263-.478.479Zm.956.478h4.783v7.174a.492.492 0 0 0 .478.478h7.174v4.783h-7.174a.499.499 0 0 0-.478.478v7.174h-4.783v-7.174a.497.497 0 0 0-.478-.478h-7.174v-4.783h7.174a.498.498 0 0 0 .478-.478v-7.174Z"/><circle cx="203.733" cy="244.857" r="19.5" fill="#454545"/><path fill="#fff" d="M200.886 234.836v7.174h-7.174a.5.5 0 0 0-.479.478v5.739a.5.5 0 0 0 .479.478h7.174v7.174a.492.492 0 0 0 .478.478h5.739a.494.494 0 0 0 .478-.478v-7.174h7.174a.494.494 0 0 0 .478-.478v-5.739a.494.494 0 0 0-.478-.478h-7.174v-7.174a.5.5 0 0 0-.478-.479h-5.739c-.264.009-.472.263-.478.479Zm.956.478h4.783v7.174a.494.494 0 0 0 .478.478h7.174v4.783h-7.174a.494.494 0 0 0-.478.478v7.174h-4.783v-7.174a.498.498 0 0 0-.478-.478h-7.174v-4.783h7.174a.498.498 0 0 0 .478-.478v-7.174Z"/><circle cx="24.733" cy="210.857" r="19.5" fill="#454545"/><path fill="#fff" d="M21.886 200.836v7.174h-7.174a.493.493 0 0 0-.479.478v5.739a.498.498 0 0 0 .479.478h7.174v7.174a.496.496 0 0 0 .478.478h5.739a.492.492 0 0 0 .478-.478v-7.174h7.174a.493.493 0 0 0 .478-.478v-5.739a.498.498 0 0 0-.478-.478h-7.174v-7.174a.494.494 0 0 0-.478-.479h-5.74c-.263.009-.471.263-.477.479Zm.956.478h4.783v7.174a.498.498 0 0 0 .478.478h7.174v4.783h-7.174a.493.493 0 0 0-.478.478v7.174h-4.783v-7.174a.498.498 0 0 0-.478-.478H15.19v-4.783h7.174a.497.497 0 0 0 .478-.478v-7.174Z"/><circle cx="461.733" cy="248.857" r="19.5" fill="#454545"/><path fill="#fff" d="M459.091 256.593a.567.567 0 0 0 .404-.172.588.588 0 0 0 .167-.412v-5.839a.59.59 0 0 0-.167-.413.562.562 0 0 0-.808 0 .59.59 0 0 0-.167.413v5.839c0 .155.06.303.167.412.107.11.253.172.404.172ZM462.234 256.593a.563.563 0 0 0 .403-.172.589.589 0 0 0 .168-.412v-5.839a.59.59 0 0 0-.167-.413.566.566 0 0 0-.809 0 .59.59 0 0 0-.167.413v5.839a.593.593 0 0 0 .168.412c.107.11.252.172.404.172ZM465.376 256.593a.565.565 0 0 0 .404-.172.588.588 0 0 0 .167-.412v-5.839a.591.591 0 0 0-.167-.413.57.57 0 0 0-.623-.127.587.587 0 0 0-.352.54v5.839c0 .155.06.303.167.412.107.11.253.172.404.172Z"/><path fill="#fff" d="M473.662 246.959h-22.857a.562.562 0 0 0-.404.171.59.59 0 0 0 0 .826.566.566 0 0 0 .404.171h1.571l2.743 10.656a.56.56 0 0 0 .196.317c.099.08.221.123.347.121h13.143a.538.538 0 0 0 .347-.121.56.56 0 0 0 .196-.317l2.743-10.656h1.571a.566.566 0 0 0 .404-.171.592.592 0 0 0 0-.826.562.562 0 0 0-.404-.171Zm-5.286 11.094h-12.285l-2.543-9.926h17.371l-2.543 9.926ZM459.776 238.754l-4.572 6.713c-.171.261-.114.643.143.818.091.07.2.112.314.121.172 0 .372-.088.46-.261l4.571-6.715c.171-.261.114-.643-.143-.818-.255-.204-.6-.116-.771.146l-.002-.004ZM463.917 238.608c-.255.175-.314.555-.143.818l4.572 6.715a.56.56 0 0 0 .197.19.536.536 0 0 0 .431.045.423.423 0 0 0 .145-.091c.255-.175.315-.555.143-.818l-4.571-6.715c-.172-.261-.515-.35-.772-.146l-.002.002Z"/><circle cx="587.733" cy="258.857" r="19.5" fill="#454545"/><path fill="#fff" d="M585.091 266.593a.567.567 0 0 0 .404-.172.588.588 0 0 0 .167-.412v-5.839a.59.59 0 0 0-.167-.413.562.562 0 0 0-.808 0 .59.59 0 0 0-.167.413v5.839c0 .155.06.303.167.412.107.11.253.172.404.172ZM588.234 266.593a.563.563 0 0 0 .403-.172.589.589 0 0 0 .168-.412v-5.839a.59.59 0 0 0-.167-.413.566.566 0 0 0-.809 0 .59.59 0 0 0-.167.413v5.839a.593.593 0 0 0 .168.412c.107.11.252.172.404.172ZM591.376 266.593a.565.565 0 0 0 .404-.172.588.588 0 0 0 .167-.412v-5.839a.591.591 0 0 0-.167-.413.57.57 0 0 0-.623-.127.587.587 0 0 0-.352.54v5.839c0 .155.06.303.167.412.107.11.253.172.404.172Z"/><path fill="#fff" d="M599.662 256.959h-22.857a.562.562 0 0 0-.404.171.59.59 0 0 0 0 .826.566.566 0 0 0 .404.171h1.571l2.743 10.656a.56.56 0 0 0 .196.317c.099.08.221.123.347.121h13.143a.538.538 0 0 0 .347-.121.56.56 0 0 0 .196-.317l2.743-10.656h1.571a.566.566 0 0 0 .404-.171.592.592 0 0 0 0-.826.562.562 0 0 0-.404-.171Zm-5.286 11.094h-12.285l-2.543-9.926h17.371l-2.543 9.926ZM585.776 248.754l-4.572 6.713c-.171.261-.114.643.143.818.091.07.2.112.314.121.172 0 .372-.088.46-.261l4.571-6.715c.171-.261.114-.643-.143-.818-.255-.204-.6-.116-.771.146l-.002-.004ZM589.917 248.608c-.255.175-.314.555-.143.818l4.572 6.715a.56.56 0 0 0 .197.19.536.536 0 0 0 .431.045.423.423 0 0 0 .145-.091c.255-.175.315-.555.143-.818l-4.571-6.715c-.172-.261-.515-.35-.772-.146l-.002.002Z"/><circle cx="505.733" cy="118.857" r="19.5" fill="#454545"/><path fill="#fff" d="M503.091 126.593a.567.567 0 0 0 .404-.172.588.588 0 0 0 .167-.412v-5.839a.59.59 0 0 0-.167-.413.562.562 0 0 0-.808 0 .59.59 0 0 0-.167.413v5.839c0 .155.06.303.167.412.107.11.253.172.404.172ZM506.234 126.593a.563.563 0 0 0 .403-.172.589.589 0 0 0 .168-.412v-5.839a.59.59 0 0 0-.167-.413.566.566 0 0 0-.809 0 .59.59 0 0 0-.167.413v5.839a.593.593 0 0 0 .168.412c.107.11.252.172.404.172ZM509.376 126.593a.568.568 0 0 0 .404-.171.592.592 0 0 0 .167-.413v-5.839a.591.591 0 0 0-.167-.413.57.57 0 0 0-.623-.127.587.587 0 0 0-.352.54v5.839c0 .155.06.303.167.413a.568.568 0 0 0 .404.171Z"/><path fill="#fff" d="M517.662 116.959h-22.857a.562.562 0 0 0-.404.171.59.59 0 0 0 0 .826.566.566 0 0 0 .404.171h1.571l2.743 10.656a.56.56 0 0 0 .196.317c.099.08.221.123.347.121h13.143a.538.538 0 0 0 .347-.121.56.56 0 0 0 .196-.317l2.743-10.656h1.571a.566.566 0 0 0 .404-.171.592.592 0 0 0 0-.826.562.562 0 0 0-.404-.171Zm-5.286 11.094h-12.285l-2.543-9.926h17.371l-2.543 9.926ZM503.776 108.754l-4.572 6.713c-.171.261-.114.643.143.818.091.07.2.112.314.121.172 0 .372-.088.46-.261l4.571-6.715c.171-.261.114-.643-.143-.818-.255-.204-.6-.116-.771.146l-.002-.004ZM507.917 108.608c-.255.175-.314.555-.143.818l4.572 6.715a.56.56 0 0 0 .197.19.536.536 0 0 0 .431.045.423.423 0 0 0 .145-.091c.255-.175.315-.555.143-.818l-4.571-6.715c-.172-.261-.515-.35-.772-.146l-.002.002Z"/><circle cx="436.733" cy="201.857" r="19.5" fill="#454545"/><path fill="#fff" d="M434.091 209.593a.567.567 0 0 0 .404-.172.588.588 0 0 0 .167-.412v-5.839a.59.59 0 0 0-.167-.413.562.562 0 0 0-.808 0 .59.59 0 0 0-.167.413v5.839c0 .155.06.303.167.412.107.11.253.172.404.172ZM437.234 209.593a.563.563 0 0 0 .403-.172.589.589 0 0 0 .168-.412v-5.839a.59.59 0 0 0-.167-.413.566.566 0 0 0-.809 0 .59.59 0 0 0-.167.413v5.839a.593.593 0 0 0 .168.412c.107.11.252.172.404.172ZM440.376 209.593a.565.565 0 0 0 .404-.172.588.588 0 0 0 .167-.412v-5.839a.591.591 0 0 0-.167-.413.57.57 0 0 0-.623-.127.587.587 0 0 0-.352.54v5.839c0 .155.06.303.167.412.107.11.253.172.404.172Z"/><path fill="#fff" d="M448.662 199.959h-22.857a.562.562 0 0 0-.404.171.59.59 0 0 0 0 .826.566.566 0 0 0 .404.171h1.571l2.743 10.656a.56.56 0 0 0 .196.317c.099.08.221.123.347.121h13.143a.538.538 0 0 0 .347-.121.56.56 0 0 0 .196-.317l2.743-10.656h1.571a.566.566 0 0 0 .404-.171.592.592 0 0 0 0-.826.562.562 0 0 0-.404-.171Zm-5.286 11.094h-12.285l-2.543-9.926h17.371l-2.543 9.926ZM434.776 191.754l-4.572 6.713c-.171.261-.114.643.143.818.091.07.2.112.314.121.172 0 .372-.088.46-.261l4.571-6.715c.171-.261.114-.643-.143-.818-.255-.204-.6-.116-.771.146l-.002-.004ZM438.917 191.608c-.255.175-.314.555-.143.818l4.572 6.715a.56.56 0 0 0 .197.19.536.536 0 0 0 .431.045.423.423 0 0 0 .145-.091c.255-.175.315-.555.143-.818l-4.571-6.715c-.172-.261-.515-.35-.772-.146l-.002.002Z"/><circle cx="432.733" cy="94.857" r="19.5" fill="#454545"/><path fill="#fff" d="M430.091 102.593a.567.567 0 0 0 .404-.172.588.588 0 0 0 .167-.412v-5.84a.59.59 0 0 0-.167-.412.564.564 0 0 0-.808 0 .59.59 0 0 0-.167.413v5.839c0 .155.06.303.167.412.107.11.253.172.404.172ZM433.234 102.593a.563.563 0 0 0 .403-.172.589.589 0 0 0 .168-.412v-5.84a.59.59 0 0 0-.167-.412.568.568 0 0 0-.809 0 .59.59 0 0 0-.167.413v5.839a.593.593 0 0 0 .168.412c.107.11.252.172.404.172ZM436.376 102.593a.568.568 0 0 0 .404-.171.592.592 0 0 0 .167-.413v-5.84a.59.59 0 0 0-.352-.539.566.566 0 0 0-.747.316.59.59 0 0 0-.043.224v5.839c0 .155.06.303.167.413a.568.568 0 0 0 .404.171Z"/><path fill="#fff" d="M444.662 92.959h-22.857a.564.564 0 0 0-.404.17.592.592 0 0 0 0 .827c.107.11.252.17.404.17h1.571l2.743 10.657a.56.56 0 0 0 .196.317c.099.08.221.123.347.121h13.143a.538.538 0 0 0 .347-.121.56.56 0 0 0 .196-.317l2.743-10.656h1.571a.564.564 0 0 0 .404-.171.591.591 0 0 0 0-.826.564.564 0 0 0-.404-.171Zm-5.286 11.094h-12.285l-2.543-9.926h17.371l-2.543 9.926ZM430.776 84.754l-4.572 6.713c-.171.26-.114.642.143.818.091.07.2.112.314.12.172 0 .372-.087.46-.26l4.571-6.715c.171-.26.114-.643-.143-.818-.255-.204-.6-.116-.771.146l-.002-.004ZM434.917 84.608c-.255.175-.314.555-.143.818l4.572 6.715a.554.554 0 0 0 .459.26.423.423 0 0 0 .314-.116c.255-.175.315-.555.143-.818l-4.571-6.715c-.172-.26-.515-.35-.772-.146l-.002.002Z"/><circle cx="212.733" cy="145.857" r="19.5" fill="#454545"/><path fill="#fff" d="M210.091 153.593a.567.567 0 0 0 .404-.172.588.588 0 0 0 .167-.412v-5.839a.59.59 0 0 0-.167-.413.562.562 0 0 0-.808 0 .59.59 0 0 0-.167.413v5.839c0 .155.06.303.167.412.107.11.253.172.404.172ZM213.234 153.593a.563.563 0 0 0 .403-.172.589.589 0 0 0 .168-.412v-5.839a.59.59 0 0 0-.167-.413.566.566 0 0 0-.809 0 .59.59 0 0 0-.167.413v5.839a.593.593 0 0 0 .168.412c.107.11.252.172.404.172ZM216.376 153.593a.568.568 0 0 0 .404-.171.592.592 0 0 0 .167-.413v-5.839a.591.591 0 0 0-.167-.413.57.57 0 0 0-.623-.127.587.587 0 0 0-.352.54v5.839c0 .155.06.303.167.413a.568.568 0 0 0 .404.171Z"/><path fill="#fff" d="M224.662 143.959h-22.857a.562.562 0 0 0-.404.171.59.59 0 0 0 0 .826.566.566 0 0 0 .404.171h1.571l2.743 10.656a.56.56 0 0 0 .196.317c.099.08.221.123.347.121h13.143a.538.538 0 0 0 .347-.121.56.56 0 0 0 .196-.317l2.743-10.656h1.571a.566.566 0 0 0 .404-.171.592.592 0 0 0 0-.826.562.562 0 0 0-.404-.171Zm-5.286 11.094h-12.285l-2.543-9.926h17.371l-2.543 9.926ZM210.776 135.754l-4.572 6.713c-.171.261-.114.643.143.818.091.07.2.112.314.121.172 0 .372-.088.46-.261l4.571-6.715c.171-.261.114-.643-.143-.818-.255-.204-.6-.116-.771.146l-.002-.004ZM214.917 135.608c-.255.175-.314.555-.143.818l4.572 6.715a.56.56 0 0 0 .197.19.536.536 0 0 0 .431.045.423.423 0 0 0 .145-.091c.255-.175.315-.555.143-.818l-4.571-6.715c-.172-.261-.515-.35-.772-.146l-.002.002Z"/><circle cx="95.733" cy="74.857" r="19.5" fill="#454545"/><path fill="#fff" d="M93.091 82.593a.567.567 0 0 0 .404-.172.592.592 0 0 0 .167-.412v-5.84a.59.59 0 0 0-.167-.412.565.565 0 0 0-.808 0 .59.59 0 0 0-.168.413v5.839c0 .155.061.303.168.412.107.11.252.172.404.172ZM96.234 82.593a.567.567 0 0 0 .403-.172.592.592 0 0 0 .168-.412v-5.84a.59.59 0 0 0-.167-.412.565.565 0 0 0-.809 0 .59.59 0 0 0-.167.413v5.839c0 .155.06.303.168.412.107.11.252.172.404.172ZM99.376 82.593a.567.567 0 0 0 .404-.172.592.592 0 0 0 .168-.412v-5.84a.596.596 0 0 0-.168-.412.571.571 0 0 0-.404-.171.56.56 0 0 0-.404.17.584.584 0 0 0-.167.414v5.84c0 .154.06.302.167.411.108.11.253.172.404.172Z"/><path fill="#fff" d="M107.662 72.959H84.805a.565.565 0 0 0-.404.17.59.59 0 0 0 0 .827c.107.11.252.17.404.17h1.571l2.743 10.657a.565.565 0 0 0 .196.317c.099.08.221.123.347.121h13.143a.543.543 0 0 0 .347-.12.564.564 0 0 0 .196-.318l2.743-10.656h1.571a.564.564 0 0 0 .404-.171.591.591 0 0 0 0-.826.564.564 0 0 0-.404-.171Zm-5.286 11.094H90.091l-2.543-9.926h17.371l-2.543 9.926ZM93.776 64.754l-4.572 6.713c-.171.26-.114.642.143.818.091.07.2.112.314.12.172 0 .372-.087.46-.26l4.571-6.715c.171-.26.114-.643-.143-.818-.255-.204-.6-.116-.771.146l-.002-.004ZM97.917 64.608c-.255.175-.314.555-.143.818l4.572 6.715a.554.554 0 0 0 .459.26.423.423 0 0 0 .314-.116c.255-.175.315-.555.143-.818l-4.571-6.715c-.172-.26-.515-.35-.772-.146l-.002.002Z"/><circle cx="646.733" cy="158.857" r="19.5" fill="#454545"/><path fill="#fff" d="M644.091 166.593a.567.567 0 0 0 .404-.172.588.588 0 0 0 .167-.412v-5.839a.59.59 0 0 0-.167-.413.562.562 0 0 0-.808 0 .59.59 0 0 0-.167.413v5.839c0 .155.06.303.167.412.107.11.253.172.404.172ZM647.234 166.593a.563.563 0 0 0 .403-.172.589.589 0 0 0 .168-.412v-5.839a.59.59 0 0 0-.167-.413.566.566 0 0 0-.809 0 .59.59 0 0 0-.167.413v5.839a.593.593 0 0 0 .168.412c.107.11.252.172.404.172ZM650.376 166.593a.565.565 0 0 0 .404-.172.588.588 0 0 0 .167-.412v-5.839a.591.591 0 0 0-.167-.413.57.57 0 0 0-.623-.127.587.587 0 0 0-.352.54v5.839c0 .155.06.303.167.412.107.11.253.172.404.172Z"/><path fill="#fff" d="M658.662 156.959h-22.857a.562.562 0 0 0-.404.171.59.59 0 0 0 0 .826.566.566 0 0 0 .404.171h1.571l2.743 10.656a.56.56 0 0 0 .196.317c.099.08.221.123.347.121h13.143a.538.538 0 0 0 .347-.121.56.56 0 0 0 .196-.317l2.743-10.656h1.571a.566.566 0 0 0 .404-.171.592.592 0 0 0 0-.826.562.562 0 0 0-.404-.171Zm-5.286 11.094h-12.285l-2.543-9.926h17.371l-2.543 9.926ZM644.776 148.754l-4.572 6.713c-.171.261-.114.643.143.818.091.07.2.112.314.121.172 0 .372-.088.46-.261l4.571-6.715c.171-.261.114-.643-.143-.818-.255-.204-.6-.116-.771.146l-.002-.004ZM648.917 148.608c-.255.175-.314.555-.143.818l4.572 6.715a.56.56 0 0 0 .197.19.536.536 0 0 0 .431.045.423.423 0 0 0 .145-.091c.255-.175.315-.555.143-.818l-4.571-6.715c-.172-.261-.515-.35-.772-.146l-.002.002Z"/><circle cx="255.733" cy="261.857" r="19.5" fill="#454545"/><path fill="#fff" d="M253.091 269.593a.567.567 0 0 0 .404-.172.588.588 0 0 0 .167-.412v-5.839a.59.59 0 0 0-.167-.413.562.562 0 0 0-.808 0 .59.59 0 0 0-.167.413v5.839c0 .155.06.303.167.412.107.11.253.172.404.172ZM256.234 269.593a.563.563 0 0 0 .403-.172.589.589 0 0 0 .168-.412v-5.839a.59.59 0 0 0-.167-.413.566.566 0 0 0-.809 0 .59.59 0 0 0-.167.413v5.839a.593.593 0 0 0 .168.412c.107.11.252.172.404.172ZM259.376 269.593a.565.565 0 0 0 .404-.172.588.588 0 0 0 .167-.412v-5.839a.591.591 0 0 0-.167-.413.57.57 0 0 0-.623-.127.587.587 0 0 0-.352.54v5.839c0 .155.06.303.167.412.107.11.253.172.404.172Z"/><path fill="#fff" d="M267.662 259.959h-22.857a.562.562 0 0 0-.404.171.59.59 0 0 0 0 .826.566.566 0 0 0 .404.171h1.571l2.743 10.656a.56.56 0 0 0 .196.317c.099.08.221.123.347.121h13.143a.538.538 0 0 0 .347-.121.56.56 0 0 0 .196-.317l2.743-10.656h1.571a.566.566 0 0 0 .404-.171.592.592 0 0 0 0-.826.562.562 0 0 0-.404-.171Zm-5.286 11.094h-12.285l-2.543-9.926h17.371l-2.543 9.926ZM253.776 251.754l-4.572 6.713c-.171.261-.114.643.143.818.091.07.2.112.314.121.172 0 .372-.088.46-.261l4.571-6.715c.171-.261.114-.643-.143-.818-.255-.204-.6-.116-.771.146l-.002-.004ZM257.917 251.608c-.255.175-.314.555-.143.818l4.572 6.715a.56.56 0 0 0 .197.19.536.536 0 0 0 .431.045.423.423 0 0 0 .145-.091c.255-.175.315-.555.143-.818l-4.571-6.715c-.172-.261-.515-.35-.772-.146l-.002.002Z"/><circle cx="63.733" cy="216.857" r="19.5" fill="#454545"/><path fill="#fff" d="M61.091 224.593a.563.563 0 0 0 .404-.172.59.59 0 0 0 .167-.412v-5.839a.59.59 0 0 0-.167-.413.563.563 0 0 0-.808 0 .59.59 0 0 0-.167.413v5.839c0 .155.06.303.167.412.107.11.253.172.404.172ZM64.234 224.593a.563.563 0 0 0 .403-.172.59.59 0 0 0 .168-.412v-5.839a.59.59 0 0 0-.167-.413.563.563 0 0 0-.809 0 .59.59 0 0 0-.167.413v5.839c0 .155.06.303.168.412.107.11.252.172.404.172ZM67.376 224.593a.563.563 0 0 0 .404-.172.59.59 0 0 0 .168-.412v-5.839a.598.598 0 0 0-.168-.413.566.566 0 0 0-.932.189.598.598 0 0 0-.043.224v5.839c0 .155.06.303.167.412.108.11.253.172.404.172Z"/><path fill="#fff" d="M75.662 214.959H52.805a.563.563 0 0 0-.404.171.59.59 0 0 0 0 .826.567.567 0 0 0 .404.171h1.571l2.743 10.656a.56.56 0 0 0 .196.317c.099.08.221.123.347.121h13.143a.538.538 0 0 0 .347-.121.56.56 0 0 0 .196-.317l2.743-10.656h1.571a.567.567 0 0 0 .404-.171.591.591 0 0 0 0-.826.563.563 0 0 0-.404-.171Zm-5.286 11.094H58.09l-2.542-9.926h17.371l-2.543 9.926ZM61.776 206.754l-4.572 6.713c-.171.261-.114.643.143.818.091.07.2.112.314.121.172 0 .372-.088.46-.261l4.571-6.715c.171-.261.114-.643-.143-.818-.255-.204-.6-.116-.771.146l-.002-.004ZM65.917 206.608c-.255.175-.314.555-.143.818l4.572 6.715a.56.56 0 0 0 .197.19.538.538 0 0 0 .43.045.427.427 0 0 0 .146-.091c.255-.175.315-.555.143-.818l-4.571-6.715c-.172-.261-.515-.35-.772-.146l-.002.002Z"/><circle cx="38.733" cy="282.857" r="19.5" fill="#454545"/><path fill="#fff" d="M36.091 290.593a.563.563 0 0 0 .404-.172.59.59 0 0 0 .167-.412v-5.839a.59.59 0 0 0-.167-.413.563.563 0 0 0-.808 0 .59.59 0 0 0-.167.413v5.839c0 .155.06.303.167.412.107.11.253.172.404.172ZM39.233 290.593a.563.563 0 0 0 .404-.172.59.59 0 0 0 .168-.412v-5.839a.59.59 0 0 0-.167-.413.563.563 0 0 0-.808 0 .59.59 0 0 0-.168.413v5.839c0 .155.06.303.168.412.107.11.252.172.404.172ZM42.376 290.593a.563.563 0 0 0 .404-.172.59.59 0 0 0 .167-.412v-5.839a.598.598 0 0 0-.167-.413.566.566 0 0 0-.932.189.598.598 0 0 0-.043.224v5.839c0 .155.06.303.167.412.108.11.253.172.404.172Z"/><path fill="#fff" d="M50.662 280.959H27.805a.563.563 0 0 0-.404.171.59.59 0 0 0 0 .826.567.567 0 0 0 .404.171h1.571l2.743 10.656a.56.56 0 0 0 .196.317c.099.08.221.123.347.121h13.143a.538.538 0 0 0 .347-.121.56.56 0 0 0 .196-.317l2.742-10.656h1.572a.567.567 0 0 0 .404-.171.591.591 0 0 0 0-.826.563.563 0 0 0-.404-.171Zm-5.286 11.094H33.091l-2.543-9.926h17.371l-2.543 9.926ZM36.776 272.754l-4.572 6.713c-.171.261-.114.643.143.818.091.07.2.112.314.121.172 0 .372-.088.46-.261l4.571-6.715c.171-.261.114-.643-.143-.818-.255-.204-.6-.116-.771.146l-.002-.004ZM40.917 272.608c-.255.175-.314.555-.143.818l4.572 6.715a.56.56 0 0 0 .197.19.538.538 0 0 0 .43.045.427.427 0 0 0 .146-.091c.255-.175.315-.555.143-.818l-4.571-6.715c-.172-.261-.515-.35-.772-.146l-.002.002Z"/><circle cx="194.733" cy="321.857" r="19.5" fill="#454545"/><path fill="#fff" d="M192.091 329.593a.567.567 0 0 0 .404-.172.588.588 0 0 0 .167-.412v-5.839a.59.59 0 0 0-.167-.413.562.562 0 0 0-.808 0 .59.59 0 0 0-.167.413v5.839c0 .155.06.303.167.412.107.11.253.172.404.172ZM195.234 329.593a.563.563 0 0 0 .403-.172.589.589 0 0 0 .168-.412v-5.839a.59.59 0 0 0-.167-.413.566.566 0 0 0-.809 0 .59.59 0 0 0-.167.413v5.839a.593.593 0 0 0 .168.412c.107.11.252.172.404.172ZM198.376 329.593a.568.568 0 0 0 .404-.171.592.592 0 0 0 .167-.413v-5.839a.591.591 0 0 0-.167-.413.57.57 0 0 0-.623-.127.587.587 0 0 0-.352.54v5.839c0 .155.06.303.167.413a.568.568 0 0 0 .404.171Z"/><path fill="#fff" d="M206.662 319.959h-22.857a.562.562 0 0 0-.404.171.59.59 0 0 0 0 .826.566.566 0 0 0 .404.171h1.571l2.743 10.656a.56.56 0 0 0 .196.317c.099.08.221.123.347.121h13.143a.538.538 0 0 0 .347-.121.56.56 0 0 0 .196-.317l2.743-10.656h1.571a.566.566 0 0 0 .404-.171.592.592 0 0 0 0-.826.562.562 0 0 0-.404-.171Zm-5.286 11.094h-12.285l-2.543-9.926h17.371l-2.543 9.926ZM192.776 311.754l-4.572 6.713c-.171.261-.114.643.143.818.091.07.2.112.314.121.172 0 .372-.088.46-.261l4.571-6.715c.171-.261.114-.643-.143-.818-.255-.204-.6-.116-.771.146l-.002-.004ZM196.917 311.608c-.255.175-.314.555-.143.818l4.572 6.715a.56.56 0 0 0 .197.19.536.536 0 0 0 .431.045.423.423 0 0 0 .145-.091c.255-.175.315-.555.143-.818l-4.571-6.715c-.172-.261-.515-.35-.772-.146l-.002.002Z"/><circle cx="451.733" cy="303.857" r="19.5" fill="#454545"/><path fill="#fff" d="m463.907 303.953-7.174-1.596v-3.416l-.003-.016a.41.41 0 0 0-.029-.143c-.002-.006-.007-.011-.01-.018a.412.412 0 0 0-.048-.081l-4.493-5.719v-1.524h.833v-.833h-.833v-1.25h-.833v1.25h-.834v.834h.834v1.524l-4.495 5.719a.463.463 0 0 0-.047.081l-.01.017a.414.414 0 0 0-.029.143c0 .006-.003.011-.003.016v3.416l-7.173 1.596a.417.417 0 0 0-.327.407v9.581a.414.414 0 0 0 .258.385.41.41 0 0 0 .159.031h24.167a.413.413 0 0 0 .416-.416v-9.584a.418.418 0 0 0-.326-.406v.002Zm-8.007 9.572h-1.667v-5.417a2.5 2.5 0 1 0-5 0v5.417h-1.666v-14.167h8.333v14.167Zm-4.167-19.743 3.726 4.743h-7.451l3.725-4.743Zm-11.666 10.91 6.666-1.481v10.314h-6.666v-8.833Zm10 8.833v-5.417a1.667 1.667 0 1 1 3.333 0v5.417h-3.333Zm13.333 0h-6.667v-10.314l6.667 1.481v8.833Z"/><path fill="#fff" d="M451.734 301.025a1.664 1.664 0 0 0-1.178 2.845 1.665 1.665 0 0 0 2.564-.253 1.667 1.667 0 0 0-1.386-2.592Zm0 2.5a.83.83 0 0 1-.77-.515.834.834 0 1 1 .77.515ZM458.4 310.608h3.333a.42.42 0 0 0 .417-.417v-2.5a2.083 2.083 0 1 0-4.167 0v2.5a.42.42 0 0 0 .417.417Zm.417-2.917a1.25 1.25 0 1 1 2.5 0v2.084h-2.5v-2.084ZM443.4 305.608a2.086 2.086 0 0 0-2.084 2.083v2.5a.42.42 0 0 0 .417.417h3.333a.42.42 0 0 0 .417-.417v-2.5a2.084 2.084 0 0 0-2.083-2.083Zm1.25 4.167h-2.5v-2.084a1.25 1.25 0 1 1 2.5 0v2.084Z"/></svg>