<svg width="65" height="73" fill="none" xmlns="http://www.w3.org/2000/svg"><circle cx="32.233" cy="32.357" r="32" fill="#DBBC9A"/><path d="m32.733 72.357-5.629-10.5h11.259l-5.63 10.5Z" fill="#DBBC9A"/><path d="m12.233 25.811 1.14-.838v21.463h-1.14V25.811ZM16.087 23.295v23.14h-1.132v-2.979h.566V29.022l-.566.419V24.13l1.132-.835ZM18.808 21.613v24.823h-1.137v-2.98h.566V27.35l-.566.419v-5.312l1.137-.843ZM21.528 19.935v26.501h-1.14v-2.98h.568V25.669l-.568.413v-5.308l1.14-.838ZM24.248 18.248v28.188h-1.14v-2.98h.565V23.985l-.566.416v-5.308l1.14-.844ZM26.966 16.57v29.866h-1.14v-2.98h.575V22.298l-.575.425v-5.309l1.14-.843ZM29.766 16.873v29.563h-1.302v-2.98h.646V21.926l-.646-.26v-5.308l1.302.516ZM32.486 17.914v28.522h-1.302v-2.98h.646v-20.49l-.646-.264v-5.309l1.302.521ZM35.202 18.957v27.48h-1.299v-2.98h.647V24.003l-.647-.259v-5.308l1.3.52ZM37.92 19.998v26.438h-1.299v-2.98h.652v-18.41l-.652-.257v-5.312l1.3.521ZM40.64 21.035v25.402h-1.298v-2.98h.646v-17.37l-.646-.264v-5.3l1.299.512ZM43.36 22.08v24.356h-1.302v-2.98h.655V27.128l-.655-.261v-5.312l1.301.524ZM46.08 23.121v23.315h-1.303v-2.98h.647V28.165l-.647-.256V22.6l1.302.521ZM48.798 24.163v22.274h-1.302v-2.98h.652V29.21l-.652-.259v-5.308l1.302.52ZM51.517 25.2v21.236h-1.302v-2.98h.646V30.253l-.646-.265V24.68l1.302.52ZM52.935 25.72l1.298.521v20.195h-1.298V25.72Z" fill="#000"/></svg>