<svg xmlns="http://www.w3.org/2000/svg" width="64" height="72" fill="none"><circle cx="32" cy="32" r="32" fill="#000"/><path fill="#000" d="m32.5 72-5.63-10.5h11.26L32.5 72Z"/><path fill="#DBBC9A" d="m12 25.454 1.14-.838v21.463H12V25.454ZM15.854 22.937v23.141h-1.132V43.1h.566V28.665l-.566.419v-5.312l1.132-.835ZM18.575 21.256v24.822h-1.137v-2.98h.565V26.992l-.566.42v-5.312l1.138-.843ZM21.294 19.578v26.5h-1.14V43.1h.569V25.311l-.569.413v-5.308l1.14-.838ZM24.014 17.89V46.08h-1.14v-2.98h.566V23.627l-.566.416v-5.309l1.14-.843ZM26.733 16.212V46.08h-1.14v-2.98h.574V21.94l-.574.425v-5.308l1.14-.844ZM29.532 16.515V46.08H28.23v-2.98h.647V21.568l-.646-.26V16l1.301.515ZM32.252 17.557v28.521h-1.301v-2.98h.646V22.61l-.646-.265v-5.308l1.301.52ZM34.969 18.6v27.479h-1.3v-2.98h.648V23.646l-.647-.26v-5.308l1.299.521ZM37.687 19.641v26.438h-1.299v-2.98h.653V24.688l-.653-.257v-5.31l1.3.52ZM40.408 20.678v25.401h-1.3V43.1h.648V25.73l-.647-.265v-5.3l1.299.513ZM43.126 21.722v24.356h-1.302v-2.98h.655V26.772l-.655-.262v-5.311l1.302.524ZM45.846 22.764v23.314h-1.302V43.1h.647V27.808l-.647-.257v-5.308l1.302.52ZM48.565 23.806V46.08h-1.302V43.1h.653V28.854l-.653-.26v-5.308l1.302.521ZM51.283 24.842V46.08h-1.302v-2.98h.647V29.894l-.647-.264V24.32l1.302.521ZM52.701 25.363l1.3.52v20.195h-1.3V25.363Z"/></svg>