<svg xmlns="http://www.w3.org/2000/svg" width="699" height="395" fill="none"><circle cx="679.5" cy="24.5" r="19.5" fill="#5B5B5B"/><path fill="#fff" stroke="#5B5B5B" stroke-width=".4" d="m693.571 21.4-13.873-4.377a.856.856 0 0 0-.397 0L665.458 21.4a.649.649 0 0 0-.328.235.668.668 0 0 0-.13.385c0 .277.183.559.458.62l5.898 1.862v5.706c-.001.29.079.576.23.823.152.246.368.445.625.573 1.07.527 3.423 1.396 7.304 1.396 3.88 0 6.233-.869 7.303-1.396.257-.128.473-.327.625-.573.151-.247.231-.532.23-.823v-5.677l2.809-.898v2.513c-.764.277-1.344 1.024-1.344 1.893-.003.37.095.736.283 1.054.189.318.46.578.784.75a1.961 1.961 0 0 0 2.068-.144 2.022 2.022 0 0 0 .817-1.934 2.034 2.034 0 0 0-.438-.998c-.233-.286-.54-.5-.886-.62V23.23l1.772-.558a.66.66 0 0 0 .458-.62.614.614 0 0 0-.427-.652h.002Zm-2.445 7.383a.708.708 0 0 1-.649-.44.726.726 0 0 1 .152-.778.693.693 0 0 1 1.082.108.723.723 0 0 1 .118.397.717.717 0 0 1-.202.508.697.697 0 0 1-.501.205ZM679.515 18.36l11.672 3.692-11.672 3.692-11.673-3.692 11.673-3.691Zm6.875 11.882a.26.26 0 0 1-.122.217c-.764.373-2.995 1.275-6.723 1.275-3.758 0-5.958-.9-6.722-1.275-.092-.03-.123-.124-.123-.217v-5.305l6.662 2.11a.556.556 0 0 0 .366 0l6.662-2.11v5.305Z"/><circle cx="607.5" cy="288.5" r="19.5" fill="#5B5B5B"/><path fill="#fff" stroke="#5B5B5B" stroke-width=".4" d="m621.571 285.4-13.873-4.377a.859.859 0 0 0-.397 0l-13.843 4.377a.665.665 0 0 0-.458.62c0 .277.183.559.458.621l5.898 1.861v5.706a1.547 1.547 0 0 0 .855 1.396c1.07.527 3.423 1.396 7.304 1.396 3.88 0 6.233-.869 7.303-1.396a1.547 1.547 0 0 0 .855-1.396v-5.677l2.809-.898v2.513c-.764.277-1.344 1.024-1.344 1.893a2.04 2.04 0 0 0 .283 1.054c.189.318.46.578.784.749a1.962 1.962 0 0 0 2.068-.143 2.023 2.023 0 0 0 .817-1.934 2.03 2.03 0 0 0-.438-.998 1.981 1.981 0 0 0-.886-.621v-2.916l1.772-.558a.657.657 0 0 0 .458-.621.613.613 0 0 0-.427-.651h.002Zm-2.445 7.383a.695.695 0 0 1-.39-.12.712.712 0 0 1-.299-.733.72.72 0 0 1 .192-.365.698.698 0 0 1 1.082.108.724.724 0 0 1 .118.397.72.72 0 0 1-.202.508.7.7 0 0 1-.501.205Zm-11.611-10.423 11.672 3.691-11.672 3.692-11.673-3.692 11.673-3.691Zm6.875 11.881a.259.259 0 0 1-.122.217c-.764.373-2.995 1.275-6.723 1.275-3.758 0-5.958-.9-6.722-1.275-.092-.031-.123-.124-.123-.217v-5.305l6.662 2.11a.56.56 0 0 0 .366 0l6.662-2.11v5.305Z"/><circle cx="401.5" cy="371.5" r="19.5" fill="#5B5B5B"/><path fill="#fff" stroke="#5B5B5B" stroke-width=".4" d="m415.571 368.4-13.873-4.377a.859.859 0 0 0-.397 0l-13.843 4.377a.665.665 0 0 0-.458.62c0 .277.183.559.458.621l5.898 1.861v5.706a1.547 1.547 0 0 0 .855 1.396c1.07.527 3.423 1.396 7.304 1.396 3.88 0 6.233-.869 7.303-1.396a1.547 1.547 0 0 0 .855-1.396v-5.677l2.809-.898v2.513c-.764.277-1.344 1.024-1.344 1.893a2.04 2.04 0 0 0 .283 1.054c.189.318.46.578.784.749a1.962 1.962 0 0 0 2.068-.143 2.023 2.023 0 0 0 .817-1.934 2.03 2.03 0 0 0-.438-.998 1.981 1.981 0 0 0-.886-.621v-2.916l1.772-.558a.657.657 0 0 0 .458-.621.613.613 0 0 0-.427-.651h.002Zm-2.445 7.383a.695.695 0 0 1-.39-.12.712.712 0 0 1-.299-.733.72.72 0 0 1 .192-.365.698.698 0 0 1 1.082.108.724.724 0 0 1 .118.397.72.72 0 0 1-.202.508.7.7 0 0 1-.501.205Zm-11.611-10.423 11.672 3.691-11.672 3.692-11.673-3.692 11.673-3.691Zm6.875 11.881a.259.259 0 0 1-.122.217c-.764.373-2.995 1.275-6.723 1.275-3.758 0-5.958-.9-6.722-1.275-.092-.031-.123-.124-.123-.217v-5.305l6.662 2.11a.56.56 0 0 0 .366 0l6.662-2.11v5.305Z"/><circle cx="349.5" cy="342.5" r="19.5" fill="#5B5B5B"/><path fill="#fff" stroke="#5B5B5B" stroke-width=".4" d="m363.571 339.4-13.873-4.377a.859.859 0 0 0-.397 0l-13.843 4.377a.665.665 0 0 0-.458.62c0 .277.183.559.458.621l5.898 1.861v5.706a1.547 1.547 0 0 0 .855 1.396c1.07.527 3.423 1.396 7.304 1.396 3.88 0 6.233-.869 7.303-1.396a1.547 1.547 0 0 0 .855-1.396v-5.677l2.809-.898v2.513c-.764.277-1.344 1.024-1.344 1.893a2.04 2.04 0 0 0 .283 1.054c.189.318.46.578.784.749a1.962 1.962 0 0 0 2.068-.143 2.023 2.023 0 0 0 .817-1.934 2.03 2.03 0 0 0-.438-.998 1.981 1.981 0 0 0-.886-.621v-2.916l1.772-.558a.657.657 0 0 0 .458-.621.613.613 0 0 0-.427-.651h.002Zm-2.445 7.383a.695.695 0 0 1-.39-.12.712.712 0 0 1-.299-.733.72.72 0 0 1 .192-.365.698.698 0 0 1 1.082.108.724.724 0 0 1 .118.397.72.72 0 0 1-.202.508.7.7 0 0 1-.501.205Zm-11.611-10.423 11.672 3.691-11.672 3.692-11.673-3.692 11.673-3.691Zm6.875 11.881a.259.259 0 0 1-.122.217c-.764.373-2.995 1.275-6.723 1.275-3.758 0-5.958-.9-6.722-1.275-.092-.031-.123-.124-.123-.217v-5.305l6.662 2.11a.56.56 0 0 0 .366 0l6.662-2.11v5.305Z"/><circle cx="359.5" cy="208.5" r="19.5" fill="#5B5B5B"/><path fill="#fff" stroke="#5B5B5B" stroke-width=".4" d="m373.571 205.4-13.873-4.377a.859.859 0 0 0-.397 0l-13.843 4.377a.665.665 0 0 0-.458.62c0 .277.183.559.458.621l5.898 1.861v5.706a1.547 1.547 0 0 0 .855 1.396c1.07.527 3.423 1.396 7.304 1.396 3.88 0 6.233-.869 7.303-1.396a1.547 1.547 0 0 0 .855-1.396v-5.677l2.809-.898v2.513c-.764.277-1.344 1.024-1.344 1.893a2.04 2.04 0 0 0 .283 1.054c.189.318.46.578.784.749a1.962 1.962 0 0 0 2.068-.143 2.023 2.023 0 0 0 .817-1.934 2.03 2.03 0 0 0-.438-.998 1.981 1.981 0 0 0-.886-.621v-2.916l1.772-.558a.657.657 0 0 0 .458-.621.613.613 0 0 0-.427-.651h.002Zm-2.445 7.383a.695.695 0 0 1-.39-.12.712.712 0 0 1-.299-.733.72.72 0 0 1 .192-.365.698.698 0 0 1 1.082.108.724.724 0 0 1 .118.397.72.72 0 0 1-.202.508.7.7 0 0 1-.501.205Zm-11.611-10.423 11.672 3.691-11.672 3.692-11.673-3.692 11.673-3.691Zm6.875 11.881a.259.259 0 0 1-.122.217c-.764.373-2.995 1.275-6.723 1.275-3.758 0-5.958-.9-6.722-1.275-.092-.031-.123-.124-.123-.217v-5.305l6.662 2.11a.56.56 0 0 0 .366 0l6.662-2.11v5.305Z"/><circle cx="184.5" cy="57.5" r="19.5" fill="#5B5B5B"/><path fill="#fff" stroke="#5B5B5B" stroke-width=".4" d="m198.571 54.4-13.873-4.377a.856.856 0 0 0-.397 0L170.458 54.4a.649.649 0 0 0-.328.235.668.668 0 0 0-.13.385c0 .277.183.559.458.62l5.898 1.862v5.706c-.001.29.079.576.23.823.152.246.368.445.625.573 1.07.527 3.423 1.396 7.304 1.396 3.88 0 6.233-.869 7.303-1.396.257-.128.473-.327.625-.573.151-.247.231-.532.23-.823v-5.677l2.809-.898v2.513c-.764.277-1.344 1.024-1.344 1.893-.003.37.095.736.283 1.054.189.318.46.578.784.75a1.961 1.961 0 0 0 2.068-.144 2.022 2.022 0 0 0 .817-1.934 2.034 2.034 0 0 0-.438-.998c-.233-.286-.54-.5-.886-.62V56.23l1.772-.558a.66.66 0 0 0 .458-.62.614.614 0 0 0-.427-.652h.002Zm-2.445 7.383a.708.708 0 0 1-.649-.44.726.726 0 0 1 .152-.778.693.693 0 0 1 1.082.108.723.723 0 0 1 .118.397.717.717 0 0 1-.202.508.697.697 0 0 1-.501.205ZM184.515 51.36l11.672 3.692-11.672 3.692-11.673-3.692 11.673-3.692Zm6.875 11.882a.26.26 0 0 1-.122.217c-.764.373-2.995 1.275-6.723 1.275-3.758 0-5.958-.9-6.722-1.275-.092-.03-.123-.124-.123-.217v-5.305l6.662 2.11a.556.556 0 0 0 .366 0l6.662-2.11v5.305Z"/><circle cx="467.5" cy="146.5" r="19.5" fill="#5B5B5B"/><path fill="#fff" stroke="#5B5B5B" stroke-width=".4" d="m481.571 143.4-13.873-4.377a.859.859 0 0 0-.397 0l-13.843 4.377a.665.665 0 0 0-.458.62c0 .277.183.559.458.621l5.898 1.861v5.706a1.547 1.547 0 0 0 .855 1.396c1.07.527 3.423 1.396 7.304 1.396 3.88 0 6.233-.869 7.303-1.396a1.547 1.547 0 0 0 .855-1.396v-5.677l2.809-.898v2.513c-.764.277-1.344 1.024-1.344 1.893a2.04 2.04 0 0 0 .283 1.054c.189.318.46.578.784.749a1.962 1.962 0 0 0 2.068-.143 2.023 2.023 0 0 0 .817-1.934 2.03 2.03 0 0 0-.438-.998 1.981 1.981 0 0 0-.886-.621v-2.916l1.772-.558a.657.657 0 0 0 .458-.621.613.613 0 0 0-.427-.651h.002Zm-2.445 7.383a.695.695 0 0 1-.39-.12.712.712 0 0 1-.299-.733.72.72 0 0 1 .192-.365.698.698 0 0 1 1.082.108.724.724 0 0 1 .118.397.72.72 0 0 1-.202.508.7.7 0 0 1-.501.205Zm-11.611-10.423 11.672 3.691-11.672 3.692-11.673-3.692 11.673-3.691Zm6.875 11.881a.259.259 0 0 1-.122.217c-.764.373-2.995 1.275-6.723 1.275-3.758 0-5.958-.9-6.722-1.275-.092-.031-.123-.124-.123-.217v-5.305l6.662 2.11a.56.56 0 0 0 .366 0l6.662-2.11v5.305Z"/><circle cx="94.5" cy="127.5" r="21.5" fill="#5B5B5B"/><path fill="#fff" d="M104.044 134.738c.334-.16.713-.17 1.054-.028.341.142.617.425.768.788a1.664 1.664 0 0 1 .044 1.196 1.561 1.561 0 0 1-.298.52c-.131.15-.289.269-.463.35-3.433 1.619-6.892 2.436-10.28 2.436-3.387 0-6.76-.817-10.038-2.432a1.486 1.486 0 0 1-.738-.853 1.667 1.667 0 0 1 .029-1.173c.151-.371.431-.662.779-.808a1.3 1.3 0 0 1 1.074.028c.286.144.572.269.862.399l1.153-3.258c.458-1.293.515-2.686.168-3.926-.273-.971-.321-1.822-.163-2.547-.66-.312-.894-.226-.95-.187-.243.158-.256 1.013-.265 1.699l-.009.408c-.044 1.947-1.87 3.707-1.95 3.782a.43.43 0 0 1-.29.12.39.39 0 0 1-.242-.081.472.472 0 0 1-.172-.24.518.518 0 0 1-.006-.304c.326-1.081.309-2.287.29-3.455-.02-1.528-.043-2.969.644-4.166.133-.245.314-.456.53-.616a1.7 1.7 0 0 1 .72-.311c1.219-.221 2.666.817 3.253 1.293 1.056-.658 1.861-.438 2.799-.103.004 0 .009.004.013.004l.159.058c.774.279 1.733.618 3.155.618.651 0 1.241-1.139 1.862-2.345.466-.899.946-1.831 1.575-2.571.92-1.091 1.911-1.322 2.799-1.201.566-1.283 2.028-1.783 2.096-1.807a.385.385 0 0 1 .19-.021.41.41 0 0 1 .179.072.458.458 0 0 1 .133.147.505.505 0 0 1 .064.194c.123.995-.066 1.999-.193 2.513.896.836.805 2.518.754 3.46-.009.158-.017.297-.017.399 0 .49.118 1.677.162 2.119.026.227-.015.458-.118.658a1.015 1.015 0 0 1-.454.451l-.695.346a.91.91 0 0 1-.669.06.993.993 0 0 1-.55-.42l-.776-1.194c.034 2.551-.758 4.84-1.004 5.497l1.677 5.026c.449-.187.902-.379 1.355-.595v.001Zm-18.432.904a.476.476 0 0 0-.39-.016.54.54 0 0 0-.292.284.625.625 0 0 0 .09.646.532.532 0 0 0 .172.133c6.337 3.119 12.979 3.114 19.611-.014a.53.53 0 0 0 .174-.131.586.586 0 0 0 .112-.196.592.592 0 0 0-.018-.447.57.57 0 0 0-.194-.241.503.503 0 0 0-.485-.047c-.603.284-1.197.533-1.795.764-.009.005-.014.015-.027.015-.011.004-.023.005-.035.004-4.75 1.831-9.337 1.995-13.9.476a.023.023 0 0 1-.017-.005s-.004 0-.004-.005a23.31 23.31 0 0 1-1.677-.629.027.027 0 0 1-.017-.005c-.005 0-.01-.005-.014-.01-.427-.167-.858-.36-1.294-.576Zm14.696.519-.854-2.182a4.685 4.685 0 0 0-1.06-1.596c-.518-.52-.77-.984-.899-1.35-2.134.908-3.806.258-4.59-.183-.458 1.067-1.184 1.879-1.752 2.403a5.448 5.448 0 0 0-1.404 2.014l-.343.865c3.587 1.086 7.2 1.095 10.902.029Zm-13.877-13.138c-.277.048-.484.206-.642.485-.546.961-.528 2.265-.507 3.647.01.654.018 1.322-.026 1.99.33-.529.62-1.173.634-1.812l.009-.399c.013-1.066.026-2.076.69-2.513.414-.274.977-.235 1.748.125a2.85 2.85 0 0 1 .457-.586c-.638-.466-1.646-1.067-2.363-.937Zm9.242 1.884c-1.333 0-2.284-.269-3.05-.534v2.575c0 .153.056.299.155.407a.507.507 0 0 0 .373.169h3.301c.14 0 .274-.061.373-.169a.605.605 0 0 0 .155-.407v-2.719c-.377.418-.797.678-1.307.678Zm7.126-6.848c.269.102.532.223.788.361.084-.403.133-.814.145-1.226-.317.182-.696.466-.933.865Zm-2.676 12.398a.51.51 0 0 1 .013-.36c.014-.039 1.488-3.656.828-6.973a.513.513 0 0 1 .036-.321.462.462 0 0 1 .215-.223.407.407 0 0 1 .295-.023c.098.03.183.096.242.187l1.756 2.706a.104.104 0 0 0 .136.038l.693-.341a.125.125 0 0 0 .054-.055.147.147 0 0 0 .012-.08c-.08-.783-.172-1.751-.172-2.229 0-.116.009-.274.018-.457.047-.827.132-2.36-.595-2.787-1.226-.716-2.64-1.36-3.899.139-.559.663-1.012 1.545-1.457 2.393-.15.284-.295.566-.444.836v4.037c0 .407-.15.798-.413 1.086a1.353 1.353 0 0 1-.995.452H93.14a1.353 1.353 0 0 1-.995-.452 1.613 1.613 0 0 1-.413-1.086v-2.884c-.832-.269-1.382-.279-2.315.558-.687.618-.832 1.653-.432 3.075.405 1.447.34 3.066-.188 4.556l-1.153 3.258c.3.12.598.236.896.337l.387-.972a6.385 6.385 0 0 1 1.65-2.368c.577-.523 1.334-1.39 1.686-2.523a.479.479 0 0 1 .11-.189.43.43 0 0 1 .178-.114.399.399 0 0 1 .206-.013.428.428 0 0 1 .188.091c.08.067 1.985 1.586 4.674.158a.395.395 0 0 1 .223-.043c.077.008.15.037.213.086.063.05.114.116.148.192.033.076.05.161.045.246 0 .004-.017.528.73 1.278a5.71 5.71 0 0 1 1.274 1.922l.911 2.297c.236-.077.467-.155.7-.241l-1.74-5.194Z"/><circle cx="244.5" cy="49.5" r="21.5" fill="#5B5B5B"/><path fill="#fff" d="M254.044 56.738c.334-.16.713-.17 1.054-.028.341.142.617.425.768.788a1.668 1.668 0 0 1 .044 1.196c-.066.193-.168.37-.298.52-.131.15-.289.269-.463.35-3.433 1.619-6.892 2.436-10.28 2.436-3.387 0-6.76-.817-10.038-2.432a1.487 1.487 0 0 1-.738-.853 1.663 1.663 0 0 1 .029-1.173c.151-.37.431-.662.779-.808a1.298 1.298 0 0 1 1.074.028c.286.145.572.27.862.399l1.153-3.258c.458-1.292.515-2.686.168-3.926-.273-.97-.321-1.822-.163-2.547-.66-.312-.894-.226-.951-.188-.242.16-.255 1.014-.264 1.7l-.009.408c-.044 1.947-1.87 3.707-1.949 3.782a.431.431 0 0 1-.291.12.39.39 0 0 1-.242-.081.472.472 0 0 1-.172-.24.518.518 0 0 1-.006-.304c.326-1.081.309-2.287.291-3.455-.022-1.528-.044-2.97.643-4.166a1.88 1.88 0 0 1 .53-.616c.216-.16.461-.266.719-.31 1.22-.222 2.667.816 3.254 1.291 1.056-.657 1.862-.437 2.799-.102.004 0 .008.004.013.004l.159.058c.774.279 1.733.618 3.155.618.651 0 1.241-1.14 1.862-2.345.466-.899.946-1.83 1.575-2.571.92-1.091 1.911-1.322 2.799-1.201.566-1.283 2.028-1.783 2.096-1.807a.388.388 0 0 1 .369.052.452.452 0 0 1 .133.146.505.505 0 0 1 .064.194c.123.994-.066 1.999-.193 2.513.896.836.805 2.518.754 3.46-.009.158-.017.297-.017.399 0 .49.118 1.677.162 2.119.026.227-.015.458-.118.658s-.262.358-.454.451l-.695.346a.913.913 0 0 1-.669.06.994.994 0 0 1-.55-.42l-.776-1.194c.034 2.551-.758 4.84-1.004 5.497l1.677 5.026c.449-.187.902-.379 1.355-.595v.001Zm-18.432.904a.482.482 0 0 0-.391-.017.542.542 0 0 0-.291.285.626.626 0 0 0-.02.45c.024.073.062.14.11.196a.536.536 0 0 0 .172.133c6.337 3.119 12.979 3.114 19.611-.014a.512.512 0 0 0 .174-.131.586.586 0 0 0 .112-.196.594.594 0 0 0-.018-.447.57.57 0 0 0-.194-.24.502.502 0 0 0-.283-.091.52.52 0 0 0-.202.043c-.603.284-1.197.533-1.795.764-.009.005-.014.015-.027.015a.091.091 0 0 1-.035.005c-4.749 1.83-9.337 1.994-13.899.475a.024.024 0 0 1-.018-.005s-.004 0-.004-.005a23.612 23.612 0 0 1-1.677-.63.028.028 0 0 1-.018-.004c-.004 0-.008-.005-.013-.01-.427-.168-.858-.36-1.294-.576Zm14.696.519-.854-2.182a4.683 4.683 0 0 0-1.061-1.596c-.517-.52-.77-.984-.898-1.35-2.134.908-3.806.258-4.59-.183-.458 1.067-1.184 1.88-1.752 2.403a5.462 5.462 0 0 0-1.404 2.014l-.343.865c3.587 1.086 7.2 1.096 10.902.029Zm-13.877-13.138c-.277.048-.484.206-.642.485-.546.961-.528 2.265-.507 3.647a25.01 25.01 0 0 1-.026 1.99c.33-.529.62-1.173.634-1.812l.009-.399c.013-1.066.026-2.075.69-2.513.414-.274.977-.235 1.748.125.128-.216.282-.414.457-.586-.638-.466-1.646-1.067-2.363-.937Zm9.242 1.884c-1.333 0-2.284-.27-3.05-.533v2.574c.001.153.056.299.155.407a.508.508 0 0 0 .373.17h3.301c.14-.001.274-.062.373-.17a.604.604 0 0 0 .155-.407v-2.719c-.377.418-.797.678-1.307.678Zm7.126-6.848c.269.102.532.223.788.36a7 7 0 0 0 .145-1.225c-.317.182-.696.466-.933.865Zm-2.676 12.398a.508.508 0 0 1 .013-.36c.014-.039 1.488-3.656.828-6.973a.512.512 0 0 1 .036-.32.46.46 0 0 1 .215-.224.403.403 0 0 1 .295-.023c.098.03.183.096.242.187l1.756 2.706c.014.023.036.04.061.046a.1.1 0 0 0 .075-.008l.693-.341a.12.12 0 0 0 .054-.055.145.145 0 0 0 .012-.08c-.08-.783-.172-1.75-.172-2.23 0-.115.009-.273.018-.456.047-.827.132-2.36-.595-2.787-1.226-.716-2.64-1.36-3.899.139-.559.663-1.012 1.544-1.457 2.393-.149.284-.295.566-.444.836v4.037a1.617 1.617 0 0 1-.413 1.087c-.264.288-.622.45-.995.45h-3.306c-.373 0-.731-.162-.995-.45a1.612 1.612 0 0 1-.413-1.087V46.06c-.832-.269-1.382-.279-2.315.558-.687.618-.832 1.653-.432 3.075.405 1.447.339 3.066-.188 4.556l-1.153 3.258c.299.12.598.236.896.337l.387-.971a6.385 6.385 0 0 1 1.65-2.369c.577-.523 1.334-1.39 1.686-2.523a.482.482 0 0 1 .111-.19.429.429 0 0 1 .177-.113.406.406 0 0 1 .394.078c.079.067 1.985 1.586 4.674.158a.4.4 0 0 1 .436.043c.063.05.114.115.148.192.033.076.049.16.045.246 0 .004-.018.528.731 1.278a5.71 5.71 0 0 1 1.273 1.922l.911 2.297c.236-.077.467-.155.7-.24l-1.74-5.195Z"/><circle cx="271.5" cy="117.5" r="21.5" fill="#5B5B5B"/><path fill="#fff" d="M281.044 124.738c.334-.16.713-.17 1.054-.028.341.142.617.425.768.788a1.664 1.664 0 0 1 .044 1.196 1.561 1.561 0 0 1-.298.52c-.131.15-.289.269-.463.35-3.433 1.619-6.892 2.436-10.28 2.436-3.387 0-6.76-.817-10.038-2.432a1.485 1.485 0 0 1-.738-.853 1.663 1.663 0 0 1 .029-1.173c.151-.371.431-.662.779-.808a1.3 1.3 0 0 1 1.074.028c.286.144.572.269.862.399l1.153-3.258c.458-1.293.515-2.686.168-3.926-.273-.971-.321-1.822-.163-2.547-.66-.312-.894-.226-.951-.187-.242.158-.255 1.013-.264 1.699l-.009.408c-.044 1.947-1.87 3.707-1.949 3.782a.432.432 0 0 1-.291.12.392.392 0 0 1-.242-.081.47.47 0 0 1-.172-.24.517.517 0 0 1-.006-.304c.326-1.081.309-2.287.291-3.455-.022-1.528-.044-2.969.643-4.166.133-.245.314-.456.53-.616.216-.16.461-.266.719-.311 1.22-.221 2.667.817 3.254 1.293 1.056-.658 1.862-.438 2.799-.103.004 0 .008.004.013.004l.159.058c.774.279 1.733.618 3.155.618.651 0 1.241-1.139 1.862-2.345.466-.899.946-1.831 1.575-2.571.92-1.091 1.911-1.322 2.799-1.201.566-1.283 2.028-1.783 2.096-1.807a.385.385 0 0 1 .19-.021.41.41 0 0 1 .179.072.458.458 0 0 1 .133.147.505.505 0 0 1 .064.194c.123.995-.066 1.999-.193 2.513.896.836.805 2.518.754 3.46-.009.158-.017.297-.017.399 0 .49.118 1.677.162 2.119.026.227-.015.458-.118.658a1.015 1.015 0 0 1-.454.451l-.695.346a.91.91 0 0 1-.669.06.993.993 0 0 1-.55-.42l-.776-1.194c.034 2.551-.758 4.84-1.004 5.497l1.677 5.026c.449-.187.902-.379 1.355-.595v.001Zm-18.432.904a.476.476 0 0 0-.391-.016.542.542 0 0 0-.291.284.632.632 0 0 0-.02.45.59.59 0 0 0 .11.196.538.538 0 0 0 .172.133c6.337 3.119 12.979 3.114 19.611-.014a.53.53 0 0 0 .174-.131.586.586 0 0 0 .112-.196.592.592 0 0 0-.018-.447.57.57 0 0 0-.194-.241.503.503 0 0 0-.485-.047c-.603.284-1.197.533-1.795.764-.009.005-.014.015-.027.015a.082.082 0 0 1-.035.004c-4.749 1.831-9.337 1.995-13.899.476a.024.024 0 0 1-.018-.005s-.004 0-.004-.005a23.315 23.315 0 0 1-1.677-.629.03.03 0 0 1-.018-.005c-.004 0-.008-.005-.013-.01-.427-.167-.858-.36-1.294-.576Zm14.696.519-.854-2.182a4.677 4.677 0 0 0-1.061-1.596c-.517-.52-.77-.984-.898-1.35-2.134.908-3.806.258-4.59-.183-.458 1.067-1.184 1.879-1.752 2.403a5.46 5.46 0 0 0-1.404 2.014l-.343.865c3.587 1.086 7.2 1.095 10.902.029Zm-13.877-13.138c-.277.048-.484.206-.642.485-.546.961-.528 2.265-.507 3.647.009.654.018 1.322-.026 1.99.33-.529.62-1.173.634-1.812l.009-.399c.013-1.066.026-2.076.69-2.513.414-.274.977-.235 1.748.125.128-.216.282-.414.457-.586-.638-.466-1.646-1.067-2.363-.937Zm9.242 1.884c-1.333 0-2.284-.269-3.05-.534v2.575a.608.608 0 0 0 .155.407.506.506 0 0 0 .373.169h3.301c.14 0 .274-.061.373-.169a.603.603 0 0 0 .155-.407v-2.719c-.377.418-.797.678-1.307.678Zm7.126-6.848c.269.102.532.223.788.361.084-.403.133-.814.145-1.226-.317.182-.696.466-.933.865Zm-2.676 12.398a.51.51 0 0 1 .013-.36c.014-.039 1.488-3.656.828-6.973a.513.513 0 0 1 .036-.321.462.462 0 0 1 .215-.223.407.407 0 0 1 .295-.023c.098.03.183.096.242.187l1.756 2.706a.104.104 0 0 0 .136.038l.693-.341a.125.125 0 0 0 .054-.055.147.147 0 0 0 .012-.08c-.08-.783-.172-1.751-.172-2.229 0-.116.009-.274.018-.457.047-.827.132-2.36-.595-2.787-1.226-.716-2.64-1.36-3.899.139-.559.663-1.012 1.545-1.457 2.393-.149.284-.295.566-.444.836v4.037a1.616 1.616 0 0 1-.413 1.086 1.353 1.353 0 0 1-.995.452h-3.306a1.353 1.353 0 0 1-.995-.452 1.61 1.61 0 0 1-.413-1.086v-2.884c-.832-.269-1.382-.279-2.315.558-.687.618-.832 1.653-.432 3.075.405 1.447.339 3.066-.188 4.556l-1.153 3.258c.299.12.598.236.896.337l.387-.972a6.39 6.39 0 0 1 1.65-2.368c.577-.523 1.334-1.39 1.686-2.523a.474.474 0 0 1 .288-.303.4.4 0 0 1 .206-.013.428.428 0 0 1 .188.091c.079.067 1.985 1.586 4.674.158a.394.394 0 0 1 .223-.043c.077.008.15.037.213.086.063.05.114.116.148.192a.555.555 0 0 1 .045.246c0 .004-.018.528.731 1.278a5.712 5.712 0 0 1 1.273 1.922l.911 2.297c.236-.077.467-.155.7-.241l-1.74-5.194Z"/><circle cx="544.5" cy="131.5" r="21.5" fill="#5B5B5B"/><path fill="#fff" d="M554.044 138.738c.334-.16.713-.17 1.054-.028.341.142.617.425.768.788a1.664 1.664 0 0 1 .044 1.196 1.561 1.561 0 0 1-.298.52c-.131.15-.289.269-.463.35-3.433 1.619-6.892 2.436-10.28 2.436-3.387 0-6.76-.817-10.038-2.432a1.485 1.485 0 0 1-.738-.853 1.663 1.663 0 0 1 .029-1.173c.151-.371.431-.662.779-.808a1.3 1.3 0 0 1 1.074.028c.286.144.572.269.862.399l1.153-3.258c.458-1.293.515-2.686.168-3.926-.273-.971-.321-1.822-.163-2.547-.66-.312-.894-.226-.951-.187-.242.158-.255 1.013-.264 1.699l-.009.408c-.044 1.947-1.87 3.707-1.949 3.782a.432.432 0 0 1-.291.12.392.392 0 0 1-.242-.081.47.47 0 0 1-.172-.24.517.517 0 0 1-.006-.304c.326-1.081.309-2.287.291-3.455-.022-1.528-.044-2.969.643-4.166.133-.245.314-.456.53-.616.216-.16.461-.266.719-.311 1.22-.221 2.667.817 3.254 1.293 1.056-.658 1.862-.438 2.799-.103.004 0 .008.004.013.004l.159.058c.774.279 1.733.618 3.155.618.651 0 1.241-1.139 1.862-2.345.466-.899.946-1.831 1.575-2.571.92-1.091 1.911-1.322 2.799-1.201.566-1.283 2.028-1.783 2.096-1.807a.385.385 0 0 1 .19-.021.41.41 0 0 1 .179.072.458.458 0 0 1 .133.147.505.505 0 0 1 .064.194c.123.995-.066 1.999-.193 2.513.896.836.805 2.518.754 3.46-.009.158-.017.297-.017.399 0 .49.118 1.677.162 2.119.026.227-.015.458-.118.658a1.015 1.015 0 0 1-.454.451l-.695.346a.91.91 0 0 1-.669.06.993.993 0 0 1-.55-.42l-.776-1.194c.034 2.551-.758 4.84-1.004 5.497l1.677 5.026c.449-.187.902-.379 1.355-.595v.001Zm-18.432.904a.476.476 0 0 0-.391-.016.542.542 0 0 0-.291.284.632.632 0 0 0-.02.45.59.59 0 0 0 .11.196.538.538 0 0 0 .172.133c6.337 3.119 12.979 3.114 19.611-.014a.53.53 0 0 0 .174-.131.586.586 0 0 0 .112-.196.592.592 0 0 0-.018-.447.57.57 0 0 0-.194-.241.503.503 0 0 0-.485-.047c-.603.284-1.197.533-1.795.764-.009.005-.014.015-.027.015-.011.004-.023.005-.035.004-4.749 1.831-9.337 1.995-13.899.476a.024.024 0 0 1-.018-.005s-.004 0-.004-.005a23.315 23.315 0 0 1-1.677-.629.03.03 0 0 1-.018-.005c-.004 0-.008-.005-.013-.01-.427-.167-.858-.36-1.294-.576Zm14.696.519-.854-2.182a4.677 4.677 0 0 0-1.061-1.596c-.517-.52-.77-.984-.898-1.35-2.134.908-3.806.258-4.59-.183-.458 1.067-1.184 1.879-1.752 2.403a5.46 5.46 0 0 0-1.404 2.014l-.343.865c3.587 1.086 7.2 1.095 10.902.029Zm-13.877-13.138c-.277.048-.484.206-.642.485-.546.961-.528 2.265-.507 3.647.009.654.018 1.322-.026 1.99.33-.529.62-1.173.634-1.812l.009-.399c.013-1.066.026-2.076.69-2.513.414-.274.977-.235 1.748.125.128-.216.282-.414.457-.586-.638-.466-1.646-1.067-2.363-.937Zm9.242 1.884c-1.333 0-2.284-.269-3.05-.534v2.575a.608.608 0 0 0 .155.407.506.506 0 0 0 .373.169h3.301c.14 0 .274-.061.373-.169a.603.603 0 0 0 .155-.407v-2.719c-.377.418-.797.678-1.307.678Zm7.126-6.848c.269.102.532.223.788.361.084-.403.133-.814.145-1.226-.317.182-.696.466-.933.865Zm-2.676 12.398a.51.51 0 0 1 .013-.36c.014-.039 1.488-3.656.828-6.973a.513.513 0 0 1 .036-.321.462.462 0 0 1 .215-.223.407.407 0 0 1 .295-.023c.098.03.183.096.242.187l1.756 2.706a.104.104 0 0 0 .136.038l.693-.341a.125.125 0 0 0 .054-.055.147.147 0 0 0 .012-.08c-.08-.783-.172-1.751-.172-2.229 0-.116.009-.274.018-.457.047-.827.132-2.36-.595-2.787-1.226-.716-2.64-1.36-3.899.139-.559.663-1.012 1.545-1.457 2.393-.149.284-.295.566-.444.836v4.037a1.616 1.616 0 0 1-.413 1.086 1.353 1.353 0 0 1-.995.452h-3.306a1.353 1.353 0 0 1-.995-.452 1.61 1.61 0 0 1-.413-1.086v-2.884c-.832-.269-1.382-.279-2.315.558-.687.618-.832 1.653-.432 3.075.405 1.447.339 3.066-.188 4.556l-1.153 3.258c.299.12.598.236.896.337l.387-.972a6.39 6.39 0 0 1 1.65-2.368c.577-.523 1.334-1.39 1.686-2.523a.474.474 0 0 1 .288-.303.4.4 0 0 1 .206-.013.428.428 0 0 1 .188.091c.079.067 1.985 1.586 4.674.158a.394.394 0 0 1 .223-.043c.077.008.15.037.213.086.063.05.114.116.148.192a.555.555 0 0 1 .045.246c0 .004-.018.528.731 1.278a5.712 5.712 0 0 1 1.273 1.922l.911 2.297c.236-.077.467-.155.7-.241l-1.74-5.194Z"/><circle cx="83.5" cy="373.5" r="21.5" fill="#5B5B5B"/><path fill="#fff" d="M93.044 380.738c.334-.16.713-.17 1.054-.028.34.142.617.425.768.788a1.655 1.655 0 0 1 .044 1.196 1.55 1.55 0 0 1-.298.52c-.131.15-.289.269-.463.35-3.433 1.619-6.892 2.436-10.28 2.436-3.387 0-6.76-.817-10.038-2.432a1.486 1.486 0 0 1-.738-.853 1.667 1.667 0 0 1 .029-1.173c.151-.371.431-.662.779-.808a1.3 1.3 0 0 1 1.074.028c.286.144.572.269.862.399l1.153-3.258c.458-1.293.515-2.686.168-3.926-.273-.971-.321-1.822-.163-2.547-.66-.312-.894-.226-.95-.187-.243.158-.256 1.013-.265 1.699l-.009.408c-.044 1.947-1.87 3.707-1.95 3.782a.43.43 0 0 1-.29.12.39.39 0 0 1-.242-.081.472.472 0 0 1-.172-.24.518.518 0 0 1-.006-.304c.326-1.081.309-2.287.29-3.455-.02-1.528-.043-2.969.644-4.166.133-.245.314-.456.53-.616a1.7 1.7 0 0 1 .72-.311c1.219-.221 2.666.817 3.253 1.293 1.056-.658 1.861-.438 2.799-.103.004 0 .009.004.013.004l.159.058c.774.279 1.733.618 3.155.618.651 0 1.241-1.139 1.862-2.345.466-.899.946-1.831 1.575-2.571.92-1.091 1.91-1.322 2.8-1.201.565-1.283 2.027-1.783 2.094-1.807a.387.387 0 0 1 .19-.021.41.41 0 0 1 .18.072c.054.038.1.088.133.147a.503.503 0 0 1 .064.194c.123.995-.066 1.999-.193 2.513.896.836.805 2.518.754 3.46-.008.158-.017.297-.017.399 0 .49.118 1.677.162 2.119.026.227-.015.458-.118.658a1.016 1.016 0 0 1-.454.451l-.695.346a.91.91 0 0 1-.669.06.996.996 0 0 1-.55-.42l-.776-1.194c.034 2.551-.758 4.84-1.004 5.497l1.677 5.026c.449-.187.902-.379 1.355-.595v.001Zm-18.432.904a.476.476 0 0 0-.39-.016.54.54 0 0 0-.292.284.625.625 0 0 0 .09.646.532.532 0 0 0 .172.133c6.337 3.119 12.979 3.114 19.61-.014a.535.535 0 0 0 .287-.327.598.598 0 0 0-.018-.447.566.566 0 0 0-.194-.241.499.499 0 0 0-.485-.047c-.603.284-1.197.533-1.795.764-.01.005-.014.015-.027.015-.011.004-.023.005-.035.004-4.75 1.831-9.337 1.995-13.9.476a.023.023 0 0 1-.017-.005s-.004 0-.004-.005a23.31 23.31 0 0 1-1.677-.629.027.027 0 0 1-.017-.005c-.005 0-.01-.005-.014-.01-.427-.167-.858-.36-1.294-.576Zm14.696.519-.854-2.182a4.685 4.685 0 0 0-1.06-1.596c-.518-.52-.77-.984-.899-1.35-2.134.908-3.806.258-4.59-.183-.458 1.067-1.184 1.879-1.752 2.403a5.448 5.448 0 0 0-1.404 2.014l-.343.865c3.587 1.086 7.2 1.095 10.902.029ZM75.43 369.023c-.277.048-.484.206-.642.485-.546.961-.528 2.265-.507 3.647.01.654.018 1.322-.026 1.99.33-.529.62-1.173.634-1.812l.009-.399c.013-1.066.026-2.076.69-2.513.414-.274.977-.235 1.748.125a2.85 2.85 0 0 1 .457-.586c-.638-.466-1.646-1.067-2.363-.937Zm9.242 1.884c-1.333 0-2.284-.269-3.05-.534v2.575c0 .153.056.299.155.407a.507.507 0 0 0 .373.169h3.301c.14 0 .274-.061.373-.169a.605.605 0 0 0 .155-.407v-2.719c-.377.418-.797.678-1.307.678Zm7.126-6.848c.269.102.532.223.788.361.084-.403.133-.814.145-1.226-.317.182-.695.466-.933.865Zm-2.676 12.398a.506.506 0 0 1 .013-.36c.014-.039 1.488-3.656.828-6.973a.52.52 0 0 1 .036-.321.46.46 0 0 1 .215-.223.408.408 0 0 1 .295-.023c.098.03.183.096.241.187l1.757 2.706a.108.108 0 0 0 .061.046.102.102 0 0 0 .075-.008l.692-.341a.124.124 0 0 0 .055-.055.138.138 0 0 0 .012-.08c-.08-.783-.172-1.751-.172-2.229 0-.116.009-.274.018-.457.047-.827.132-2.36-.595-2.787-1.226-.716-2.64-1.36-3.899.139-.559.663-1.012 1.545-1.457 2.393-.15.284-.295.566-.444.836v4.037c0 .407-.15.798-.413 1.086a1.353 1.353 0 0 1-.995.452H82.14a1.353 1.353 0 0 1-.995-.452 1.613 1.613 0 0 1-.413-1.086v-2.884c-.832-.269-1.382-.279-2.315.558-.687.618-.832 1.653-.432 3.075.405 1.447.34 3.066-.188 4.556l-1.153 3.258c.3.12.598.236.896.337l.387-.972a6.385 6.385 0 0 1 1.65-2.368c.577-.523 1.334-1.39 1.686-2.523a.479.479 0 0 1 .11-.189.43.43 0 0 1 .178-.114.399.399 0 0 1 .206-.013.428.428 0 0 1 .188.091c.08.067 1.985 1.586 4.674.158a.395.395 0 0 1 .223-.043c.077.008.15.037.213.086.063.05.114.116.148.192.033.076.05.161.045.246 0 .004-.017.528.73 1.278a5.71 5.71 0 0 1 1.274 1.922l.912 2.297c.235-.077.466-.155.7-.241l-1.741-5.194Z"/><circle cx="417.5" cy="247.5" r="19.5" fill="#5B5B5B"/><path fill="#fff" d="M414.652 237.478v7.174h-7.174a.503.503 0 0 0-.333.145.503.503 0 0 0-.145.333v5.74a.503.503 0 0 0 .145.333c.089.088.208.14.333.145h7.174v7.174a.503.503 0 0 0 .145.333c.089.088.208.14.333.145h5.74a.503.503 0 0 0 .333-.145.503.503 0 0 0 .145-.333v-7.174h7.174a.503.503 0 0 0 .333-.145.503.503 0 0 0 .145-.333v-5.74a.503.503 0 0 0-.145-.333.503.503 0 0 0-.333-.145h-7.174v-7.174a.503.503 0 0 0-.145-.333.503.503 0 0 0-.333-.145h-5.74c-.263.009-.472.263-.478.478Zm.957.479h4.782v7.173a.495.495 0 0 0 .479.479h7.173v4.782h-7.173a.495.495 0 0 0-.479.479v7.173h-4.782v-7.173a.495.495 0 0 0-.479-.479h-7.173v-4.782h7.173a.495.495 0 0 0 .479-.479v-7.173Z"/><circle cx="239.5" cy="331.5" r="19.5" fill="#5B5B5B"/><path fill="#fff" d="M236.652 321.478v7.174h-7.174a.503.503 0 0 0-.333.145.503.503 0 0 0-.145.333v5.74a.503.503 0 0 0 .145.333c.089.088.208.14.333.145h7.174v7.174a.503.503 0 0 0 .145.333c.089.088.208.14.333.145h5.74a.503.503 0 0 0 .333-.145.503.503 0 0 0 .145-.333v-7.174h7.174a.503.503 0 0 0 .333-.145.503.503 0 0 0 .145-.333v-5.74a.503.503 0 0 0-.145-.333.503.503 0 0 0-.333-.145h-7.174v-7.174a.503.503 0 0 0-.145-.333.503.503 0 0 0-.333-.145h-5.74c-.263.009-.472.263-.478.478Zm.957.479h4.782v7.173a.495.495 0 0 0 .479.479h7.173v4.782h-7.173a.495.495 0 0 0-.479.479v7.173h-4.782v-7.173a.495.495 0 0 0-.479-.479h-7.173v-4.782h7.173a.495.495 0 0 0 .479-.479v-7.173Z"/><circle cx="397.5" cy="189.5" r="19.5" fill="#5B5B5B"/><path fill="#fff" d="M394.652 179.478v7.174h-7.174a.503.503 0 0 0-.333.145.503.503 0 0 0-.145.333v5.74a.503.503 0 0 0 .145.333c.089.088.208.14.333.145h7.174v7.174a.503.503 0 0 0 .145.333c.089.088.208.14.333.145h5.74a.503.503 0 0 0 .333-.145.503.503 0 0 0 .145-.333v-7.174h7.174a.503.503 0 0 0 .333-.145.503.503 0 0 0 .145-.333v-5.74a.503.503 0 0 0-.145-.333.503.503 0 0 0-.333-.145h-7.174v-7.174a.503.503 0 0 0-.145-.333.503.503 0 0 0-.333-.145h-5.74c-.263.009-.472.263-.478.478Zm.957.479h4.782v7.173a.495.495 0 0 0 .479.479h7.173v4.782h-7.173a.495.495 0 0 0-.479.479v7.173h-4.782v-7.173a.495.495 0 0 0-.479-.479h-7.173v-4.782h7.173a.495.495 0 0 0 .479-.479v-7.173Z"/><circle cx="612.5" cy="139.5" r="19.5" fill="#5B5B5B"/><path fill="#fff" d="M609.652 129.478v7.174h-7.174a.503.503 0 0 0-.333.145.503.503 0 0 0-.145.333v5.74a.503.503 0 0 0 .145.333c.089.088.208.14.333.145h7.174v7.174a.503.503 0 0 0 .145.333c.089.088.208.14.333.145h5.74a.503.503 0 0 0 .333-.145.503.503 0 0 0 .145-.333v-7.174h7.174a.503.503 0 0 0 .333-.145.503.503 0 0 0 .145-.333v-5.74a.503.503 0 0 0-.145-.333.503.503 0 0 0-.333-.145h-7.174v-7.174a.503.503 0 0 0-.145-.333.503.503 0 0 0-.333-.145h-5.74c-.263.009-.472.263-.478.478Zm.957.479h4.782v7.173a.495.495 0 0 0 .479.479h7.173v4.782h-7.173a.495.495 0 0 0-.479.479v7.173h-4.782v-7.173a.495.495 0 0 0-.479-.479h-7.173v-4.782h7.173a.495.495 0 0 0 .479-.479v-7.173Z"/><circle cx="612.5" cy="82.5" r="19.5" fill="#5B5B5B"/><path fill="#fff" d="M609.652 72.478v7.174h-7.174a.498.498 0 0 0-.478.478v5.74a.498.498 0 0 0 .478.478h7.174v7.174a.498.498 0 0 0 .478.478h5.74a.498.498 0 0 0 .478-.478v-7.174h7.174a.498.498 0 0 0 .478-.478v-5.74a.498.498 0 0 0-.478-.478h-7.174v-7.174a.498.498 0 0 0-.478-.478h-5.74c-.263.008-.472.263-.478.478Zm.957.479h4.782v7.173a.498.498 0 0 0 .479.479h7.173v4.782h-7.173a.494.494 0 0 0-.479.479v7.173h-4.782V85.87a.498.498 0 0 0-.479-.479h-7.173V80.61h7.173a.494.494 0 0 0 .479-.479v-7.173Z"/><circle cx="305.5" cy="63.5" r="19.5" fill="#5B5B5B"/><path fill="#fff" d="M302.652 53.478v7.174h-7.174a.498.498 0 0 0-.478.478v5.74a.498.498 0 0 0 .478.478h7.174v7.174a.498.498 0 0 0 .478.478h5.74a.498.498 0 0 0 .478-.478v-7.174h7.174a.498.498 0 0 0 .478-.478v-5.74a.498.498 0 0 0-.478-.478h-7.174v-7.174a.498.498 0 0 0-.478-.478h-5.74c-.263.008-.472.263-.478.478Zm.957.478h4.782v7.174a.498.498 0 0 0 .479.479h7.173v4.782h-7.173a.494.494 0 0 0-.479.479v7.173h-4.782V66.87a.498.498 0 0 0-.479-.479h-7.173V61.61h7.173a.494.494 0 0 0 .479-.479v-7.174Z"/><circle cx="19.5" cy="96.5" r="19.5" fill="#5B5B5B"/><path fill="#fff" d="M16.652 86.478v7.174H9.478A.497.497 0 0 0 9 94.13v5.74a.499.499 0 0 0 .478.478h7.174v7.174a.498.498 0 0 0 .478.478h5.74a.498.498 0 0 0 .478-.478v-7.174h7.174A.499.499 0 0 0 31 99.87v-5.74a.497.497 0 0 0-.478-.478h-7.174v-7.174A.497.497 0 0 0 22.87 86h-5.74c-.264.008-.472.263-.478.478Zm.957.479h4.782v7.173a.497.497 0 0 0 .479.479h7.174v4.782H22.87a.497.497 0 0 0-.479.479v7.173H17.61V99.87a.497.497 0 0 0-.479-.479H9.957V94.61h7.173a.497.497 0 0 0 .479-.479v-7.173Z"/><circle cx="393.5" cy="19.5" r="19.5" fill="#5B5B5B"/><path fill="#fff" d="M390.652 9.478v7.174h-7.174a.498.498 0 0 0-.478.478v5.74a.498.498 0 0 0 .478.478h7.174v7.174a.498.498 0 0 0 .478.478h5.74a.498.498 0 0 0 .478-.478v-7.174h7.174a.498.498 0 0 0 .478-.478v-5.74a.498.498 0 0 0-.478-.478h-7.174V9.478A.498.498 0 0 0 396.87 9h-5.74c-.263.009-.472.263-.478.478Zm.957.479h4.782v7.173a.498.498 0 0 0 .479.479h7.173v4.782h-7.173a.494.494 0 0 0-.479.479v7.174h-4.782V22.87a.498.498 0 0 0-.479-.479h-7.173V17.61h7.173a.494.494 0 0 0 .479-.479V9.957Z"/><circle cx="203.5" cy="244.5" r="19.5" fill="#5B5B5B"/><path fill="#fff" d="M200.652 234.478v7.174h-7.174a.503.503 0 0 0-.333.145.503.503 0 0 0-.145.333v5.74a.503.503 0 0 0 .145.333c.089.088.208.14.333.145h7.174v7.174a.503.503 0 0 0 .145.333c.089.088.208.14.333.145h5.74a.503.503 0 0 0 .333-.145.503.503 0 0 0 .145-.333v-7.174h7.174a.503.503 0 0 0 .333-.145.503.503 0 0 0 .145-.333v-5.74a.503.503 0 0 0-.145-.333.503.503 0 0 0-.333-.145h-7.174v-7.174a.503.503 0 0 0-.145-.333.503.503 0 0 0-.333-.145h-5.74c-.263.009-.472.263-.478.478Zm.957.479h4.782v7.173a.495.495 0 0 0 .479.479h7.173v4.782h-7.173a.495.495 0 0 0-.479.479v7.173h-4.782v-7.173a.495.495 0 0 0-.479-.479h-7.173v-4.782h7.173a.495.495 0 0 0 .479-.479v-7.173Z"/><circle cx="24.5" cy="210.5" r="19.5" fill="#5B5B5B"/><path fill="#fff" d="M21.652 200.478v7.174h-7.174a.498.498 0 0 0-.478.478v5.74a.498.498 0 0 0 .478.478h7.174v7.174a.498.498 0 0 0 .478.478h5.74a.498.498 0 0 0 .478-.478v-7.174h7.174a.498.498 0 0 0 .478-.478v-5.74a.498.498 0 0 0-.478-.478h-7.174v-7.174a.498.498 0 0 0-.478-.478h-5.74c-.264.009-.472.263-.478.478Zm.957.479h4.782v7.173a.494.494 0 0 0 .479.479h7.174v4.782H27.87a.498.498 0 0 0-.479.479v7.173H22.61v-7.173a.494.494 0 0 0-.479-.479h-7.173v-4.782h7.173a.498.498 0 0 0 .479-.479v-7.173Z"/><circle cx="461.5" cy="248.5" r="19.5" fill="#5B5B5B"/><path fill="#fff" d="M458.857 256.236a.567.567 0 0 0 .404-.172.595.595 0 0 0 .168-.412v-5.84a.59.59 0 0 0-.168-.412.562.562 0 0 0-.808 0 .59.59 0 0 0-.167.412v5.84c0 .154.06.303.167.412a.57.57 0 0 0 .404.172ZM462.001 256.236a.567.567 0 0 0 .403-.172.59.59 0 0 0 .168-.412v-5.84a.59.59 0 0 0-.167-.412.564.564 0 0 0-.808 0 .586.586 0 0 0-.168.412v5.84a.595.595 0 0 0 .168.412c.107.11.252.171.404.172ZM465.143 256.236a.567.567 0 0 0 .403-.172.59.59 0 0 0 .168-.412v-5.84a.585.585 0 0 0-.353-.539.562.562 0 0 0-.622.127.585.585 0 0 0-.168.412v5.84a.595.595 0 0 0 .168.412c.107.11.252.171.404.172Z"/><path fill="#fff" d="M473.429 246.601h-22.858a.57.57 0 0 0-.404.171.592.592 0 0 0 0 .826c.108.11.253.171.404.171h1.572l2.743 10.657a.57.57 0 0 0 .195.317c.099.08.222.122.348.121h13.142a.546.546 0 0 0 .348-.121.57.57 0 0 0 .195-.317l2.743-10.657h1.572a.566.566 0 0 0 .404-.171.59.59 0 0 0 0-.826.57.57 0 0 0-.404-.171Zm-5.286 11.095h-12.286l-2.543-9.927h17.372l-2.543 9.927ZM459.542 238.397l-4.571 6.713c-.171.261-.114.642.143.817.091.071.2.112.314.121.172 0 .372-.087.459-.26l4.572-6.715c.171-.261.114-.643-.143-.818-.255-.204-.6-.117-.771.146l-.003-.004ZM463.684 238.251c-.255.175-.315.555-.143.817l4.571 6.716a.552.552 0 0 0 .628.234.427.427 0 0 0 .146-.091c.255-.175.314-.554.143-.817l-4.572-6.715c-.171-.261-.514-.351-.771-.146l-.002.002Z"/><circle cx="587.5" cy="258.5" r="19.5" fill="#5B5B5B"/><path fill="#fff" d="M584.857 266.236a.567.567 0 0 0 .404-.172.595.595 0 0 0 .168-.412v-5.84a.59.59 0 0 0-.168-.412.562.562 0 0 0-.808 0 .59.59 0 0 0-.167.412v5.84c0 .154.06.303.167.412a.57.57 0 0 0 .404.172ZM588.001 266.236a.567.567 0 0 0 .403-.172.59.59 0 0 0 .168-.412v-5.84a.59.59 0 0 0-.167-.412.564.564 0 0 0-.808 0 .586.586 0 0 0-.168.412v5.84a.595.595 0 0 0 .168.412c.107.11.252.171.404.172ZM591.143 266.236a.567.567 0 0 0 .403-.172.59.59 0 0 0 .168-.412v-5.84a.585.585 0 0 0-.353-.539.562.562 0 0 0-.622.127.585.585 0 0 0-.168.412v5.84a.595.595 0 0 0 .168.412c.107.11.252.171.404.172Z"/><path fill="#fff" d="M599.429 256.601h-22.858a.57.57 0 0 0-.404.171.592.592 0 0 0 0 .826c.108.11.253.171.404.171h1.572l2.743 10.657a.57.57 0 0 0 .195.317c.099.08.222.122.348.121h13.142a.546.546 0 0 0 .348-.121.57.57 0 0 0 .195-.317l2.743-10.657h1.572a.566.566 0 0 0 .404-.171.59.59 0 0 0 0-.826.57.57 0 0 0-.404-.171Zm-5.286 11.095h-12.286l-2.543-9.927h17.372l-2.543 9.927ZM585.542 248.397l-4.571 6.713c-.171.261-.114.642.143.817.091.071.2.112.314.121.172 0 .372-.087.459-.26l4.572-6.715c.171-.261.114-.643-.143-.818-.255-.204-.6-.117-.771.146l-.003-.004ZM589.684 248.251c-.255.175-.315.555-.143.817l4.571 6.716a.552.552 0 0 0 .628.234.427.427 0 0 0 .146-.091c.255-.175.314-.554.143-.817l-4.572-6.715c-.171-.261-.514-.351-.771-.146l-.002.002Z"/><circle cx="505.5" cy="118.5" r="19.5" fill="#5B5B5B"/><path fill="#fff" d="M502.857 126.236a.567.567 0 0 0 .404-.172.595.595 0 0 0 .168-.412v-5.84a.59.59 0 0 0-.168-.412.562.562 0 0 0-.808 0 .59.59 0 0 0-.167.412v5.84c0 .154.06.303.167.412a.57.57 0 0 0 .404.172ZM506.001 126.236a.567.567 0 0 0 .403-.172.59.59 0 0 0 .168-.412v-5.84a.59.59 0 0 0-.167-.412.564.564 0 0 0-.808 0 .586.586 0 0 0-.168.412v5.84a.595.595 0 0 0 .168.412c.107.11.252.171.404.172ZM509.143 126.236a.567.567 0 0 0 .403-.172.59.59 0 0 0 .168-.412v-5.84a.585.585 0 0 0-.353-.539.562.562 0 0 0-.622.127.585.585 0 0 0-.168.412v5.84a.595.595 0 0 0 .168.412c.107.11.252.171.404.172Z"/><path fill="#fff" d="M517.429 116.601h-22.858a.57.57 0 0 0-.404.171.592.592 0 0 0 0 .826c.108.11.253.171.404.171h1.572l2.743 10.657a.57.57 0 0 0 .195.317c.099.08.222.122.348.121h13.142a.546.546 0 0 0 .348-.121.57.57 0 0 0 .195-.317l2.743-10.657h1.572a.566.566 0 0 0 .404-.171.59.59 0 0 0 0-.826.57.57 0 0 0-.404-.171Zm-5.286 11.095h-12.286l-2.543-9.927h17.372l-2.543 9.927ZM503.542 108.397l-4.571 6.713c-.171.261-.114.642.143.817.091.071.2.112.314.121.172 0 .372-.087.459-.26l4.572-6.715c.171-.261.114-.643-.143-.818-.255-.204-.6-.117-.771.146l-.003-.004ZM507.684 108.251c-.255.175-.315.555-.143.817l4.571 6.716a.552.552 0 0 0 .628.234.427.427 0 0 0 .146-.091c.255-.175.314-.554.143-.817l-4.572-6.715c-.171-.261-.514-.351-.771-.146l-.002.002Z"/><circle cx="436.5" cy="201.5" r="19.5" fill="#5B5B5B"/><path fill="#fff" d="M433.857 209.236a.567.567 0 0 0 .404-.172.595.595 0 0 0 .168-.412v-5.84a.59.59 0 0 0-.168-.412.562.562 0 0 0-.808 0 .59.59 0 0 0-.167.412v5.84c0 .154.06.303.167.412a.57.57 0 0 0 .404.172ZM437.001 209.236a.567.567 0 0 0 .403-.172.59.59 0 0 0 .168-.412v-5.84a.59.59 0 0 0-.167-.412.564.564 0 0 0-.808 0 .586.586 0 0 0-.168.412v5.84a.595.595 0 0 0 .168.412c.107.11.252.171.404.172ZM440.143 209.236a.567.567 0 0 0 .403-.172.59.59 0 0 0 .168-.412v-5.84a.585.585 0 0 0-.353-.539.562.562 0 0 0-.622.127.585.585 0 0 0-.168.412v5.84a.595.595 0 0 0 .168.412c.107.11.252.171.404.172Z"/><path fill="#fff" d="M448.429 199.601h-22.858a.57.57 0 0 0-.404.171.592.592 0 0 0 0 .826c.108.11.253.171.404.171h1.572l2.743 10.657a.57.57 0 0 0 .195.317c.099.08.222.122.348.121h13.142a.546.546 0 0 0 .348-.121.57.57 0 0 0 .195-.317l2.743-10.657h1.572a.566.566 0 0 0 .404-.171.59.59 0 0 0 0-.826.57.57 0 0 0-.404-.171Zm-5.286 11.095h-12.286l-2.543-9.927h17.372l-2.543 9.927ZM434.542 191.397l-4.571 6.713c-.171.261-.114.642.143.817.091.071.2.112.314.121.172 0 .372-.087.459-.26l4.572-6.715c.171-.261.114-.643-.143-.818-.255-.204-.6-.117-.771.146l-.003-.004ZM438.684 191.251c-.255.175-.315.555-.143.817l4.571 6.716a.552.552 0 0 0 .628.234.427.427 0 0 0 .146-.091c.255-.175.314-.554.143-.817l-4.572-6.715c-.171-.261-.514-.351-.771-.146l-.002.002Z"/><circle cx="432.5" cy="94.5" r="19.5" fill="#5B5B5B"/><path fill="#fff" d="M429.857 102.236a.567.567 0 0 0 .404-.172.595.595 0 0 0 .168-.412v-5.84a.592.592 0 0 0-.168-.412.564.564 0 0 0-.808 0 .591.591 0 0 0-.167.412v5.84c0 .154.06.303.167.412a.57.57 0 0 0 .404.172ZM433.001 102.236a.567.567 0 0 0 .403-.172.59.59 0 0 0 .168-.412v-5.84a.591.591 0 0 0-.167-.412.566.566 0 0 0-.808 0 .588.588 0 0 0-.168.412v5.84a.595.595 0 0 0 .168.412c.107.11.252.171.404.172ZM436.143 102.236a.567.567 0 0 0 .403-.172.59.59 0 0 0 .168-.412v-5.84a.591.591 0 0 0-.353-.54.556.556 0 0 0-.622.127.591.591 0 0 0-.168.413v5.84a.595.595 0 0 0 .168.412c.107.11.252.171.404.172Z"/><path fill="#fff" d="M444.429 92.601h-22.858a.568.568 0 0 0-.404.171.591.591 0 0 0 0 .826c.108.11.253.171.404.171h1.572l2.743 10.657a.57.57 0 0 0 .195.317c.099.08.222.122.348.121h13.142a.546.546 0 0 0 .348-.121.57.57 0 0 0 .195-.317l2.743-10.657h1.572a.567.567 0 0 0 .404-.17.59.59 0 0 0 0-.827.568.568 0 0 0-.404-.17Zm-5.286 11.095h-12.286l-2.543-9.927h17.372l-2.543 9.927ZM430.542 84.397l-4.571 6.713c-.171.26-.114.642.143.817.091.07.2.112.314.121.172 0 .372-.087.459-.26l4.572-6.715c.171-.261.114-.643-.143-.818-.255-.204-.6-.117-.771.146l-.003-.004ZM434.684 84.25c-.255.176-.315.556-.143.818l4.571 6.716a.554.554 0 0 0 .459.26.42.42 0 0 0 .315-.117c.255-.175.314-.554.143-.817l-4.572-6.715c-.171-.26-.514-.35-.771-.146l-.002.002Z"/><circle cx="212.5" cy="145.5" r="19.5" fill="#5B5B5B"/><path fill="#fff" d="M209.857 153.236a.567.567 0 0 0 .404-.172.595.595 0 0 0 .168-.412v-5.84a.59.59 0 0 0-.168-.412.562.562 0 0 0-.808 0 .59.59 0 0 0-.167.412v5.84c0 .154.06.303.167.412a.57.57 0 0 0 .404.172ZM213.001 153.236a.567.567 0 0 0 .403-.172.59.59 0 0 0 .168-.412v-5.84a.59.59 0 0 0-.167-.412.564.564 0 0 0-.808 0 .586.586 0 0 0-.168.412v5.84a.595.595 0 0 0 .168.412c.107.11.252.171.404.172ZM216.143 153.236a.567.567 0 0 0 .403-.172.59.59 0 0 0 .168-.412v-5.84a.585.585 0 0 0-.353-.539.562.562 0 0 0-.622.127.585.585 0 0 0-.168.412v5.84a.595.595 0 0 0 .168.412c.107.11.252.171.404.172Z"/><path fill="#fff" d="M224.429 143.601h-22.858a.57.57 0 0 0-.404.171.592.592 0 0 0 0 .826c.108.11.253.171.404.171h1.572l2.743 10.657a.57.57 0 0 0 .195.317c.099.08.222.122.348.121h13.142a.546.546 0 0 0 .348-.121.57.57 0 0 0 .195-.317l2.743-10.657h1.572a.566.566 0 0 0 .404-.171.59.59 0 0 0 0-.826.57.57 0 0 0-.404-.171Zm-5.286 11.095h-12.286l-2.543-9.927h17.372l-2.543 9.927ZM210.542 135.397l-4.571 6.713c-.171.261-.114.642.143.817.091.071.2.112.314.121.172 0 .372-.087.459-.26l4.572-6.715c.171-.261.114-.643-.143-.818-.255-.204-.6-.117-.771.146l-.003-.004ZM214.684 135.251c-.255.175-.315.555-.143.817l4.571 6.716a.552.552 0 0 0 .628.234.427.427 0 0 0 .146-.091c.255-.175.314-.554.143-.817l-4.572-6.715c-.171-.261-.514-.351-.771-.146l-.002.002Z"/><circle cx="95.5" cy="74.5" r="19.5" fill="#5B5B5B"/><path fill="#fff" d="M92.857 82.236a.567.567 0 0 0 .404-.172.592.592 0 0 0 .168-.412v-5.84a.59.59 0 0 0-.168-.412.565.565 0 0 0-.808 0 .59.59 0 0 0-.167.412v5.84c0 .154.06.303.168.412.107.11.252.171.403.172ZM96 82.236a.566.566 0 0 0 .404-.172.592.592 0 0 0 .168-.412v-5.84a.59.59 0 0 0-.167-.412.565.565 0 0 0-.808 0 .59.59 0 0 0-.168.412v5.84c0 .154.06.303.168.412.107.11.252.171.404.172ZM99.143 82.236a.567.567 0 0 0 .403-.172.592.592 0 0 0 .168-.412v-5.84a.593.593 0 0 0-.167-.412.571.571 0 0 0-.404-.172.56.56 0 0 0-.404.172.585.585 0 0 0-.168.412v5.84c0 .154.061.303.168.412.107.11.252.171.404.172Z"/><path fill="#fff" d="M107.429 72.601H84.571a.565.565 0 0 0-.404.171.59.59 0 0 0 0 .826c.108.11.253.171.404.171h1.572l2.743 10.657a.565.565 0 0 0 .195.317c.1.08.222.122.348.12h13.142a.545.545 0 0 0 .348-.12.568.568 0 0 0 .195-.317l2.743-10.657h1.572a.567.567 0 0 0 .404-.17.59.59 0 0 0 0-.827.568.568 0 0 0-.404-.17Zm-5.286 11.095H89.857l-2.543-9.927h17.372l-2.543 9.927ZM93.543 64.397 88.97 71.11c-.171.26-.114.642.143.817.091.07.2.112.314.121.172 0 .372-.087.46-.26l4.57-6.715c.172-.261.115-.643-.142-.818-.255-.204-.6-.117-.772.146l-.001-.004ZM97.684 64.25c-.255.176-.315.556-.143.818l4.571 6.716a.554.554 0 0 0 .459.26.42.42 0 0 0 .315-.117c.255-.175.314-.554.143-.817l-4.572-6.715c-.171-.26-.514-.35-.771-.146l-.002.002Z"/><circle cx="646.5" cy="158.5" r="19.5" fill="#5B5B5B"/><path fill="#fff" d="M643.857 166.236a.567.567 0 0 0 .404-.172.595.595 0 0 0 .168-.412v-5.84a.59.59 0 0 0-.168-.412.562.562 0 0 0-.808 0 .59.59 0 0 0-.167.412v5.84c0 .154.06.303.167.412a.57.57 0 0 0 .404.172ZM647.001 166.236a.567.567 0 0 0 .403-.172.59.59 0 0 0 .168-.412v-5.84a.59.59 0 0 0-.167-.412.564.564 0 0 0-.808 0 .586.586 0 0 0-.168.412v5.84a.595.595 0 0 0 .168.412c.107.11.252.171.404.172ZM650.143 166.236a.567.567 0 0 0 .403-.172.59.59 0 0 0 .168-.412v-5.84a.585.585 0 0 0-.353-.539.562.562 0 0 0-.622.127.585.585 0 0 0-.168.412v5.84a.595.595 0 0 0 .168.412c.107.11.252.171.404.172Z"/><path fill="#fff" d="M658.429 156.601h-22.858a.57.57 0 0 0-.404.171.592.592 0 0 0 0 .826c.108.11.253.171.404.171h1.572l2.743 10.657a.57.57 0 0 0 .195.317c.099.08.222.122.348.121h13.142a.546.546 0 0 0 .348-.121.57.57 0 0 0 .195-.317l2.743-10.657h1.572a.566.566 0 0 0 .404-.171.59.59 0 0 0 0-.826.57.57 0 0 0-.404-.171Zm-5.286 11.095h-12.286l-2.543-9.927h17.372l-2.543 9.927ZM644.542 148.397l-4.571 6.713c-.171.261-.114.642.143.817.091.071.2.112.314.121.172 0 .372-.087.459-.26l4.572-6.715c.171-.261.114-.643-.143-.818-.255-.204-.6-.117-.771.146l-.003-.004ZM648.684 148.251c-.255.175-.315.555-.143.817l4.571 6.716a.552.552 0 0 0 .628.234.427.427 0 0 0 .146-.091c.255-.175.314-.554.143-.817l-4.572-6.715c-.171-.261-.514-.351-.771-.146l-.002.002Z"/><circle cx="255.5" cy="261.5" r="19.5" fill="#5B5B5B"/><path fill="#fff" d="M252.857 269.236a.567.567 0 0 0 .404-.172.595.595 0 0 0 .168-.412v-5.84a.59.59 0 0 0-.168-.412.562.562 0 0 0-.808 0 .59.59 0 0 0-.167.412v5.84c0 .154.06.303.167.412a.57.57 0 0 0 .404.172ZM256.001 269.236a.567.567 0 0 0 .403-.172.59.59 0 0 0 .168-.412v-5.84a.59.59 0 0 0-.167-.412.564.564 0 0 0-.808 0 .586.586 0 0 0-.168.412v5.84a.595.595 0 0 0 .168.412c.107.11.252.171.404.172ZM259.143 269.236a.567.567 0 0 0 .403-.172.59.59 0 0 0 .168-.412v-5.84a.585.585 0 0 0-.353-.539.562.562 0 0 0-.622.127.585.585 0 0 0-.168.412v5.84a.595.595 0 0 0 .168.412c.107.11.252.171.404.172Z"/><path fill="#fff" d="M267.429 259.601h-22.858a.57.57 0 0 0-.404.171.592.592 0 0 0 0 .826c.108.11.253.171.404.171h1.572l2.743 10.657a.57.57 0 0 0 .195.317c.099.08.222.122.348.121h13.142a.546.546 0 0 0 .348-.121.57.57 0 0 0 .195-.317l2.743-10.657h1.572a.566.566 0 0 0 .404-.171.59.59 0 0 0 0-.826.57.57 0 0 0-.404-.171Zm-5.286 11.095h-12.286l-2.543-9.927h17.372l-2.543 9.927ZM253.542 251.397l-4.571 6.713c-.171.261-.114.642.143.817.091.071.2.112.314.121.172 0 .372-.087.459-.26l4.572-6.715c.171-.261.114-.643-.143-.818-.255-.204-.6-.117-.771.146l-.003-.004ZM257.684 251.251c-.255.175-.315.555-.143.817l4.571 6.716a.552.552 0 0 0 .628.234.427.427 0 0 0 .146-.091c.255-.175.314-.554.143-.817l-4.572-6.715c-.171-.261-.514-.351-.771-.146l-.002.002Z"/><circle cx="63.5" cy="216.5" r="19.5" fill="#5B5B5B"/><path fill="#fff" d="M60.857 224.236a.567.567 0 0 0 .404-.172.591.591 0 0 0 .167-.412v-5.84a.589.589 0 0 0-.167-.412.563.563 0 0 0-.808 0 .589.589 0 0 0-.167.412v5.84c0 .154.06.303.167.412.107.11.253.171.404.172ZM64 224.236a.567.567 0 0 0 .404-.172.592.592 0 0 0 .168-.412v-5.84a.589.589 0 0 0-.167-.412.563.563 0 0 0-.808 0 .589.589 0 0 0-.168.412v5.84c0 .154.06.303.168.412.107.11.252.171.404.172ZM67.143 224.236a.567.567 0 0 0 .403-.172.591.591 0 0 0 .168-.412v-5.84a.594.594 0 0 0-.167-.412.556.556 0 0 0-.404-.171.567.567 0 0 0-.528.36.596.596 0 0 0-.044.223v5.84c0 .154.061.303.168.412.107.11.252.171.404.172Z"/><path fill="#fff" d="M75.429 214.601H52.57a.567.567 0 0 0-.404.171.591.591 0 0 0 0 .826c.108.11.253.171.404.171h1.572l2.743 10.657a.567.567 0 0 0 .195.317c.1.08.222.122.348.121H70.57a.544.544 0 0 0 .348-.121.567.567 0 0 0 .195-.317l2.743-10.657h1.572a.563.563 0 0 0 .404-.171.59.59 0 0 0 0-.826.567.567 0 0 0-.404-.171Zm-5.286 11.095H57.857l-2.543-9.927h17.372l-2.543 9.927ZM61.542 206.397l-4.571 6.713c-.171.261-.114.642.143.817.091.071.2.112.314.121.172 0 .372-.087.46-.26l4.57-6.715c.172-.261.115-.643-.142-.818-.255-.204-.6-.117-.772.146l-.002-.004ZM65.684 206.251c-.255.175-.315.555-.143.817l4.571 6.716a.548.548 0 0 0 .628.234.427.427 0 0 0 .146-.091c.255-.175.314-.554.142-.817l-4.57-6.715c-.172-.261-.515-.351-.772-.146l-.002.002Z"/><circle cx="38.5" cy="282.5" r="19.5" fill="#5B5B5B"/><path fill="#fff" d="M35.857 290.236a.567.567 0 0 0 .404-.172.591.591 0 0 0 .167-.412v-5.84a.589.589 0 0 0-.167-.412.563.563 0 0 0-.808 0 .589.589 0 0 0-.167.412v5.84c0 .154.06.303.167.412.107.11.253.171.404.172ZM39 290.236a.567.567 0 0 0 .404-.172.592.592 0 0 0 .168-.412v-5.84a.589.589 0 0 0-.167-.412.563.563 0 0 0-.808 0 .589.589 0 0 0-.168.412v5.84c0 .154.06.303.168.412.107.11.252.171.404.172ZM42.143 290.236a.567.567 0 0 0 .403-.172.591.591 0 0 0 .168-.412v-5.84a.594.594 0 0 0-.167-.412.556.556 0 0 0-.404-.171.567.567 0 0 0-.528.36.596.596 0 0 0-.044.223v5.84c0 .154.061.303.168.412.107.11.252.171.404.172Z"/><path fill="#fff" d="M50.429 280.601H27.57a.567.567 0 0 0-.404.171.591.591 0 0 0 0 .826c.107.11.253.171.404.171h1.572l2.743 10.657a.567.567 0 0 0 .195.317c.1.08.222.122.348.121H45.57a.544.544 0 0 0 .348-.121.567.567 0 0 0 .195-.317l2.743-10.657h1.572a.563.563 0 0 0 .404-.171.59.59 0 0 0 0-.826.567.567 0 0 0-.404-.171Zm-5.286 11.095H32.857l-2.543-9.927h17.372l-2.543 9.927ZM36.542 272.397l-4.571 6.713c-.171.261-.114.642.143.817.091.071.2.112.314.121.172 0 .372-.087.46-.26l4.57-6.715c.172-.261.115-.643-.142-.818-.255-.204-.6-.117-.772.146l-.002-.004ZM40.684 272.251c-.255.175-.315.555-.143.817l4.571 6.716a.548.548 0 0 0 .628.234.427.427 0 0 0 .146-.091c.255-.175.314-.554.142-.817l-4.57-6.715c-.172-.261-.515-.351-.772-.146l-.002.002Z"/><circle cx="194.5" cy="321.5" r="19.5" fill="#5B5B5B"/><path fill="#fff" d="M191.857 329.236a.567.567 0 0 0 .404-.172.595.595 0 0 0 .168-.412v-5.84a.59.59 0 0 0-.168-.412.562.562 0 0 0-.808 0 .59.59 0 0 0-.167.412v5.84c0 .154.06.303.167.412a.57.57 0 0 0 .404.172ZM195.001 329.236a.567.567 0 0 0 .403-.172.59.59 0 0 0 .168-.412v-5.84a.59.59 0 0 0-.167-.412.564.564 0 0 0-.808 0 .586.586 0 0 0-.168.412v5.84a.595.595 0 0 0 .168.412c.107.11.252.171.404.172ZM198.143 329.236a.567.567 0 0 0 .403-.172.59.59 0 0 0 .168-.412v-5.84a.585.585 0 0 0-.353-.539.562.562 0 0 0-.622.127.585.585 0 0 0-.168.412v5.84a.595.595 0 0 0 .168.412c.107.11.252.171.404.172Z"/><path fill="#fff" d="M206.429 319.601h-22.858a.57.57 0 0 0-.404.171.592.592 0 0 0 0 .826c.108.11.253.171.404.171h1.572l2.743 10.657a.57.57 0 0 0 .195.317c.099.08.222.122.348.121h13.142a.546.546 0 0 0 .348-.121.57.57 0 0 0 .195-.317l2.743-10.657h1.572a.566.566 0 0 0 .404-.171.59.59 0 0 0 0-.826.57.57 0 0 0-.404-.171Zm-5.286 11.095h-12.286l-2.543-9.927h17.372l-2.543 9.927ZM192.542 311.397l-4.571 6.713c-.171.261-.114.642.143.817.091.071.2.112.314.121.172 0 .372-.087.459-.26l4.572-6.715c.171-.261.114-.643-.143-.818-.255-.204-.6-.117-.771.146l-.003-.004ZM196.684 311.251c-.255.175-.315.555-.143.817l4.571 6.716a.552.552 0 0 0 .628.234.427.427 0 0 0 .146-.091c.255-.175.314-.554.143-.817l-4.572-6.715c-.171-.261-.514-.351-.771-.146l-.002.002Z"/><circle cx="451.5" cy="303.5" r="19.5" fill="#5B5B5B"/><path fill="#fff" d="M463.674 303.596 456.5 302v-3.416c0-.006-.003-.011-.003-.017a.414.414 0 0 0-.029-.143l-.01-.017a.412.412 0 0 0-.048-.081l-4.493-5.72v-1.524h.833v-.832h-.833V289h-.834v1.25h-.833v.833h.833v1.524l-4.494 5.719a.45.45 0 0 0-.048.082c-.002.006-.007.011-.01.017a.433.433 0 0 0-.028.143c0 .005-.003.01-.003.016V302l-7.174 1.596a.413.413 0 0 0-.234.146.413.413 0 0 0-.092.26v9.581a.42.42 0 0 0 .417.417h24.166a.42.42 0 0 0 .417-.417V304a.414.414 0 0 0-.326-.407v.003Zm-8.007 9.571H454v-5.417a2.498 2.498 0 0 0-2.5-2.5 2.501 2.501 0 0 0-2.5 2.5v5.417h-1.667V299h8.334v14.167Zm-4.167-19.742 3.726 4.742h-7.452l3.726-4.742Zm-11.667 10.91 6.667-1.481v10.313h-6.667v-8.832Zm10 8.832v-5.417a1.669 1.669 0 0 1 2.846-1.178c.312.313.488.736.488 1.178v5.417h-3.334Zm13.334 0H456.5v-10.314l6.667 1.482v8.832Z"/><path fill="#fff" d="M451.5 300.667a1.67 1.67 0 0 0-1.54 1.029 1.663 1.663 0 0 0 .362 1.816 1.666 1.666 0 1 0 1.178-2.845Zm0 2.5a.837.837 0 0 1-.77-.514.836.836 0 0 1 .608-1.136.826.826 0 0 1 .855.354.833.833 0 0 1-.693 1.296ZM458.167 310.25h3.333a.4.4 0 0 0 .295-.121.43.43 0 0 0 .122-.295v-2.5a2.08 2.08 0 0 0-.611-1.473 2.08 2.08 0 0 0-2.946 0c-.391.39-.61.92-.61 1.473v2.5a.41.41 0 0 0 .122.295.4.4 0 0 0 .295.121Zm.416-2.916a1.25 1.25 0 1 1 2.5 0v2.083h-2.5v-2.083ZM443.166 305.25a2.088 2.088 0 0 0-2.083 2.084v2.5a.41.41 0 0 0 .122.295.4.4 0 0 0 .295.121h3.333a.4.4 0 0 0 .295-.121.43.43 0 0 0 .122-.295v-2.5a2.09 2.09 0 0 0-.611-1.473 2.09 2.09 0 0 0-1.473-.611Zm1.25 4.167h-2.5v-2.083a1.25 1.25 0 1 1 2.5 0v2.083Z"/></svg>