<svg xmlns="http://www.w3.org/2000/svg" width="171" height="58" fill="none"><path fill="#fff" fill-rule="evenodd" d="M86.174 0c8.623.317 15.504 7.337 15.563 15.95.063 8.847-7.191 16.125-16.145 16.187-8.954.062-16.31-7.11-16.372-15.964C69.16 7.545 76.05.42 84.688.006l.02 4.57c-2.969.194-5.752 1.502-7.781 3.657a11.51 11.51 0 0 0-3.14 7.941 11.422 11.422 0 0 0 1.175 4.957 11.536 11.536 0 0 0 3.218 3.971l4.411-11.501-3.062.024s-.605-.118-.949.165l-.728.691s-.056-1.894.028-2.095c.085-.245.331-2.141 1.192-3.113.856-.933 2.234-1.064 2.234-1.064l9.793-.067-1.413 1.462 3.401 15.217a11.527 11.527 0 0 0 3.006-3.962c.7-1.521 1.056-3.175 1.045-4.846a11.513 11.513 0 0 0-3.225-7.87A11.74 11.74 0 0 0 86.13 4.57L86.177 0h-.003ZM82.43 9.48a.532.532 0 0 1 .376.14.521.521 0 0 1 .168.363.517.517 0 0 1-.163.362.527.527 0 0 1-.373.143.526.526 0 0 1-.495-.301.514.514 0 0 1-.047-.197.52.52 0 0 1 .16-.364.53.53 0 0 1 .374-.146ZM9.942 57.835 9.1 50.998l-1.378 6.837H5.812l-1.53-6.837-.917 6.837H0l1.95-13.596h3.479l1.261 6.005 1.338-6.005h3.365l1.91 13.596H9.943Zm11.583-13.596v3.416h-3.402v1.75h2.408v3.418h-2.408v1.63h3.402v3.382h-6.766V44.237l6.766.002Zm1.835 0h7.416v3.693H28.75v9.903h-3.402v-9.898h-1.99v-3.693l.002-.005Zm8.677 13.596 3.325-13.598h3.935l3.33 13.598h-3.33l-.534-1.948h-2.868l-.494 1.948h-3.364Zm6.117-4.651-.803-3.457-.88 3.457h1.683Zm12.692-8.945 2.676 13.596H50.12l-1.453-10.136h-.268l-1.49 10.136h-3.365l2.6-13.596h4.702Zm10.895 0 2.714 13.596h-3.403L59.6 47.699h-.266L57.84 57.835h-3.364l2.638-13.596h4.626Zm14.07 0v13.596h-3.403v-6.241l-3.136 6.24h-3.364V44.238h3.364v6.56l3.363-6.56 3.175.002Zm5.81 0v5.17h2.558v-5.17h3.363v13.596H84.18v-5.01h-2.558v5.01h-3.365V44.237l3.363.002Zm13.419 0c.917 0 1.643.359 2.178.998.534.676.803 1.55.803 2.583 0 .836-.114 1.471-.345 1.949-.229.438-.534.755-.916.874.612.158 1.07.518 1.452 1.034.42.599.61 1.352.61 2.227 0 1.231-.266 2.225-.838 2.9-.612.716-1.415 1.034-2.486 1.034h-5.62v-13.6l5.162.001Zm-1.76 2.943v1.948h.574c.497 0 .765-.319.765-.953 0-.678-.268-.998-.765-.998l-.573.003Zm0 5.166v1.989h.88c.535 0 .841-.318.841-.998 0-.318-.076-.557-.23-.716a.886.886 0 0 0-.61-.28l-.88.005Zm14.07-8.109v3.416h-3.402v1.75h3.364v3.418h-3.364v1.63h3.402v3.382h-6.767V44.237l6.767.002Zm7.722 4.375a1.69 1.69 0 0 0-.788.164 1.726 1.726 0 0 0-.628.51c-.306.439-.457 1.035-.457 1.75 0 .676.151 1.272.497 1.749.305.437.764.676 1.377.676.382 0 .65 0 .84-.08.201-.036.394-.104.574-.2v4.652a2.45 2.45 0 0 1-.459.12c-.317.04-.636.053-.955.04-1.758 0-3.174-.677-4.244-2.147-.955-1.313-1.414-2.902-1.414-4.81 0-1.868.459-3.46 1.414-4.77 1.032-1.432 2.447-2.147 4.244-2.147a4.91 4.91 0 0 1 .802.04c.2.066.405.12.612.158v4.612a3.71 3.71 0 0 0-.459-.2 3.695 3.695 0 0 0-.955-.118h-.001Zm3.212-4.375h7.45v3.693h-2.022v9.903h-3.406v-9.898h-2.025v-3.693l.003-.005Zm12.92 5.05h2.066c.955 0 1.758.357 2.37 1.072.688.757.994 1.75.994 3.061 0 1.312-.306 2.386-.956 3.22-.65.799-1.453 1.198-2.408 1.198h-5.472V44.237h7.837v2.864h-4.434v2.185l.003.002Zm0 3.298v1.948h.842c.572 0 .84-.316.84-.998 0-.319-.076-.557-.229-.715a.786.786 0 0 0-.611-.24l-.842.005Zm6.496 5.248 3.328-13.598h3.9l3.322 13.598h-3.325l-.497-1.948h-2.908l-.492 1.948H137.7Zm6.078-4.731-.803-3.294-.885 3.294h1.688Zm9.596-8.865v5.17h2.521v-5.17h3.365v13.596h-3.365v-5.01h-2.521v5.01h-3.403V44.237l3.403.002Zm11.659 0v4.93l2.331-4.93h3.475l-2.982 6.322 3.1 7.274h-3.479l-2.443-5.845v5.845h-3.366V44.237l3.364.002Z" clip-rule="evenodd"/></svg>