<svg xmlns="http://www.w3.org/2000/svg" width="533" height="248" fill="none"><path stroke="#181818" stroke-width="2.048" d="m8 5.715-.481 1.927v.001l.008.004.03.017c.03.015.072.039.128.07A20.908 20.908 0 0 1 9.6 8.947c.535.384 1.055.804 1.454 1.218.415.432.597.751.641.936.593 3.13.95 8.497 1.154 16.15.204 7.643.255 17.497.255 29.543 0 24.22-.813 38.716-1.422 45.552-.067.319-.276.715-.65 1.17-.379.461-.869.911-1.373 1.314a16.55 16.55 0 0 1-1.92 1.314l-.028.017-.006.003h-.001l-3.429 1.918h48.049c15.073 0 27.169-12.095 27.169-27.402 0-13.312-9.464-24.563-21.994-27.018 6.412-4.912 10.556-12.618 10.556-21.376 0-14.673-11.881-26.78-26.353-26.78h-.008l-24.502.209H8Zm39.77 53.763h.01l.012.001c10.6.392 19.023 10.236 18.827 21.39v.019c0 10.978-8.846 21.407-19.402 21.407-3.608 0-8.161-.357-12.8-.722-2.1-.165-4.218-.331-6.273-.466-.59-7.013-1.326-20.716-1.35-41.635 1.095-.016 2.234-.053 3.39-.091l.165-.005c1.584-.052 3.202-.104 4.817-.104 4.71 0 9.168 0 12.603.206ZM28.31 12.865l.058-.957a129.37 129.37 0 0 0 3.034-.096l.068-.003c1.283-.051 2.515-.1 3.695-.1h2.635c9.974.402 17.993 9.824 17.993 20.369 0 10.553-8.634 20.577-18.79 20.577H26.806c.208-18.476 1.055-32.388 1.506-39.79ZM190.606 106.122l-.409 1.96H160.492l30.114-1.96Zm0 0 .001-.003m-.001.003.001-.003m0 0-.006-.002-.036-.017c-.034-.016-.088-.041-.158-.076-.14-.07-.345-.177-.596-.322a12.68 12.68 0 0 1-1.857-1.316c-1.377-1.183-2.689-2.876-2.863-5.093v-.001c-.61-7.65-1.223-21.744-1.223-42.498 0-19.928.613-34.842 1.425-42.89l.001-.01.001-.01c.171-2.088 1.455-3.619 2.821-4.673a11.563 11.563 0 0 1 2.438-1.43c.07-.03.123-.05.156-.064l.036-.014.005-.002h.001l-.001-.003-.349-1.983h-26.349l-.49 1.921-.001.002h.001l.008.005.04.022.164.096a16.923 16.923 0 0 1 2.506 1.844c1.429 1.278 2.713 2.924 2.88 4.706l.001.012c.606 5.752.811 17.326.811 30.425 0 21.172-.612 45.43-1.222 53.708-.174 1.818-1.493 3.728-2.944 5.28a22.845 22.845 0 0 1-2.545 2.326l-.168.129-.042.031-.009.007h-.001v.001l27.565-.111Zm-83.325-53.248c.209-18.63 1.069-32.788 1.517-40.173l.104-1.731c.031-.348.202-.726.53-1.129.33-.406.777-.784 1.254-1.116a10.985 10.985 0 0 1 1.84-1.022l.026-.011.004-.002v-.002l-.386-1.97H88.477l-.444 1.945v.001l.005.003.026.012.109.056a13.212 13.212 0 0 1 1.689 1.051c.473.35.929.744 1.281 1.16.353.415.552.793.613 1.116 1.007 6.987 1.62 23.105 1.62 45.736 0 22.019-.839 36.007-1.3 43.685-.046.777-.089 1.489-.126 2.138-.03.287-.203.679-.576 1.161-.368.473-.861.945-1.38 1.374a17.002 17.002 0 0 1-1.87 1.337l-.124.076-.03.018-.007.004-3.286 1.909H98.492l34.105-.207h.002c15.083-.002 27.167-12.315 27.167-27.61s-12.083-27.607-27.165-27.61h-.004l-25.315-.2ZM88.032 7.66Zm20.385 93.237c-.59-6.988-1.327-20.317-1.349-40.863 5.738-.392 12.581-.763 17.767-.763H128.084c10.594.403 19.013 10.25 19.013 21.2 0 10.979-8.847 21.408-19.402 21.408-4.288 0-10.071-.38-15.632-.745-1.232-.081-2.454-.162-3.646-.237ZM201.636 5.715l-.343 1.986-.001.002.005.002.027.01.113.044a11.909 11.909 0 0 1 1.762.868c.493.298.961.641 1.318 1.012.341.355.529.68.594.968.05.862.112 1.862.182 2.995.508 8.215 1.446 23.394 1.446 43.192 0 23.888-.818 39.816-1.624 45.552l-.001.009c-.149 1.137-.942 2.007-1.892 2.667a9.847 9.847 0 0 1-1.305.752c-.13.064-.24.115-.342.163l-.144.067a5.284 5.284 0 0 0-.199.1l-.005.002c-.033.018-.19.1-.321.234l-1.714 1.742h46.563c15.084 0 27.169-12.314 27.169-27.61 0-15.092-12.088-27.4-27.164-27.402h-.005l-25.314-.2c.207-18.683 1.056-32.627 1.507-40.027l.056-.926h20.483c6.845 0 11.589 5.438 14.696 11.294 1.533 2.89 2.616 5.79 3.315 7.972.35 1.09.602 1.996.767 2.628a33.204 33.204 0 0 1 .225.917l.011.046.002.01v.002h.003l2.022-.216h-1.024 1.024v-.031l.001-.094.001-.364a269.096 269.096 0 0 1 .1-5.894c.102-3.606.306-7.977.707-11.142l.001-.004c.302-2.457.807-5.286 1.24-7.511a180.348 180.348 0 0 1 .724-3.534l.046-.21.012-.054.003-.014.001-.003.312-1.405-1.429.165h-.006l-.018.003-.076.008-.303.033c-.268.028-.667.07-1.186.12-1.04.1-2.565.235-4.497.377-3.863.285-9.355.595-15.865.699h-41.66Zm.563 102.194.004-.002a.26.26 0 0 1-.004.002Zm19.581-7.011c-.59-6.987-1.327-20.305-1.349-40.656 5.738-.392 12.58-.762 17.767-.762H241.447c10.593.402 18.808 10.04 18.808 20.992 0 10.979-8.846 21.408-19.402 21.408-4.22 0-9.767-.368-15.193-.728-1.307-.087-2.607-.173-3.88-.254ZM297.497 64.48l-.002-.014-.003-.013c-.999-4.265-1.403-8.96-1.403-13.474 0-4.08.4-7.755 1.004-11.236 2.588-12.927 13.54-25.663 28.016-28.89l.015-.003.015-.003c2.34-.595 4.904-.8 7.305-.8 11.898 0 23.252 6.466 30.027 15.381l.008.01c4.568 5.857 7.79 14.206 9.61 22.638.801 3.868 1.204 8.365 1.204 12.25 0 3.88-.403 7.775-.807 10.655-1.986 13.93-12.922 26.869-28.014 30.301l-.012.003-.013.003c-2.341.595-4.904.799-7.305.799-12.727 0-24.854-6.885-30.996-16.55-3.024-4.92-7.047-13.32-8.649-21.058Zm25.534-61.234c-21.502 4.673-41.858 27.307-41.858 53.964 0 3.354.204 6.976 1.252 10.828 5.624 28.097 26.682 42.744 50.427 42.744 4.361 0 8.522-.423 13.094-1.479 24.997-5.51 42.059-27.957 42.059-52.924 0-3.809-.416-7.828-1.249-11.64-5.413-25.398-27.688-42.763-52.27-42.763-3.955 0-7.706.423-11.455 1.27ZM396.498 5.506l-.359 1.982-.001.001.006.002.027.01.11.045a13.768 13.768 0 0 1 1.673.808c.464.266.892.557 1.202.85.332.312.403.507.41.567l.002.013c1.011 7.404 1.829 22.922 1.829 47.01 0 22.906-.908 37.491-1.353 44.641l-.071 1.13c-.068.31-.272.686-.635 1.111-.374.439-.86.862-1.361 1.238a15.306 15.306 0 0 1-1.793 1.15l-.117.063-.028.015-.005.003h-.001l.001.001.464 1.935h23.693l.343-1.986.001-.002-.004-.002-.025-.009-.112-.043a10.304 10.304 0 0 1-1.716-.881c-1.02-.657-1.696-1.406-1.755-2.131l-.003-.035-.006-.034c-.804-5.318-1.622-18.75-1.622-39.933v-4.182l14.915-.194c14.468-.004 26.141-11.9 26.141-26.571 0-14.673-11.881-26.78-26.352-26.78h-.009l-24.298.208H396.498Zm19.009 47.148c.209-18.426 1.067-32.557 1.515-39.943l.053-.868c1.676-.113 3.536-.131 5.361-.134v.207h4.067c9.974.402 17.992 9.824 17.992 20.37 0 5.123-2.136 10.233-5.583 14.06-3.446 3.827-8.137 6.309-13.206 6.309h-10.199Z"/><path fill="#C4A27A" stroke="#181818" stroke-width="2.048" d="M334.485 66.568c-1.651-4.507-5.171-8.081-9.62-9.75 4.458-1.667 7.996-5.244 9.717-9.749a16.118 16.118 0 0 0 9.527 9.749c-4.45 1.667-7.972 5.242-9.624 9.75Z"/><path stroke="#181818" stroke-width="2.048" d="m91.73 244.36.444-1.944.001-.002-.006-.003-.037-.018-.154-.082a14.312 14.312 0 0 1-2.413-1.669c-1.37-1.18-2.677-2.804-2.943-4.781-.609-7.334-1.22-21.209-1.22-42.45 0-19.421.612-34.516 1.424-42.446.158-1.325 1.261-2.686 2.616-3.867.65-.568 1.307-1.05 1.836-1.421.176-.123.33-.23.47-.325l.21-.145.017-.012c.142-.098.352-.243.48-.371l1.744-1.747H8l-.257 2.01-.001.004H7.74l.004.001a7.687 7.687 0 0 1 .73.261c.472.196 1.102.506 1.738.961 1.267.907 2.515 2.349 2.69 4.617v.002c.61 7.741 1.222 22.649 1.426 42.484v3.268c0 19.412-1.02 35.132-1.425 39.184v.009c-.168 1.847-1.399 3.36-2.746 4.468a13.246 13.246 0 0 1-2.378 1.551l-.154.075-.036.017-.006.003v.002L8 243.951h26.344l.445-1.944v-.002l-.007-.004-.037-.019a13.794 13.794 0 0 1-.742-.413 15.198 15.198 0 0 1-1.816-1.274c-1.371-1.129-2.58-2.588-2.745-4.214-.61-7.338-1.426-21.22-1.426-42.465 0-18.966.585-36.264 1.732-43.474.068-.019.148-.039.242-.06.388-.086.907-.165 1.552-.235 1.285-.14 2.984-.235 4.954-.298 3.937-.128 8.87-.128 13.573-.128 4.387 0 9.218.052 13.126.23 1.956.089 3.662.209 4.957.367.65.08 1.176.166 1.57.258.087.02.165.04.234.06.624 5.367 1.757 24.408 1.757 43.485 0 21.621-.812 35.698-1.422 43.044-.358 2.078-1.612 3.438-2.84 4.304a9.223 9.223 0 0 1-1.659.926c-.22.094-.4.161-.52.202-.06.021-.105.035-.133.044l-.029.009h-.002l.002.005.276 2.005H91.73ZM151.406 184.316l-.004.011-.009.022a6.467 6.467 0 0 1-.44.807 9.424 9.424 0 0 1-1.807 2.058c-1.749 1.508-4.781 3.121-9.854 3.22h-.004l-17.92.194c.211-19.526.951-34.09 1.539-41.3h26.194c6.85 0 11.586 5.293 14.683 10.974 1.53 2.806 2.61 5.622 3.308 7.741.349 1.058.601 1.939.765 2.552.082.307.142.546.182.708l.027.111.016.071.01.044.002.01.001.002.003-.001 2.021-.221h-1.024 1.024v-.264l.001-.22a263.444 263.444 0 0 1 .1-5.831c.102-3.562.305-7.877.704-11.007.404-2.54.96-5.34 1.417-7.512.228-1.087.432-2.014.578-2.669.072-.327.131-.587.171-.764l.047-.202.012-.052.003-.013v-.004h.001l.349-1.507-1.524.267h-.001l-.004.001-.018.003-.078.013-.312.051c-.276.044-.687.108-1.222.184a123.76 123.76 0 0 1-4.593.56c-3.926.409-9.449.817-15.833.817h-47.333l-.423 1.955v.002l.005.002.027.013a12.003 12.003 0 0 1 .544.277c.361.195.84.475 1.318.816.484.345.938.73 1.273 1.13.34.407.495.753.52 1.029.61 7.166 1.629 22.959 1.629 45.119 0 24.348-.98 38.628-1.402 44.781l-.02.293c-.068.309-.275.696-.644 1.14-.378.456-.867.901-1.371 1.3a16.66 16.66 0 0 1-1.8 1.232l-.118.068-.028.016-.006.004h-.001l-3.465 1.919h51.499c6.384 0 11.907.409 15.833.817 1.962.204 3.524.408 4.593.56a83.668 83.668 0 0 1 1.534.235l.078.013.018.003.004.001h.001l1.523.267-.349-1.507v-.004l-.003-.013-.012-.051-.047-.203c-.04-.177-.099-.436-.171-.764-.146-.655-.35-1.582-.578-2.669-.456-2.168-1.01-4.961-1.414-7.498-.301-3.045-.503-7.367-.631-10.95a431.28 431.28 0 0 1-.136-4.549c-.015-.576-.025-1.041-.032-1.361l-.007-.367-.002-.095v-.024l-.001-.006v-.002l-2.021-.201-.002-.001h-.001v.002l-.002.011-.01.044-.044.184a29.02 29.02 0 0 1-.181.715c-.164.62-.416 1.51-.763 2.579-.696 2.144-1.77 4.993-3.289 7.839-3.077 5.766-7.766 11.15-14.508 11.248h-26.375c-.435-6.334-1.342-19.891-1.555-41.516h17.919c4.747.199 7.735 1.85 9.528 3.398a10.983 10.983 0 0 1 1.898 2.107 7.654 7.654 0 0 1 .493.83l.017.035v.001l.004-.001 1.959-.408v-18.289l-1.978-.356-.005-.002v-.002Zm0 0 .002-.003-.001.002-.001.001ZM184.763 143.281l-.362 1.98v.002l.005.002.026.01.108.043a13.207 13.207 0 0 1 1.627.794c.452.262.867.548 1.168.834.322.306.389.496.396.552l.002.014c.986 7.292 1.783 22.579 1.783 46.309 0 22.564-.885 36.933-1.32 43.976l-.068 1.113c-.067.303-.264.672-.617 1.089-.364.431-.836.846-1.324 1.217-.485.367-.962.672-1.32.886-.178.107-.325.189-.425.245l-.114.061-.027.014-.005.003h-.001l.001.002.467 1.933h23.108l.346-1.985.001-.002h-.001l-.003-.002-.025-.009-.108-.042a9.853 9.853 0 0 1-1.668-.865c-.991-.646-1.647-1.379-1.705-2.089l-.002-.035-.006-.034c-.784-5.238-1.582-18.471-1.582-39.338v-4.105l14.521-.191c14.134-.004 25.519-11.74 25.519-26.191 0-14.453-11.588-26.395-25.725-26.395h-.009l-23.696.204H184.763Zm18.366 46.447c.204-18.145 1.04-32.059 1.477-39.333l.051-.843c1.62-.109 3.414-.127 5.178-.13v.204h3.991c9.703.396 17.523 9.66 17.523 20.051 0 5.046-2.084 10.077-5.443 13.846-3.357 3.766-7.925 6.205-12.856 6.205h-9.921ZM254.538 143.282l-.48 1.927v.001l.001.001.007.003.031.017.125.069a20.916 20.916 0 0 1 1.895 1.197c.531.379 1.044.793 1.439 1.202.411.425.588.738.631.917.587 3.087.94 8.385 1.142 15.938.202 7.546.253 17.273.253 29.165 0 23.907-.805 38.215-1.407 44.963-.066.311-.272.701-.641 1.148-.375.454-.859.898-1.358 1.296a16.67 16.67 0 0 1-1.9 1.296l-.028.016-.006.004h-.001l-3.44 1.918h47.625c14.927 0 26.911-11.943 26.911-27.063 0-13.14-9.362-24.242-21.757-26.678 6.337-4.851 10.432-12.454 10.432-21.094 0-14.495-11.772-26.448-26.103-26.448h-.009l-24.261.205H254.538Zm39.58 53.099h.011l.012.001c10.491.387 18.825 10.1 18.632 21.102l-.001.009v.009c0 10.829-8.753 21.12-19.2 21.12-3.573 0-8.081-.353-12.673-.713-2.077-.162-4.171-.326-6.203-.46-.584-6.924-1.312-20.443-1.336-41.074 1.081-.016 2.205-.053 3.345-.09l.164-.005c1.569-.052 3.172-.102 4.77-.102 4.663 0 9.078 0 12.479.203Zm-19.459-46.027.057-.932c1.013-.017 2.018-.056 2.995-.095l.067-.003c1.27-.05 2.49-.099 3.659-.099h2.609c9.872.397 17.805 9.694 17.805 20.095 0 10.408-8.542 20.299-18.594 20.299h-10.088c.205-18.231 1.044-31.959 1.49-39.265ZM436.176 243.542l-.425 1.953H406.314l29.862-1.953Zm0 0 .001-.002-.001-.001m0 .003v-.003m0 0-.004-.002-.035-.016-.085-.043-.064-.033a9.781 9.781 0 0 1-.571-.321 12.568 12.568 0 0 1-1.796-1.317c-1.337-1.18-2.654-2.883-2.922-5.125-.604-7.658-1.21-21.753-1.21-42.5 0-19.939.608-34.861 1.412-42.914l.001-.01.001-.009c.17-2.093 1.444-3.625 2.796-4.678a11.492 11.492 0 0 1 2.413-1.43 5.75 5.75 0 0 1 .154-.063l.035-.014.005-.002h.001l-.002-.003-.352-1.982h-26.107l-.493 1.919-.001.002h.001l.008.004.039.023.163.095a16.768 16.768 0 0 1 2.481 1.845c1.415 1.277 2.688 2.924 2.854 4.711l.001.012c.601 5.755.804 17.336.804 30.441 0 21.184-.607 45.454-1.211 53.737-.172 1.822-1.481 3.734-2.918 5.286a22.529 22.529 0 0 1-2.687 2.455l-.041.031-.009.006-.001.001-.001.001 27.341-.107Zm-101.457-98.518Zm0 0Zm19.09 45.236c.207-18.639 1.059-32.806 1.503-40.195l.103-1.732c.031-.351.201-.73.526-1.132.326-.406.769-.785 1.241-1.116a10.973 10.973 0 0 1 1.71-.972l.111-.05.026-.011.004-.001-.001-.002-.388-1.969h-23.477l-.447 1.943-.001.001.005.003.025.012.108.056a13.04 13.04 0 0 1 1.672 1.051c.469.349.921.743 1.27 1.159.349.415.546.794.607 1.119.999 6.992 1.606 23.119 1.606 45.761 0 22.028-.831 36.023-1.288 43.706l-.126 2.142c-.029.289-.201.683-.571 1.164-.364.474-.853.946-1.366 1.374a16.926 16.926 0 0 1-1.852 1.338l-.123.076-.03.018-.006.003-.001.001-3.25 1.907H345.09l33.792-.208h.002c14.959-.002 26.927-12.33 26.927-27.623 0-15.293-11.967-27.621-26.925-27.624h-.004l-25.073-.199Zm1.124 48.052c-.584-6.992-1.314-20.328-1.336-40.886 5.684-.392 12.458-.763 17.594-.763H374.41c10.483.403 18.829 10.246 18.829 21.212 0 10.994-8.771 21.419-19.214 21.419-4.248 0-9.976-.38-15.487-.746-1.218-.08-2.426-.161-3.605-.236ZM488.475 196.961c9.432 17.957 16.136 31.451 19.74 39.185.208.62.341 1.057.341 1.461 0 1.316-.835 2.545-1.837 3.467a7.235 7.235 0 0 1-1.296.962 5.5 5.5 0 0 1-.135.072h-1.068v1.024c0 .261.099.568.359.797.224.199.469.249.597.264.195.022.368-.01.475-.037h26.437l.356-1.981.001-.003-.004-.002-.031-.012a1.593 1.593 0 0 1-.047-.019l-.092-.038a10.946 10.946 0 0 1-.553-.256 16.252 16.252 0 0 1-1.921-1.122c-1.541-1.041-3.434-2.681-4.886-5.079l-.006-.009c-4.945-7.962-13.813-22.879-24.333-42.501-1.758-3.29-3.331-6.214-4.893-9.117l18.691-32.413c1.628-2.356 3.94-3.989 5.892-5.042a21.616 21.616 0 0 1 2.467-1.138 15.354 15.354 0 0 1 .916-.323l.044-.014.009-.002h.001l-.001-.003-.283-2.005h-20.236l-.266 2.008-.001.004.002.001.026.007.118.037a7.911 7.911 0 0 1 1.833.873c1.015.663 1.807 1.569 1.807 2.8 0 .64-.16 1.301-.51 1.994-2.365 4.688-7.013 13.335-14.31 25.945-6.34-12.402-10.595-21.048-12.956-26.312l-.01-.022-.01-.021c-.35-.692-.51-1.354-.51-1.994 0-1.213.632-2.016 1.35-2.56a5.242 5.242 0 0 1 1.331-.722l.08-.028.013-.004-.002-.004-.286-2.002h-26.017l-.344 1.986-.001.002h.001l.007.003.036.013.152.059c.134.053.333.134.581.243a20.72 20.72 0 0 1 1.948.986c1.538.885 3.285 2.166 4.398 3.81 4.091 6.69 12.025 19.793 22.801 39.511-.815 1.306-2.936 4.757-5.678 9.221-1.922 3.127-4.149 6.753-6.447 10.486-6.302 10.236-13.157 21.317-15.832 25.396a19.052 19.052 0 0 1-6.538 6.116c-.991.557-1.849.919-2.453 1.139a11.338 11.338 0 0 1-.872.28l-.039.009-.004.002h-.001l.001.005.23 2.016h20.649l.368-1.976.001-.003-.02-.008-.093-.04a7.053 7.053 0 0 1-1.475-.897c-.821-.655-1.473-1.518-1.473-2.601 0-.609.143-1.246.677-2.13l.006-.008.004-.009 23.024-39.727Zm-41.9 45.378h-.001.001Zm34.593-97.256.001-.001-.001.001Z"/></svg>