<svg xmlns="http://www.w3.org/2000/svg" width="25" height="26" fill="none"><path fill="#fff" d="m23.828 19.712-.142-.28c-.4-.928-5.304-2.333-5.703-2.36l-.314.027c-.599.112-1.255.646-2.538 1.742a.783.783 0 0 1-.912.112c-1.683-.927-3.736-2.781-4.762-3.905-1.113-1.208-2.453-3.203-3.08-4.805-.114-.309 0-.646.228-.87C8.06 8.08 8.687 7.461 8.744 6.786c.028-.393-.827-5.366-1.711-5.844L6.776.774C6.206.41 5.35-.125 4.41.072c-.228.056-.456.14-.655.253C3.126.719 1.558 1.786.845 3.163c-.428.871-.627 8.766 5.361 15.425 5.931 6.603 13.26 6.884 14.343 6.66h.029l.085-.029c1.483-.534 2.738-1.91 3.223-2.5.883-1.04.285-2.304-.058-3.007Z"/></svg>