<svg xmlns="http://www.w3.org/2000/svg" width="190" height="106" fill="none"><path fill="#fff" d="M60.21 99.347v5.317h-.643v-5.317h.643Zm2.872 0-2.305 2.489 2.419 2.828h-.794l-2.381-2.79 2.268-2.49h.793v-.037ZM69.13 104.627h-.643V99.95h-2.343v2.866c0 .34-.038.641-.152.905-.113.264-.226.491-.453.679a1.194 1.194 0 0 1-.718.264v-.565a.428.428 0 0 0 .302-.114c.076-.075.151-.188.227-.301.076-.113.113-.264.151-.453.038-.188.038-.377.038-.565v-3.319h3.59v5.28ZM73.06 104.627h-.718l.68-1.584-1.738-3.734h.793l1.55 3.545-.416-.038 1.625-3.544h.719l-2.495 5.355ZM80.505 99.347v.603h-2.192v4.677h-.642v-5.318h2.834v.038Zm-2.456 2.112h1.096c.34 0 .642.075.907.188.264.113.491.302.642.566.152.226.227.528.227.83 0 .339-.075.603-.227.829a1.876 1.876 0 0 1-.642.566 2.29 2.29 0 0 1-.907.189h-1.096v-.604h1.096c.227 0 .416-.038.605-.113a.925.925 0 0 0 .415-.339.866.866 0 0 0 .151-.528c0-.189-.037-.415-.15-.528-.114-.113-.227-.264-.416-.34a1.578 1.578 0 0 0-.605-.113h-1.096v-.603ZM83.983 99.347v5.317h-.643v-5.317h.643Zm-.265 2.112h3.629v.603h-3.629v-.603Zm3.855-2.112v5.317h-.642v-5.317h.642ZM90.937 99.347v5.317h-.643v-5.317h.643Zm-.302 2.112h1.096c.34 0 .642.075.907.188.264.113.491.302.642.566.151.226.227.528.227.83 0 .339-.076.603-.227.829a1.876 1.876 0 0 1-.642.566 2.29 2.29 0 0 1-.907.189h-1.096v-.604h1.096c.226 0 .415-.038.604-.113a.926.926 0 0 0 .416-.339.866.866 0 0 0 .151-.528c0-.189-.037-.415-.15-.528-.114-.113-.228-.264-.417-.34a1.578 1.578 0 0 0-.604-.113h-1.096v-.603Zm4.233-2.112v5.317h-.643v-5.317h.643ZM97.626 104.89l.038-.98 4.611-4.827-.038.98-4.61 4.827Zm.643-.829-.643.829v-5.58h.643v4.751Zm1.21-6.298c0 .075 0 .15.037.226.038.076.114.151.19.227a.68.68 0 0 0 .415.113.682.682 0 0 0 .416-.113.506.506 0 0 0 .189-.227c.037-.075.037-.15.037-.226h.53c0 .189-.038.34-.152.49-.075.151-.226.302-.415.415-.189.113-.416.151-.681.151-.264 0-.491-.038-.68-.15a1.096 1.096 0 0 1-.416-.416c-.075-.15-.15-.34-.15-.49h.68Zm2.796 6.864h-.642v-4.714l.642-.83v5.544ZM109.078 104.627v.829h-.567v-1.433h5.405v1.433h-.567v-.829h-4.271Zm.643-.227h-.681l2.155-5.355 2.154 5.355h-.68l-1.474-3.884-1.474 3.884ZM116.033 100.893c.151-.339.34-.603.567-.867.226-.227.529-.453.869-.566.34-.15.68-.226 1.058-.226s.756.075 1.058.226c.34.15.605.34.87.566.226.226.415.528.566.867.152.34.189.679.189 1.094 0 .377-.075.754-.189 1.093-.151.34-.34.641-.566.868-.227.226-.53.452-.87.565-.34.151-.68.227-1.058.227s-.756-.076-1.058-.227a3.425 3.425 0 0 1-.869-.565 2.876 2.876 0 0 1-.567-.868c-.152-.339-.189-.678-.189-1.093a2.16 2.16 0 0 1 .189-1.094Zm.718 2.15c.189.301.415.565.718.754.302.188.642.264 1.02.264s.718-.076 1.021-.264c.302-.189.529-.415.718-.754.189-.302.264-.679.264-1.056 0-.415-.075-.755-.264-1.056-.189-.302-.416-.566-.718-.754-.303-.189-.643-.264-1.021-.264-.378 0-.718.075-1.02.264a1.963 1.963 0 0 0-.718.754c-.189.301-.265.679-.265 1.056s.114.754.265 1.056ZM123.97 104.627h-.643l.643-5.582 2.116 3.847 2.117-3.847.642 5.582h-.642l-.378-3.583-1.739 3.092-1.738-3.092-.378 3.583ZM162.369 101.76h-26.305v.453h26.305v-.453ZM53.558 101.76H27.253v.453h26.305v-.453ZM56.468 18.57l2.079-1.584v40.992h-2.079V18.57ZM63.498 13.78v44.198H61.42v-5.695h1.02V24.717l-1.02.792V15.364l2.08-1.584ZM68.45 10.575v47.403h-2.08v-5.695h1.059V21.511l-1.058.792V12.197l2.078-1.622ZM73.438 7.37v50.608H71.36v-5.695h1.02V18.306l-1.02.792V8.953l2.08-1.583ZM78.39 4.164v53.814h-2.08v-5.695h1.059V15.1l-1.058.792V5.748l2.078-1.584ZM83.378.959v57.019h-2.079v-5.695h1.02V11.895l-1.02.792V2.543L83.378.959ZM88.48 1.524v56.454H86.1v-5.695h1.17V11.178l-1.17-.49V.544l2.38.98ZM93.47 3.523v54.455h-2.382v-5.695h1.172V13.14l-1.172-.49V2.505l2.382 1.018ZM98.42 5.484v52.494h-2.38v-5.695h1.17V15.138l-1.17-.49V4.504l2.38.98ZM103.372 7.483v50.495h-2.344v-5.695h1.172V17.137l-1.172-.49V6.502l2.344.98ZM108.361 9.481v48.497h-2.382v-5.695h1.172V19.098l-1.172-.49V8.5l2.382.98ZM113.311 11.442v46.536h-2.381v-5.695h1.21V21.096l-1.21-.49V10.462l2.381.98ZM118.301 13.441v44.537h-2.382v-5.695h1.172V23.095l-1.172-.49V12.46l2.382.98ZM123.252 15.44v42.538h-2.381v-5.695h1.209V25.056l-1.209-.49V14.459l2.381.98ZM128.24 17.4v40.578h-2.381v-5.695h1.172V27.055l-1.172-.49V16.42l2.381.98ZM130.811 18.419l2.381.98v38.579h-2.381v-39.56ZM.532 72.459h1.701l4.535-.038c2.57 0 4.687 2.112 4.687 4.676 0 1.697-.907 3.168-2.268 3.998 2.457.226 4.384 2.3 4.384 4.79 0 2.677-2.154 4.788-4.837 4.788H.57s.756-.414.832-.83c.113-1.244.264-3.883.264-8.296 0-4.374-.038-7.165-.264-8.334-.076-.34-.87-.754-.87-.754Zm5.027.754c-.454 0-.945.038-1.436.038-.076 1.244-.265 3.997-.303 7.768H5.9c2.002 0 3.665-1.923 3.665-3.922 0-1.998-1.55-3.808-3.515-3.884H5.56ZM7.94 81.85c-.643-.038-1.474-.038-2.343-.038-.605 0-1.21.038-1.739.038 0 4.073.151 6.675.265 7.92 1.247.075 2.683.226 3.704.226 2.078 0 3.78-2 3.78-4.073 0-2.074-1.626-3.96-3.667-4.073ZM16.52 81.585c0-4.11-.114-7.052-.303-8.334-.076-.415-.794-.754-.794-.754h4.385s-.756.301-.794.754c-.076 1.244-.265 4.035-.302 7.806l4.875.038a4.818 4.818 0 0 1 4.838 4.827 4.818 4.818 0 0 1-4.838 4.827l-6.312.038h-1.852s.794-.453.832-.868c.075-1.282.264-3.96.264-8.334Zm5.669.226c-1.02 0-2.381.076-3.477.151 0 3.998.15 6.524.264 7.769 1.247.075 2.721.188 3.742.188 2.078 0 3.78-1.998 3.78-4.073 0-2.074-1.626-3.96-3.705-4.035-.189.038-.378 0-.604 0Zm12.056 8.862h-4.913s1.058-.754 1.134-1.546c.113-1.508.226-5.92.226-9.767 0-2.376-.037-4.488-.15-5.543-.076-.792-1.135-1.358-1.135-1.358h4.876s-1.058.377-1.134 1.282c-.151 1.47-.264 4.186-.264 7.806 0 3.771.113 6.336.226 7.731.076.943 1.134 1.395 1.134 1.395ZM36.361 72.459h7.71c2.42-.038 4.082-.226 4.082-.226s-.264 1.169-.378 2.074c-.15 1.169-.15 3.205-.15 3.205s-.946-4.299-3.705-4.299h-3.968c-.076 1.245-.265 3.998-.302 7.806l4.875.038c2.683 0 4.838 2.15 4.838 4.79a4.818 4.818 0 0 1-4.838 4.826h-8.164c.038-.037.756-.264.832-.83.151-1.055.302-3.959.302-8.296 0-4.11-.227-7.127-.302-8.41-.076-.414-.832-.678-.832-.678Zm6.766 9.39c-1.02 0-2.382.075-3.477.15 0 3.96.15 6.487.264 7.732 1.247.075 2.683.188 3.704.188 2.079 0 3.78-1.998 3.78-4.073 0-2.074-1.588-3.922-3.667-3.997-.15.038-.378 0-.604 0ZM70.377 79.398c-.983-4.525-5.027-7.618-9.487-7.618-.718 0-1.398.076-2.078.226-3.893.83-7.597 4.865-7.597 9.617 0 .603.038 1.244.227 1.923 1.02 5.016 4.837 7.618 9.146 7.618.794 0 1.55-.076 2.381-.264a9.664 9.664 0 0 0 7.634-9.428c0-.679-.075-1.395-.226-2.074Zm-2.268 4.751c-.378 2.602-2.457 5.016-5.329 5.657a5.88 5.88 0 0 1-1.398.15c-2.42 0-4.725-1.281-5.896-3.091-.567-.905-1.323-2.452-1.625-3.885-.19-.792-.265-1.659-.265-2.489 0-.716.076-1.433.189-2.074.491-2.413 2.57-4.789 5.329-5.392.454-.114.945-.151 1.398-.151 2.268 0 4.422 1.207 5.707 2.866.87 1.093 1.474 2.64 1.815 4.186.15.716.226 1.508.226 2.262 0 .717-.075 1.433-.15 1.961ZM75.706 81.774v.942c0 3.847.15 6.298.302 7.279.038.452.794.716.794.716h-4.385s.756-.377.832-.792c.076-1.207.264-3.922.264-8.334 0-4.374-.15-7.203-.34-8.56-.037-.302-.755-.566-.755-.566h1.7l4.498-.038c2.57 0 4.686 2.112 4.686 4.676a4.64 4.64 0 0 1-4.648 4.639l-2.948.038Zm1.7-8.56c-.453 0-.945 0-1.36.037-.076 1.244-.265 4.035-.303 7.768h2.08c2.002 0 3.665-1.923 3.665-3.884 0-1.999-1.55-3.809-3.515-3.884l-.567-.038ZM107.907 90.673h-4.876s.945-.264 1.096-1.169c.114-1.357.265-3.96.265-7.957 0-3.658-.227-7.316-.34-8.145-.265-.189-2.23-.227-3.855-.227-1.739 0-3.666 0-3.93.189-.228 1.282-.341 4.563-.341 8.146 0 3.922.151 6.486.265 7.843.075.755 1.096 1.245 1.096 1.245H92.41s1.02-.453 1.096-1.282c.076-.754.265-3.658.265-7.24v-.604c-.038-3.658-.151-6.411-.265-7.844-.075-.98-1.096-1.245-1.096-1.245h15.496c-.076.076-1.02.604-1.096 1.245-.151 1.47-.265 4.261-.265 7.844 0 3.922.114 6.486.227 7.844.076.867 1.134 1.357 1.134 1.357ZM111.081 81.547c0-4.072-.189-6.976-.302-8.296-.038-.415-.794-.754-.794-.754h8.769c2.381 0 4.119-.302 4.119-.302s-.264 1.131-.415 2.074c-.152 1.17-.152 3.206-.152 3.206s-.944-4.224-3.703-4.224h-5.027c-.114 1.282-.265 4.11-.303 7.957l3.515-.038c1.966-.038 2.419-1.244 2.419-1.244v3.356s-.529-1.207-2.381-1.282h-3.515c.038 4.299.227 6.901.303 7.995h5.064c2.721-.038 3.666-4.3 3.666-4.3s.038 2.075.151 3.206c.152.943.416 2.074.416 2.074s-1.738-.302-4.119-.302h-8.769s.756-.414.832-.83c.037-1.13.226-3.733.226-8.296ZM128.24 81.774v.942c0 3.847.151 6.298.303 7.279.037.452.793.716.793.716h-4.384s.756-.377.832-.792c.075-1.207.264-3.922.264-8.334 0-4.374-.151-7.203-.34-8.56-.038-.302-.756-.566-.756-.566h1.701l4.497-.038c2.57 0 4.687 2.112 4.687 4.676a4.64 4.64 0 0 1-4.649 4.639l-2.948.038Zm1.663-8.56c-.453 0-.945 0-1.36.037-.076 1.244-.265 4.035-.303 7.768h2.079c2.003 0 3.666-1.923 3.666-3.884 0-1.999-1.55-3.809-3.515-3.884l-.567-.038ZM137.954 72.459h1.7l4.536-.038c2.57 0 4.686 2.112 4.686 4.676 0 1.697-.907 3.168-2.267 3.998 2.456.226 4.384 2.3 4.384 4.79 0 2.677-2.155 4.788-4.838 4.788h-8.164s.756-.414.832-.83c.113-1.244.264-3.883.264-8.296 0-4.374-.037-7.165-.264-8.334-.076-.34-.869-.754-.869-.754Zm4.989.754c-.454 0-.945.038-1.437.038-.075 1.244-.264 3.997-.302 7.768h2.079c2.003 0 3.666-1.923 3.666-3.922 0-1.998-1.55-3.808-3.515-3.884h-.491Zm2.381 8.636c-.643-.038-1.474-.038-2.344-.038-.604 0-1.209.038-1.738.038 0 4.073.151 6.675.264 7.92 1.248.075 2.684.226 3.704.226 2.079 0 3.78-2 3.78-4.073 0-2.074-1.588-3.96-3.666-4.073ZM153.941 81.585c0-4.11-.114-7.052-.303-8.334-.075-.415-.793-.754-.793-.754h4.384s-.756.301-.794.754c-.075 1.244-.264 4.035-.302 7.806l4.875.038a4.817 4.817 0 0 1 4.838 4.827 4.817 4.817 0 0 1-4.838 4.827l-6.311.038h-1.852s.793-.453.831-.868c.076-1.282.265-3.96.265-8.334Zm5.631.226c-1.02 0-2.381.076-3.477.151 0 3.998.151 6.524.265 7.769 1.247.075 2.721.188 3.741.188 2.079 0 3.78-1.998 3.78-4.073 0-2.074-1.625-3.96-3.704-4.035-.151.038-.378 0-.605 0Zm12.057 8.862h-4.914s1.059-.754 1.134-1.546c.114-1.508.227-5.92.227-9.767 0-2.376-.038-4.488-.151-5.543-.076-.792-1.134-1.358-1.134-1.358h4.875s-1.058.377-1.133 1.282c-.152 1.47-.265 4.186-.265 7.806 0 3.771.113 6.336.227 7.731.113.943 1.134 1.395 1.134 1.395ZM185.197 89.655c0-.113-.038-.226-.076-.34-.68-1.47-1.965-4.072-3.779-7.541l-4.384 7.617a.906.906 0 0 0-.151.49c0 .566.68.83.68.83h-3.779s1.133-.264 1.927-1.47c.983-1.51 5.027-8.184 5.178-8.41a167.383 167.383 0 0 0-4.233-7.392c-.454-.678-1.399-1.018-1.399-1.018h4.763s-.643.189-.643.792c0 .151.038.302.114.453.453 1.018 1.285 2.715 2.532 5.166 1.436-2.489 2.343-4.186 2.797-5.09a1.01 1.01 0 0 0 .113-.453c0-.642-.832-.868-.832-.868h3.704s-1.171.34-1.814 1.282l-3.477 6.072c.302.566.605 1.131.945 1.772 1.927 3.62 3.553 6.374 4.46 7.844a3.233 3.233 0 0 0 1.474 1.282h-4.914c.038.038.794-.414.794-1.018Z"/><path fill="#fff" d="M63.687 81.623a2.787 2.787 0 0 0-2.797 2.79 2.787 2.787 0 0 0-2.797-2.79c1.55 0 2.797-1.245 2.835-2.79-.038 1.545 1.21 2.79 2.759 2.79Z"/></svg>