<svg xmlns="http://www.w3.org/2000/svg" width="29.999" height="30"><path fill="#eae9e0" d="M14.999 30a14.907 14.907 0 0 1-10.605-4.393A14.905 14.905 0 0 1 0 15 14.905 14.905 0 0 1 4.394 4.393 14.907 14.907 0 0 1 14.999 0a14.905 14.905 0 0 1 10.607 4.393A14.905 14.905 0 0 1 29.999 15a14.905 14.905 0 0 1-4.393 10.607A14.905 14.905 0 0 1 14.999 30Zm-2.451-18.792a.216.216 0 0 0-.231.2v7.19a.221.221 0 0 0 .238.2.244.244 0 0 0 .114-.024l7.2-3.6a.193.193 0 0 0 .116-.168.2.2 0 0 0-.116-.172l-7.2-3.593a.252.252 0 0 0-.121-.033Z"/></svg>