<svg xmlns="http://www.w3.org/2000/svg" width="29.999" height="30" viewBox="0 0 29.999 30"><path d="M-12285.417,12123.584a14.907,14.907,0,0,1-10.605-4.393,14.905,14.905,0,0,1-4.394-10.607,14.905,14.905,0,0,1,4.394-10.607,14.907,14.907,0,0,1,10.605-4.393,14.905,14.905,0,0,1,10.607,4.393,14.905,14.905,0,0,1,4.393,10.607,14.905,14.905,0,0,1-4.393,10.607A14.905,14.905,0,0,1-12285.417,12123.584Zm-2.451-18.792a.216.216,0,0,0-.231.2v7.19a.221.221,0,0,0,.238.2.244.244,0,0,0,.114-.024l7.2-3.6a.193.193,0,0,0,.116-.168.2.2,0,0,0-.116-.172l-7.2-3.593A.252.252,0,0,0-12287.868,12104.792Z" transform="translate(12300.416 -12093.584)" fill="#eae9e0"/></svg>