<svg xmlns="http://www.w3.org/2000/svg" width="118" height="88" fill="none"><path fill="url(#a)" d="m0 27.618 3.185-2.095V87.98H0V27.618Z"/><path fill="url(#b)" d="M10.77 20.536V87.98H7.613v-8.717h1.579v-42.09l-1.579 1.048V22.617l3.157-2.081Z"/><path fill="url(#c)" d="M18.384 15.548V87.98h-3.185v-8.717h1.578V32.227L15.2 33.261V17.63l3.185-2.081Z"/><path fill="url(#d)" d="M25.97 10.546V87.98h-3.172v-8.717h1.579V27.268l-1.579 1.034v-15.66l3.171-2.096Z"/><path fill="url(#e)" d="M33.569 5.56v82.42h-3.185v-8.717h1.592V22.31l-1.592 1.034V7.655l3.185-2.095Z"/><path fill="url(#f)" d="M41.168.573V87.98h-3.185v-8.717h1.606V17.337l-1.606 1.047V2.67L41.168.573Z"/><path fill="url(#g)" d="M48.991 1.453V87.98H45.36v-8.717h1.802V16.219l-1.802-.727V0l3.632 1.453Z"/><path fill="url(#h)" d="M56.59 4.512V87.98h-3.632v-8.717h1.802V19.264l-1.802-.726V3.045l3.632 1.467Z"/><path fill="url(#i)" d="M64.19 7.557V87.98h-3.632v-8.716h1.802V22.309l-1.802-.727V6.09l3.632 1.467Z"/><path fill="url(#j)" d="M71.79 10.602V87.98h-3.633v-8.717h1.816V25.368l-1.816-.726V9.136l3.632 1.466Z"/><path fill="url(#k)" d="M79.389 13.648V87.98h-3.632v-8.717h1.802V28.414l-1.802-.726V12.182l3.632 1.466Z"/><path fill="url(#l)" d="M86.988 16.693V87.98h-3.646v-8.717h1.83v-47.79l-1.83-.74V15.254l3.646 1.44Z"/><path fill="url(#m)" d="M94.573 19.738V87.98h-3.632v-8.718h1.816V34.505l-1.816-.726V18.286l3.632 1.452Z"/><path fill="url(#n)" d="M102.173 22.798v65.181h-3.632v-8.716h1.83v-41.7l-1.83-.726V21.331l3.632 1.467Z"/><path fill="url(#o)" d="M109.772 25.83v62.15h-3.632v-8.716h1.802V40.61l-1.802-.726V24.377l3.632 1.453Z"/><path fill="url(#p)" d="m113.74 27.422 3.632 1.453V87.98h-3.632V27.422Z"/><defs><linearGradient id="i" x1="62.374" x2="62.374" y1="97.451" y2="3.282" gradientUnits="userSpaceOnUse"><stop stop-color="#C4A27A"/><stop offset="1" stop-color="#DBBC9A"/></linearGradient><linearGradient id="a" x1="1.593" x2="1.593" y1="97.395" y2="3.702" gradientUnits="userSpaceOnUse"><stop stop-color="#C4A27A"/><stop offset="1" stop-color="#DBBC9A"/></linearGradient><linearGradient id="c" x1="16.791" x2="16.791" y1="97.423" y2="3.464" gradientUnits="userSpaceOnUse"><stop stop-color="#C4A27A"/><stop offset="1" stop-color="#DBBC9A"/></linearGradient><linearGradient id="d" x1="24.391" x2="24.391" y1="97.437" y2="3.366" gradientUnits="userSpaceOnUse"><stop stop-color="#C4A27A"/><stop offset="1" stop-color="#DBBC9A"/></linearGradient><linearGradient id="e" x1="31.976" x2="31.976" y1="97.451" y2="3.297" gradientUnits="userSpaceOnUse"><stop stop-color="#C4A27A"/><stop offset="1" stop-color="#DBBC9A"/></linearGradient><linearGradient id="f" x1="39.575" x2="39.575" y1="97.452" y2="3.227" gradientUnits="userSpaceOnUse"><stop stop-color="#C4A27A"/><stop offset="1" stop-color="#DBBC9A"/></linearGradient><linearGradient id="g" x1="47.175" x2="47.175" y1="97.451" y2="3.269" gradientUnits="userSpaceOnUse"><stop stop-color="#C4A27A"/><stop offset="1" stop-color="#DBBC9A"/></linearGradient><linearGradient id="h" x1="54.774" x2="54.774" y1="97.451" y2="3.297" gradientUnits="userSpaceOnUse"><stop stop-color="#C4A27A"/><stop offset="1" stop-color="#DBBC9A"/></linearGradient><linearGradient id="b" x1="9.192" x2="9.192" y1="97.41" y2="3.591" gradientUnits="userSpaceOnUse"><stop stop-color="#C4A27A"/><stop offset="1" stop-color="#DBBC9A"/></linearGradient><linearGradient id="j" x1="69.973" x2="69.973" y1="97.451" y2="3.283" gradientUnits="userSpaceOnUse"><stop stop-color="#C4A27A"/><stop offset="1" stop-color="#DBBC9A"/></linearGradient><linearGradient id="k" x1="77.573" x2="77.573" y1="97.451" y2="3.283" gradientUnits="userSpaceOnUse"><stop stop-color="#C4A27A"/><stop offset="1" stop-color="#DBBC9A"/></linearGradient><linearGradient id="l" x1="85.158" x2="85.158" y1="97.437" y2="3.338" gradientUnits="userSpaceOnUse"><stop stop-color="#C4A27A"/><stop offset="1" stop-color="#DBBC9A"/></linearGradient><linearGradient id="m" x1="92.757" x2="92.757" y1="97.451" y2="3.296" gradientUnits="userSpaceOnUse"><stop stop-color="#C4A27A"/><stop offset="1" stop-color="#DBBC9A"/></linearGradient><linearGradient id="n" x1="100.357" x2="100.357" y1="97.451" y2="3.296" gradientUnits="userSpaceOnUse"><stop stop-color="#C4A27A"/><stop offset="1" stop-color="#DBBC9A"/></linearGradient><linearGradient id="o" x1="107.956" x2="107.956" y1="97.452" y2="3.325" gradientUnits="userSpaceOnUse"><stop stop-color="#C4A27A"/><stop offset="1" stop-color="#DBBC9A"/></linearGradient><linearGradient id="p" x1="115.556" x2="115.556" y1="97.451" y2="3.325" gradientUnits="userSpaceOnUse"><stop stop-color="#C4A27A"/><stop offset="1" stop-color="#DBBC9A"/></linearGradient></defs></svg>