<svg xmlns="http://www.w3.org/2000/svg" width="117" height="89" fill="none"><path fill="url(#a)" d="M43.179 0 0 28.51V89h117V29.783L43.179 0ZM3.189 80.253V42.016l5.976-3.92v42.157H3.19Zm7.564 0V37.06l5.99-3.933v47.125h-5.99Zm7.577 0V32.078l5.99-3.918v52.093h-5.99Zm7.577 0V27.068l5.976-3.919V80.21l-5.976.043Zm7.577 0V22.142l4.402-2.884 1.601-1.05v62.045h-6.003Zm7.577 0v-63.08l2.354-1.554 3.622 1.4v63.163l-5.976.07Zm7.8 0V17.817l5.753 2.323v60.183l-5.753-.07Zm7.578 0V20.868l5.752 2.323v57.062H56.44Zm7.577 0v-56.32l5.766 2.323v53.997h-5.766Zm7.563 0V26.984l5.766 2.323v50.946H71.58Zm7.577 0V30.035l5.78 2.338v47.88h-5.78Zm7.577 0V33.086l5.753 2.338V80.21l-5.753.043Zm7.577 0V36.15l5.767 2.338v41.764H94.31Zm7.578 0v-41.05l5.752 2.323v38.727h-5.752Zm11.518 0h-3.941v-38l3.941 1.596v36.404Z"/><defs><linearGradient id="a" x1="58.528" x2="58.528" y1="98.643" y2="2.701" gradientUnits="userSpaceOnUse"><stop stop-color="#C4A27A"/><stop offset="1" stop-color="#DBBC9A"/></linearGradient></defs></svg>