<svg xmlns="http://www.w3.org/2000/svg" width="282" height="29" fill="none"><path fill="#F2F2F2" d="M0 1.016h2.54L9.316.959c3.84 0 7 3.16 7 6.996 0 2.54-1.354 4.74-3.387 5.98 3.67.34 6.55 3.442 6.55 7.166 0 4.006-3.219 7.166-7.227 7.166H.056s1.13-.621 1.242-1.242c.17-1.862.396-5.811.396-12.412 0-6.545-.057-10.72-.396-12.469C1.186 1.636 0 1.016 0 1.016Zm7.509 1.128c-.678 0-1.412.056-2.146.056-.113 1.862-.395 5.98-.451 11.623h3.105c2.992 0 5.476-2.878 5.476-5.868s-2.315-5.698-5.25-5.811h-.734Zm3.556 12.92c-.96-.056-2.201-.056-3.5-.056-.903 0-1.806.056-2.597.056 0 6.094.226 9.987.395 11.849 1.863.112 4.009.338 5.533.338 3.105 0 5.646-2.99 5.646-6.093 0-3.104-2.428-5.925-5.477-6.094ZM23.881 14.67c0-6.15-.17-10.551-.452-12.47-.112-.62-1.185-1.128-1.185-1.128h6.549s-1.13.451-1.186 1.128c-.113 1.862-.395 6.037-.451 11.68l7.282.056a7.202 7.202 0 0 1 7.227 7.222 7.202 7.202 0 0 1-7.227 7.221l-9.428.057h-2.766s1.185-.677 1.242-1.298c.113-1.918.395-5.924.395-12.469Zm8.468.338c-1.524 0-3.556.113-5.193.226 0 5.98.225 9.76.395 11.622 1.863.113 4.065.282 5.589.282 3.105 0 5.646-2.99 5.646-6.093 0-3.103-2.428-5.924-5.533-6.037-.282.056-.565 0-.904 0Zm18.01 13.259h-7.34s1.582-1.129 1.695-2.314c.169-2.256.338-8.858.338-14.612 0-3.555-.056-6.715-.226-8.294-.112-1.185-1.693-2.031-1.693-2.031h7.283s-1.581.564-1.694 1.918c-.226 2.2-.395 6.262-.395 11.679 0 5.642.17 9.478.339 11.566.112 1.41 1.693 2.088 1.693 2.088ZM53.52 1.016h11.518C68.65.959 71.135.677 71.135.677s-.395 1.75-.564 3.103c-.226 1.75-.226 4.796-.226 4.796s-1.412-6.432-5.533-6.432h-5.928c-.113 1.862-.395 5.98-.452 11.679l7.283.056c4.009 0 7.227 3.216 7.227 7.166a7.202 7.202 0 0 1-7.227 7.221H53.521c.056-.056 1.129-.394 1.242-1.24.226-1.58.451-5.925.451-12.413 0-6.15-.338-10.664-.451-12.582-.113-.62-1.242-1.015-1.242-1.015Zm10.106 14.048c-1.524 0-3.556.113-5.194.226 0 5.924.226 9.704.396 11.566 1.863.113 4.008.282 5.532.282 3.106 0 5.646-2.99 5.646-6.093 0-3.103-2.371-5.868-5.476-5.98-.226.056-.565 0-.904 0ZM104.332 11.397C102.864 4.627 96.822 0 90.161 0c-1.073 0-2.089.113-3.105.339-5.815 1.24-11.348 7.278-11.348 14.387 0 .902.056 1.862.339 2.877C77.57 25.107 83.273 29 89.709 29c1.186 0 2.315-.113 3.557-.395 6.775-1.467 11.404-7.447 11.404-14.105 0-1.016-.113-2.088-.338-3.103Zm-3.388 7.109c-.564 3.893-3.67 7.504-7.96 8.463-.678.17-1.412.226-2.09.226-3.612 0-7.056-1.919-8.806-4.627-.847-1.354-1.976-3.667-2.428-5.811-.282-1.185-.395-2.483-.395-3.724 0-1.072.113-2.144.282-3.103.734-3.61 3.84-7.165 7.96-8.068.678-.17 1.412-.226 2.09-.226 3.387 0 6.605 1.806 8.524 4.288 1.299 1.636 2.202 3.95 2.71 6.263a16.78 16.78 0 0 1 .339 3.385c0 1.072-.113 2.144-.226 2.934ZM112.292 14.951v1.41c0 5.756.226 9.423.452 10.89.056.677 1.185 1.072 1.185 1.072h-6.549s1.129-.564 1.242-1.185c.113-1.805.395-5.868.395-12.469 0-6.544-.225-10.776-.508-12.807-.056-.452-1.129-.846-1.129-.846h2.541l6.718-.057c3.839 0 7.001 3.16 7.001 6.996a6.937 6.937 0 0 1-6.945 6.94l-4.403.056Zm2.54-12.807c-.677 0-1.411 0-2.032.056-.113 1.862-.395 6.037-.452 11.623h3.105c2.993 0 5.477-2.878 5.477-5.811 0-2.99-2.315-5.699-5.251-5.812l-.847-.056ZM160.393 28.267h-7.283s1.411-.395 1.637-1.75c.17-2.03.395-5.924.395-11.904 0-5.473-.338-10.946-.508-12.187-.395-.282-3.331-.338-5.758-.338-2.597 0-5.477 0-5.872.282-.339 1.918-.508 6.827-.508 12.186 0 5.868.226 9.705.395 11.736.113 1.128 1.638 1.862 1.638 1.862h-7.283s1.524-.677 1.637-1.919c.113-1.128.395-5.472.395-10.832V14.5c-.056-5.473-.226-9.591-.395-11.735-.113-1.467-1.637-1.862-1.637-1.862h23.147c-.113.113-1.525.902-1.637 1.862-.226 2.2-.396 6.375-.396 11.735 0 5.868.17 9.704.339 11.735.113 1.298 1.694 2.032 1.694 2.032ZM165.135 14.613c0-6.094-.282-10.438-.452-12.413-.056-.62-1.185-1.128-1.185-1.128h13.098c3.557 0 6.154-.451 6.154-.451s-.396 1.692-.622 3.103c-.225 1.749-.225 4.795-.225 4.795S180.491 2.2 176.37 2.2h-7.509c-.169 1.919-.395 6.15-.451 11.905l5.25-.056c2.936-.057 3.613-1.862 3.613-1.862v5.021s-.79-1.805-3.556-1.918h-5.251c.056 6.432.339 10.325.452 11.961h7.565c4.065-.056 5.476-6.432 5.476-6.432s.057 3.103.226 4.796c.226 1.41.621 3.103.621 3.103s-2.597-.451-6.154-.451h-13.098s1.129-.621 1.242-1.242c.057-1.692.339-5.585.339-12.412ZM190.766 14.951v1.41c0 5.756.226 9.423.452 10.89.056.677 1.186 1.072 1.186 1.072h-6.549s1.129-.564 1.242-1.185c.113-1.805.395-5.868.395-12.469 0-6.544-.226-10.776-.508-12.807-.057-.452-1.129-.846-1.129-.846h2.54l6.718-.057c3.84 0 7.001 3.16 7.001 6.996a6.937 6.937 0 0 1-6.944 6.94l-4.404.056Zm2.484-12.807c-.677 0-1.411 0-2.032.056-.113 1.862-.395 6.037-.452 11.623h3.105c2.993 0 5.477-2.878 5.477-5.811 0-2.99-2.315-5.699-5.251-5.812l-.847-.056ZM205.276 1.016h2.54l6.775-.057c3.839 0 7.001 3.16 7.001 6.996 0 2.54-1.355 4.74-3.388 5.98 3.67.34 6.549 3.442 6.549 7.166 0 4.006-3.218 7.166-7.226 7.166h-12.195s1.129-.621 1.242-1.242c.17-1.862.395-5.811.395-12.412 0-6.545-.056-10.72-.395-12.469-.113-.508-1.298-1.128-1.298-1.128Zm7.452 1.128c-.678 0-1.411.056-2.145.056-.113 1.862-.396 5.98-.452 11.623h3.105c2.992 0 5.476-2.878 5.476-5.868s-2.314-5.698-5.25-5.811h-.734Zm3.557 12.92c-.96-.056-2.202-.056-3.501-.056-.903 0-1.806.056-2.597.056 0 6.094.226 9.987.396 11.849 1.863.112 4.008.338 5.532.338 3.105 0 5.646-2.99 5.646-6.093 0-3.104-2.371-5.925-5.476-6.094ZM229.157 14.67c0-6.15-.17-10.551-.452-12.47-.113-.62-1.185-1.128-1.185-1.128h6.548s-1.129.451-1.185 1.128c-.113 1.862-.395 6.037-.452 11.68l7.283.056a7.203 7.203 0 0 1 7.227 7.222 7.203 7.203 0 0 1-7.227 7.221l-9.428.057h-2.766s1.185-.677 1.242-1.298c.112-1.918.395-5.924.395-12.469Zm8.412.338c-1.525 0-3.557.113-5.194.226 0 5.98.226 9.76.395 11.622 1.863.113 4.065.282 5.589.282 3.105 0 5.646-2.99 5.646-6.093 0-3.103-2.428-5.924-5.533-6.037-.226.056-.565 0-.903 0Zm18.009 13.259h-7.339s1.581-1.129 1.694-2.314c.169-2.256.338-8.858.338-14.612 0-3.555-.056-6.715-.225-8.294-.113-1.185-1.694-2.031-1.694-2.031h7.283s-1.581.564-1.694 1.918c-.226 2.2-.395 6.262-.395 11.679 0 5.642.169 9.478.339 11.566.169 1.41 1.693 2.088 1.693 2.088ZM275.846 26.743c0-.17-.056-.338-.113-.508-1.016-2.2-2.935-6.093-5.645-11.284l-6.549 11.397c-.17.282-.226.508-.226.734 0 .846 1.016 1.241 1.016 1.241h-5.646s1.694-.395 2.88-2.2c1.468-2.257 7.508-12.244 7.734-12.582-2.992-5.53-5.194-9.197-6.323-11.059-.677-1.015-2.089-1.523-2.089-1.523h7.114s-.96.282-.96 1.185c0 .226.056.451.169.677.678 1.523 1.92 4.062 3.783 7.73 2.145-3.724 3.5-6.263 4.178-7.617a1.5 1.5 0 0 0 .169-.677c0-.96-1.242-1.298-1.242-1.298h5.533s-1.75.508-2.71 1.918l-5.194 9.084c.452.846.903 1.693 1.411 2.652 2.88 5.416 5.307 9.535 6.662 11.735.847 1.41 2.202 1.919 2.202 1.919h-7.339c.056.056 1.185-.621 1.185-1.524Z"/><path fill="#F2F2F2" d="M94.339 14.726A4.167 4.167 0 0 0 90.16 18.9a4.167 4.167 0 0 0-4.178-4.175c2.315 0 4.178-1.862 4.234-4.175-.056 2.313 1.807 4.175 4.122 4.175Z"/></svg>