<svg xmlns="http://www.w3.org/2000/svg" width="189" height="58" fill="none"><path fill="#fff" d="M38.473 0 19.237 19.334h19.236V58L57.71 38.713V0H38.473Z"/><path fill="#fff" d="m19.237 58 19.238-19.334H19.236V0L0 19.287V58h19.237ZM76.947 48.333h10.099V18.366h15.388v29.967h10.099V9.667H76.947v38.666Zm98.102-24.178h-8.628v-5.789h19.213V9.667h-29.313v38.666h19.208c7.701 0 13.471-3.88 13.471-12.09s-5.77-12.089-13.951-12.089Zm-.963 15.963h-7.665v-7.726h7.665c2.382 0 4.798.944 4.798 3.85 0 2.908-2.412 3.876-4.798 3.876Zm-36.831-.024c-6.741 0-10.53-4.967-10.53-11.107 0-4.929 2.759-11.115 10.338-11.115 4.732 0 7.784 2.905 8.867 4.259l6.139-6.171a20.163 20.163 0 0 0-6.937-5.369 20.069 20.069 0 0 0-8.549-1.904c-11.155 0-19.958 8.298-19.958 20.3 0 11.212 8.803 20.3 19.958 20.3a20.081 20.081 0 0 0 9.125-2.184 20.19 20.19 0 0 0 7.155-6.096l-6.183-6.216c-1.955 3.078-5.141 5.298-9.425 5.298"/></svg>