<svg xmlns="http://www.w3.org/2000/svg" width="285" height="58" fill="none"><g fill="#fff" clip-path="url(#a)"><path d="m275.225 11.24-9.724 10.828V11.24h-7.037v27.335h7.037V27.066l10.408 11.509H285l-12.803-14.323 11.876-13.012h-8.848ZM246.056 21.435h-9.724V11.24h-7.041v27.335h7.041V27.797h9.724v10.778h7.037V11.24h-7.037v10.195ZM41.784 26.04c-.168 5.1-.83 6.118-3.716 6.118v6.417h1.076c7.193 0 8.922-3.689 9.188-11.893l.293-9.083h6.744v20.987h7.04V11.24H42.274l-.49 14.8ZM79.899 19.542h-5.085V11.24h-7.041v27.335h12.22c7.67 0 10.408-4.952 10.408-9.612 0-6.02-3.814-9.421-10.506-9.421m-.54 13.012h-4.541v-6.941h4.545c2.445 0 3.911 1.069 3.911 3.35 0 2.476-1.416 3.591-3.911 3.591M113.323 10.607V.459h-7.041v10.148c-8.057.664-13.483 6.362-13.483 14.267 0 7.906 5.425 13.646 13.487 14.326v10.296h7.041V39.208c8.062-.633 13.487-6.362 13.487-14.334 0-7.971-5.425-13.642-13.491-14.275m-7.041 21.998c-3.911-.536-6.352-3.447-6.352-7.723 0-4.275 2.445-7.186 6.352-7.718v15.441Zm7.041 0V17.163c3.912.533 6.372 3.436 6.372 7.711 0 4.276-2.441 7.187-6.352 7.723M153.202 30.176v-9.188c0-6.7-4.303-10.925-11.531-10.925-7.479 0-11.438 4.465-11.778 9.13h7.135c.242-1.023 1.318-2.772 4.643-2.772 2.738 0 4.494 1.263 4.494 4.567h-6.99c-6.258 0-9.967 3.253-9.967 8.69 0 5.69 4.061 9.577 9.92 9.577 4.303 0 6.681-2.017 7.722-3.545.927 1.846 2.98 2.865 5.668 2.865h2.444v-6.316c-1.271 0-1.76-.583-1.76-2.087m-7.041-1.796c0 3.156-2.249 4.952-5.179 4.952-2.542 0-4.545-.921-4.545-3.642 0-2.72 2.198-3.11 4.103-3.11h5.621v1.8ZM183.357 15.123h-7.87V7.404h18.228V.459h-25.606v38.116h15.256c8.453 0 13.299-4.175 13.299-11.847 0-7.233-4.839-11.605-13.299-11.605m-.345 16.557h-7.533v-9.915h7.526c3.911 0 6.109 1.796 6.109 4.952 0 3.253-2.198 4.951-6.109 4.951M223.576 30.176v-9.188c0-6.7-4.303-10.925-11.535-10.925-7.464.011-11.434 4.477-11.766 9.14h7.134c.247-1.021 1.322-2.77 4.643-2.77 2.738 0 4.499 1.263 4.499 4.566h-7.002c-6.259 0-9.971 3.254-9.971 8.69 0 5.68 4.064 9.566 9.924 9.566 4.303 0 6.677-2.017 7.718-3.545.931 1.846 2.984 2.865 5.671 2.865h2.441v-6.316c-1.267 0-1.756-.583-1.756-2.087m-7.041-1.796c0 3.156-2.249 4.952-5.183 4.952-2.538 0-4.545-.921-4.545-3.642 0-2.72 2.202-3.11 4.107-3.11h5.621v1.8ZM37.63 50.23H0V58h37.63v-7.77ZM25.656 5.69C24.581 2.51 23.345 0 19.108 0c-4.236 0-5.554 2.503-6.68 5.69L.781 38.575h7.722l2.687-7.816h14.864l2.5 7.816h8.214L25.656 5.69ZM13.44 24.155l5.277-15.604h.196l4.983 15.604H13.44Z"/></g><defs><clipPath id="a"><path fill="#fff" d="M0 0h285v58H0z"/></clipPath></defs></svg>