<svg width="295" height="302" viewBox="0 0 295 302" fill="none" xmlns="http://www.w3.org/2000/svg">
<mask id="mask0_421_3231" style="mask-type:alpha" maskUnits="userSpaceOnUse" x="0" y="0" width="295" height="302">
<rect x="6.10352e-05" width="294.81" height="301.806" fill="#D9D9D9"/>
</mask>
<g mask="url(#mask0_421_3231)">
<path d="M141.827 201.239L148.485 195.992V330.398H141.827V201.239Z" fill="url(#paint0_linear_421_3231)"/>
<path d="M164.328 185.481V330.399H157.721V311.741H161.025V221.348L157.721 223.972V190.711L164.328 185.481Z" fill="url(#paint1_linear_421_3231)"/>
<path d="M180.222 174.952V330.399H173.581V311.741H176.885V210.871L173.581 213.495V180.234L180.222 174.952Z" fill="url(#paint2_linear_421_3231)"/>
<path d="M196.099 164.439V330.398H189.442V311.74H192.762V200.341L189.442 202.93V169.687L196.099 164.439Z" fill="url(#paint3_linear_421_3231)"/>
<path d="M211.976 153.875V330.397H205.319V311.739H208.622V189.794L205.319 192.4V159.157L211.976 153.875Z" fill="url(#paint4_linear_421_3231)"/>
<path d="M227.854 143.364V330.398H221.196V311.739H224.55V179.231L221.196 181.889V148.646L227.854 143.364Z" fill="url(#paint5_linear_421_3231)"/>
<path d="M244.203 145.263V330.398H236.601V311.74H240.377V176.902L236.601 175.279V142.036L244.203 145.263Z" fill="url(#paint6_linear_421_3231)"/>
<path d="M260.08 151.788V330.398H252.479V311.74H256.254V183.426L252.479 181.769V148.525L260.08 151.788Z" fill="url(#paint7_linear_421_3231)"/>
<path d="M275.941 158.312V330.398H268.356V311.739H272.131V189.915L268.356 188.293V155.049L275.941 158.312Z" fill="url(#paint8_linear_421_3231)"/>
<path d="M291.818 164.837V330.399H284.233V311.74H288.042V196.441L284.233 194.835V161.575L291.818 164.837Z" fill="url(#paint9_linear_421_3231)"/>
</g>
<defs>
<linearGradient id="paint0_linear_421_3231" x1="145.156" y1="195.992" x2="131.301" y2="308.354" gradientUnits="userSpaceOnUse">
<stop stop-color="#DBBC9A" stop-opacity="0.27"/>
<stop offset="1" stop-color="#DBBC9A" stop-opacity="0"/>
</linearGradient>
<linearGradient id="paint1_linear_421_3231" x1="161.025" y1="185.481" x2="144.839" y2="306.305" gradientUnits="userSpaceOnUse">
<stop stop-color="#DBBC9A" stop-opacity="0.27"/>
<stop offset="1" stop-color="#DBBC9A" stop-opacity="0"/>
</linearGradient>
<linearGradient id="paint2_linear_421_3231" x1="176.902" y1="174.952" x2="158.418" y2="304.238" gradientUnits="userSpaceOnUse">
<stop stop-color="#DBBC9A" stop-opacity="0.27"/>
<stop offset="1" stop-color="#DBBC9A" stop-opacity="0"/>
</linearGradient>
<linearGradient id="paint3_linear_421_3231" x1="192.771" y1="164.439" x2="171.813" y2="302.098" gradientUnits="userSpaceOnUse">
<stop stop-color="#DBBC9A" stop-opacity="0.27"/>
<stop offset="1" stop-color="#DBBC9A" stop-opacity="0"/>
</linearGradient>
<linearGradient id="paint4_linear_421_3231" x1="208.648" y1="153.875" x2="185.007" y2="299.861" gradientUnits="userSpaceOnUse">
<stop stop-color="#DBBC9A" stop-opacity="0.27"/>
<stop offset="1" stop-color="#DBBC9A" stop-opacity="0"/>
</linearGradient>
<linearGradient id="paint5_linear_421_3231" x1="224.525" y1="143.364" x2="198.068" y2="297.56" gradientUnits="userSpaceOnUse">
<stop stop-color="#DBBC9A" stop-opacity="0.27"/>
<stop offset="1" stop-color="#DBBC9A" stop-opacity="0"/>
</linearGradient>
<linearGradient id="paint6_linear_421_3231" x1="240.402" y1="142.036" x2="216.75" y2="298.319" gradientUnits="userSpaceOnUse">
<stop stop-color="#DBBC9A" stop-opacity="0.27"/>
<stop offset="1" stop-color="#DBBC9A" stop-opacity="0"/>
</linearGradient>
<linearGradient id="paint7_linear_421_3231" x1="256.279" y1="148.525" x2="234.195" y2="299.654" gradientUnits="userSpaceOnUse">
<stop stop-color="#DBBC9A" stop-opacity="0.27"/>
<stop offset="1" stop-color="#DBBC9A" stop-opacity="0"/>
</linearGradient>
<linearGradient id="paint8_linear_421_3231" x1="272.148" y1="155.049" x2="251.546" y2="300.958" gradientUnits="userSpaceOnUse">
<stop stop-color="#DBBC9A" stop-opacity="0.27"/>
<stop offset="1" stop-color="#DBBC9A" stop-opacity="0"/>
</linearGradient>
<linearGradient id="paint9_linear_421_3231" x1="288.025" y1="161.575" x2="268.9" y2="302.256" gradientUnits="userSpaceOnUse">
<stop stop-color="#DBBC9A" stop-opacity="0.27"/>
<stop offset="1" stop-color="#DBBC9A" stop-opacity="0"/>
</linearGradient>
</defs>
</svg>
