<svg xmlns="http://www.w3.org/2000/svg" width="295" height="302" fill="none"><mask id="a" width="295" height="302" x="0" y="0" maskUnits="userSpaceOnUse" style="mask-type:alpha"><path fill="#D9D9D9" d="M0 0h294.81v301.806H0z"/></mask><g mask="url(#a)"><path fill="url(#b)" d="m141.827 201.239 6.658-5.247v134.406h-6.658V201.239Z"/><path fill="url(#c)" d="M164.328 185.481v144.918h-6.607v-18.658h3.304v-90.393l-3.304 2.624v-33.261l6.607-5.23Z"/><path fill="url(#d)" d="M180.222 174.952v155.447h-6.641v-18.658h3.304v-100.87l-3.304 2.624v-33.261l6.641-5.282Z"/><path fill="url(#e)" d="M196.099 164.439v165.959h-6.657V311.74h3.32V200.341l-3.32 2.589v-33.243l6.657-5.248Z"/><path fill="url(#f)" d="M211.976 153.875v176.522h-6.657v-18.658h3.303V189.794l-3.303 2.606v-33.243l6.657-5.282Z"/><path fill="url(#g)" d="M227.854 143.364v187.034h-6.658v-18.659h3.354V179.231l-3.354 2.658v-33.243l6.658-5.282Z"/><path fill="url(#h)" d="M244.203 145.263v185.135h-7.602V311.74h3.776V176.902l-3.776-1.623v-33.243l7.602 3.227Z"/><path fill="url(#i)" d="M260.08 151.788v178.61h-7.601V311.74h3.775V183.426l-3.775-1.657v-33.244l7.601 3.263Z"/><path fill="url(#j)" d="M275.941 158.312v172.086h-7.585v-18.659h3.775V189.915l-3.775-1.622v-33.244l7.585 3.263Z"/><path fill="url(#k)" d="M291.818 164.837v165.562h-7.585V311.74h3.809V196.441l-3.809-1.606v-33.26l7.585 3.262Z"/></g><defs><linearGradient id="b" x1="145.156" x2="131.301" y1="195.992" y2="308.354" gradientUnits="userSpaceOnUse"><stop stop-color="#DBBC9A" stop-opacity=".27"/><stop offset="1" stop-color="#DBBC9A" stop-opacity="0"/></linearGradient><linearGradient id="c" x1="161.025" x2="144.839" y1="185.481" y2="306.305" gradientUnits="userSpaceOnUse"><stop stop-color="#DBBC9A" stop-opacity=".27"/><stop offset="1" stop-color="#DBBC9A" stop-opacity="0"/></linearGradient><linearGradient id="d" x1="176.902" x2="158.418" y1="174.952" y2="304.238" gradientUnits="userSpaceOnUse"><stop stop-color="#DBBC9A" stop-opacity=".27"/><stop offset="1" stop-color="#DBBC9A" stop-opacity="0"/></linearGradient><linearGradient id="e" x1="192.771" x2="171.813" y1="164.439" y2="302.098" gradientUnits="userSpaceOnUse"><stop stop-color="#DBBC9A" stop-opacity=".27"/><stop offset="1" stop-color="#DBBC9A" stop-opacity="0"/></linearGradient><linearGradient id="f" x1="208.648" x2="185.007" y1="153.875" y2="299.861" gradientUnits="userSpaceOnUse"><stop stop-color="#DBBC9A" stop-opacity=".27"/><stop offset="1" stop-color="#DBBC9A" stop-opacity="0"/></linearGradient><linearGradient id="g" x1="224.525" x2="198.068" y1="143.364" y2="297.56" gradientUnits="userSpaceOnUse"><stop stop-color="#DBBC9A" stop-opacity=".27"/><stop offset="1" stop-color="#DBBC9A" stop-opacity="0"/></linearGradient><linearGradient id="h" x1="240.402" x2="216.75" y1="142.036" y2="298.319" gradientUnits="userSpaceOnUse"><stop stop-color="#DBBC9A" stop-opacity=".27"/><stop offset="1" stop-color="#DBBC9A" stop-opacity="0"/></linearGradient><linearGradient id="i" x1="256.279" x2="234.195" y1="148.525" y2="299.654" gradientUnits="userSpaceOnUse"><stop stop-color="#DBBC9A" stop-opacity=".27"/><stop offset="1" stop-color="#DBBC9A" stop-opacity="0"/></linearGradient><linearGradient id="j" x1="272.148" x2="251.546" y1="155.049" y2="300.958" gradientUnits="userSpaceOnUse"><stop stop-color="#DBBC9A" stop-opacity=".27"/><stop offset="1" stop-color="#DBBC9A" stop-opacity="0"/></linearGradient><linearGradient id="k" x1="288.025" x2="268.9" y1="161.575" y2="302.256" gradientUnits="userSpaceOnUse"><stop stop-color="#DBBC9A" stop-opacity=".27"/><stop offset="1" stop-color="#DBBC9A" stop-opacity="0"/></linearGradient></defs></svg>