<svg xmlns="http://www.w3.org/2000/svg" width="289" height="58" fill="none"><g fill="#fff" fill-rule="evenodd" clip-path="url(#a)" clip-rule="evenodd"><path d="M0 31.062a26.96 26.96 0 0 0 2.77 11.914 26.927 26.927 0 0 0 7.745 9.459C18.252 42.225 20.99 30.826 20.99 9.294V4.803a25.93 25.93 0 0 0-5.277 1.789v5.005c0 14.022-2.854 21.255-9.006 27.691a21.93 21.93 0 0 1 5.752-24.55V8.38a26.783 26.783 0 0 0-9.146 9.735A26.821 26.821 0 0 0 0 31.062Zm19.799 25.982c2.297.637 4.67.954 7.054.942a26.191 26.191 0 0 0 7.102-.942C30.78 41.95 29.51 32.254 29.51 7.468V.118a29.502 29.502 0 0 0-5.277 0v7.35c.01 24.786-1.26 34.48-4.434 49.576Zm12.975-47.75c0 21.533 2.737 32.932 10.473 43.14a26.832 26.832 0 0 0 8.036-9.97 26.866 26.866 0 0 0-1.096-24.86 26.825 26.825 0 0 0-8.882-9.223v6.357a21.79 21.79 0 0 1 7.379 16.324c.013 2.824-.54 5.621-1.627 8.226-6.147-6.399-9.006-13.655-9.006-27.69V6.591a25.844 25.844 0 0 0-5.277-1.79v4.493ZM121.555 41.181a6.988 6.988 0 0 1-6.438-4.346 7.01 7.01 0 0 1 1.539-7.62 6.99 6.99 0 0 1 7.619-1.5 7.002 7.002 0 0 1 4.306 6.47 6.932 6.932 0 0 1-2.038 4.983 6.918 6.918 0 0 1-4.988 2.013Zm1.382-20.501c-3.79 0-6.631 1.44-8.027 3.828h-.311V21.41h-6.847v32.809h6.847V43.846h.311c1.41 2.387 4.232 3.823 8.027 3.823 7.102 0 12.698-5.975 12.698-13.485s-5.596-13.504-12.698-13.504ZM100.434 13.73l-7.788 16.367L82.16 13.73h-8.413l15.383 23.745-.273.57c-.691 1.413-1.529 2.044-3.532 2.044h-4.877v6.888h5.79c4.702 0 6.583-1.276 8.554-5.32l13.473-27.927h-7.83ZM275.423 41.148c-3.762 0-6.584-2.773-6.584-6.526a6.39 6.39 0 0 1 .447-2.554 6.39 6.39 0 0 1 6.137-4.038c3.762 0 6.518 2.825 6.518 6.592a6.38 6.38 0 0 1-1.86 4.664 6.36 6.36 0 0 1-4.658 1.862Zm1.712-18.523c-3.875 0-6.923 1.544-8.766 4.237h-.306c.527-5.099 2.854-7.378 8.512-8.131l10.299-1.347v-6.64l-11.508 1.682c-9.608 1.384-13.431 5.83-13.981 15.783-.616 11.3 3.207 19.465 14.202 19.465 7.572 0 13.437-5.65 13.437-13.047 0-7.11-4.844-11.998-11.871-11.998l-.018-.004ZM152.65 41.181a6.988 6.988 0 0 1-6.491-4.294 7.01 7.01 0 0 1 1.49-7.645 6.994 6.994 0 0 1 7.628-1.534 6.999 6.999 0 0 1 4.324 6.476 6.935 6.935 0 0 1-2.011 4.957 6.913 6.913 0 0 1-4.94 2.04Zm6.951-16.659h-.334c-1.411-2.387-4.284-3.828-7.995-3.828-7.097 0-12.698 5.98-12.698 13.49s5.611 13.485 12.698 13.485c3.72 0 6.584-1.436 7.995-3.823h.334v3.098h6.847v-25.52h-6.847v3.098ZM215.391 27.272a6.579 6.579 0 0 1 6.226 4.045l5.973-2.623c-1.566-4.85-6.41-8.005-12.345-8.005-8.047 0-13.615 5.834-13.615 13.49 0 7.657 5.568 13.486 13.615 13.486 5.935 0 10.779-3.132 12.345-7.981l-5.973-2.628a6.58 6.58 0 0 1-6.226 4.05c-3.894 0-6.697-2.882-6.697-6.927 0-4.044 2.794-6.907 6.697-6.907ZM175.624 21.462l-1.148 15.82c-.183 2.477-.983 3.39-2.878 3.39h-1.674v6.451h4.082c4.59 0 6.584-2.184 6.955-7.289l.861-11.738h8.465V46.93h6.918V21.462h-21.581ZM249.317 21.424l-10.995 16.395V21.424h-6.847v25.52h7.209l10.925-16.291v16.291h6.843v-25.52h-7.135Z"/></g><defs><clipPath id="a"><path fill="#fff" d="M0 0h289v58H0z"/></clipPath></defs></svg>