<svg xmlns="http://www.w3.org/2000/svg" width="164" height="58" fill="none"><g clip-path="url(#a)"><path fill="#fff" fill-rule="evenodd" d="M11.143 0 8.354 7.528h38.627L49.769 0H11.142ZM6.96 11.29l-2.788 7.526H42.8l2.787-7.526H6.961ZM2.787 22.58 0 30.106h38.627l2.785-7.526H2.787Z" clip-rule="evenodd"/><mask id="b" width="107" height="47" x="57" y="11" maskUnits="userSpaceOnUse" style="mask-type:luminance"><path fill="#fff" d="M57.952 57.548h105.736V11.435H57.952v46.113Z"/></mask><g mask="url(#b)"><path fill="#fff" fill-rule="evenodd" d="M82.118 32.975v.159c1.765.639 3.451 1.756 4.335 2.473 2.729 2.234 3.934 5.186 3.934 9.015 0 6.305-3.372 10.852-8.912 12.288-1.686.478-3.452.639-6.745.639H57.952V11.435h14.853c3.05 0 5.137.159 6.983.637 5.38 1.436 8.913 5.107 8.913 10.93 0 3.112-1.124 5.746-2.97 7.5-.803.797-1.927 1.756-3.613 2.473Zm-14.853 4.866V49.97h6.423c1.925 0 3.692-.16 4.978-1.357 1.284-1.197 1.846-2.712 1.846-4.707 0-1.515-.402-2.952-1.205-3.988-1.365-1.676-3.05-2.076-5.94-2.076h-6.102Zm-.08-7.978h5.218c1.605 0 2.408 0 3.21-.24 2.17-.638 3.534-2.55 3.534-5.185 0-3.11-1.445-4.468-3.534-5.105-.883-.24-1.765-.32-3.532-.32h-4.897v10.85Zm37.171 27.686V19.172H90.949v-7.737h37.253l-2.649 7.737h-11.884V57.55h-9.313Zm26.735 0V11.435h30.189l-2.649 7.737h-18.306v10.213h7.467c6.021 0 9.153 1.436 11.32 3.27 1.686 1.437 4.576 4.628 4.576 10.932 0 6.223-2.97 9.652-5.459 11.408-2.89 1.994-5.941 2.554-12.123 2.554h-15.015Zm9.234-7.74h6.985c2.649 0 4.255-.638 5.379-2.075.562-.717 1.365-1.995 1.365-4.388 0-2.392-.803-4.068-2.409-5.265-.962-.718-2.248-1.116-4.415-1.116h-6.905V49.81Z" clip-rule="evenodd"/></g></g><defs><clipPath id="a"><path fill="#fff" d="M0 0h164v58H0z"/></clipPath></defs></svg>